G04 #@! TF.FileFunction,Soldermask,Top*
%FSLAX46Y46*%
G04 Gerber Fmt 4.6, Leading zero omitted, Abs format (unit mm)*
G04 Created by KiCad (PCBNEW 4.0.6) date 07/23/18 23:10:11*
%MOMM*%
%LPD*%
G01*
G04 APERTURE LIST*
%ADD10C,0.100000*%
%ADD11R,2.300000X1.200000*%
%ADD12C,5.401260*%
%ADD13C,4.050000*%
%ADD14R,1.900000X1.900000*%
%ADD15C,1.900000*%
%ADD16R,2.000000X2.400000*%
%ADD17R,1.900000X0.800000*%
%ADD18O,3.399740X5.401260*%
%ADD19R,1.950000X1.000000*%
%ADD20R,1.650000X1.900000*%
%ADD21R,1.900000X1.650000*%
%ADD22R,1.400000X1.400000*%
%ADD23R,1.900000X1.700000*%
%ADD24R,1.700000X1.900000*%
%ADD25R,2.100000X2.100000*%
%ADD26O,2.100000X2.100000*%
G04 APERTURE END LIST*
D10*
D11*
X159000000Y-97450000D03*
X159000000Y-95550000D03*
X156000000Y-96500000D03*
D12*
X162500000Y-107250000D03*
X162500000Y-117410000D03*
D13*
X147270000Y-71500000D03*
X159140000Y-71500000D03*
D14*
X157650000Y-77850000D03*
D15*
X156380000Y-80390000D03*
X155110000Y-77850000D03*
X153840000Y-80390000D03*
X152570000Y-77850000D03*
X151300000Y-80390000D03*
X150030000Y-77850000D03*
X148760000Y-80390000D03*
D16*
X165500000Y-98750000D03*
X165500000Y-94750000D03*
D12*
X142300000Y-89400000D03*
X142300000Y-79240000D03*
D17*
X155330000Y-91650000D03*
X155330000Y-91000000D03*
X155330000Y-90350000D03*
X152670000Y-90350000D03*
X152670000Y-91650000D03*
D18*
X156459860Y-118050000D03*
X152500000Y-118050000D03*
X148540140Y-118050000D03*
D19*
X149550000Y-106345000D03*
X149550000Y-107615000D03*
X149550000Y-108885000D03*
X149550000Y-110155000D03*
X154950000Y-110155000D03*
X154950000Y-108885000D03*
X154950000Y-107615000D03*
X154950000Y-106345000D03*
D20*
X154500000Y-100750000D03*
X154500000Y-103250000D03*
D21*
X141450000Y-100700000D03*
X143950000Y-100700000D03*
D20*
X164900000Y-85700000D03*
X164900000Y-83200000D03*
D22*
X165500000Y-101250000D03*
X163000000Y-101250000D03*
D23*
X143100000Y-72500000D03*
X140400000Y-72500000D03*
X143250000Y-98500000D03*
X140550000Y-98500000D03*
X143300000Y-94200000D03*
X140600000Y-94200000D03*
D11*
X149250000Y-95550000D03*
X149250000Y-97450000D03*
X152250000Y-96500000D03*
X165500000Y-79200000D03*
X165500000Y-77300000D03*
X162500000Y-78250000D03*
D24*
X163250000Y-97850000D03*
X163250000Y-95150000D03*
X164750000Y-89150000D03*
X164750000Y-91850000D03*
X146500000Y-108650000D03*
X146500000Y-111350000D03*
D23*
X140400000Y-74500000D03*
X143100000Y-74500000D03*
D24*
X148500000Y-103350000D03*
X148500000Y-100650000D03*
X151500000Y-100650000D03*
X151500000Y-103350000D03*
D23*
X154850000Y-113000000D03*
X152150000Y-113000000D03*
D24*
X158000000Y-108900000D03*
X158000000Y-111600000D03*
X157750000Y-102400000D03*
X157750000Y-105100000D03*
D23*
X146900000Y-91250000D03*
X149600000Y-91250000D03*
D24*
X145750000Y-95750000D03*
X145750000Y-98450000D03*
X156000000Y-83900000D03*
X156000000Y-86600000D03*
X150000000Y-83900000D03*
X150000000Y-86600000D03*
X161900000Y-83000000D03*
X161900000Y-85700000D03*
X152750000Y-83900000D03*
X152750000Y-86600000D03*
D25*
X143000000Y-108750000D03*
D26*
X140460000Y-106210000D03*
X143000000Y-103670000D03*
D23*
X140650000Y-113500000D03*
X143350000Y-113500000D03*
D24*
X160750000Y-100650000D03*
X160750000Y-103350000D03*
M02*
