G04 #@! TF.FileFunction,Legend,Top*
%FSLAX46Y46*%
G04 Gerber Fmt 4.6, Leading zero omitted, Abs format (unit mm)*
G04 Created by KiCad (PCBNEW 4.0.6) date 07/23/18 23:10:11*
%MOMM*%
%LPD*%
G01*
G04 APERTURE LIST*
%ADD10C,0.100000*%
%ADD11C,0.120000*%
%ADD12C,0.150000*%
G04 APERTURE END LIST*
D10*
D11*
X156740000Y-94920000D02*
X156740000Y-95850000D01*
X156740000Y-98080000D02*
X156740000Y-97150000D01*
X156740000Y-98080000D02*
X159900000Y-98080000D01*
X156740000Y-94920000D02*
X158200000Y-94920000D01*
X160820000Y-63630000D02*
X145580000Y-63630000D01*
X145580000Y-81660000D02*
X145590000Y-72670000D01*
X145580000Y-81660000D02*
X160820000Y-81660000D01*
X160820000Y-81660000D02*
X160820000Y-72660000D01*
X145590000Y-70330000D02*
X145580000Y-63630000D01*
X160820000Y-70340000D02*
X160820000Y-63630000D01*
X164480000Y-95750000D02*
X164480000Y-97750000D01*
X166520000Y-97750000D02*
X166520000Y-95750000D01*
X153300000Y-92160000D02*
X155200000Y-92160000D01*
X154700000Y-89840000D02*
X153300000Y-89840000D01*
D12*
X158060060Y-123698960D02*
X158060060Y-123150320D01*
X146939940Y-123150320D02*
X146939940Y-123698960D01*
X146939940Y-123698960D02*
X158060060Y-123698960D01*
X158060060Y-115918940D02*
X158060060Y-112949680D01*
X158060060Y-112949680D02*
X152500000Y-112949680D01*
X146939940Y-120181060D02*
X146939940Y-123150320D01*
X146939940Y-123150320D02*
X158060060Y-123150320D01*
X158060060Y-123150320D02*
X158060060Y-120181060D01*
X152500000Y-112949680D02*
X146939940Y-112949680D01*
X146939940Y-112949680D02*
X146939940Y-115918940D01*
X150175000Y-105675000D02*
X150175000Y-105725000D01*
X154325000Y-105675000D02*
X154325000Y-105820000D01*
X154325000Y-110825000D02*
X154325000Y-110680000D01*
X150175000Y-110825000D02*
X150175000Y-110680000D01*
X150175000Y-105675000D02*
X154325000Y-105675000D01*
X150175000Y-110825000D02*
X154325000Y-110825000D01*
X150175000Y-105725000D02*
X148775000Y-105725000D01*
D11*
X155350000Y-102500000D02*
X155350000Y-101500000D01*
X153650000Y-101500000D02*
X153650000Y-102500000D01*
X143200000Y-99850000D02*
X142200000Y-99850000D01*
X142200000Y-101550000D02*
X143200000Y-101550000D01*
X164050000Y-83950000D02*
X164050000Y-84950000D01*
X165750000Y-84950000D02*
X165750000Y-83950000D01*
X166150000Y-102100000D02*
X166150000Y-100400000D01*
X166150000Y-100400000D02*
X163000000Y-100400000D01*
X166150000Y-102100000D02*
X163000000Y-102100000D01*
X140750000Y-71750000D02*
X143950000Y-71750000D01*
X143950000Y-73250000D02*
X140750000Y-73250000D01*
X143950000Y-73250000D02*
X143950000Y-71750000D01*
X140900000Y-97750000D02*
X144100000Y-97750000D01*
X144100000Y-99250000D02*
X140900000Y-99250000D01*
X144100000Y-99250000D02*
X144100000Y-97750000D01*
X140950000Y-93450000D02*
X144150000Y-93450000D01*
X144150000Y-94950000D02*
X140950000Y-94950000D01*
X144150000Y-94950000D02*
X144150000Y-93450000D01*
X151510000Y-98080000D02*
X151510000Y-97150000D01*
X151510000Y-94920000D02*
X151510000Y-95850000D01*
X151510000Y-94920000D02*
X148350000Y-94920000D01*
X151510000Y-98080000D02*
X150050000Y-98080000D01*
X163240000Y-76670000D02*
X163240000Y-77600000D01*
X163240000Y-79830000D02*
X163240000Y-78900000D01*
X163240000Y-79830000D02*
X166400000Y-79830000D01*
X163240000Y-76670000D02*
X164700000Y-76670000D01*
X164130000Y-95900000D02*
X164130000Y-97100000D01*
X162370000Y-97100000D02*
X162370000Y-95900000D01*
X163870000Y-91100000D02*
X163870000Y-89900000D01*
X165630000Y-89900000D02*
X165630000Y-91100000D01*
X145620000Y-110600000D02*
X145620000Y-109400000D01*
X147380000Y-109400000D02*
X147380000Y-110600000D01*
X142350000Y-75380000D02*
X141150000Y-75380000D01*
X141150000Y-73620000D02*
X142350000Y-73620000D01*
X149380000Y-101400000D02*
X149380000Y-102600000D01*
X147620000Y-102600000D02*
X147620000Y-101400000D01*
X150620000Y-102600000D02*
X150620000Y-101400000D01*
X152380000Y-101400000D02*
X152380000Y-102600000D01*
X152900000Y-112120000D02*
X154100000Y-112120000D01*
X154100000Y-113880000D02*
X152900000Y-113880000D01*
X157120000Y-110850000D02*
X157120000Y-109650000D01*
X158880000Y-109650000D02*
X158880000Y-110850000D01*
X156870000Y-104350000D02*
X156870000Y-103150000D01*
X158630000Y-103150000D02*
X158630000Y-104350000D01*
X148850000Y-92130000D02*
X147650000Y-92130000D01*
X147650000Y-90370000D02*
X148850000Y-90370000D01*
X144870000Y-97700000D02*
X144870000Y-96500000D01*
X146630000Y-96500000D02*
X146630000Y-97700000D01*
X155120000Y-85850000D02*
X155120000Y-84650000D01*
X156880000Y-84650000D02*
X156880000Y-85850000D01*
X149120000Y-85850000D02*
X149120000Y-84650000D01*
X150880000Y-84650000D02*
X150880000Y-85850000D01*
X161020000Y-84950000D02*
X161020000Y-83750000D01*
X162780000Y-83750000D02*
X162780000Y-84950000D01*
X151870000Y-85850000D02*
X151870000Y-84650000D01*
X153630000Y-84650000D02*
X153630000Y-85850000D01*
X144330000Y-102340000D02*
X139130000Y-102340000D01*
X144330000Y-107480000D02*
X144330000Y-102340000D01*
X139130000Y-110080000D02*
X139130000Y-102340000D01*
X144330000Y-107480000D02*
X141730000Y-107480000D01*
X141730000Y-107480000D02*
X141730000Y-110080000D01*
X141730000Y-110080000D02*
X139130000Y-110080000D01*
X144330000Y-108750000D02*
X144330000Y-110080000D01*
X144330000Y-110080000D02*
X143000000Y-110080000D01*
X142600000Y-114380000D02*
X141400000Y-114380000D01*
X141400000Y-112620000D02*
X142600000Y-112620000D01*
X159870000Y-102600000D02*
X159870000Y-101400000D01*
X161630000Y-101400000D02*
X161630000Y-102600000D01*
D12*
X157254762Y-94647619D02*
X157159524Y-94600000D01*
X157064286Y-94504762D01*
X156921429Y-94361905D01*
X156826190Y-94314286D01*
X156730952Y-94314286D01*
X156778571Y-94552381D02*
X156683333Y-94504762D01*
X156588095Y-94409524D01*
X156540476Y-94219048D01*
X156540476Y-93885714D01*
X156588095Y-93695238D01*
X156683333Y-93600000D01*
X156778571Y-93552381D01*
X156969048Y-93552381D01*
X157064286Y-93600000D01*
X157159524Y-93695238D01*
X157207143Y-93885714D01*
X157207143Y-94219048D01*
X157159524Y-94409524D01*
X157064286Y-94504762D01*
X156969048Y-94552381D01*
X156778571Y-94552381D01*
X158159524Y-94552381D02*
X157588095Y-94552381D01*
X157873809Y-94552381D02*
X157873809Y-93552381D01*
X157778571Y-93695238D01*
X157683333Y-93790476D01*
X157588095Y-93838095D01*
X162416667Y-111102381D02*
X162416667Y-111816667D01*
X162369047Y-111959524D01*
X162273809Y-112054762D01*
X162130952Y-112102381D01*
X162035714Y-112102381D01*
X163416667Y-112102381D02*
X162845238Y-112102381D01*
X163130952Y-112102381D02*
X163130952Y-111102381D01*
X163035714Y-111245238D01*
X162940476Y-111340476D01*
X162845238Y-111388095D01*
X161345238Y-112935714D02*
X161726190Y-112935714D01*
X161488095Y-112602381D02*
X161488095Y-113459524D01*
X161535714Y-113554762D01*
X161630952Y-113602381D01*
X161726190Y-113602381D01*
X162059524Y-113602381D02*
X162059524Y-112602381D01*
X162488096Y-113602381D02*
X162488096Y-113078571D01*
X162440477Y-112983333D01*
X162345239Y-112935714D01*
X162202381Y-112935714D01*
X162107143Y-112983333D01*
X162059524Y-113030952D01*
X162964286Y-113602381D02*
X162964286Y-112935714D01*
X162964286Y-113126190D02*
X163011905Y-113030952D01*
X163059524Y-112983333D01*
X163154762Y-112935714D01*
X163250001Y-112935714D01*
X164011906Y-112935714D02*
X164011906Y-113602381D01*
X163583334Y-112935714D02*
X163583334Y-113459524D01*
X163630953Y-113554762D01*
X163726191Y-113602381D01*
X163869049Y-113602381D01*
X163964287Y-113554762D01*
X164011906Y-113507143D01*
X150916667Y-73952381D02*
X150916667Y-74666667D01*
X150869047Y-74809524D01*
X150773809Y-74904762D01*
X150630952Y-74952381D01*
X150535714Y-74952381D01*
X151297619Y-73952381D02*
X151916667Y-73952381D01*
X151583333Y-74333333D01*
X151726191Y-74333333D01*
X151821429Y-74380952D01*
X151869048Y-74428571D01*
X151916667Y-74523810D01*
X151916667Y-74761905D01*
X151869048Y-74857143D01*
X151821429Y-74904762D01*
X151726191Y-74952381D01*
X151440476Y-74952381D01*
X151345238Y-74904762D01*
X151297619Y-74857143D01*
X164733334Y-93357143D02*
X164685715Y-93404762D01*
X164542858Y-93452381D01*
X164447620Y-93452381D01*
X164304762Y-93404762D01*
X164209524Y-93309524D01*
X164161905Y-93214286D01*
X164114286Y-93023810D01*
X164114286Y-92880952D01*
X164161905Y-92690476D01*
X164209524Y-92595238D01*
X164304762Y-92500000D01*
X164447620Y-92452381D01*
X164542858Y-92452381D01*
X164685715Y-92500000D01*
X164733334Y-92547619D01*
X165685715Y-93452381D02*
X165114286Y-93452381D01*
X165400000Y-93452381D02*
X165400000Y-92452381D01*
X165304762Y-92595238D01*
X165209524Y-92690476D01*
X165114286Y-92738095D01*
X161169047Y-98811905D02*
X161245238Y-98811905D01*
X161321428Y-98850000D01*
X161359523Y-98888095D01*
X161397619Y-98964286D01*
X161435714Y-99116667D01*
X161435714Y-99307143D01*
X161397619Y-99459524D01*
X161359523Y-99535714D01*
X161321428Y-99573810D01*
X161245238Y-99611905D01*
X161169047Y-99611905D01*
X161092857Y-99573810D01*
X161054761Y-99535714D01*
X161016666Y-99459524D01*
X160978571Y-99307143D01*
X160978571Y-99116667D01*
X161016666Y-98964286D01*
X161054761Y-98888095D01*
X161092857Y-98850000D01*
X161169047Y-98811905D01*
X161778571Y-99535714D02*
X161816666Y-99573810D01*
X161778571Y-99611905D01*
X161740476Y-99573810D01*
X161778571Y-99535714D01*
X161778571Y-99611905D01*
X162502380Y-99078571D02*
X162502380Y-99611905D01*
X162311904Y-98773810D02*
X162121428Y-99345238D01*
X162616666Y-99345238D01*
X162845238Y-98811905D02*
X163378571Y-98811905D01*
X163035714Y-99611905D01*
X164026190Y-99078571D02*
X164026190Y-99611905D01*
X163683333Y-99078571D02*
X163683333Y-99497619D01*
X163721428Y-99573810D01*
X163797619Y-99611905D01*
X163911905Y-99611905D01*
X163988095Y-99573810D01*
X164026190Y-99535714D01*
X164292857Y-99078571D02*
X164597619Y-99078571D01*
X164407143Y-99611905D02*
X164407143Y-98926190D01*
X164445238Y-98850000D01*
X164521429Y-98811905D01*
X164597619Y-98811905D01*
X141966667Y-83352381D02*
X141966667Y-84066667D01*
X141919047Y-84209524D01*
X141823809Y-84304762D01*
X141680952Y-84352381D01*
X141585714Y-84352381D01*
X142395238Y-83447619D02*
X142442857Y-83400000D01*
X142538095Y-83352381D01*
X142776191Y-83352381D01*
X142871429Y-83400000D01*
X142919048Y-83447619D01*
X142966667Y-83542857D01*
X142966667Y-83638095D01*
X142919048Y-83780952D01*
X142347619Y-84352381D01*
X142966667Y-84352381D01*
X141847619Y-85852381D02*
X141847619Y-85185714D01*
X141847619Y-84852381D02*
X141800000Y-84900000D01*
X141847619Y-84947619D01*
X141895238Y-84900000D01*
X141847619Y-84852381D01*
X141847619Y-84947619D01*
X142323809Y-85185714D02*
X142323809Y-85852381D01*
X142323809Y-85280952D02*
X142371428Y-85233333D01*
X142466666Y-85185714D01*
X142609524Y-85185714D01*
X142704762Y-85233333D01*
X142752381Y-85328571D01*
X142752381Y-85852381D01*
X156688095Y-90452381D02*
X156688095Y-91261905D01*
X156735714Y-91357143D01*
X156783333Y-91404762D01*
X156878571Y-91452381D01*
X157069048Y-91452381D01*
X157164286Y-91404762D01*
X157211905Y-91357143D01*
X157259524Y-91261905D01*
X157259524Y-90452381D01*
X157688095Y-90547619D02*
X157735714Y-90500000D01*
X157830952Y-90452381D01*
X158069048Y-90452381D01*
X158164286Y-90500000D01*
X158211905Y-90547619D01*
X158259524Y-90642857D01*
X158259524Y-90738095D01*
X158211905Y-90880952D01*
X157640476Y-91452381D01*
X158259524Y-91452381D01*
X158666667Y-120202381D02*
X158666667Y-120916667D01*
X158619047Y-121059524D01*
X158523809Y-121154762D01*
X158380952Y-121202381D01*
X158285714Y-121202381D01*
X159571429Y-120535714D02*
X159571429Y-121202381D01*
X159333333Y-120154762D02*
X159095238Y-120869048D01*
X159714286Y-120869048D01*
X145964285Y-121702381D02*
X145488094Y-121702381D01*
X145488094Y-120702381D01*
X146297618Y-121178571D02*
X146630952Y-121178571D01*
X146773809Y-121702381D02*
X146297618Y-121702381D01*
X146297618Y-120702381D01*
X146773809Y-120702381D01*
X147202380Y-121702381D02*
X147202380Y-120702381D01*
X147440475Y-120702381D01*
X147583333Y-120750000D01*
X147678571Y-120845238D01*
X147726190Y-120940476D01*
X147773809Y-121130952D01*
X147773809Y-121273810D01*
X147726190Y-121464286D01*
X147678571Y-121559524D01*
X147583333Y-121654762D01*
X147440475Y-121702381D01*
X147202380Y-121702381D01*
X149535714Y-121607143D02*
X149488095Y-121654762D01*
X149345238Y-121702381D01*
X149250000Y-121702381D01*
X149107142Y-121654762D01*
X149011904Y-121559524D01*
X148964285Y-121464286D01*
X148916666Y-121273810D01*
X148916666Y-121130952D01*
X148964285Y-120940476D01*
X149011904Y-120845238D01*
X149107142Y-120750000D01*
X149250000Y-120702381D01*
X149345238Y-120702381D01*
X149488095Y-120750000D01*
X149535714Y-120797619D01*
X150107142Y-121702381D02*
X150011904Y-121654762D01*
X149964285Y-121607143D01*
X149916666Y-121511905D01*
X149916666Y-121226190D01*
X149964285Y-121130952D01*
X150011904Y-121083333D01*
X150107142Y-121035714D01*
X150250000Y-121035714D01*
X150345238Y-121083333D01*
X150392857Y-121130952D01*
X150440476Y-121226190D01*
X150440476Y-121511905D01*
X150392857Y-121607143D01*
X150345238Y-121654762D01*
X150250000Y-121702381D01*
X150107142Y-121702381D01*
X150869047Y-121035714D02*
X150869047Y-121702381D01*
X150869047Y-121130952D02*
X150916666Y-121083333D01*
X151011904Y-121035714D01*
X151154762Y-121035714D01*
X151250000Y-121083333D01*
X151297619Y-121178571D01*
X151297619Y-121702381D01*
X151773809Y-121035714D02*
X151773809Y-121702381D01*
X151773809Y-121130952D02*
X151821428Y-121083333D01*
X151916666Y-121035714D01*
X152059524Y-121035714D01*
X152154762Y-121083333D01*
X152202381Y-121178571D01*
X152202381Y-121702381D01*
X153059524Y-121654762D02*
X152964286Y-121702381D01*
X152773809Y-121702381D01*
X152678571Y-121654762D01*
X152630952Y-121559524D01*
X152630952Y-121178571D01*
X152678571Y-121083333D01*
X152773809Y-121035714D01*
X152964286Y-121035714D01*
X153059524Y-121083333D01*
X153107143Y-121178571D01*
X153107143Y-121273810D01*
X152630952Y-121369048D01*
X153964286Y-121654762D02*
X153869048Y-121702381D01*
X153678571Y-121702381D01*
X153583333Y-121654762D01*
X153535714Y-121607143D01*
X153488095Y-121511905D01*
X153488095Y-121226190D01*
X153535714Y-121130952D01*
X153583333Y-121083333D01*
X153678571Y-121035714D01*
X153869048Y-121035714D01*
X153964286Y-121083333D01*
X154250000Y-121035714D02*
X154630952Y-121035714D01*
X154392857Y-120702381D02*
X154392857Y-121559524D01*
X154440476Y-121654762D01*
X154535714Y-121702381D01*
X154630952Y-121702381D01*
X155107143Y-121702381D02*
X155011905Y-121654762D01*
X154964286Y-121607143D01*
X154916667Y-121511905D01*
X154916667Y-121226190D01*
X154964286Y-121130952D01*
X155011905Y-121083333D01*
X155107143Y-121035714D01*
X155250001Y-121035714D01*
X155345239Y-121083333D01*
X155392858Y-121130952D01*
X155440477Y-121226190D01*
X155440477Y-121511905D01*
X155392858Y-121607143D01*
X155345239Y-121654762D01*
X155250001Y-121702381D01*
X155107143Y-121702381D01*
X155869048Y-121702381D02*
X155869048Y-121035714D01*
X155869048Y-121226190D02*
X155916667Y-121130952D01*
X155964286Y-121083333D01*
X156059524Y-121035714D01*
X156154763Y-121035714D01*
X151538095Y-106302381D02*
X151538095Y-107111905D01*
X151585714Y-107207143D01*
X151633333Y-107254762D01*
X151728571Y-107302381D01*
X151919048Y-107302381D01*
X152014286Y-107254762D01*
X152061905Y-107207143D01*
X152109524Y-107111905D01*
X152109524Y-106302381D01*
X153109524Y-107302381D02*
X152538095Y-107302381D01*
X152823809Y-107302381D02*
X152823809Y-106302381D01*
X152728571Y-106445238D01*
X152633333Y-106540476D01*
X152538095Y-106588095D01*
X153457143Y-102216666D02*
X153504762Y-102264285D01*
X153552381Y-102407142D01*
X153552381Y-102502380D01*
X153504762Y-102645238D01*
X153409524Y-102740476D01*
X153314286Y-102788095D01*
X153123810Y-102835714D01*
X152980952Y-102835714D01*
X152790476Y-102788095D01*
X152695238Y-102740476D01*
X152600000Y-102645238D01*
X152552381Y-102502380D01*
X152552381Y-102407142D01*
X152600000Y-102264285D01*
X152647619Y-102216666D01*
X152647619Y-101835714D02*
X152600000Y-101788095D01*
X152552381Y-101692857D01*
X152552381Y-101454761D01*
X152600000Y-101359523D01*
X152647619Y-101311904D01*
X152742857Y-101264285D01*
X152838095Y-101264285D01*
X152980952Y-101311904D01*
X153552381Y-101883333D01*
X153552381Y-101264285D01*
X145583334Y-101107143D02*
X145535715Y-101154762D01*
X145392858Y-101202381D01*
X145297620Y-101202381D01*
X145154762Y-101154762D01*
X145059524Y-101059524D01*
X145011905Y-100964286D01*
X144964286Y-100773810D01*
X144964286Y-100630952D01*
X145011905Y-100440476D01*
X145059524Y-100345238D01*
X145154762Y-100250000D01*
X145297620Y-100202381D01*
X145392858Y-100202381D01*
X145535715Y-100250000D01*
X145583334Y-100297619D01*
X145916667Y-100202381D02*
X146535715Y-100202381D01*
X146202381Y-100583333D01*
X146345239Y-100583333D01*
X146440477Y-100630952D01*
X146488096Y-100678571D01*
X146535715Y-100773810D01*
X146535715Y-101011905D01*
X146488096Y-101107143D01*
X146440477Y-101154762D01*
X146345239Y-101202381D01*
X146059524Y-101202381D01*
X145964286Y-101154762D01*
X145916667Y-101107143D01*
X166757143Y-84616666D02*
X166804762Y-84664285D01*
X166852381Y-84807142D01*
X166852381Y-84902380D01*
X166804762Y-85045238D01*
X166709524Y-85140476D01*
X166614286Y-85188095D01*
X166423810Y-85235714D01*
X166280952Y-85235714D01*
X166090476Y-85188095D01*
X165995238Y-85140476D01*
X165900000Y-85045238D01*
X165852381Y-84902380D01*
X165852381Y-84807142D01*
X165900000Y-84664285D01*
X165947619Y-84616666D01*
X166185714Y-83759523D02*
X166852381Y-83759523D01*
X165804762Y-83997619D02*
X166519048Y-84235714D01*
X166519048Y-83616666D01*
X163761905Y-103452381D02*
X163761905Y-102452381D01*
X164000000Y-102452381D01*
X164142858Y-102500000D01*
X164238096Y-102595238D01*
X164285715Y-102690476D01*
X164333334Y-102880952D01*
X164333334Y-103023810D01*
X164285715Y-103214286D01*
X164238096Y-103309524D01*
X164142858Y-103404762D01*
X164000000Y-103452381D01*
X163761905Y-103452381D01*
X165285715Y-103452381D02*
X164714286Y-103452381D01*
X165000000Y-103452381D02*
X165000000Y-102452381D01*
X164904762Y-102595238D01*
X164809524Y-102690476D01*
X164714286Y-102738095D01*
X142261905Y-71452381D02*
X142261905Y-70452381D01*
X142500000Y-70452381D01*
X142642858Y-70500000D01*
X142738096Y-70595238D01*
X142785715Y-70690476D01*
X142833334Y-70880952D01*
X142833334Y-71023810D01*
X142785715Y-71214286D01*
X142738096Y-71309524D01*
X142642858Y-71404762D01*
X142500000Y-71452381D01*
X142261905Y-71452381D01*
X143214286Y-70547619D02*
X143261905Y-70500000D01*
X143357143Y-70452381D01*
X143595239Y-70452381D01*
X143690477Y-70500000D01*
X143738096Y-70547619D01*
X143785715Y-70642857D01*
X143785715Y-70738095D01*
X143738096Y-70880952D01*
X143166667Y-71452381D01*
X143785715Y-71452381D01*
X139711905Y-97302381D02*
X139711905Y-96302381D01*
X139950000Y-96302381D01*
X140092858Y-96350000D01*
X140188096Y-96445238D01*
X140235715Y-96540476D01*
X140283334Y-96730952D01*
X140283334Y-96873810D01*
X140235715Y-97064286D01*
X140188096Y-97159524D01*
X140092858Y-97254762D01*
X139950000Y-97302381D01*
X139711905Y-97302381D01*
X140616667Y-96302381D02*
X141235715Y-96302381D01*
X140902381Y-96683333D01*
X141045239Y-96683333D01*
X141140477Y-96730952D01*
X141188096Y-96778571D01*
X141235715Y-96873810D01*
X141235715Y-97111905D01*
X141188096Y-97207143D01*
X141140477Y-97254762D01*
X141045239Y-97302381D01*
X140759524Y-97302381D01*
X140664286Y-97254762D01*
X140616667Y-97207143D01*
X139761905Y-93102381D02*
X139761905Y-92102381D01*
X140000000Y-92102381D01*
X140142858Y-92150000D01*
X140238096Y-92245238D01*
X140285715Y-92340476D01*
X140333334Y-92530952D01*
X140333334Y-92673810D01*
X140285715Y-92864286D01*
X140238096Y-92959524D01*
X140142858Y-93054762D01*
X140000000Y-93102381D01*
X139761905Y-93102381D01*
X141190477Y-92435714D02*
X141190477Y-93102381D01*
X140952381Y-92054762D02*
X140714286Y-92769048D01*
X141333334Y-92769048D01*
X150504762Y-94647619D02*
X150409524Y-94600000D01*
X150314286Y-94504762D01*
X150171429Y-94361905D01*
X150076190Y-94314286D01*
X149980952Y-94314286D01*
X150028571Y-94552381D02*
X149933333Y-94504762D01*
X149838095Y-94409524D01*
X149790476Y-94219048D01*
X149790476Y-93885714D01*
X149838095Y-93695238D01*
X149933333Y-93600000D01*
X150028571Y-93552381D01*
X150219048Y-93552381D01*
X150314286Y-93600000D01*
X150409524Y-93695238D01*
X150457143Y-93885714D01*
X150457143Y-94219048D01*
X150409524Y-94409524D01*
X150314286Y-94504762D01*
X150219048Y-94552381D01*
X150028571Y-94552381D01*
X150838095Y-93647619D02*
X150885714Y-93600000D01*
X150980952Y-93552381D01*
X151219048Y-93552381D01*
X151314286Y-93600000D01*
X151361905Y-93647619D01*
X151409524Y-93742857D01*
X151409524Y-93838095D01*
X151361905Y-93980952D01*
X150790476Y-94552381D01*
X151409524Y-94552381D01*
X162797619Y-80095238D02*
X162750000Y-80190476D01*
X162654762Y-80285714D01*
X162511905Y-80428571D01*
X162464286Y-80523810D01*
X162464286Y-80619048D01*
X162702381Y-80571429D02*
X162654762Y-80666667D01*
X162559524Y-80761905D01*
X162369048Y-80809524D01*
X162035714Y-80809524D01*
X161845238Y-80761905D01*
X161750000Y-80666667D01*
X161702381Y-80571429D01*
X161702381Y-80380952D01*
X161750000Y-80285714D01*
X161845238Y-80190476D01*
X162035714Y-80142857D01*
X162369048Y-80142857D01*
X162559524Y-80190476D01*
X162654762Y-80285714D01*
X162702381Y-80380952D01*
X162702381Y-80571429D01*
X161702381Y-79809524D02*
X161702381Y-79190476D01*
X162083333Y-79523810D01*
X162083333Y-79380952D01*
X162130952Y-79285714D01*
X162178571Y-79238095D01*
X162273810Y-79190476D01*
X162511905Y-79190476D01*
X162607143Y-79238095D01*
X162654762Y-79285714D01*
X162702381Y-79380952D01*
X162702381Y-79666667D01*
X162654762Y-79761905D01*
X162607143Y-79809524D01*
X162052381Y-96666666D02*
X161576190Y-97000000D01*
X162052381Y-97238095D02*
X161052381Y-97238095D01*
X161052381Y-96857142D01*
X161100000Y-96761904D01*
X161147619Y-96714285D01*
X161242857Y-96666666D01*
X161385714Y-96666666D01*
X161480952Y-96714285D01*
X161528571Y-96761904D01*
X161576190Y-96857142D01*
X161576190Y-97238095D01*
X162052381Y-95714285D02*
X162052381Y-96285714D01*
X162052381Y-96000000D02*
X161052381Y-96000000D01*
X161195238Y-96095238D01*
X161290476Y-96190476D01*
X161338095Y-96285714D01*
X163702381Y-90416666D02*
X163226190Y-90750000D01*
X163702381Y-90988095D02*
X162702381Y-90988095D01*
X162702381Y-90607142D01*
X162750000Y-90511904D01*
X162797619Y-90464285D01*
X162892857Y-90416666D01*
X163035714Y-90416666D01*
X163130952Y-90464285D01*
X163178571Y-90511904D01*
X163226190Y-90607142D01*
X163226190Y-90988095D01*
X162797619Y-90035714D02*
X162750000Y-89988095D01*
X162702381Y-89892857D01*
X162702381Y-89654761D01*
X162750000Y-89559523D01*
X162797619Y-89511904D01*
X162892857Y-89464285D01*
X162988095Y-89464285D01*
X163130952Y-89511904D01*
X163702381Y-90083333D01*
X163702381Y-89464285D01*
X147702381Y-107116666D02*
X147226190Y-107450000D01*
X147702381Y-107688095D02*
X146702381Y-107688095D01*
X146702381Y-107307142D01*
X146750000Y-107211904D01*
X146797619Y-107164285D01*
X146892857Y-107116666D01*
X147035714Y-107116666D01*
X147130952Y-107164285D01*
X147178571Y-107211904D01*
X147226190Y-107307142D01*
X147226190Y-107688095D01*
X146702381Y-106783333D02*
X146702381Y-106164285D01*
X147083333Y-106497619D01*
X147083333Y-106354761D01*
X147130952Y-106259523D01*
X147178571Y-106211904D01*
X147273810Y-106164285D01*
X147511905Y-106164285D01*
X147607143Y-106211904D01*
X147654762Y-106259523D01*
X147702381Y-106354761D01*
X147702381Y-106640476D01*
X147654762Y-106735714D01*
X147607143Y-106783333D01*
X145083334Y-74952381D02*
X144750000Y-74476190D01*
X144511905Y-74952381D02*
X144511905Y-73952381D01*
X144892858Y-73952381D01*
X144988096Y-74000000D01*
X145035715Y-74047619D01*
X145083334Y-74142857D01*
X145083334Y-74285714D01*
X145035715Y-74380952D01*
X144988096Y-74428571D01*
X144892858Y-74476190D01*
X144511905Y-74476190D01*
X145940477Y-74285714D02*
X145940477Y-74952381D01*
X145702381Y-73904762D02*
X145464286Y-74619048D01*
X146083334Y-74619048D01*
X147502381Y-102966666D02*
X147026190Y-103300000D01*
X147502381Y-103538095D02*
X146502381Y-103538095D01*
X146502381Y-103157142D01*
X146550000Y-103061904D01*
X146597619Y-103014285D01*
X146692857Y-102966666D01*
X146835714Y-102966666D01*
X146930952Y-103014285D01*
X146978571Y-103061904D01*
X147026190Y-103157142D01*
X147026190Y-103538095D01*
X146502381Y-102061904D02*
X146502381Y-102538095D01*
X146978571Y-102585714D01*
X146930952Y-102538095D01*
X146883333Y-102442857D01*
X146883333Y-102204761D01*
X146930952Y-102109523D01*
X146978571Y-102061904D01*
X147073810Y-102014285D01*
X147311905Y-102014285D01*
X147407143Y-102061904D01*
X147454762Y-102109523D01*
X147502381Y-102204761D01*
X147502381Y-102442857D01*
X147454762Y-102538095D01*
X147407143Y-102585714D01*
X150552381Y-102216666D02*
X150076190Y-102550000D01*
X150552381Y-102788095D02*
X149552381Y-102788095D01*
X149552381Y-102407142D01*
X149600000Y-102311904D01*
X149647619Y-102264285D01*
X149742857Y-102216666D01*
X149885714Y-102216666D01*
X149980952Y-102264285D01*
X150028571Y-102311904D01*
X150076190Y-102407142D01*
X150076190Y-102788095D01*
X149552381Y-101883333D02*
X149552381Y-101216666D01*
X150552381Y-101645238D01*
X153383334Y-114952381D02*
X153050000Y-114476190D01*
X152811905Y-114952381D02*
X152811905Y-113952381D01*
X153192858Y-113952381D01*
X153288096Y-114000000D01*
X153335715Y-114047619D01*
X153383334Y-114142857D01*
X153383334Y-114285714D01*
X153335715Y-114380952D01*
X153288096Y-114428571D01*
X153192858Y-114476190D01*
X152811905Y-114476190D01*
X153954762Y-114380952D02*
X153859524Y-114333333D01*
X153811905Y-114285714D01*
X153764286Y-114190476D01*
X153764286Y-114142857D01*
X153811905Y-114047619D01*
X153859524Y-114000000D01*
X153954762Y-113952381D01*
X154145239Y-113952381D01*
X154240477Y-114000000D01*
X154288096Y-114047619D01*
X154335715Y-114142857D01*
X154335715Y-114190476D01*
X154288096Y-114285714D01*
X154240477Y-114333333D01*
X154145239Y-114380952D01*
X153954762Y-114380952D01*
X153859524Y-114428571D01*
X153811905Y-114476190D01*
X153764286Y-114571429D01*
X153764286Y-114761905D01*
X153811905Y-114857143D01*
X153859524Y-114904762D01*
X153954762Y-114952381D01*
X154145239Y-114952381D01*
X154240477Y-114904762D01*
X154288096Y-114857143D01*
X154335715Y-114761905D01*
X154335715Y-114571429D01*
X154288096Y-114476190D01*
X154240477Y-114428571D01*
X154145239Y-114380952D01*
X160152381Y-110416666D02*
X159676190Y-110750000D01*
X160152381Y-110988095D02*
X159152381Y-110988095D01*
X159152381Y-110607142D01*
X159200000Y-110511904D01*
X159247619Y-110464285D01*
X159342857Y-110416666D01*
X159485714Y-110416666D01*
X159580952Y-110464285D01*
X159628571Y-110511904D01*
X159676190Y-110607142D01*
X159676190Y-110988095D01*
X160152381Y-109940476D02*
X160152381Y-109750000D01*
X160104762Y-109654761D01*
X160057143Y-109607142D01*
X159914286Y-109511904D01*
X159723810Y-109464285D01*
X159342857Y-109464285D01*
X159247619Y-109511904D01*
X159200000Y-109559523D01*
X159152381Y-109654761D01*
X159152381Y-109845238D01*
X159200000Y-109940476D01*
X159247619Y-109988095D01*
X159342857Y-110035714D01*
X159580952Y-110035714D01*
X159676190Y-109988095D01*
X159723810Y-109940476D01*
X159771429Y-109845238D01*
X159771429Y-109654761D01*
X159723810Y-109559523D01*
X159676190Y-109511904D01*
X159580952Y-109464285D01*
X156702381Y-104242857D02*
X156226190Y-104576191D01*
X156702381Y-104814286D02*
X155702381Y-104814286D01*
X155702381Y-104433333D01*
X155750000Y-104338095D01*
X155797619Y-104290476D01*
X155892857Y-104242857D01*
X156035714Y-104242857D01*
X156130952Y-104290476D01*
X156178571Y-104338095D01*
X156226190Y-104433333D01*
X156226190Y-104814286D01*
X156702381Y-103290476D02*
X156702381Y-103861905D01*
X156702381Y-103576191D02*
X155702381Y-103576191D01*
X155845238Y-103671429D01*
X155940476Y-103766667D01*
X155988095Y-103861905D01*
X155702381Y-102671429D02*
X155702381Y-102576190D01*
X155750000Y-102480952D01*
X155797619Y-102433333D01*
X155892857Y-102385714D01*
X156083333Y-102338095D01*
X156321429Y-102338095D01*
X156511905Y-102385714D01*
X156607143Y-102433333D01*
X156654762Y-102480952D01*
X156702381Y-102576190D01*
X156702381Y-102671429D01*
X156654762Y-102766667D01*
X156607143Y-102814286D01*
X156511905Y-102861905D01*
X156321429Y-102909524D01*
X156083333Y-102909524D01*
X155892857Y-102861905D01*
X155797619Y-102814286D01*
X155750000Y-102766667D01*
X155702381Y-102671429D01*
X147607143Y-90002381D02*
X147273809Y-89526190D01*
X147035714Y-90002381D02*
X147035714Y-89002381D01*
X147416667Y-89002381D01*
X147511905Y-89050000D01*
X147559524Y-89097619D01*
X147607143Y-89192857D01*
X147607143Y-89335714D01*
X147559524Y-89430952D01*
X147511905Y-89478571D01*
X147416667Y-89526190D01*
X147035714Y-89526190D01*
X148559524Y-90002381D02*
X147988095Y-90002381D01*
X148273809Y-90002381D02*
X148273809Y-89002381D01*
X148178571Y-89145238D01*
X148083333Y-89240476D01*
X147988095Y-89288095D01*
X149511905Y-90002381D02*
X148940476Y-90002381D01*
X149226190Y-90002381D02*
X149226190Y-89002381D01*
X149130952Y-89145238D01*
X149035714Y-89240476D01*
X148940476Y-89288095D01*
X147852381Y-97592857D02*
X147376190Y-97926191D01*
X147852381Y-98164286D02*
X146852381Y-98164286D01*
X146852381Y-97783333D01*
X146900000Y-97688095D01*
X146947619Y-97640476D01*
X147042857Y-97592857D01*
X147185714Y-97592857D01*
X147280952Y-97640476D01*
X147328571Y-97688095D01*
X147376190Y-97783333D01*
X147376190Y-98164286D01*
X147852381Y-96640476D02*
X147852381Y-97211905D01*
X147852381Y-96926191D02*
X146852381Y-96926191D01*
X146995238Y-97021429D01*
X147090476Y-97116667D01*
X147138095Y-97211905D01*
X146947619Y-96259524D02*
X146900000Y-96211905D01*
X146852381Y-96116667D01*
X146852381Y-95878571D01*
X146900000Y-95783333D01*
X146947619Y-95735714D01*
X147042857Y-95688095D01*
X147138095Y-95688095D01*
X147280952Y-95735714D01*
X147852381Y-96307143D01*
X147852381Y-95688095D01*
X158252381Y-85692857D02*
X157776190Y-86026191D01*
X158252381Y-86264286D02*
X157252381Y-86264286D01*
X157252381Y-85883333D01*
X157300000Y-85788095D01*
X157347619Y-85740476D01*
X157442857Y-85692857D01*
X157585714Y-85692857D01*
X157680952Y-85740476D01*
X157728571Y-85788095D01*
X157776190Y-85883333D01*
X157776190Y-86264286D01*
X158252381Y-84740476D02*
X158252381Y-85311905D01*
X158252381Y-85026191D02*
X157252381Y-85026191D01*
X157395238Y-85121429D01*
X157490476Y-85216667D01*
X157538095Y-85311905D01*
X157252381Y-84407143D02*
X157252381Y-83788095D01*
X157633333Y-84121429D01*
X157633333Y-83978571D01*
X157680952Y-83883333D01*
X157728571Y-83835714D01*
X157823810Y-83788095D01*
X158061905Y-83788095D01*
X158157143Y-83835714D01*
X158204762Y-83883333D01*
X158252381Y-83978571D01*
X158252381Y-84264286D01*
X158204762Y-84359524D01*
X158157143Y-84407143D01*
X148952381Y-85892857D02*
X148476190Y-86226191D01*
X148952381Y-86464286D02*
X147952381Y-86464286D01*
X147952381Y-86083333D01*
X148000000Y-85988095D01*
X148047619Y-85940476D01*
X148142857Y-85892857D01*
X148285714Y-85892857D01*
X148380952Y-85940476D01*
X148428571Y-85988095D01*
X148476190Y-86083333D01*
X148476190Y-86464286D01*
X148952381Y-84940476D02*
X148952381Y-85511905D01*
X148952381Y-85226191D02*
X147952381Y-85226191D01*
X148095238Y-85321429D01*
X148190476Y-85416667D01*
X148238095Y-85511905D01*
X148285714Y-84083333D02*
X148952381Y-84083333D01*
X147904762Y-84321429D02*
X148619048Y-84559524D01*
X148619048Y-83940476D01*
X160652381Y-85242857D02*
X160176190Y-85576191D01*
X160652381Y-85814286D02*
X159652381Y-85814286D01*
X159652381Y-85433333D01*
X159700000Y-85338095D01*
X159747619Y-85290476D01*
X159842857Y-85242857D01*
X159985714Y-85242857D01*
X160080952Y-85290476D01*
X160128571Y-85338095D01*
X160176190Y-85433333D01*
X160176190Y-85814286D01*
X160652381Y-84290476D02*
X160652381Y-84861905D01*
X160652381Y-84576191D02*
X159652381Y-84576191D01*
X159795238Y-84671429D01*
X159890476Y-84766667D01*
X159938095Y-84861905D01*
X159652381Y-83385714D02*
X159652381Y-83861905D01*
X160128571Y-83909524D01*
X160080952Y-83861905D01*
X160033333Y-83766667D01*
X160033333Y-83528571D01*
X160080952Y-83433333D01*
X160128571Y-83385714D01*
X160223810Y-83338095D01*
X160461905Y-83338095D01*
X160557143Y-83385714D01*
X160604762Y-83433333D01*
X160652381Y-83528571D01*
X160652381Y-83766667D01*
X160604762Y-83861905D01*
X160557143Y-83909524D01*
X152107143Y-88702381D02*
X151773809Y-88226190D01*
X151535714Y-88702381D02*
X151535714Y-87702381D01*
X151916667Y-87702381D01*
X152011905Y-87750000D01*
X152059524Y-87797619D01*
X152107143Y-87892857D01*
X152107143Y-88035714D01*
X152059524Y-88130952D01*
X152011905Y-88178571D01*
X151916667Y-88226190D01*
X151535714Y-88226190D01*
X153059524Y-88702381D02*
X152488095Y-88702381D01*
X152773809Y-88702381D02*
X152773809Y-87702381D01*
X152678571Y-87845238D01*
X152583333Y-87940476D01*
X152488095Y-87988095D01*
X153916667Y-87702381D02*
X153726190Y-87702381D01*
X153630952Y-87750000D01*
X153583333Y-87797619D01*
X153488095Y-87940476D01*
X153440476Y-88130952D01*
X153440476Y-88511905D01*
X153488095Y-88607143D01*
X153535714Y-88654762D01*
X153630952Y-88702381D01*
X153821429Y-88702381D01*
X153916667Y-88654762D01*
X153964286Y-88607143D01*
X154011905Y-88511905D01*
X154011905Y-88273810D01*
X153964286Y-88178571D01*
X153916667Y-88130952D01*
X153821429Y-88083333D01*
X153630952Y-88083333D01*
X153535714Y-88130952D01*
X153488095Y-88178571D01*
X153440476Y-88273810D01*
X140333334Y-104202381D02*
X140000000Y-103726190D01*
X139761905Y-104202381D02*
X139761905Y-103202381D01*
X140142858Y-103202381D01*
X140238096Y-103250000D01*
X140285715Y-103297619D01*
X140333334Y-103392857D01*
X140333334Y-103535714D01*
X140285715Y-103630952D01*
X140238096Y-103678571D01*
X140142858Y-103726190D01*
X139761905Y-103726190D01*
X141190477Y-103202381D02*
X141000000Y-103202381D01*
X140904762Y-103250000D01*
X140857143Y-103297619D01*
X140761905Y-103440476D01*
X140714286Y-103630952D01*
X140714286Y-104011905D01*
X140761905Y-104107143D01*
X140809524Y-104154762D01*
X140904762Y-104202381D01*
X141095239Y-104202381D01*
X141190477Y-104154762D01*
X141238096Y-104107143D01*
X141285715Y-104011905D01*
X141285715Y-103773810D01*
X141238096Y-103678571D01*
X141190477Y-103630952D01*
X141095239Y-103583333D01*
X140904762Y-103583333D01*
X140809524Y-103630952D01*
X140761905Y-103678571D01*
X140714286Y-103773810D01*
X141107143Y-112202381D02*
X140773809Y-111726190D01*
X140535714Y-112202381D02*
X140535714Y-111202381D01*
X140916667Y-111202381D01*
X141011905Y-111250000D01*
X141059524Y-111297619D01*
X141107143Y-111392857D01*
X141107143Y-111535714D01*
X141059524Y-111630952D01*
X141011905Y-111678571D01*
X140916667Y-111726190D01*
X140535714Y-111726190D01*
X142059524Y-112202381D02*
X141488095Y-112202381D01*
X141773809Y-112202381D02*
X141773809Y-111202381D01*
X141678571Y-111345238D01*
X141583333Y-111440476D01*
X141488095Y-111488095D01*
X142392857Y-111202381D02*
X143059524Y-111202381D01*
X142630952Y-112202381D01*
X159702381Y-101642857D02*
X159226190Y-101976191D01*
X159702381Y-102214286D02*
X158702381Y-102214286D01*
X158702381Y-101833333D01*
X158750000Y-101738095D01*
X158797619Y-101690476D01*
X158892857Y-101642857D01*
X159035714Y-101642857D01*
X159130952Y-101690476D01*
X159178571Y-101738095D01*
X159226190Y-101833333D01*
X159226190Y-102214286D01*
X159702381Y-100690476D02*
X159702381Y-101261905D01*
X159702381Y-100976191D02*
X158702381Y-100976191D01*
X158845238Y-101071429D01*
X158940476Y-101166667D01*
X158988095Y-101261905D01*
X159130952Y-100119048D02*
X159083333Y-100214286D01*
X159035714Y-100261905D01*
X158940476Y-100309524D01*
X158892857Y-100309524D01*
X158797619Y-100261905D01*
X158750000Y-100214286D01*
X158702381Y-100119048D01*
X158702381Y-99928571D01*
X158750000Y-99833333D01*
X158797619Y-99785714D01*
X158892857Y-99738095D01*
X158940476Y-99738095D01*
X159035714Y-99785714D01*
X159083333Y-99833333D01*
X159130952Y-99928571D01*
X159130952Y-100119048D01*
X159178571Y-100214286D01*
X159226190Y-100261905D01*
X159321429Y-100309524D01*
X159511905Y-100309524D01*
X159607143Y-100261905D01*
X159654762Y-100214286D01*
X159702381Y-100119048D01*
X159702381Y-99928571D01*
X159654762Y-99833333D01*
X159607143Y-99785714D01*
X159511905Y-99738095D01*
X159321429Y-99738095D01*
X159226190Y-99785714D01*
X159178571Y-99833333D01*
X159130952Y-99928571D01*
M02*
