G04 #@! TF.FileFunction,Copper,L1,Top,Signal*
%FSLAX46Y46*%
G04 Gerber Fmt 4.6, Leading zero omitted, Abs format (unit mm)*
G04 Created by KiCad (PCBNEW 4.0.6) date 07/23/18 23:10:11*
%MOMM*%
%LPD*%
G01*
G04 APERTURE LIST*
%ADD10C,0.100000*%
%ADD11R,1.900000X0.800000*%
%ADD12C,5.001260*%
%ADD13C,3.650000*%
%ADD14R,1.500000X1.500000*%
%ADD15C,1.500000*%
%ADD16R,1.600000X2.000000*%
%ADD17R,1.500000X0.400000*%
%ADD18O,2.999740X5.001260*%
%ADD19R,1.550000X0.600000*%
%ADD20R,1.250000X1.500000*%
%ADD21R,1.500000X1.250000*%
%ADD22R,1.000000X1.000000*%
%ADD23R,1.500000X1.300000*%
%ADD24R,1.300000X1.500000*%
%ADD25R,1.700000X1.700000*%
%ADD26O,1.700000X1.700000*%
%ADD27C,0.700000*%
%ADD28C,0.400000*%
%ADD29C,0.254000*%
G04 APERTURE END LIST*
D10*
D11*
X159000000Y-97450000D03*
X159000000Y-95550000D03*
X156000000Y-96500000D03*
D12*
X162500000Y-107250000D03*
X162500000Y-117410000D03*
D13*
X147270000Y-71500000D03*
X159140000Y-71500000D03*
D14*
X157650000Y-77850000D03*
D15*
X156380000Y-80390000D03*
X155110000Y-77850000D03*
X153840000Y-80390000D03*
X152570000Y-77850000D03*
X151300000Y-80390000D03*
X150030000Y-77850000D03*
X148760000Y-80390000D03*
D16*
X165500000Y-98750000D03*
X165500000Y-94750000D03*
D12*
X142300000Y-89400000D03*
X142300000Y-79240000D03*
D17*
X155330000Y-91650000D03*
X155330000Y-91000000D03*
X155330000Y-90350000D03*
X152670000Y-90350000D03*
X152670000Y-91650000D03*
D18*
X156459860Y-118050000D03*
X152500000Y-118050000D03*
X148540140Y-118050000D03*
D19*
X149550000Y-106345000D03*
X149550000Y-107615000D03*
X149550000Y-108885000D03*
X149550000Y-110155000D03*
X154950000Y-110155000D03*
X154950000Y-108885000D03*
X154950000Y-107615000D03*
X154950000Y-106345000D03*
D20*
X154500000Y-100750000D03*
X154500000Y-103250000D03*
D21*
X141450000Y-100700000D03*
X143950000Y-100700000D03*
D20*
X164900000Y-85700000D03*
X164900000Y-83200000D03*
D22*
X165500000Y-101250000D03*
X163000000Y-101250000D03*
D23*
X143100000Y-72500000D03*
X140400000Y-72500000D03*
X143250000Y-98500000D03*
X140550000Y-98500000D03*
X143300000Y-94200000D03*
X140600000Y-94200000D03*
D11*
X149250000Y-95550000D03*
X149250000Y-97450000D03*
X152250000Y-96500000D03*
X165500000Y-79200000D03*
X165500000Y-77300000D03*
X162500000Y-78250000D03*
D24*
X163250000Y-97850000D03*
X163250000Y-95150000D03*
X164750000Y-89150000D03*
X164750000Y-91850000D03*
X146500000Y-108650000D03*
X146500000Y-111350000D03*
D23*
X140400000Y-74500000D03*
X143100000Y-74500000D03*
D24*
X148500000Y-103350000D03*
X148500000Y-100650000D03*
X151500000Y-100650000D03*
X151500000Y-103350000D03*
D23*
X154850000Y-113000000D03*
X152150000Y-113000000D03*
D24*
X158000000Y-108900000D03*
X158000000Y-111600000D03*
X157750000Y-102400000D03*
X157750000Y-105100000D03*
D23*
X146900000Y-91250000D03*
X149600000Y-91250000D03*
D24*
X145750000Y-95750000D03*
X145750000Y-98450000D03*
X156000000Y-83900000D03*
X156000000Y-86600000D03*
X150000000Y-83900000D03*
X150000000Y-86600000D03*
X161900000Y-83000000D03*
X161900000Y-85700000D03*
X152750000Y-83900000D03*
X152750000Y-86600000D03*
D25*
X143000000Y-108750000D03*
D26*
X140460000Y-106210000D03*
X143000000Y-103670000D03*
D23*
X140650000Y-113500000D03*
X143350000Y-113500000D03*
D24*
X160750000Y-100650000D03*
X160750000Y-103350000D03*
D27*
X147000000Y-85500000D03*
X141250000Y-70750000D03*
X140700000Y-93000000D03*
X163400000Y-82700000D03*
X156500000Y-106000000D03*
X152750000Y-92750000D03*
X160750000Y-96500000D03*
X163250000Y-96500000D03*
X153000000Y-97750000D03*
X153000000Y-101500000D03*
X151750000Y-111500000D03*
X148500000Y-112000000D03*
X163750000Y-92750000D03*
X160250000Y-97500000D03*
X151000000Y-90250000D03*
X150000000Y-87750000D03*
X154500000Y-99500000D03*
X155850000Y-92450000D03*
X160250000Y-92600000D03*
X161950000Y-90000000D03*
X154600000Y-95250000D03*
X149600000Y-93950000D03*
X164500000Y-88000000D03*
X147500000Y-95250000D03*
X147500000Y-92750000D03*
X162000000Y-79750000D03*
X158000000Y-83000000D03*
X151250000Y-107000000D03*
X150000000Y-103750000D03*
X157000000Y-100250000D03*
X157000000Y-87750000D03*
X158000000Y-103750000D03*
X156750000Y-107250000D03*
X163000000Y-81000000D03*
X164000000Y-78750000D03*
D28*
X165500000Y-94750000D02*
X163650000Y-94750000D01*
X163650000Y-94750000D02*
X163250000Y-95150000D01*
X155330000Y-90350000D02*
X155330000Y-89330000D01*
X155110000Y-76110000D02*
X155110000Y-77850000D01*
X154250000Y-75250000D02*
X155110000Y-76110000D01*
X149250000Y-75250000D02*
X154250000Y-75250000D01*
X146000000Y-78500000D02*
X149250000Y-75250000D01*
X146000000Y-80750000D02*
X146000000Y-78500000D01*
X148250000Y-83000000D02*
X146000000Y-80750000D01*
X148250000Y-88250000D02*
X148250000Y-83000000D01*
X149000000Y-89000000D02*
X148250000Y-88250000D01*
X155000000Y-89000000D02*
X149000000Y-89000000D01*
X155330000Y-89330000D02*
X155000000Y-89000000D01*
X162500000Y-107250000D02*
X162500000Y-106450000D01*
X162500000Y-106450000D02*
X160750000Y-104250000D01*
X160750000Y-104250000D02*
X160750000Y-103350000D01*
X142300000Y-89400000D02*
X146950000Y-85550000D01*
X146950000Y-85550000D02*
X147000000Y-85500000D01*
X162500000Y-107250000D02*
X162500000Y-106700000D01*
X140400000Y-72500000D02*
X140400000Y-71600000D01*
X140400000Y-71600000D02*
X141250000Y-70750000D01*
X140600000Y-94200000D02*
X140700000Y-93000000D01*
X140550000Y-98500000D02*
X140450000Y-94350000D01*
X140450000Y-94350000D02*
X140600000Y-94200000D01*
X141450000Y-100700000D02*
X141450000Y-100500000D01*
X141450000Y-100500000D02*
X140550000Y-99600000D01*
X140550000Y-99600000D02*
X140550000Y-98500000D01*
X164900000Y-83200000D02*
X163900000Y-83200000D01*
X163900000Y-83200000D02*
X163400000Y-82700000D01*
X154950000Y-106345000D02*
X156155000Y-106345000D01*
X156155000Y-106345000D02*
X156500000Y-106000000D01*
X152670000Y-91650000D02*
X152670000Y-92670000D01*
X152670000Y-92670000D02*
X152750000Y-92750000D01*
X152670000Y-91650000D02*
X152670000Y-91670000D01*
X149550000Y-108885000D02*
X146735000Y-108885000D01*
X146735000Y-108885000D02*
X146500000Y-108650000D01*
X165500000Y-101250000D02*
X165500000Y-98750000D01*
X163250000Y-97850000D02*
X164600000Y-97850000D01*
X164600000Y-97850000D02*
X165500000Y-98750000D01*
X156000000Y-96500000D02*
X160750000Y-96500000D01*
X163250000Y-96500000D02*
X163250000Y-97850000D01*
X163250000Y-97850000D02*
X163250000Y-97500000D01*
X151750000Y-111500000D02*
X151750000Y-108250000D01*
X155000000Y-96500000D02*
X156000000Y-96500000D01*
X153000000Y-97750000D02*
X155000000Y-96500000D01*
X153000000Y-97750000D02*
X153000000Y-97750000D01*
X153000000Y-107000000D02*
X153000000Y-101500000D01*
X151750000Y-108250000D02*
X153000000Y-107000000D01*
X146500000Y-111350000D02*
X147850000Y-111350000D01*
X152150000Y-111900000D02*
X152150000Y-113000000D01*
X151750000Y-111500000D02*
X152150000Y-111900000D01*
X147850000Y-111350000D02*
X148500000Y-112000000D01*
X159000000Y-97450000D02*
X160050000Y-97450000D01*
X163900000Y-92600000D02*
X164750000Y-91850000D01*
X163750000Y-92750000D02*
X163900000Y-92600000D01*
X160050000Y-97450000D02*
X160250000Y-97500000D01*
X153840000Y-80390000D02*
X153840000Y-81910000D01*
X152750000Y-83000000D02*
X152750000Y-83900000D01*
X153840000Y-81910000D02*
X152750000Y-83000000D01*
X150000000Y-86600000D02*
X150000000Y-87750000D01*
X151008655Y-90258655D02*
X151008655Y-90775705D01*
X151000000Y-90250000D02*
X151008655Y-90258655D01*
X149600000Y-91250000D02*
X151008655Y-90775705D01*
X151008655Y-90775705D02*
X152570000Y-90250000D01*
X152570000Y-90250000D02*
X152670000Y-90350000D01*
X148760000Y-80390000D02*
X148760000Y-80898000D01*
X155330000Y-91000000D02*
X156500000Y-91000000D01*
X154500000Y-99500000D02*
X154500000Y-100750000D01*
X156100000Y-92400000D02*
X155850000Y-92450000D01*
X156550000Y-92100000D02*
X156100000Y-92400000D01*
X156550000Y-91100000D02*
X156550000Y-92100000D01*
X156500000Y-91000000D02*
X156550000Y-91100000D01*
X151500000Y-100650000D02*
X154400000Y-100650000D01*
X154400000Y-100650000D02*
X154500000Y-100750000D01*
X145750000Y-98450000D02*
X145400000Y-98450000D01*
X145400000Y-98450000D02*
X143250000Y-98500000D01*
X143950000Y-100700000D02*
X143950000Y-99200000D01*
X143950000Y-99200000D02*
X143250000Y-98500000D01*
X161900000Y-89300000D02*
X161900000Y-89950000D01*
X161900000Y-85700000D02*
X161900000Y-89300000D01*
X156950000Y-95200000D02*
X156950000Y-95089091D01*
X156950000Y-95150016D02*
X156950000Y-95200000D01*
X157009837Y-95090179D02*
X156950000Y-95150016D01*
X157009821Y-95090179D02*
X157009837Y-95090179D01*
X158450000Y-93650000D02*
X157009821Y-95090179D01*
X159200000Y-93650000D02*
X158450000Y-93650000D01*
X160250000Y-92600000D02*
X159200000Y-93650000D01*
X161900000Y-89950000D02*
X161950000Y-90000000D01*
X164900000Y-85700000D02*
X161900000Y-85700000D01*
X143300000Y-94200000D02*
X144250000Y-94200000D01*
X154800000Y-95050000D02*
X156950000Y-95089091D01*
X154600000Y-95250000D02*
X154800000Y-95050000D01*
X144500000Y-93950000D02*
X149600000Y-93950000D01*
X144250000Y-94200000D02*
X144500000Y-93950000D01*
X164800000Y-85800000D02*
X164900000Y-85700000D01*
X165000000Y-85800000D02*
X164900000Y-85700000D01*
X160750000Y-100650000D02*
X162400000Y-100650000D01*
X162400000Y-100650000D02*
X163000000Y-101250000D01*
X143100000Y-72500000D02*
X143100000Y-74500000D01*
X164500000Y-88000000D02*
X164750000Y-88750000D01*
X164750000Y-88750000D02*
X164750000Y-89150000D01*
X151300000Y-80390000D02*
X151300000Y-80950000D01*
X151300000Y-80950000D02*
X151000000Y-82500000D01*
X151000000Y-82500000D02*
X150000000Y-83900000D01*
X146900000Y-91250000D02*
X146900000Y-92400000D01*
X147800000Y-95550000D02*
X149250000Y-95550000D01*
X147500000Y-95250000D02*
X147800000Y-95550000D01*
X147250000Y-92750000D02*
X147500000Y-92750000D01*
X146900000Y-92400000D02*
X147250000Y-92750000D01*
X165500000Y-79200000D02*
X165500000Y-79250000D01*
X165500000Y-79250000D02*
X165000000Y-79750000D01*
X165000000Y-79750000D02*
X162000000Y-79750000D01*
X156000000Y-83900000D02*
X157100000Y-83900000D01*
X157100000Y-83900000D02*
X158000000Y-83000000D01*
X156000000Y-83900000D02*
X156000000Y-83500000D01*
X143000000Y-108750000D02*
X143250000Y-107000000D01*
X146850000Y-105000000D02*
X148500000Y-103350000D01*
X145250000Y-105000000D02*
X146850000Y-105000000D01*
X143250000Y-107000000D02*
X145250000Y-105000000D01*
X148350000Y-103500000D02*
X148500000Y-103350000D01*
X148500000Y-103350000D02*
X149600000Y-103350000D01*
X150635000Y-107615000D02*
X149550000Y-107615000D01*
X151250000Y-107000000D02*
X150635000Y-107615000D01*
X149600000Y-103350000D02*
X150000000Y-103750000D01*
X148500000Y-103350000D02*
X148500000Y-103850000D01*
X154850000Y-113000000D02*
X155000000Y-113000000D01*
X155000000Y-113000000D02*
X155450000Y-112550000D01*
X155450000Y-112550000D02*
X154950000Y-110155000D01*
X157750000Y-105100000D02*
X157750000Y-107000000D01*
X158000000Y-107250000D02*
X158000000Y-108900000D01*
X157750000Y-107000000D02*
X158000000Y-107250000D01*
X154950000Y-108885000D02*
X157985000Y-108885000D01*
X157985000Y-108885000D02*
X158000000Y-108900000D01*
X156000000Y-86600000D02*
X156000000Y-87500000D01*
X157750000Y-101000000D02*
X157750000Y-102400000D01*
X157000000Y-100250000D02*
X157750000Y-101000000D01*
X156000000Y-87500000D02*
X157000000Y-87750000D01*
X154950000Y-107615000D02*
X156385000Y-107615000D01*
X158000000Y-103750000D02*
X157350000Y-102400000D01*
X156385000Y-107615000D02*
X156750000Y-107250000D01*
X157350000Y-102400000D02*
X157750000Y-102400000D01*
X152750000Y-86600000D02*
X156000000Y-86600000D01*
X140460000Y-106210000D02*
X140710000Y-110260000D01*
X140710000Y-110260000D02*
X140650000Y-113500000D01*
X140650000Y-113500000D02*
X140750000Y-113500000D01*
X143350000Y-113500000D02*
X143350000Y-113400000D01*
X143350000Y-113400000D02*
X145250000Y-111500000D01*
X145250000Y-111500000D02*
X145250000Y-107000000D01*
X145250000Y-107000000D02*
X145750000Y-106500000D01*
X146155000Y-106345000D02*
X149550000Y-106345000D01*
X145750000Y-106500000D02*
X146155000Y-106345000D01*
X149550000Y-106345000D02*
X150655000Y-106345000D01*
X151500000Y-105500000D02*
X151500000Y-103350000D01*
X150655000Y-106345000D02*
X151500000Y-105500000D01*
X145750000Y-95750000D02*
X146500000Y-95750000D01*
X147250000Y-96500000D02*
X152250000Y-96500000D01*
X146500000Y-95750000D02*
X147250000Y-96500000D01*
X145950000Y-95550000D02*
X145750000Y-95750000D01*
X162500000Y-78250000D02*
X163000000Y-78250000D01*
X161900000Y-82100000D02*
X161900000Y-83000000D01*
X163000000Y-81000000D02*
X161900000Y-82100000D01*
X163000000Y-78250000D02*
X164000000Y-78750000D01*
X161900000Y-83000000D02*
X161900000Y-82600000D01*
D29*
G36*
X145185730Y-70104703D02*
X144810428Y-71008529D01*
X144809574Y-71987177D01*
X145183298Y-72891657D01*
X145874703Y-73584270D01*
X146778529Y-73959572D01*
X147757177Y-73960426D01*
X148661657Y-73586702D01*
X149354270Y-72895297D01*
X149729572Y-71991471D01*
X149730426Y-71012823D01*
X149356702Y-70108343D01*
X149058879Y-69810000D01*
X157350948Y-69810000D01*
X157055730Y-70104703D01*
X156680428Y-71008529D01*
X156679574Y-71987177D01*
X157053298Y-72891657D01*
X157744703Y-73584270D01*
X158648529Y-73959572D01*
X159627177Y-73960426D01*
X160531657Y-73586702D01*
X160673000Y-73445605D01*
X160673000Y-75600000D01*
X160683006Y-75649410D01*
X160711447Y-75691035D01*
X160753841Y-75718315D01*
X160794821Y-75726894D01*
X160814878Y-75727713D01*
X160897954Y-75852046D01*
X161128295Y-76005954D01*
X161400000Y-76060000D01*
X165355908Y-76060000D01*
X165673329Y-76377421D01*
X165627000Y-76423750D01*
X165627000Y-77173000D01*
X165647000Y-77173000D01*
X165647000Y-77427000D01*
X165627000Y-77427000D01*
X165627000Y-77447000D01*
X165373000Y-77447000D01*
X165373000Y-77427000D01*
X164073750Y-77427000D01*
X163987738Y-77513012D01*
X163914090Y-77398559D01*
X163701890Y-77253569D01*
X163450000Y-77202560D01*
X161550000Y-77202560D01*
X161314683Y-77246838D01*
X161098559Y-77385910D01*
X160953569Y-77598110D01*
X160902560Y-77850000D01*
X160902560Y-78650000D01*
X160946838Y-78885317D01*
X161085910Y-79101441D01*
X161186574Y-79170222D01*
X161165445Y-79191314D01*
X161015172Y-79553212D01*
X161014830Y-79945069D01*
X161164471Y-80307229D01*
X161441314Y-80584555D01*
X161803212Y-80734828D01*
X162043480Y-80735038D01*
X162015172Y-80803212D01*
X162015171Y-80803961D01*
X161309566Y-81509566D01*
X161247060Y-81603113D01*
X161014683Y-81646838D01*
X160798559Y-81785910D01*
X160653569Y-81998110D01*
X160602560Y-82250000D01*
X160602560Y-83750000D01*
X160646838Y-83985317D01*
X160785910Y-84201441D01*
X160998110Y-84346431D01*
X161011197Y-84349081D01*
X160798559Y-84485910D01*
X160653569Y-84698110D01*
X160602560Y-84950000D01*
X160602560Y-86450000D01*
X160646838Y-86685317D01*
X160785910Y-86901441D01*
X160998110Y-87046431D01*
X161065000Y-87059977D01*
X161065000Y-89562799D01*
X160965172Y-89803212D01*
X160964830Y-90195069D01*
X161114471Y-90557229D01*
X161391314Y-90834555D01*
X161753212Y-90984828D01*
X162145069Y-90985170D01*
X162507229Y-90835529D01*
X162784555Y-90558686D01*
X162934828Y-90196788D01*
X162935170Y-89804931D01*
X162785529Y-89442771D01*
X162735000Y-89392154D01*
X162735000Y-87062630D01*
X162785317Y-87053162D01*
X163001441Y-86914090D01*
X163146431Y-86701890D01*
X163180227Y-86535000D01*
X163643554Y-86535000D01*
X163671838Y-86685317D01*
X163810910Y-86901441D01*
X164023110Y-87046431D01*
X164160913Y-87074337D01*
X163942771Y-87164471D01*
X163665445Y-87441314D01*
X163515172Y-87803212D01*
X163514885Y-88131548D01*
X163503569Y-88148110D01*
X163452560Y-88400000D01*
X163452560Y-89900000D01*
X163496838Y-90135317D01*
X163635910Y-90351441D01*
X163848110Y-90496431D01*
X163861197Y-90499081D01*
X163648559Y-90635910D01*
X163503569Y-90848110D01*
X163452560Y-91100000D01*
X163452560Y-91807129D01*
X163192771Y-91914471D01*
X162915445Y-92191314D01*
X162765172Y-92553212D01*
X162764830Y-92945069D01*
X162914471Y-93307229D01*
X163191314Y-93584555D01*
X163553212Y-93734828D01*
X163945069Y-93735170D01*
X164065000Y-93685616D01*
X164065000Y-93781026D01*
X164026310Y-93765000D01*
X163535750Y-93765000D01*
X163377000Y-93923750D01*
X163377000Y-95023000D01*
X163397000Y-95023000D01*
X163397000Y-95277000D01*
X163377000Y-95277000D01*
X163377000Y-95297000D01*
X163123000Y-95297000D01*
X163123000Y-95277000D01*
X162123750Y-95277000D01*
X161965000Y-95435750D01*
X161965000Y-96026309D01*
X162061673Y-96259698D01*
X162240301Y-96438327D01*
X162265045Y-96448576D01*
X162264947Y-96561016D01*
X162148559Y-96635910D01*
X162003569Y-96848110D01*
X161952560Y-97100000D01*
X161952560Y-98600000D01*
X161996838Y-98835317D01*
X162135910Y-99051441D01*
X162348110Y-99196431D01*
X162600000Y-99247440D01*
X163900000Y-99247440D01*
X164052560Y-99218734D01*
X164052560Y-99750000D01*
X164096838Y-99985317D01*
X164235910Y-100201441D01*
X164448110Y-100346431D01*
X164500024Y-100356944D01*
X164403569Y-100498110D01*
X164352560Y-100750000D01*
X164352560Y-101750000D01*
X164396838Y-101985317D01*
X164535910Y-102201441D01*
X164748110Y-102346431D01*
X165000000Y-102397440D01*
X166000000Y-102397440D01*
X166235317Y-102353162D01*
X166440000Y-102221452D01*
X166440000Y-120305908D01*
X165355908Y-121390000D01*
X145610000Y-121390000D01*
X145610000Y-118527028D01*
X145676877Y-117005577D01*
X145674394Y-116987809D01*
X146405270Y-116987809D01*
X146405270Y-119112191D01*
X146567777Y-119929170D01*
X147030559Y-120621772D01*
X147723161Y-121084554D01*
X148540140Y-121247061D01*
X149357119Y-121084554D01*
X150049721Y-120621772D01*
X150512503Y-119929170D01*
X150520070Y-119891128D01*
X150527637Y-119929170D01*
X150990419Y-120621772D01*
X151683021Y-121084554D01*
X152500000Y-121247061D01*
X153316979Y-121084554D01*
X154009581Y-120621772D01*
X154472363Y-119929170D01*
X154493583Y-119822489D01*
X154536098Y-119985072D01*
X155040081Y-120650144D01*
X155760213Y-121071724D01*
X156001048Y-121135745D01*
X156332860Y-121022795D01*
X156332860Y-118177000D01*
X156586860Y-118177000D01*
X156586860Y-121022795D01*
X156918672Y-121135745D01*
X157159507Y-121071724D01*
X157879639Y-120650144D01*
X158383622Y-119985072D01*
X158472199Y-119646336D01*
X160443270Y-119646336D01*
X160725042Y-120069084D01*
X161877741Y-120545920D01*
X163125172Y-120545340D01*
X164274958Y-120069084D01*
X164556730Y-119646336D01*
X162500000Y-117589605D01*
X160443270Y-119646336D01*
X158472199Y-119646336D01*
X158594730Y-119177760D01*
X158594730Y-118177000D01*
X156586860Y-118177000D01*
X156332860Y-118177000D01*
X156312860Y-118177000D01*
X156312860Y-117923000D01*
X156332860Y-117923000D01*
X156332860Y-115077205D01*
X156586860Y-115077205D01*
X156586860Y-117923000D01*
X158594730Y-117923000D01*
X158594730Y-116922240D01*
X158559560Y-116787741D01*
X159364080Y-116787741D01*
X159364660Y-118035172D01*
X159840916Y-119184958D01*
X160263664Y-119466730D01*
X162320395Y-117410000D01*
X162679605Y-117410000D01*
X164736336Y-119466730D01*
X165159084Y-119184958D01*
X165635920Y-118032259D01*
X165635340Y-116784828D01*
X165159084Y-115635042D01*
X164736336Y-115353270D01*
X162679605Y-117410000D01*
X162320395Y-117410000D01*
X160263664Y-115353270D01*
X159840916Y-115635042D01*
X159364080Y-116787741D01*
X158559560Y-116787741D01*
X158383622Y-116114928D01*
X157879639Y-115449856D01*
X157407856Y-115173664D01*
X160443270Y-115173664D01*
X162500000Y-117230395D01*
X164556730Y-115173664D01*
X164274958Y-114750916D01*
X163122259Y-114274080D01*
X161874828Y-114274660D01*
X160725042Y-114750916D01*
X160443270Y-115173664D01*
X157407856Y-115173664D01*
X157159507Y-115028276D01*
X156918672Y-114964255D01*
X156586860Y-115077205D01*
X156332860Y-115077205D01*
X156001048Y-114964255D01*
X155760213Y-115028276D01*
X155040081Y-115449856D01*
X154536098Y-116114928D01*
X154493583Y-116277511D01*
X154472363Y-116170830D01*
X154009581Y-115478228D01*
X153316979Y-115015446D01*
X152500000Y-114852939D01*
X151683021Y-115015446D01*
X150990419Y-115478228D01*
X150527637Y-116170830D01*
X150520070Y-116208872D01*
X150512503Y-116170830D01*
X150049721Y-115478228D01*
X149357119Y-115015446D01*
X148540140Y-114852939D01*
X147723161Y-115015446D01*
X147030559Y-115478228D01*
X146567777Y-116170830D01*
X146405270Y-116987809D01*
X145674394Y-116987809D01*
X145670483Y-116959839D01*
X145574677Y-116672421D01*
X145555954Y-116578295D01*
X145530706Y-116540509D01*
X145520483Y-116509839D01*
X145495366Y-116466129D01*
X145476200Y-116448400D01*
X145462091Y-116437818D01*
X145402046Y-116347954D01*
X145171705Y-116194046D01*
X145124557Y-116184668D01*
X145076200Y-116148400D01*
X145030668Y-116126759D01*
X144998451Y-116123009D01*
X143605178Y-116140000D01*
X140944092Y-116140000D01*
X140881554Y-116077462D01*
X139876636Y-114854084D01*
X139876144Y-114792609D01*
X139900000Y-114797440D01*
X141400000Y-114797440D01*
X141635317Y-114753162D01*
X141851441Y-114614090D01*
X141996431Y-114401890D01*
X141999081Y-114388803D01*
X142135910Y-114601441D01*
X142348110Y-114746431D01*
X142600000Y-114797440D01*
X144100000Y-114797440D01*
X144335317Y-114753162D01*
X144551441Y-114614090D01*
X144696431Y-114401890D01*
X144747440Y-114150000D01*
X144747440Y-113183428D01*
X145383372Y-112547496D01*
X145385910Y-112551441D01*
X145598110Y-112696431D01*
X145850000Y-112747440D01*
X147150000Y-112747440D01*
X147385317Y-112703162D01*
X147601441Y-112564090D01*
X147642485Y-112504020D01*
X147664471Y-112557229D01*
X147941314Y-112834555D01*
X148303212Y-112984828D01*
X148695069Y-112985170D01*
X149057229Y-112835529D01*
X149334555Y-112558686D01*
X149484828Y-112196788D01*
X149485170Y-111804931D01*
X149335529Y-111442771D01*
X149058686Y-111165445D01*
X148876994Y-111090000D01*
X149264250Y-111090000D01*
X149423000Y-110931250D01*
X149423000Y-110282000D01*
X148298750Y-110282000D01*
X148140000Y-110440750D01*
X148140000Y-110572685D01*
X147850000Y-110515000D01*
X147781446Y-110515000D01*
X147753162Y-110364683D01*
X147614090Y-110148559D01*
X147401890Y-110003569D01*
X147388803Y-110000919D01*
X147601441Y-109864090D01*
X147699893Y-109720000D01*
X148143600Y-109720000D01*
X148140000Y-109728690D01*
X148140000Y-109869250D01*
X148298750Y-110028000D01*
X149423000Y-110028000D01*
X149423000Y-110008000D01*
X149677000Y-110008000D01*
X149677000Y-110028000D01*
X149697000Y-110028000D01*
X149697000Y-110282000D01*
X149677000Y-110282000D01*
X149677000Y-110931250D01*
X149835750Y-111090000D01*
X150451309Y-111090000D01*
X150684698Y-110993327D01*
X150863327Y-110814699D01*
X150915000Y-110689949D01*
X150915000Y-110942386D01*
X150765172Y-111303212D01*
X150764830Y-111695069D01*
X150883205Y-111981559D01*
X150803569Y-112098110D01*
X150752560Y-112350000D01*
X150752560Y-113650000D01*
X150796838Y-113885317D01*
X150935910Y-114101441D01*
X151148110Y-114246431D01*
X151400000Y-114297440D01*
X152900000Y-114297440D01*
X153135317Y-114253162D01*
X153351441Y-114114090D01*
X153496431Y-113901890D01*
X153499081Y-113888803D01*
X153635910Y-114101441D01*
X153848110Y-114246431D01*
X154100000Y-114297440D01*
X155600000Y-114297440D01*
X155835317Y-114253162D01*
X156051441Y-114114090D01*
X156196431Y-113901890D01*
X156247440Y-113650000D01*
X156247440Y-112762241D01*
X156270460Y-112705144D01*
X156269719Y-112626822D01*
X156285000Y-112550000D01*
X156268193Y-112465506D01*
X156267378Y-112379357D01*
X156164329Y-111885750D01*
X156715000Y-111885750D01*
X156715000Y-112476309D01*
X156811673Y-112709698D01*
X156990301Y-112888327D01*
X157223690Y-112985000D01*
X157714250Y-112985000D01*
X157873000Y-112826250D01*
X157873000Y-111727000D01*
X158127000Y-111727000D01*
X158127000Y-112826250D01*
X158285750Y-112985000D01*
X158776310Y-112985000D01*
X159009699Y-112888327D01*
X159188327Y-112709698D01*
X159285000Y-112476309D01*
X159285000Y-111885750D01*
X159126250Y-111727000D01*
X158127000Y-111727000D01*
X157873000Y-111727000D01*
X156873750Y-111727000D01*
X156715000Y-111885750D01*
X156164329Y-111885750D01*
X155987855Y-111040442D01*
X156176441Y-110919090D01*
X156321431Y-110706890D01*
X156372440Y-110455000D01*
X156372440Y-109855000D01*
X156347038Y-109720000D01*
X156715731Y-109720000D01*
X156746838Y-109885317D01*
X156885910Y-110101441D01*
X157098110Y-110246431D01*
X157131490Y-110253191D01*
X156990301Y-110311673D01*
X156811673Y-110490302D01*
X156715000Y-110723691D01*
X156715000Y-111314250D01*
X156873750Y-111473000D01*
X157873000Y-111473000D01*
X157873000Y-111453000D01*
X158127000Y-111453000D01*
X158127000Y-111473000D01*
X159126250Y-111473000D01*
X159285000Y-111314250D01*
X159285000Y-110723691D01*
X159188327Y-110490302D01*
X159009699Y-110311673D01*
X158873713Y-110255346D01*
X158885317Y-110253162D01*
X159101441Y-110114090D01*
X159246431Y-109901890D01*
X159297440Y-109650000D01*
X159297440Y-108150000D01*
X159253162Y-107914683D01*
X159225040Y-107870979D01*
X159363827Y-107870979D01*
X159840192Y-109023871D01*
X160721489Y-109906708D01*
X161873548Y-110385085D01*
X163120979Y-110386173D01*
X164273871Y-109909808D01*
X165156708Y-109028511D01*
X165635085Y-107876452D01*
X165636173Y-106629021D01*
X165159808Y-105476129D01*
X164278511Y-104593292D01*
X163126452Y-104114915D01*
X162044611Y-104113971D01*
X162047440Y-104100000D01*
X162047440Y-102600000D01*
X162003162Y-102364683D01*
X161864090Y-102148559D01*
X161651890Y-102003569D01*
X161638803Y-102000919D01*
X161851441Y-101864090D01*
X161869151Y-101838171D01*
X161896838Y-101985317D01*
X162035910Y-102201441D01*
X162248110Y-102346431D01*
X162500000Y-102397440D01*
X163500000Y-102397440D01*
X163735317Y-102353162D01*
X163951441Y-102214090D01*
X164096431Y-102001890D01*
X164147440Y-101750000D01*
X164147440Y-100750000D01*
X164103162Y-100514683D01*
X163964090Y-100298559D01*
X163751890Y-100153569D01*
X163500000Y-100102560D01*
X163033428Y-100102560D01*
X162990434Y-100059566D01*
X162953667Y-100034999D01*
X162719541Y-99878561D01*
X162400000Y-99815000D01*
X162031446Y-99815000D01*
X162003162Y-99664683D01*
X161864090Y-99448559D01*
X161651890Y-99303569D01*
X161400000Y-99252560D01*
X160100000Y-99252560D01*
X159864683Y-99296838D01*
X159648559Y-99435910D01*
X159503569Y-99648110D01*
X159452560Y-99900000D01*
X159452560Y-101400000D01*
X159496838Y-101635317D01*
X159635910Y-101851441D01*
X159848110Y-101996431D01*
X159861197Y-101999081D01*
X159648559Y-102135910D01*
X159503569Y-102348110D01*
X159452560Y-102600000D01*
X159452560Y-104100000D01*
X159496838Y-104335317D01*
X159635910Y-104551441D01*
X159848110Y-104696431D01*
X160083262Y-104744051D01*
X160096528Y-104769807D01*
X160295556Y-105020014D01*
X159843292Y-105471489D01*
X159364915Y-106623548D01*
X159363827Y-107870979D01*
X159225040Y-107870979D01*
X159114090Y-107698559D01*
X158901890Y-107553569D01*
X158835000Y-107540023D01*
X158835000Y-107250000D01*
X158771439Y-106930459D01*
X158590434Y-106659566D01*
X158585000Y-106654132D01*
X158585000Y-106462630D01*
X158635317Y-106453162D01*
X158851441Y-106314090D01*
X158996431Y-106101890D01*
X159047440Y-105850000D01*
X159047440Y-104350000D01*
X159003162Y-104114683D01*
X158949646Y-104031516D01*
X158984828Y-103946788D01*
X158985170Y-103554931D01*
X158950008Y-103469832D01*
X158996431Y-103401890D01*
X159047440Y-103150000D01*
X159047440Y-101650000D01*
X159003162Y-101414683D01*
X158864090Y-101198559D01*
X158651890Y-101053569D01*
X158585000Y-101040023D01*
X158585000Y-101000000D01*
X158521439Y-100680459D01*
X158340434Y-100409566D01*
X157984727Y-100053859D01*
X157835529Y-99692771D01*
X157558686Y-99415445D01*
X157196788Y-99265172D01*
X156804931Y-99264830D01*
X156442771Y-99414471D01*
X156165445Y-99691314D01*
X156015172Y-100053212D01*
X156014830Y-100445069D01*
X156164471Y-100807229D01*
X156441314Y-101084555D01*
X156663010Y-101176611D01*
X156648559Y-101185910D01*
X156503569Y-101398110D01*
X156452560Y-101650000D01*
X156452560Y-103150000D01*
X156496838Y-103385317D01*
X156635910Y-103601441D01*
X156848110Y-103746431D01*
X156861197Y-103749081D01*
X156648559Y-103885910D01*
X156503569Y-104098110D01*
X156452560Y-104350000D01*
X156452560Y-105014959D01*
X156304931Y-105014830D01*
X155942771Y-105164471D01*
X155709275Y-105397560D01*
X154175000Y-105397560D01*
X153939683Y-105441838D01*
X153835000Y-105509200D01*
X153835000Y-104635000D01*
X154214250Y-104635000D01*
X154373000Y-104476250D01*
X154373000Y-103377000D01*
X154627000Y-103377000D01*
X154627000Y-104476250D01*
X154785750Y-104635000D01*
X155251310Y-104635000D01*
X155484699Y-104538327D01*
X155663327Y-104359698D01*
X155760000Y-104126309D01*
X155760000Y-103535750D01*
X155601250Y-103377000D01*
X154627000Y-103377000D01*
X154373000Y-103377000D01*
X154353000Y-103377000D01*
X154353000Y-103123000D01*
X154373000Y-103123000D01*
X154373000Y-103103000D01*
X154627000Y-103103000D01*
X154627000Y-103123000D01*
X155601250Y-103123000D01*
X155760000Y-102964250D01*
X155760000Y-102373691D01*
X155663327Y-102140302D01*
X155522090Y-101999064D01*
X155576441Y-101964090D01*
X155721431Y-101751890D01*
X155772440Y-101500000D01*
X155772440Y-100000000D01*
X155728162Y-99764683D01*
X155589090Y-99548559D01*
X155485019Y-99477451D01*
X155485170Y-99304931D01*
X155335529Y-98942771D01*
X155058686Y-98665445D01*
X154696788Y-98515172D01*
X154304931Y-98514830D01*
X153942771Y-98664471D01*
X153665445Y-98941314D01*
X153515172Y-99303212D01*
X153515020Y-99477056D01*
X153423559Y-99535910D01*
X153278569Y-99748110D01*
X153265023Y-99815000D01*
X152781446Y-99815000D01*
X152753162Y-99664683D01*
X152614090Y-99448559D01*
X152401890Y-99303569D01*
X152150000Y-99252560D01*
X150850000Y-99252560D01*
X150614683Y-99296838D01*
X150398559Y-99435910D01*
X150253569Y-99648110D01*
X150202560Y-99900000D01*
X150202560Y-101400000D01*
X150246838Y-101635317D01*
X150385910Y-101851441D01*
X150598110Y-101996431D01*
X150611197Y-101999081D01*
X150398559Y-102135910D01*
X150253569Y-102348110D01*
X150202560Y-102600000D01*
X150202560Y-102767569D01*
X150196788Y-102765172D01*
X150196039Y-102765171D01*
X150190434Y-102759566D01*
X150130532Y-102719541D01*
X149919541Y-102578561D01*
X149788501Y-102552495D01*
X149753162Y-102364683D01*
X149614090Y-102148559D01*
X149401890Y-102003569D01*
X149368510Y-101996809D01*
X149509699Y-101938327D01*
X149688327Y-101759698D01*
X149785000Y-101526309D01*
X149785000Y-100935750D01*
X149626250Y-100777000D01*
X148627000Y-100777000D01*
X148627000Y-100797000D01*
X148373000Y-100797000D01*
X148373000Y-100777000D01*
X147373750Y-100777000D01*
X147215000Y-100935750D01*
X147215000Y-101526309D01*
X147311673Y-101759698D01*
X147490301Y-101938327D01*
X147626287Y-101994654D01*
X147614683Y-101996838D01*
X147398559Y-102135910D01*
X147253569Y-102348110D01*
X147202560Y-102600000D01*
X147202560Y-103466572D01*
X146504132Y-104165000D01*
X145250000Y-104165000D01*
X144930459Y-104228561D01*
X144734199Y-104359698D01*
X144659566Y-104409566D01*
X142659566Y-106409566D01*
X142601399Y-106496619D01*
X142531504Y-106574573D01*
X142511706Y-106630855D01*
X142478561Y-106680460D01*
X142458136Y-106783144D01*
X142423392Y-106881913D01*
X142370442Y-107252560D01*
X142150000Y-107252560D01*
X141914683Y-107296838D01*
X141698559Y-107435910D01*
X141553569Y-107648110D01*
X141502560Y-107900000D01*
X141502560Y-109546720D01*
X141368448Y-107374111D01*
X141539147Y-107260054D01*
X141861054Y-106778285D01*
X141974093Y-106210000D01*
X141861054Y-105641715D01*
X141539147Y-105159946D01*
X141057378Y-104838039D01*
X140489093Y-104725000D01*
X140430907Y-104725000D01*
X139862622Y-104838039D01*
X139860000Y-104839791D01*
X139860000Y-103670000D01*
X141485907Y-103670000D01*
X141598946Y-104238285D01*
X141920853Y-104720054D01*
X142402622Y-105041961D01*
X142970907Y-105155000D01*
X143029093Y-105155000D01*
X143597378Y-105041961D01*
X144079147Y-104720054D01*
X144401054Y-104238285D01*
X144514093Y-103670000D01*
X144401054Y-103101715D01*
X144079147Y-102619946D01*
X143597378Y-102298039D01*
X143029093Y-102185000D01*
X142970907Y-102185000D01*
X142402622Y-102298039D01*
X141920853Y-102619946D01*
X141598946Y-103101715D01*
X141485907Y-103670000D01*
X139860000Y-103670000D01*
X139860000Y-100041423D01*
X139930436Y-100146838D01*
X139959566Y-100190434D01*
X140052560Y-100283428D01*
X140052560Y-101325000D01*
X140096838Y-101560317D01*
X140235910Y-101776441D01*
X140448110Y-101921431D01*
X140700000Y-101972440D01*
X142200000Y-101972440D01*
X142435317Y-101928162D01*
X142651441Y-101789090D01*
X142699134Y-101719289D01*
X142735910Y-101776441D01*
X142948110Y-101921431D01*
X143200000Y-101972440D01*
X144700000Y-101972440D01*
X144935317Y-101928162D01*
X145151441Y-101789090D01*
X145296431Y-101576890D01*
X145347440Y-101325000D01*
X145347440Y-100075000D01*
X145304622Y-99847440D01*
X146400000Y-99847440D01*
X146635317Y-99803162D01*
X146681116Y-99773691D01*
X147215000Y-99773691D01*
X147215000Y-100364250D01*
X147373750Y-100523000D01*
X148373000Y-100523000D01*
X148373000Y-99423750D01*
X148627000Y-99423750D01*
X148627000Y-100523000D01*
X149626250Y-100523000D01*
X149785000Y-100364250D01*
X149785000Y-99773691D01*
X149688327Y-99540302D01*
X149509699Y-99361673D01*
X149276310Y-99265000D01*
X148785750Y-99265000D01*
X148627000Y-99423750D01*
X148373000Y-99423750D01*
X148214250Y-99265000D01*
X147723690Y-99265000D01*
X147490301Y-99361673D01*
X147311673Y-99540302D01*
X147215000Y-99773691D01*
X146681116Y-99773691D01*
X146851441Y-99664090D01*
X146996431Y-99451890D01*
X147047440Y-99200000D01*
X147047440Y-97735750D01*
X147665000Y-97735750D01*
X147665000Y-97976310D01*
X147761673Y-98209699D01*
X147940302Y-98388327D01*
X148173691Y-98485000D01*
X148964250Y-98485000D01*
X149123000Y-98326250D01*
X149123000Y-97577000D01*
X149377000Y-97577000D01*
X149377000Y-98326250D01*
X149535750Y-98485000D01*
X150326309Y-98485000D01*
X150559698Y-98388327D01*
X150738327Y-98209699D01*
X150835000Y-97976310D01*
X150835000Y-97735750D01*
X150676250Y-97577000D01*
X149377000Y-97577000D01*
X149123000Y-97577000D01*
X147823750Y-97577000D01*
X147665000Y-97735750D01*
X147047440Y-97735750D01*
X147047440Y-97700000D01*
X147003162Y-97464683D01*
X146864090Y-97248559D01*
X146651890Y-97103569D01*
X146638803Y-97100919D01*
X146657816Y-97088684D01*
X146659566Y-97090434D01*
X146930459Y-97271439D01*
X147250000Y-97335000D01*
X150825331Y-97335000D01*
X150835910Y-97351441D01*
X151048110Y-97496431D01*
X151300000Y-97547440D01*
X152017569Y-97547440D01*
X152015172Y-97553212D01*
X152014830Y-97945069D01*
X152164471Y-98307229D01*
X152441314Y-98584555D01*
X152803212Y-98734828D01*
X153195069Y-98735170D01*
X153557229Y-98585529D01*
X153834555Y-98308686D01*
X153888170Y-98179566D01*
X154936384Y-97524432D01*
X155050000Y-97547440D01*
X156950000Y-97547440D01*
X157185317Y-97503162D01*
X157401441Y-97364090D01*
X157402560Y-97362452D01*
X157402560Y-97850000D01*
X157446838Y-98085317D01*
X157585910Y-98301441D01*
X157798110Y-98446431D01*
X158050000Y-98497440D01*
X159950000Y-98497440D01*
X160041928Y-98480143D01*
X160053212Y-98484828D01*
X160445069Y-98485170D01*
X160807229Y-98335529D01*
X161084555Y-98058686D01*
X161234828Y-97696788D01*
X161235117Y-97365325D01*
X161307229Y-97335529D01*
X161584555Y-97058686D01*
X161734828Y-96696788D01*
X161735170Y-96304931D01*
X161585529Y-95942771D01*
X161308686Y-95665445D01*
X160946788Y-95515172D01*
X160585000Y-95514856D01*
X160585000Y-95422998D01*
X160426252Y-95422998D01*
X160585000Y-95264250D01*
X160585000Y-95023690D01*
X160488327Y-94790301D01*
X160309698Y-94611673D01*
X160076309Y-94515000D01*
X159285750Y-94515000D01*
X159127000Y-94673750D01*
X159127000Y-95423000D01*
X159147000Y-95423000D01*
X159147000Y-95665000D01*
X158853000Y-95665000D01*
X158853000Y-95423000D01*
X158873000Y-95423000D01*
X158873000Y-94673750D01*
X158740059Y-94540809D01*
X158795868Y-94485000D01*
X159200000Y-94485000D01*
X159519541Y-94421439D01*
X159740661Y-94273691D01*
X161965000Y-94273691D01*
X161965000Y-94864250D01*
X162123750Y-95023000D01*
X163123000Y-95023000D01*
X163123000Y-93923750D01*
X162964250Y-93765000D01*
X162473690Y-93765000D01*
X162240301Y-93861673D01*
X162061673Y-94040302D01*
X161965000Y-94273691D01*
X159740661Y-94273691D01*
X159790434Y-94240434D01*
X160446141Y-93584727D01*
X160807229Y-93435529D01*
X161084555Y-93158686D01*
X161234828Y-92796788D01*
X161235170Y-92404931D01*
X161085529Y-92042771D01*
X160808686Y-91765445D01*
X160446788Y-91615172D01*
X160054931Y-91614830D01*
X159692771Y-91764471D01*
X159415445Y-92041314D01*
X159265172Y-92403212D01*
X159265171Y-92403961D01*
X158854132Y-92815000D01*
X158450000Y-92815000D01*
X158130460Y-92878560D01*
X157859566Y-93059566D01*
X156670265Y-94248867D01*
X154815179Y-94215138D01*
X154807577Y-94216507D01*
X154800000Y-94215000D01*
X154647498Y-94245334D01*
X154538590Y-94264947D01*
X154404931Y-94264830D01*
X154042771Y-94414471D01*
X153765445Y-94691314D01*
X153615172Y-95053212D01*
X153614830Y-95445069D01*
X153761384Y-95799759D01*
X153664090Y-95648559D01*
X153451890Y-95503569D01*
X153200000Y-95452560D01*
X151300000Y-95452560D01*
X151064683Y-95496838D01*
X150848559Y-95635910D01*
X150847440Y-95637548D01*
X150847440Y-95150000D01*
X150803162Y-94914683D01*
X150664090Y-94698559D01*
X150451890Y-94553569D01*
X150400100Y-94543081D01*
X150434555Y-94508686D01*
X150584828Y-94146788D01*
X150585170Y-93754931D01*
X150435529Y-93392771D01*
X150158686Y-93115445D01*
X149796788Y-92965172D01*
X149404931Y-92964830D01*
X149042771Y-93114471D01*
X149042241Y-93115000D01*
X148414980Y-93115000D01*
X148484828Y-92946788D01*
X148485170Y-92554931D01*
X148407061Y-92365893D01*
X148598110Y-92496431D01*
X148850000Y-92547440D01*
X150350000Y-92547440D01*
X150585317Y-92503162D01*
X150801441Y-92364090D01*
X150946431Y-92151890D01*
X150997440Y-91900000D01*
X150997440Y-91660541D01*
X151272560Y-91567908D01*
X151272560Y-91850000D01*
X151316838Y-92085317D01*
X151455910Y-92301441D01*
X151668110Y-92446431D01*
X151798543Y-92472844D01*
X151765172Y-92553212D01*
X151764830Y-92945069D01*
X151914471Y-93307229D01*
X152191314Y-93584555D01*
X152553212Y-93734828D01*
X152945069Y-93735170D01*
X153307229Y-93585529D01*
X153584555Y-93308686D01*
X153734828Y-92946788D01*
X153735170Y-92554931D01*
X153685180Y-92433946D01*
X153871441Y-92314090D01*
X154001533Y-92123694D01*
X154115910Y-92301441D01*
X154328110Y-92446431D01*
X154580000Y-92497440D01*
X154864959Y-92497440D01*
X154864830Y-92645069D01*
X155014471Y-93007229D01*
X155291314Y-93284555D01*
X155653212Y-93434828D01*
X156045069Y-93435170D01*
X156407229Y-93285529D01*
X156669006Y-93024208D01*
X157013175Y-92794762D01*
X157071695Y-92736364D01*
X157140434Y-92690434D01*
X157185884Y-92622413D01*
X157243792Y-92564626D01*
X157275509Y-92488279D01*
X157321439Y-92419541D01*
X157337399Y-92339306D01*
X157368785Y-92263757D01*
X157368872Y-92181083D01*
X157385000Y-92100000D01*
X157385000Y-91100000D01*
X157379147Y-91070573D01*
X157382899Y-91040808D01*
X157347549Y-90911722D01*
X157321439Y-90780459D01*
X157304772Y-90755515D01*
X157296847Y-90726576D01*
X157246847Y-90626577D01*
X157164789Y-90520846D01*
X157090434Y-90409566D01*
X157065488Y-90392897D01*
X157047093Y-90369196D01*
X156930824Y-90302918D01*
X156819541Y-90228561D01*
X156790114Y-90222708D01*
X156764050Y-90207850D01*
X156631269Y-90191111D01*
X156617815Y-90188435D01*
X156715000Y-90091250D01*
X156715000Y-90023690D01*
X156618327Y-89790301D01*
X156439698Y-89611673D01*
X156206309Y-89515000D01*
X155615750Y-89515000D01*
X155457000Y-89673750D01*
X155457000Y-90152560D01*
X155203000Y-90152560D01*
X155203000Y-89673750D01*
X155044250Y-89515000D01*
X154453691Y-89515000D01*
X154220302Y-89611673D01*
X154041673Y-89790301D01*
X154003079Y-89883474D01*
X153884090Y-89698559D01*
X153671890Y-89553569D01*
X153420000Y-89502560D01*
X152941852Y-89502560D01*
X152941161Y-89502027D01*
X152913428Y-89494522D01*
X152889540Y-89478561D01*
X152757054Y-89452208D01*
X152626671Y-89416926D01*
X152598179Y-89420605D01*
X152570000Y-89415000D01*
X152437520Y-89441352D01*
X152303553Y-89458652D01*
X152173146Y-89502560D01*
X151920000Y-89502560D01*
X151689033Y-89546019D01*
X151558686Y-89415445D01*
X151196788Y-89265172D01*
X150804931Y-89264830D01*
X150442771Y-89414471D01*
X150165445Y-89691314D01*
X150056966Y-89952560D01*
X148850000Y-89952560D01*
X148614683Y-89996838D01*
X148398559Y-90135910D01*
X148253569Y-90348110D01*
X148250919Y-90361197D01*
X148114090Y-90148559D01*
X147901890Y-90003569D01*
X147650000Y-89952560D01*
X146150000Y-89952560D01*
X145914683Y-89996838D01*
X145698559Y-90135910D01*
X145553569Y-90348110D01*
X145502560Y-90600000D01*
X145502560Y-91900000D01*
X145546838Y-92135317D01*
X145685910Y-92351441D01*
X145898110Y-92496431D01*
X146091991Y-92535693D01*
X146128561Y-92719541D01*
X146308969Y-92989540D01*
X146309566Y-92990434D01*
X146434132Y-93115000D01*
X144524669Y-93115000D01*
X144514090Y-93098559D01*
X144301890Y-92953569D01*
X144050000Y-92902560D01*
X142550000Y-92902560D01*
X142314683Y-92946838D01*
X142098559Y-93085910D01*
X141953569Y-93298110D01*
X141950919Y-93311197D01*
X141814090Y-93098559D01*
X141684991Y-93010349D01*
X141685170Y-92804931D01*
X141552987Y-92485024D01*
X141673548Y-92535085D01*
X142920979Y-92536173D01*
X144073871Y-92059808D01*
X144956708Y-91178511D01*
X145435085Y-90026452D01*
X145436173Y-88779021D01*
X145161684Y-88114707D01*
X147129894Y-86485113D01*
X147195069Y-86485170D01*
X147557229Y-86335529D01*
X147834555Y-86058686D01*
X147984828Y-85696788D01*
X147985170Y-85304931D01*
X147835529Y-84942771D01*
X147558686Y-84665445D01*
X147196788Y-84515172D01*
X146804931Y-84514830D01*
X146442771Y-84664471D01*
X146165445Y-84941314D01*
X146055210Y-85206789D01*
X144133230Y-86798106D01*
X144078511Y-86743292D01*
X142926452Y-86264915D01*
X141679021Y-86263827D01*
X140526129Y-86740192D01*
X139860000Y-87405159D01*
X139860000Y-81476336D01*
X140243270Y-81476336D01*
X140525042Y-81899084D01*
X141677741Y-82375920D01*
X142925172Y-82375340D01*
X144074958Y-81899084D01*
X144356730Y-81476336D01*
X142300000Y-79419605D01*
X140243270Y-81476336D01*
X139860000Y-81476336D01*
X139860000Y-81160983D01*
X140063664Y-81296730D01*
X142120395Y-79240000D01*
X142479605Y-79240000D01*
X144536336Y-81296730D01*
X144959084Y-81014958D01*
X145104146Y-80664285D01*
X147374760Y-80664285D01*
X147585169Y-81173515D01*
X147974436Y-81563461D01*
X148483298Y-81774759D01*
X149034285Y-81775240D01*
X149543515Y-81564831D01*
X149933461Y-81175564D01*
X150029976Y-80943130D01*
X150125169Y-81173515D01*
X150360597Y-81409354D01*
X150214786Y-82162712D01*
X149972037Y-82502560D01*
X149350000Y-82502560D01*
X149114683Y-82546838D01*
X148898559Y-82685910D01*
X148753569Y-82898110D01*
X148702560Y-83150000D01*
X148702560Y-84650000D01*
X148746838Y-84885317D01*
X148885910Y-85101441D01*
X149098110Y-85246431D01*
X149111197Y-85249081D01*
X148898559Y-85385910D01*
X148753569Y-85598110D01*
X148702560Y-85850000D01*
X148702560Y-87350000D01*
X148746838Y-87585317D01*
X148885910Y-87801441D01*
X149014878Y-87889561D01*
X149014830Y-87945069D01*
X149164471Y-88307229D01*
X149441314Y-88584555D01*
X149803212Y-88734828D01*
X150195069Y-88735170D01*
X150557229Y-88585529D01*
X150834555Y-88308686D01*
X150984828Y-87946788D01*
X150984878Y-87889096D01*
X151101441Y-87814090D01*
X151246431Y-87601890D01*
X151297440Y-87350000D01*
X151297440Y-85850000D01*
X151253162Y-85614683D01*
X151114090Y-85398559D01*
X150901890Y-85253569D01*
X150888803Y-85250919D01*
X151101441Y-85114090D01*
X151246431Y-84901890D01*
X151297440Y-84650000D01*
X151297440Y-83520172D01*
X151452560Y-83303004D01*
X151452560Y-84650000D01*
X151496838Y-84885317D01*
X151635910Y-85101441D01*
X151848110Y-85246431D01*
X151861197Y-85249081D01*
X151648559Y-85385910D01*
X151503569Y-85598110D01*
X151452560Y-85850000D01*
X151452560Y-87350000D01*
X151496838Y-87585317D01*
X151635910Y-87801441D01*
X151848110Y-87946431D01*
X152100000Y-87997440D01*
X153400000Y-87997440D01*
X153635317Y-87953162D01*
X153851441Y-87814090D01*
X153996431Y-87601890D01*
X154030227Y-87435000D01*
X154718554Y-87435000D01*
X154746838Y-87585317D01*
X154885910Y-87801441D01*
X155098110Y-87946431D01*
X155344528Y-87996332D01*
X155352730Y-88005373D01*
X155409566Y-88090434D01*
X155461184Y-88124924D01*
X155502898Y-88170906D01*
X155595400Y-88214604D01*
X155680459Y-88271439D01*
X155741348Y-88283551D01*
X155797483Y-88310069D01*
X156290294Y-88433272D01*
X156441314Y-88584555D01*
X156803212Y-88734828D01*
X157195069Y-88735170D01*
X157557229Y-88585529D01*
X157834555Y-88308686D01*
X157984828Y-87946788D01*
X157985170Y-87554931D01*
X157835529Y-87192771D01*
X157558686Y-86915445D01*
X157297440Y-86806966D01*
X157297440Y-85850000D01*
X157253162Y-85614683D01*
X157114090Y-85398559D01*
X156901890Y-85253569D01*
X156888803Y-85250919D01*
X157101441Y-85114090D01*
X157246431Y-84901890D01*
X157287791Y-84697646D01*
X157419541Y-84671439D01*
X157690434Y-84490434D01*
X158196141Y-83984727D01*
X158557229Y-83835529D01*
X158834555Y-83558686D01*
X158984828Y-83196788D01*
X158985170Y-82804931D01*
X158835529Y-82442771D01*
X158558686Y-82165445D01*
X158196788Y-82015172D01*
X157804931Y-82014830D01*
X157442771Y-82164471D01*
X157165445Y-82441314D01*
X157070886Y-82669039D01*
X156901890Y-82553569D01*
X156650000Y-82502560D01*
X155350000Y-82502560D01*
X155114683Y-82546838D01*
X154898559Y-82685910D01*
X154753569Y-82898110D01*
X154702560Y-83150000D01*
X154702560Y-84650000D01*
X154746838Y-84885317D01*
X154885910Y-85101441D01*
X155098110Y-85246431D01*
X155111197Y-85249081D01*
X154898559Y-85385910D01*
X154753569Y-85598110D01*
X154719773Y-85765000D01*
X154031446Y-85765000D01*
X154003162Y-85614683D01*
X153864090Y-85398559D01*
X153651890Y-85253569D01*
X153638803Y-85250919D01*
X153851441Y-85114090D01*
X153996431Y-84901890D01*
X154047440Y-84650000D01*
X154047440Y-83150000D01*
X154005224Y-82925644D01*
X154430434Y-82500434D01*
X154611440Y-82229540D01*
X154675000Y-81910000D01*
X154675000Y-81513436D01*
X155013461Y-81175564D01*
X155109976Y-80943130D01*
X155205169Y-81173515D01*
X155594436Y-81563461D01*
X156103298Y-81774759D01*
X156654285Y-81775240D01*
X157163515Y-81564831D01*
X157553461Y-81175564D01*
X157764759Y-80666702D01*
X157765240Y-80115715D01*
X157554831Y-79606485D01*
X157183993Y-79235000D01*
X157364250Y-79235000D01*
X157523000Y-79076250D01*
X157523000Y-77977000D01*
X157777000Y-77977000D01*
X157777000Y-79076250D01*
X157935750Y-79235000D01*
X158526309Y-79235000D01*
X158759698Y-79138327D01*
X158938327Y-78959699D01*
X159035000Y-78726310D01*
X159035000Y-78135750D01*
X158876250Y-77977000D01*
X157777000Y-77977000D01*
X157523000Y-77977000D01*
X157503000Y-77977000D01*
X157503000Y-77723000D01*
X157523000Y-77723000D01*
X157523000Y-76623750D01*
X157777000Y-76623750D01*
X157777000Y-77723000D01*
X158876250Y-77723000D01*
X159035000Y-77564250D01*
X159035000Y-76973690D01*
X158952158Y-76773690D01*
X163915000Y-76773690D01*
X163915000Y-77014250D01*
X164073750Y-77173000D01*
X165373000Y-77173000D01*
X165373000Y-76423750D01*
X165214250Y-76265000D01*
X164423691Y-76265000D01*
X164190302Y-76361673D01*
X164011673Y-76540301D01*
X163915000Y-76773690D01*
X158952158Y-76773690D01*
X158938327Y-76740301D01*
X158759698Y-76561673D01*
X158526309Y-76465000D01*
X157935750Y-76465000D01*
X157777000Y-76623750D01*
X157523000Y-76623750D01*
X157364250Y-76465000D01*
X156773691Y-76465000D01*
X156540302Y-76561673D01*
X156361673Y-76740301D01*
X156265000Y-76973690D01*
X156265000Y-77109863D01*
X156081517Y-77058088D01*
X155289605Y-77850000D01*
X156081517Y-78641912D01*
X156265000Y-78590137D01*
X156265000Y-78726310D01*
X156361673Y-78959699D01*
X156406997Y-79005023D01*
X156105715Y-79004760D01*
X155596485Y-79215169D01*
X155206539Y-79604436D01*
X155110024Y-79836870D01*
X155014831Y-79606485D01*
X154625564Y-79216539D01*
X154116702Y-79005241D01*
X153565715Y-79004760D01*
X153056485Y-79215169D01*
X152666539Y-79604436D01*
X152570024Y-79836870D01*
X152474831Y-79606485D01*
X152085564Y-79216539D01*
X151576702Y-79005241D01*
X151025715Y-79004760D01*
X150516485Y-79215169D01*
X150126539Y-79604436D01*
X150030024Y-79836870D01*
X149934831Y-79606485D01*
X149545564Y-79216539D01*
X149036702Y-79005241D01*
X148485715Y-79004760D01*
X147976485Y-79215169D01*
X147586539Y-79604436D01*
X147375241Y-80113298D01*
X147374760Y-80664285D01*
X145104146Y-80664285D01*
X145435920Y-79862259D01*
X145435340Y-78614828D01*
X145232151Y-78124285D01*
X148644760Y-78124285D01*
X148855169Y-78633515D01*
X149244436Y-79023461D01*
X149753298Y-79234759D01*
X150304285Y-79235240D01*
X150813515Y-79024831D01*
X151203461Y-78635564D01*
X151299976Y-78403130D01*
X151395169Y-78633515D01*
X151784436Y-79023461D01*
X152293298Y-79234759D01*
X152844285Y-79235240D01*
X153353515Y-79024831D01*
X153557183Y-78821517D01*
X154318088Y-78821517D01*
X154386077Y-79062460D01*
X154905171Y-79247201D01*
X155455448Y-79219230D01*
X155833923Y-79062460D01*
X155901912Y-78821517D01*
X155110000Y-78029605D01*
X154318088Y-78821517D01*
X153557183Y-78821517D01*
X153743461Y-78635564D01*
X153833377Y-78419021D01*
X153897540Y-78573923D01*
X154138483Y-78641912D01*
X154930395Y-77850000D01*
X154138483Y-77058088D01*
X153897540Y-77126077D01*
X153838268Y-77292621D01*
X153744831Y-77066485D01*
X153557157Y-76878483D01*
X154318088Y-76878483D01*
X155110000Y-77670395D01*
X155901912Y-76878483D01*
X155833923Y-76637540D01*
X155314829Y-76452799D01*
X154764552Y-76480770D01*
X154386077Y-76637540D01*
X154318088Y-76878483D01*
X153557157Y-76878483D01*
X153355564Y-76676539D01*
X152846702Y-76465241D01*
X152295715Y-76464760D01*
X151786485Y-76675169D01*
X151396539Y-77064436D01*
X151300024Y-77296870D01*
X151204831Y-77066485D01*
X150815564Y-76676539D01*
X150306702Y-76465241D01*
X149755715Y-76464760D01*
X149246485Y-76675169D01*
X148856539Y-77064436D01*
X148645241Y-77573298D01*
X148644760Y-78124285D01*
X145232151Y-78124285D01*
X144959084Y-77465042D01*
X144536336Y-77183270D01*
X142479605Y-79240000D01*
X142120395Y-79240000D01*
X140063664Y-77183270D01*
X139860000Y-77319017D01*
X139860000Y-77003664D01*
X140243270Y-77003664D01*
X142300000Y-79060395D01*
X144356730Y-77003664D01*
X144074958Y-76580916D01*
X142922259Y-76104080D01*
X141674828Y-76104660D01*
X140525042Y-76580916D01*
X140243270Y-77003664D01*
X139860000Y-77003664D01*
X139860000Y-75785000D01*
X140114250Y-75785000D01*
X140273000Y-75626250D01*
X140273000Y-74627000D01*
X140253000Y-74627000D01*
X140253000Y-74373000D01*
X140273000Y-74373000D01*
X140273000Y-74353000D01*
X140527000Y-74353000D01*
X140527000Y-74373000D01*
X140547000Y-74373000D01*
X140547000Y-74627000D01*
X140527000Y-74627000D01*
X140527000Y-75626250D01*
X140685750Y-75785000D01*
X141276309Y-75785000D01*
X141509698Y-75688327D01*
X141688327Y-75509699D01*
X141744654Y-75373713D01*
X141746838Y-75385317D01*
X141885910Y-75601441D01*
X142098110Y-75746431D01*
X142350000Y-75797440D01*
X143850000Y-75797440D01*
X144085317Y-75753162D01*
X144301441Y-75614090D01*
X144446431Y-75401890D01*
X144497440Y-75150000D01*
X144497440Y-73850000D01*
X144453162Y-73614683D01*
X144379380Y-73500022D01*
X144446431Y-73401890D01*
X144497440Y-73150000D01*
X144497440Y-71850000D01*
X144453162Y-71614683D01*
X144314090Y-71398559D01*
X144101890Y-71253569D01*
X143850000Y-71202560D01*
X142350000Y-71202560D01*
X142114683Y-71246838D01*
X142108615Y-71250743D01*
X142234828Y-70946788D01*
X142235170Y-70554931D01*
X142085529Y-70192771D01*
X141808686Y-69915445D01*
X141554746Y-69810000D01*
X145480948Y-69810000D01*
X145185730Y-70104703D01*
X145185730Y-70104703D01*
G37*
X145185730Y-70104703D02*
X144810428Y-71008529D01*
X144809574Y-71987177D01*
X145183298Y-72891657D01*
X145874703Y-73584270D01*
X146778529Y-73959572D01*
X147757177Y-73960426D01*
X148661657Y-73586702D01*
X149354270Y-72895297D01*
X149729572Y-71991471D01*
X149730426Y-71012823D01*
X149356702Y-70108343D01*
X149058879Y-69810000D01*
X157350948Y-69810000D01*
X157055730Y-70104703D01*
X156680428Y-71008529D01*
X156679574Y-71987177D01*
X157053298Y-72891657D01*
X157744703Y-73584270D01*
X158648529Y-73959572D01*
X159627177Y-73960426D01*
X160531657Y-73586702D01*
X160673000Y-73445605D01*
X160673000Y-75600000D01*
X160683006Y-75649410D01*
X160711447Y-75691035D01*
X160753841Y-75718315D01*
X160794821Y-75726894D01*
X160814878Y-75727713D01*
X160897954Y-75852046D01*
X161128295Y-76005954D01*
X161400000Y-76060000D01*
X165355908Y-76060000D01*
X165673329Y-76377421D01*
X165627000Y-76423750D01*
X165627000Y-77173000D01*
X165647000Y-77173000D01*
X165647000Y-77427000D01*
X165627000Y-77427000D01*
X165627000Y-77447000D01*
X165373000Y-77447000D01*
X165373000Y-77427000D01*
X164073750Y-77427000D01*
X163987738Y-77513012D01*
X163914090Y-77398559D01*
X163701890Y-77253569D01*
X163450000Y-77202560D01*
X161550000Y-77202560D01*
X161314683Y-77246838D01*
X161098559Y-77385910D01*
X160953569Y-77598110D01*
X160902560Y-77850000D01*
X160902560Y-78650000D01*
X160946838Y-78885317D01*
X161085910Y-79101441D01*
X161186574Y-79170222D01*
X161165445Y-79191314D01*
X161015172Y-79553212D01*
X161014830Y-79945069D01*
X161164471Y-80307229D01*
X161441314Y-80584555D01*
X161803212Y-80734828D01*
X162043480Y-80735038D01*
X162015172Y-80803212D01*
X162015171Y-80803961D01*
X161309566Y-81509566D01*
X161247060Y-81603113D01*
X161014683Y-81646838D01*
X160798559Y-81785910D01*
X160653569Y-81998110D01*
X160602560Y-82250000D01*
X160602560Y-83750000D01*
X160646838Y-83985317D01*
X160785910Y-84201441D01*
X160998110Y-84346431D01*
X161011197Y-84349081D01*
X160798559Y-84485910D01*
X160653569Y-84698110D01*
X160602560Y-84950000D01*
X160602560Y-86450000D01*
X160646838Y-86685317D01*
X160785910Y-86901441D01*
X160998110Y-87046431D01*
X161065000Y-87059977D01*
X161065000Y-89562799D01*
X160965172Y-89803212D01*
X160964830Y-90195069D01*
X161114471Y-90557229D01*
X161391314Y-90834555D01*
X161753212Y-90984828D01*
X162145069Y-90985170D01*
X162507229Y-90835529D01*
X162784555Y-90558686D01*
X162934828Y-90196788D01*
X162935170Y-89804931D01*
X162785529Y-89442771D01*
X162735000Y-89392154D01*
X162735000Y-87062630D01*
X162785317Y-87053162D01*
X163001441Y-86914090D01*
X163146431Y-86701890D01*
X163180227Y-86535000D01*
X163643554Y-86535000D01*
X163671838Y-86685317D01*
X163810910Y-86901441D01*
X164023110Y-87046431D01*
X164160913Y-87074337D01*
X163942771Y-87164471D01*
X163665445Y-87441314D01*
X163515172Y-87803212D01*
X163514885Y-88131548D01*
X163503569Y-88148110D01*
X163452560Y-88400000D01*
X163452560Y-89900000D01*
X163496838Y-90135317D01*
X163635910Y-90351441D01*
X163848110Y-90496431D01*
X163861197Y-90499081D01*
X163648559Y-90635910D01*
X163503569Y-90848110D01*
X163452560Y-91100000D01*
X163452560Y-91807129D01*
X163192771Y-91914471D01*
X162915445Y-92191314D01*
X162765172Y-92553212D01*
X162764830Y-92945069D01*
X162914471Y-93307229D01*
X163191314Y-93584555D01*
X163553212Y-93734828D01*
X163945069Y-93735170D01*
X164065000Y-93685616D01*
X164065000Y-93781026D01*
X164026310Y-93765000D01*
X163535750Y-93765000D01*
X163377000Y-93923750D01*
X163377000Y-95023000D01*
X163397000Y-95023000D01*
X163397000Y-95277000D01*
X163377000Y-95277000D01*
X163377000Y-95297000D01*
X163123000Y-95297000D01*
X163123000Y-95277000D01*
X162123750Y-95277000D01*
X161965000Y-95435750D01*
X161965000Y-96026309D01*
X162061673Y-96259698D01*
X162240301Y-96438327D01*
X162265045Y-96448576D01*
X162264947Y-96561016D01*
X162148559Y-96635910D01*
X162003569Y-96848110D01*
X161952560Y-97100000D01*
X161952560Y-98600000D01*
X161996838Y-98835317D01*
X162135910Y-99051441D01*
X162348110Y-99196431D01*
X162600000Y-99247440D01*
X163900000Y-99247440D01*
X164052560Y-99218734D01*
X164052560Y-99750000D01*
X164096838Y-99985317D01*
X164235910Y-100201441D01*
X164448110Y-100346431D01*
X164500024Y-100356944D01*
X164403569Y-100498110D01*
X164352560Y-100750000D01*
X164352560Y-101750000D01*
X164396838Y-101985317D01*
X164535910Y-102201441D01*
X164748110Y-102346431D01*
X165000000Y-102397440D01*
X166000000Y-102397440D01*
X166235317Y-102353162D01*
X166440000Y-102221452D01*
X166440000Y-120305908D01*
X165355908Y-121390000D01*
X145610000Y-121390000D01*
X145610000Y-118527028D01*
X145676877Y-117005577D01*
X145674394Y-116987809D01*
X146405270Y-116987809D01*
X146405270Y-119112191D01*
X146567777Y-119929170D01*
X147030559Y-120621772D01*
X147723161Y-121084554D01*
X148540140Y-121247061D01*
X149357119Y-121084554D01*
X150049721Y-120621772D01*
X150512503Y-119929170D01*
X150520070Y-119891128D01*
X150527637Y-119929170D01*
X150990419Y-120621772D01*
X151683021Y-121084554D01*
X152500000Y-121247061D01*
X153316979Y-121084554D01*
X154009581Y-120621772D01*
X154472363Y-119929170D01*
X154493583Y-119822489D01*
X154536098Y-119985072D01*
X155040081Y-120650144D01*
X155760213Y-121071724D01*
X156001048Y-121135745D01*
X156332860Y-121022795D01*
X156332860Y-118177000D01*
X156586860Y-118177000D01*
X156586860Y-121022795D01*
X156918672Y-121135745D01*
X157159507Y-121071724D01*
X157879639Y-120650144D01*
X158383622Y-119985072D01*
X158472199Y-119646336D01*
X160443270Y-119646336D01*
X160725042Y-120069084D01*
X161877741Y-120545920D01*
X163125172Y-120545340D01*
X164274958Y-120069084D01*
X164556730Y-119646336D01*
X162500000Y-117589605D01*
X160443270Y-119646336D01*
X158472199Y-119646336D01*
X158594730Y-119177760D01*
X158594730Y-118177000D01*
X156586860Y-118177000D01*
X156332860Y-118177000D01*
X156312860Y-118177000D01*
X156312860Y-117923000D01*
X156332860Y-117923000D01*
X156332860Y-115077205D01*
X156586860Y-115077205D01*
X156586860Y-117923000D01*
X158594730Y-117923000D01*
X158594730Y-116922240D01*
X158559560Y-116787741D01*
X159364080Y-116787741D01*
X159364660Y-118035172D01*
X159840916Y-119184958D01*
X160263664Y-119466730D01*
X162320395Y-117410000D01*
X162679605Y-117410000D01*
X164736336Y-119466730D01*
X165159084Y-119184958D01*
X165635920Y-118032259D01*
X165635340Y-116784828D01*
X165159084Y-115635042D01*
X164736336Y-115353270D01*
X162679605Y-117410000D01*
X162320395Y-117410000D01*
X160263664Y-115353270D01*
X159840916Y-115635042D01*
X159364080Y-116787741D01*
X158559560Y-116787741D01*
X158383622Y-116114928D01*
X157879639Y-115449856D01*
X157407856Y-115173664D01*
X160443270Y-115173664D01*
X162500000Y-117230395D01*
X164556730Y-115173664D01*
X164274958Y-114750916D01*
X163122259Y-114274080D01*
X161874828Y-114274660D01*
X160725042Y-114750916D01*
X160443270Y-115173664D01*
X157407856Y-115173664D01*
X157159507Y-115028276D01*
X156918672Y-114964255D01*
X156586860Y-115077205D01*
X156332860Y-115077205D01*
X156001048Y-114964255D01*
X155760213Y-115028276D01*
X155040081Y-115449856D01*
X154536098Y-116114928D01*
X154493583Y-116277511D01*
X154472363Y-116170830D01*
X154009581Y-115478228D01*
X153316979Y-115015446D01*
X152500000Y-114852939D01*
X151683021Y-115015446D01*
X150990419Y-115478228D01*
X150527637Y-116170830D01*
X150520070Y-116208872D01*
X150512503Y-116170830D01*
X150049721Y-115478228D01*
X149357119Y-115015446D01*
X148540140Y-114852939D01*
X147723161Y-115015446D01*
X147030559Y-115478228D01*
X146567777Y-116170830D01*
X146405270Y-116987809D01*
X145674394Y-116987809D01*
X145670483Y-116959839D01*
X145574677Y-116672421D01*
X145555954Y-116578295D01*
X145530706Y-116540509D01*
X145520483Y-116509839D01*
X145495366Y-116466129D01*
X145476200Y-116448400D01*
X145462091Y-116437818D01*
X145402046Y-116347954D01*
X145171705Y-116194046D01*
X145124557Y-116184668D01*
X145076200Y-116148400D01*
X145030668Y-116126759D01*
X144998451Y-116123009D01*
X143605178Y-116140000D01*
X140944092Y-116140000D01*
X140881554Y-116077462D01*
X139876636Y-114854084D01*
X139876144Y-114792609D01*
X139900000Y-114797440D01*
X141400000Y-114797440D01*
X141635317Y-114753162D01*
X141851441Y-114614090D01*
X141996431Y-114401890D01*
X141999081Y-114388803D01*
X142135910Y-114601441D01*
X142348110Y-114746431D01*
X142600000Y-114797440D01*
X144100000Y-114797440D01*
X144335317Y-114753162D01*
X144551441Y-114614090D01*
X144696431Y-114401890D01*
X144747440Y-114150000D01*
X144747440Y-113183428D01*
X145383372Y-112547496D01*
X145385910Y-112551441D01*
X145598110Y-112696431D01*
X145850000Y-112747440D01*
X147150000Y-112747440D01*
X147385317Y-112703162D01*
X147601441Y-112564090D01*
X147642485Y-112504020D01*
X147664471Y-112557229D01*
X147941314Y-112834555D01*
X148303212Y-112984828D01*
X148695069Y-112985170D01*
X149057229Y-112835529D01*
X149334555Y-112558686D01*
X149484828Y-112196788D01*
X149485170Y-111804931D01*
X149335529Y-111442771D01*
X149058686Y-111165445D01*
X148876994Y-111090000D01*
X149264250Y-111090000D01*
X149423000Y-110931250D01*
X149423000Y-110282000D01*
X148298750Y-110282000D01*
X148140000Y-110440750D01*
X148140000Y-110572685D01*
X147850000Y-110515000D01*
X147781446Y-110515000D01*
X147753162Y-110364683D01*
X147614090Y-110148559D01*
X147401890Y-110003569D01*
X147388803Y-110000919D01*
X147601441Y-109864090D01*
X147699893Y-109720000D01*
X148143600Y-109720000D01*
X148140000Y-109728690D01*
X148140000Y-109869250D01*
X148298750Y-110028000D01*
X149423000Y-110028000D01*
X149423000Y-110008000D01*
X149677000Y-110008000D01*
X149677000Y-110028000D01*
X149697000Y-110028000D01*
X149697000Y-110282000D01*
X149677000Y-110282000D01*
X149677000Y-110931250D01*
X149835750Y-111090000D01*
X150451309Y-111090000D01*
X150684698Y-110993327D01*
X150863327Y-110814699D01*
X150915000Y-110689949D01*
X150915000Y-110942386D01*
X150765172Y-111303212D01*
X150764830Y-111695069D01*
X150883205Y-111981559D01*
X150803569Y-112098110D01*
X150752560Y-112350000D01*
X150752560Y-113650000D01*
X150796838Y-113885317D01*
X150935910Y-114101441D01*
X151148110Y-114246431D01*
X151400000Y-114297440D01*
X152900000Y-114297440D01*
X153135317Y-114253162D01*
X153351441Y-114114090D01*
X153496431Y-113901890D01*
X153499081Y-113888803D01*
X153635910Y-114101441D01*
X153848110Y-114246431D01*
X154100000Y-114297440D01*
X155600000Y-114297440D01*
X155835317Y-114253162D01*
X156051441Y-114114090D01*
X156196431Y-113901890D01*
X156247440Y-113650000D01*
X156247440Y-112762241D01*
X156270460Y-112705144D01*
X156269719Y-112626822D01*
X156285000Y-112550000D01*
X156268193Y-112465506D01*
X156267378Y-112379357D01*
X156164329Y-111885750D01*
X156715000Y-111885750D01*
X156715000Y-112476309D01*
X156811673Y-112709698D01*
X156990301Y-112888327D01*
X157223690Y-112985000D01*
X157714250Y-112985000D01*
X157873000Y-112826250D01*
X157873000Y-111727000D01*
X158127000Y-111727000D01*
X158127000Y-112826250D01*
X158285750Y-112985000D01*
X158776310Y-112985000D01*
X159009699Y-112888327D01*
X159188327Y-112709698D01*
X159285000Y-112476309D01*
X159285000Y-111885750D01*
X159126250Y-111727000D01*
X158127000Y-111727000D01*
X157873000Y-111727000D01*
X156873750Y-111727000D01*
X156715000Y-111885750D01*
X156164329Y-111885750D01*
X155987855Y-111040442D01*
X156176441Y-110919090D01*
X156321431Y-110706890D01*
X156372440Y-110455000D01*
X156372440Y-109855000D01*
X156347038Y-109720000D01*
X156715731Y-109720000D01*
X156746838Y-109885317D01*
X156885910Y-110101441D01*
X157098110Y-110246431D01*
X157131490Y-110253191D01*
X156990301Y-110311673D01*
X156811673Y-110490302D01*
X156715000Y-110723691D01*
X156715000Y-111314250D01*
X156873750Y-111473000D01*
X157873000Y-111473000D01*
X157873000Y-111453000D01*
X158127000Y-111453000D01*
X158127000Y-111473000D01*
X159126250Y-111473000D01*
X159285000Y-111314250D01*
X159285000Y-110723691D01*
X159188327Y-110490302D01*
X159009699Y-110311673D01*
X158873713Y-110255346D01*
X158885317Y-110253162D01*
X159101441Y-110114090D01*
X159246431Y-109901890D01*
X159297440Y-109650000D01*
X159297440Y-108150000D01*
X159253162Y-107914683D01*
X159225040Y-107870979D01*
X159363827Y-107870979D01*
X159840192Y-109023871D01*
X160721489Y-109906708D01*
X161873548Y-110385085D01*
X163120979Y-110386173D01*
X164273871Y-109909808D01*
X165156708Y-109028511D01*
X165635085Y-107876452D01*
X165636173Y-106629021D01*
X165159808Y-105476129D01*
X164278511Y-104593292D01*
X163126452Y-104114915D01*
X162044611Y-104113971D01*
X162047440Y-104100000D01*
X162047440Y-102600000D01*
X162003162Y-102364683D01*
X161864090Y-102148559D01*
X161651890Y-102003569D01*
X161638803Y-102000919D01*
X161851441Y-101864090D01*
X161869151Y-101838171D01*
X161896838Y-101985317D01*
X162035910Y-102201441D01*
X162248110Y-102346431D01*
X162500000Y-102397440D01*
X163500000Y-102397440D01*
X163735317Y-102353162D01*
X163951441Y-102214090D01*
X164096431Y-102001890D01*
X164147440Y-101750000D01*
X164147440Y-100750000D01*
X164103162Y-100514683D01*
X163964090Y-100298559D01*
X163751890Y-100153569D01*
X163500000Y-100102560D01*
X163033428Y-100102560D01*
X162990434Y-100059566D01*
X162953667Y-100034999D01*
X162719541Y-99878561D01*
X162400000Y-99815000D01*
X162031446Y-99815000D01*
X162003162Y-99664683D01*
X161864090Y-99448559D01*
X161651890Y-99303569D01*
X161400000Y-99252560D01*
X160100000Y-99252560D01*
X159864683Y-99296838D01*
X159648559Y-99435910D01*
X159503569Y-99648110D01*
X159452560Y-99900000D01*
X159452560Y-101400000D01*
X159496838Y-101635317D01*
X159635910Y-101851441D01*
X159848110Y-101996431D01*
X159861197Y-101999081D01*
X159648559Y-102135910D01*
X159503569Y-102348110D01*
X159452560Y-102600000D01*
X159452560Y-104100000D01*
X159496838Y-104335317D01*
X159635910Y-104551441D01*
X159848110Y-104696431D01*
X160083262Y-104744051D01*
X160096528Y-104769807D01*
X160295556Y-105020014D01*
X159843292Y-105471489D01*
X159364915Y-106623548D01*
X159363827Y-107870979D01*
X159225040Y-107870979D01*
X159114090Y-107698559D01*
X158901890Y-107553569D01*
X158835000Y-107540023D01*
X158835000Y-107250000D01*
X158771439Y-106930459D01*
X158590434Y-106659566D01*
X158585000Y-106654132D01*
X158585000Y-106462630D01*
X158635317Y-106453162D01*
X158851441Y-106314090D01*
X158996431Y-106101890D01*
X159047440Y-105850000D01*
X159047440Y-104350000D01*
X159003162Y-104114683D01*
X158949646Y-104031516D01*
X158984828Y-103946788D01*
X158985170Y-103554931D01*
X158950008Y-103469832D01*
X158996431Y-103401890D01*
X159047440Y-103150000D01*
X159047440Y-101650000D01*
X159003162Y-101414683D01*
X158864090Y-101198559D01*
X158651890Y-101053569D01*
X158585000Y-101040023D01*
X158585000Y-101000000D01*
X158521439Y-100680459D01*
X158340434Y-100409566D01*
X157984727Y-100053859D01*
X157835529Y-99692771D01*
X157558686Y-99415445D01*
X157196788Y-99265172D01*
X156804931Y-99264830D01*
X156442771Y-99414471D01*
X156165445Y-99691314D01*
X156015172Y-100053212D01*
X156014830Y-100445069D01*
X156164471Y-100807229D01*
X156441314Y-101084555D01*
X156663010Y-101176611D01*
X156648559Y-101185910D01*
X156503569Y-101398110D01*
X156452560Y-101650000D01*
X156452560Y-103150000D01*
X156496838Y-103385317D01*
X156635910Y-103601441D01*
X156848110Y-103746431D01*
X156861197Y-103749081D01*
X156648559Y-103885910D01*
X156503569Y-104098110D01*
X156452560Y-104350000D01*
X156452560Y-105014959D01*
X156304931Y-105014830D01*
X155942771Y-105164471D01*
X155709275Y-105397560D01*
X154175000Y-105397560D01*
X153939683Y-105441838D01*
X153835000Y-105509200D01*
X153835000Y-104635000D01*
X154214250Y-104635000D01*
X154373000Y-104476250D01*
X154373000Y-103377000D01*
X154627000Y-103377000D01*
X154627000Y-104476250D01*
X154785750Y-104635000D01*
X155251310Y-104635000D01*
X155484699Y-104538327D01*
X155663327Y-104359698D01*
X155760000Y-104126309D01*
X155760000Y-103535750D01*
X155601250Y-103377000D01*
X154627000Y-103377000D01*
X154373000Y-103377000D01*
X154353000Y-103377000D01*
X154353000Y-103123000D01*
X154373000Y-103123000D01*
X154373000Y-103103000D01*
X154627000Y-103103000D01*
X154627000Y-103123000D01*
X155601250Y-103123000D01*
X155760000Y-102964250D01*
X155760000Y-102373691D01*
X155663327Y-102140302D01*
X155522090Y-101999064D01*
X155576441Y-101964090D01*
X155721431Y-101751890D01*
X155772440Y-101500000D01*
X155772440Y-100000000D01*
X155728162Y-99764683D01*
X155589090Y-99548559D01*
X155485019Y-99477451D01*
X155485170Y-99304931D01*
X155335529Y-98942771D01*
X155058686Y-98665445D01*
X154696788Y-98515172D01*
X154304931Y-98514830D01*
X153942771Y-98664471D01*
X153665445Y-98941314D01*
X153515172Y-99303212D01*
X153515020Y-99477056D01*
X153423559Y-99535910D01*
X153278569Y-99748110D01*
X153265023Y-99815000D01*
X152781446Y-99815000D01*
X152753162Y-99664683D01*
X152614090Y-99448559D01*
X152401890Y-99303569D01*
X152150000Y-99252560D01*
X150850000Y-99252560D01*
X150614683Y-99296838D01*
X150398559Y-99435910D01*
X150253569Y-99648110D01*
X150202560Y-99900000D01*
X150202560Y-101400000D01*
X150246838Y-101635317D01*
X150385910Y-101851441D01*
X150598110Y-101996431D01*
X150611197Y-101999081D01*
X150398559Y-102135910D01*
X150253569Y-102348110D01*
X150202560Y-102600000D01*
X150202560Y-102767569D01*
X150196788Y-102765172D01*
X150196039Y-102765171D01*
X150190434Y-102759566D01*
X150130532Y-102719541D01*
X149919541Y-102578561D01*
X149788501Y-102552495D01*
X149753162Y-102364683D01*
X149614090Y-102148559D01*
X149401890Y-102003569D01*
X149368510Y-101996809D01*
X149509699Y-101938327D01*
X149688327Y-101759698D01*
X149785000Y-101526309D01*
X149785000Y-100935750D01*
X149626250Y-100777000D01*
X148627000Y-100777000D01*
X148627000Y-100797000D01*
X148373000Y-100797000D01*
X148373000Y-100777000D01*
X147373750Y-100777000D01*
X147215000Y-100935750D01*
X147215000Y-101526309D01*
X147311673Y-101759698D01*
X147490301Y-101938327D01*
X147626287Y-101994654D01*
X147614683Y-101996838D01*
X147398559Y-102135910D01*
X147253569Y-102348110D01*
X147202560Y-102600000D01*
X147202560Y-103466572D01*
X146504132Y-104165000D01*
X145250000Y-104165000D01*
X144930459Y-104228561D01*
X144734199Y-104359698D01*
X144659566Y-104409566D01*
X142659566Y-106409566D01*
X142601399Y-106496619D01*
X142531504Y-106574573D01*
X142511706Y-106630855D01*
X142478561Y-106680460D01*
X142458136Y-106783144D01*
X142423392Y-106881913D01*
X142370442Y-107252560D01*
X142150000Y-107252560D01*
X141914683Y-107296838D01*
X141698559Y-107435910D01*
X141553569Y-107648110D01*
X141502560Y-107900000D01*
X141502560Y-109546720D01*
X141368448Y-107374111D01*
X141539147Y-107260054D01*
X141861054Y-106778285D01*
X141974093Y-106210000D01*
X141861054Y-105641715D01*
X141539147Y-105159946D01*
X141057378Y-104838039D01*
X140489093Y-104725000D01*
X140430907Y-104725000D01*
X139862622Y-104838039D01*
X139860000Y-104839791D01*
X139860000Y-103670000D01*
X141485907Y-103670000D01*
X141598946Y-104238285D01*
X141920853Y-104720054D01*
X142402622Y-105041961D01*
X142970907Y-105155000D01*
X143029093Y-105155000D01*
X143597378Y-105041961D01*
X144079147Y-104720054D01*
X144401054Y-104238285D01*
X144514093Y-103670000D01*
X144401054Y-103101715D01*
X144079147Y-102619946D01*
X143597378Y-102298039D01*
X143029093Y-102185000D01*
X142970907Y-102185000D01*
X142402622Y-102298039D01*
X141920853Y-102619946D01*
X141598946Y-103101715D01*
X141485907Y-103670000D01*
X139860000Y-103670000D01*
X139860000Y-100041423D01*
X139930436Y-100146838D01*
X139959566Y-100190434D01*
X140052560Y-100283428D01*
X140052560Y-101325000D01*
X140096838Y-101560317D01*
X140235910Y-101776441D01*
X140448110Y-101921431D01*
X140700000Y-101972440D01*
X142200000Y-101972440D01*
X142435317Y-101928162D01*
X142651441Y-101789090D01*
X142699134Y-101719289D01*
X142735910Y-101776441D01*
X142948110Y-101921431D01*
X143200000Y-101972440D01*
X144700000Y-101972440D01*
X144935317Y-101928162D01*
X145151441Y-101789090D01*
X145296431Y-101576890D01*
X145347440Y-101325000D01*
X145347440Y-100075000D01*
X145304622Y-99847440D01*
X146400000Y-99847440D01*
X146635317Y-99803162D01*
X146681116Y-99773691D01*
X147215000Y-99773691D01*
X147215000Y-100364250D01*
X147373750Y-100523000D01*
X148373000Y-100523000D01*
X148373000Y-99423750D01*
X148627000Y-99423750D01*
X148627000Y-100523000D01*
X149626250Y-100523000D01*
X149785000Y-100364250D01*
X149785000Y-99773691D01*
X149688327Y-99540302D01*
X149509699Y-99361673D01*
X149276310Y-99265000D01*
X148785750Y-99265000D01*
X148627000Y-99423750D01*
X148373000Y-99423750D01*
X148214250Y-99265000D01*
X147723690Y-99265000D01*
X147490301Y-99361673D01*
X147311673Y-99540302D01*
X147215000Y-99773691D01*
X146681116Y-99773691D01*
X146851441Y-99664090D01*
X146996431Y-99451890D01*
X147047440Y-99200000D01*
X147047440Y-97735750D01*
X147665000Y-97735750D01*
X147665000Y-97976310D01*
X147761673Y-98209699D01*
X147940302Y-98388327D01*
X148173691Y-98485000D01*
X148964250Y-98485000D01*
X149123000Y-98326250D01*
X149123000Y-97577000D01*
X149377000Y-97577000D01*
X149377000Y-98326250D01*
X149535750Y-98485000D01*
X150326309Y-98485000D01*
X150559698Y-98388327D01*
X150738327Y-98209699D01*
X150835000Y-97976310D01*
X150835000Y-97735750D01*
X150676250Y-97577000D01*
X149377000Y-97577000D01*
X149123000Y-97577000D01*
X147823750Y-97577000D01*
X147665000Y-97735750D01*
X147047440Y-97735750D01*
X147047440Y-97700000D01*
X147003162Y-97464683D01*
X146864090Y-97248559D01*
X146651890Y-97103569D01*
X146638803Y-97100919D01*
X146657816Y-97088684D01*
X146659566Y-97090434D01*
X146930459Y-97271439D01*
X147250000Y-97335000D01*
X150825331Y-97335000D01*
X150835910Y-97351441D01*
X151048110Y-97496431D01*
X151300000Y-97547440D01*
X152017569Y-97547440D01*
X152015172Y-97553212D01*
X152014830Y-97945069D01*
X152164471Y-98307229D01*
X152441314Y-98584555D01*
X152803212Y-98734828D01*
X153195069Y-98735170D01*
X153557229Y-98585529D01*
X153834555Y-98308686D01*
X153888170Y-98179566D01*
X154936384Y-97524432D01*
X155050000Y-97547440D01*
X156950000Y-97547440D01*
X157185317Y-97503162D01*
X157401441Y-97364090D01*
X157402560Y-97362452D01*
X157402560Y-97850000D01*
X157446838Y-98085317D01*
X157585910Y-98301441D01*
X157798110Y-98446431D01*
X158050000Y-98497440D01*
X159950000Y-98497440D01*
X160041928Y-98480143D01*
X160053212Y-98484828D01*
X160445069Y-98485170D01*
X160807229Y-98335529D01*
X161084555Y-98058686D01*
X161234828Y-97696788D01*
X161235117Y-97365325D01*
X161307229Y-97335529D01*
X161584555Y-97058686D01*
X161734828Y-96696788D01*
X161735170Y-96304931D01*
X161585529Y-95942771D01*
X161308686Y-95665445D01*
X160946788Y-95515172D01*
X160585000Y-95514856D01*
X160585000Y-95422998D01*
X160426252Y-95422998D01*
X160585000Y-95264250D01*
X160585000Y-95023690D01*
X160488327Y-94790301D01*
X160309698Y-94611673D01*
X160076309Y-94515000D01*
X159285750Y-94515000D01*
X159127000Y-94673750D01*
X159127000Y-95423000D01*
X159147000Y-95423000D01*
X159147000Y-95665000D01*
X158853000Y-95665000D01*
X158853000Y-95423000D01*
X158873000Y-95423000D01*
X158873000Y-94673750D01*
X158740059Y-94540809D01*
X158795868Y-94485000D01*
X159200000Y-94485000D01*
X159519541Y-94421439D01*
X159740661Y-94273691D01*
X161965000Y-94273691D01*
X161965000Y-94864250D01*
X162123750Y-95023000D01*
X163123000Y-95023000D01*
X163123000Y-93923750D01*
X162964250Y-93765000D01*
X162473690Y-93765000D01*
X162240301Y-93861673D01*
X162061673Y-94040302D01*
X161965000Y-94273691D01*
X159740661Y-94273691D01*
X159790434Y-94240434D01*
X160446141Y-93584727D01*
X160807229Y-93435529D01*
X161084555Y-93158686D01*
X161234828Y-92796788D01*
X161235170Y-92404931D01*
X161085529Y-92042771D01*
X160808686Y-91765445D01*
X160446788Y-91615172D01*
X160054931Y-91614830D01*
X159692771Y-91764471D01*
X159415445Y-92041314D01*
X159265172Y-92403212D01*
X159265171Y-92403961D01*
X158854132Y-92815000D01*
X158450000Y-92815000D01*
X158130460Y-92878560D01*
X157859566Y-93059566D01*
X156670265Y-94248867D01*
X154815179Y-94215138D01*
X154807577Y-94216507D01*
X154800000Y-94215000D01*
X154647498Y-94245334D01*
X154538590Y-94264947D01*
X154404931Y-94264830D01*
X154042771Y-94414471D01*
X153765445Y-94691314D01*
X153615172Y-95053212D01*
X153614830Y-95445069D01*
X153761384Y-95799759D01*
X153664090Y-95648559D01*
X153451890Y-95503569D01*
X153200000Y-95452560D01*
X151300000Y-95452560D01*
X151064683Y-95496838D01*
X150848559Y-95635910D01*
X150847440Y-95637548D01*
X150847440Y-95150000D01*
X150803162Y-94914683D01*
X150664090Y-94698559D01*
X150451890Y-94553569D01*
X150400100Y-94543081D01*
X150434555Y-94508686D01*
X150584828Y-94146788D01*
X150585170Y-93754931D01*
X150435529Y-93392771D01*
X150158686Y-93115445D01*
X149796788Y-92965172D01*
X149404931Y-92964830D01*
X149042771Y-93114471D01*
X149042241Y-93115000D01*
X148414980Y-93115000D01*
X148484828Y-92946788D01*
X148485170Y-92554931D01*
X148407061Y-92365893D01*
X148598110Y-92496431D01*
X148850000Y-92547440D01*
X150350000Y-92547440D01*
X150585317Y-92503162D01*
X150801441Y-92364090D01*
X150946431Y-92151890D01*
X150997440Y-91900000D01*
X150997440Y-91660541D01*
X151272560Y-91567908D01*
X151272560Y-91850000D01*
X151316838Y-92085317D01*
X151455910Y-92301441D01*
X151668110Y-92446431D01*
X151798543Y-92472844D01*
X151765172Y-92553212D01*
X151764830Y-92945069D01*
X151914471Y-93307229D01*
X152191314Y-93584555D01*
X152553212Y-93734828D01*
X152945069Y-93735170D01*
X153307229Y-93585529D01*
X153584555Y-93308686D01*
X153734828Y-92946788D01*
X153735170Y-92554931D01*
X153685180Y-92433946D01*
X153871441Y-92314090D01*
X154001533Y-92123694D01*
X154115910Y-92301441D01*
X154328110Y-92446431D01*
X154580000Y-92497440D01*
X154864959Y-92497440D01*
X154864830Y-92645069D01*
X155014471Y-93007229D01*
X155291314Y-93284555D01*
X155653212Y-93434828D01*
X156045069Y-93435170D01*
X156407229Y-93285529D01*
X156669006Y-93024208D01*
X157013175Y-92794762D01*
X157071695Y-92736364D01*
X157140434Y-92690434D01*
X157185884Y-92622413D01*
X157243792Y-92564626D01*
X157275509Y-92488279D01*
X157321439Y-92419541D01*
X157337399Y-92339306D01*
X157368785Y-92263757D01*
X157368872Y-92181083D01*
X157385000Y-92100000D01*
X157385000Y-91100000D01*
X157379147Y-91070573D01*
X157382899Y-91040808D01*
X157347549Y-90911722D01*
X157321439Y-90780459D01*
X157304772Y-90755515D01*
X157296847Y-90726576D01*
X157246847Y-90626577D01*
X157164789Y-90520846D01*
X157090434Y-90409566D01*
X157065488Y-90392897D01*
X157047093Y-90369196D01*
X156930824Y-90302918D01*
X156819541Y-90228561D01*
X156790114Y-90222708D01*
X156764050Y-90207850D01*
X156631269Y-90191111D01*
X156617815Y-90188435D01*
X156715000Y-90091250D01*
X156715000Y-90023690D01*
X156618327Y-89790301D01*
X156439698Y-89611673D01*
X156206309Y-89515000D01*
X155615750Y-89515000D01*
X155457000Y-89673750D01*
X155457000Y-90152560D01*
X155203000Y-90152560D01*
X155203000Y-89673750D01*
X155044250Y-89515000D01*
X154453691Y-89515000D01*
X154220302Y-89611673D01*
X154041673Y-89790301D01*
X154003079Y-89883474D01*
X153884090Y-89698559D01*
X153671890Y-89553569D01*
X153420000Y-89502560D01*
X152941852Y-89502560D01*
X152941161Y-89502027D01*
X152913428Y-89494522D01*
X152889540Y-89478561D01*
X152757054Y-89452208D01*
X152626671Y-89416926D01*
X152598179Y-89420605D01*
X152570000Y-89415000D01*
X152437520Y-89441352D01*
X152303553Y-89458652D01*
X152173146Y-89502560D01*
X151920000Y-89502560D01*
X151689033Y-89546019D01*
X151558686Y-89415445D01*
X151196788Y-89265172D01*
X150804931Y-89264830D01*
X150442771Y-89414471D01*
X150165445Y-89691314D01*
X150056966Y-89952560D01*
X148850000Y-89952560D01*
X148614683Y-89996838D01*
X148398559Y-90135910D01*
X148253569Y-90348110D01*
X148250919Y-90361197D01*
X148114090Y-90148559D01*
X147901890Y-90003569D01*
X147650000Y-89952560D01*
X146150000Y-89952560D01*
X145914683Y-89996838D01*
X145698559Y-90135910D01*
X145553569Y-90348110D01*
X145502560Y-90600000D01*
X145502560Y-91900000D01*
X145546838Y-92135317D01*
X145685910Y-92351441D01*
X145898110Y-92496431D01*
X146091991Y-92535693D01*
X146128561Y-92719541D01*
X146308969Y-92989540D01*
X146309566Y-92990434D01*
X146434132Y-93115000D01*
X144524669Y-93115000D01*
X144514090Y-93098559D01*
X144301890Y-92953569D01*
X144050000Y-92902560D01*
X142550000Y-92902560D01*
X142314683Y-92946838D01*
X142098559Y-93085910D01*
X141953569Y-93298110D01*
X141950919Y-93311197D01*
X141814090Y-93098559D01*
X141684991Y-93010349D01*
X141685170Y-92804931D01*
X141552987Y-92485024D01*
X141673548Y-92535085D01*
X142920979Y-92536173D01*
X144073871Y-92059808D01*
X144956708Y-91178511D01*
X145435085Y-90026452D01*
X145436173Y-88779021D01*
X145161684Y-88114707D01*
X147129894Y-86485113D01*
X147195069Y-86485170D01*
X147557229Y-86335529D01*
X147834555Y-86058686D01*
X147984828Y-85696788D01*
X147985170Y-85304931D01*
X147835529Y-84942771D01*
X147558686Y-84665445D01*
X147196788Y-84515172D01*
X146804931Y-84514830D01*
X146442771Y-84664471D01*
X146165445Y-84941314D01*
X146055210Y-85206789D01*
X144133230Y-86798106D01*
X144078511Y-86743292D01*
X142926452Y-86264915D01*
X141679021Y-86263827D01*
X140526129Y-86740192D01*
X139860000Y-87405159D01*
X139860000Y-81476336D01*
X140243270Y-81476336D01*
X140525042Y-81899084D01*
X141677741Y-82375920D01*
X142925172Y-82375340D01*
X144074958Y-81899084D01*
X144356730Y-81476336D01*
X142300000Y-79419605D01*
X140243270Y-81476336D01*
X139860000Y-81476336D01*
X139860000Y-81160983D01*
X140063664Y-81296730D01*
X142120395Y-79240000D01*
X142479605Y-79240000D01*
X144536336Y-81296730D01*
X144959084Y-81014958D01*
X145104146Y-80664285D01*
X147374760Y-80664285D01*
X147585169Y-81173515D01*
X147974436Y-81563461D01*
X148483298Y-81774759D01*
X149034285Y-81775240D01*
X149543515Y-81564831D01*
X149933461Y-81175564D01*
X150029976Y-80943130D01*
X150125169Y-81173515D01*
X150360597Y-81409354D01*
X150214786Y-82162712D01*
X149972037Y-82502560D01*
X149350000Y-82502560D01*
X149114683Y-82546838D01*
X148898559Y-82685910D01*
X148753569Y-82898110D01*
X148702560Y-83150000D01*
X148702560Y-84650000D01*
X148746838Y-84885317D01*
X148885910Y-85101441D01*
X149098110Y-85246431D01*
X149111197Y-85249081D01*
X148898559Y-85385910D01*
X148753569Y-85598110D01*
X148702560Y-85850000D01*
X148702560Y-87350000D01*
X148746838Y-87585317D01*
X148885910Y-87801441D01*
X149014878Y-87889561D01*
X149014830Y-87945069D01*
X149164471Y-88307229D01*
X149441314Y-88584555D01*
X149803212Y-88734828D01*
X150195069Y-88735170D01*
X150557229Y-88585529D01*
X150834555Y-88308686D01*
X150984828Y-87946788D01*
X150984878Y-87889096D01*
X151101441Y-87814090D01*
X151246431Y-87601890D01*
X151297440Y-87350000D01*
X151297440Y-85850000D01*
X151253162Y-85614683D01*
X151114090Y-85398559D01*
X150901890Y-85253569D01*
X150888803Y-85250919D01*
X151101441Y-85114090D01*
X151246431Y-84901890D01*
X151297440Y-84650000D01*
X151297440Y-83520172D01*
X151452560Y-83303004D01*
X151452560Y-84650000D01*
X151496838Y-84885317D01*
X151635910Y-85101441D01*
X151848110Y-85246431D01*
X151861197Y-85249081D01*
X151648559Y-85385910D01*
X151503569Y-85598110D01*
X151452560Y-85850000D01*
X151452560Y-87350000D01*
X151496838Y-87585317D01*
X151635910Y-87801441D01*
X151848110Y-87946431D01*
X152100000Y-87997440D01*
X153400000Y-87997440D01*
X153635317Y-87953162D01*
X153851441Y-87814090D01*
X153996431Y-87601890D01*
X154030227Y-87435000D01*
X154718554Y-87435000D01*
X154746838Y-87585317D01*
X154885910Y-87801441D01*
X155098110Y-87946431D01*
X155344528Y-87996332D01*
X155352730Y-88005373D01*
X155409566Y-88090434D01*
X155461184Y-88124924D01*
X155502898Y-88170906D01*
X155595400Y-88214604D01*
X155680459Y-88271439D01*
X155741348Y-88283551D01*
X155797483Y-88310069D01*
X156290294Y-88433272D01*
X156441314Y-88584555D01*
X156803212Y-88734828D01*
X157195069Y-88735170D01*
X157557229Y-88585529D01*
X157834555Y-88308686D01*
X157984828Y-87946788D01*
X157985170Y-87554931D01*
X157835529Y-87192771D01*
X157558686Y-86915445D01*
X157297440Y-86806966D01*
X157297440Y-85850000D01*
X157253162Y-85614683D01*
X157114090Y-85398559D01*
X156901890Y-85253569D01*
X156888803Y-85250919D01*
X157101441Y-85114090D01*
X157246431Y-84901890D01*
X157287791Y-84697646D01*
X157419541Y-84671439D01*
X157690434Y-84490434D01*
X158196141Y-83984727D01*
X158557229Y-83835529D01*
X158834555Y-83558686D01*
X158984828Y-83196788D01*
X158985170Y-82804931D01*
X158835529Y-82442771D01*
X158558686Y-82165445D01*
X158196788Y-82015172D01*
X157804931Y-82014830D01*
X157442771Y-82164471D01*
X157165445Y-82441314D01*
X157070886Y-82669039D01*
X156901890Y-82553569D01*
X156650000Y-82502560D01*
X155350000Y-82502560D01*
X155114683Y-82546838D01*
X154898559Y-82685910D01*
X154753569Y-82898110D01*
X154702560Y-83150000D01*
X154702560Y-84650000D01*
X154746838Y-84885317D01*
X154885910Y-85101441D01*
X155098110Y-85246431D01*
X155111197Y-85249081D01*
X154898559Y-85385910D01*
X154753569Y-85598110D01*
X154719773Y-85765000D01*
X154031446Y-85765000D01*
X154003162Y-85614683D01*
X153864090Y-85398559D01*
X153651890Y-85253569D01*
X153638803Y-85250919D01*
X153851441Y-85114090D01*
X153996431Y-84901890D01*
X154047440Y-84650000D01*
X154047440Y-83150000D01*
X154005224Y-82925644D01*
X154430434Y-82500434D01*
X154611440Y-82229540D01*
X154675000Y-81910000D01*
X154675000Y-81513436D01*
X155013461Y-81175564D01*
X155109976Y-80943130D01*
X155205169Y-81173515D01*
X155594436Y-81563461D01*
X156103298Y-81774759D01*
X156654285Y-81775240D01*
X157163515Y-81564831D01*
X157553461Y-81175564D01*
X157764759Y-80666702D01*
X157765240Y-80115715D01*
X157554831Y-79606485D01*
X157183993Y-79235000D01*
X157364250Y-79235000D01*
X157523000Y-79076250D01*
X157523000Y-77977000D01*
X157777000Y-77977000D01*
X157777000Y-79076250D01*
X157935750Y-79235000D01*
X158526309Y-79235000D01*
X158759698Y-79138327D01*
X158938327Y-78959699D01*
X159035000Y-78726310D01*
X159035000Y-78135750D01*
X158876250Y-77977000D01*
X157777000Y-77977000D01*
X157523000Y-77977000D01*
X157503000Y-77977000D01*
X157503000Y-77723000D01*
X157523000Y-77723000D01*
X157523000Y-76623750D01*
X157777000Y-76623750D01*
X157777000Y-77723000D01*
X158876250Y-77723000D01*
X159035000Y-77564250D01*
X159035000Y-76973690D01*
X158952158Y-76773690D01*
X163915000Y-76773690D01*
X163915000Y-77014250D01*
X164073750Y-77173000D01*
X165373000Y-77173000D01*
X165373000Y-76423750D01*
X165214250Y-76265000D01*
X164423691Y-76265000D01*
X164190302Y-76361673D01*
X164011673Y-76540301D01*
X163915000Y-76773690D01*
X158952158Y-76773690D01*
X158938327Y-76740301D01*
X158759698Y-76561673D01*
X158526309Y-76465000D01*
X157935750Y-76465000D01*
X157777000Y-76623750D01*
X157523000Y-76623750D01*
X157364250Y-76465000D01*
X156773691Y-76465000D01*
X156540302Y-76561673D01*
X156361673Y-76740301D01*
X156265000Y-76973690D01*
X156265000Y-77109863D01*
X156081517Y-77058088D01*
X155289605Y-77850000D01*
X156081517Y-78641912D01*
X156265000Y-78590137D01*
X156265000Y-78726310D01*
X156361673Y-78959699D01*
X156406997Y-79005023D01*
X156105715Y-79004760D01*
X155596485Y-79215169D01*
X155206539Y-79604436D01*
X155110024Y-79836870D01*
X155014831Y-79606485D01*
X154625564Y-79216539D01*
X154116702Y-79005241D01*
X153565715Y-79004760D01*
X153056485Y-79215169D01*
X152666539Y-79604436D01*
X152570024Y-79836870D01*
X152474831Y-79606485D01*
X152085564Y-79216539D01*
X151576702Y-79005241D01*
X151025715Y-79004760D01*
X150516485Y-79215169D01*
X150126539Y-79604436D01*
X150030024Y-79836870D01*
X149934831Y-79606485D01*
X149545564Y-79216539D01*
X149036702Y-79005241D01*
X148485715Y-79004760D01*
X147976485Y-79215169D01*
X147586539Y-79604436D01*
X147375241Y-80113298D01*
X147374760Y-80664285D01*
X145104146Y-80664285D01*
X145435920Y-79862259D01*
X145435340Y-78614828D01*
X145232151Y-78124285D01*
X148644760Y-78124285D01*
X148855169Y-78633515D01*
X149244436Y-79023461D01*
X149753298Y-79234759D01*
X150304285Y-79235240D01*
X150813515Y-79024831D01*
X151203461Y-78635564D01*
X151299976Y-78403130D01*
X151395169Y-78633515D01*
X151784436Y-79023461D01*
X152293298Y-79234759D01*
X152844285Y-79235240D01*
X153353515Y-79024831D01*
X153557183Y-78821517D01*
X154318088Y-78821517D01*
X154386077Y-79062460D01*
X154905171Y-79247201D01*
X155455448Y-79219230D01*
X155833923Y-79062460D01*
X155901912Y-78821517D01*
X155110000Y-78029605D01*
X154318088Y-78821517D01*
X153557183Y-78821517D01*
X153743461Y-78635564D01*
X153833377Y-78419021D01*
X153897540Y-78573923D01*
X154138483Y-78641912D01*
X154930395Y-77850000D01*
X154138483Y-77058088D01*
X153897540Y-77126077D01*
X153838268Y-77292621D01*
X153744831Y-77066485D01*
X153557157Y-76878483D01*
X154318088Y-76878483D01*
X155110000Y-77670395D01*
X155901912Y-76878483D01*
X155833923Y-76637540D01*
X155314829Y-76452799D01*
X154764552Y-76480770D01*
X154386077Y-76637540D01*
X154318088Y-76878483D01*
X153557157Y-76878483D01*
X153355564Y-76676539D01*
X152846702Y-76465241D01*
X152295715Y-76464760D01*
X151786485Y-76675169D01*
X151396539Y-77064436D01*
X151300024Y-77296870D01*
X151204831Y-77066485D01*
X150815564Y-76676539D01*
X150306702Y-76465241D01*
X149755715Y-76464760D01*
X149246485Y-76675169D01*
X148856539Y-77064436D01*
X148645241Y-77573298D01*
X148644760Y-78124285D01*
X145232151Y-78124285D01*
X144959084Y-77465042D01*
X144536336Y-77183270D01*
X142479605Y-79240000D01*
X142120395Y-79240000D01*
X140063664Y-77183270D01*
X139860000Y-77319017D01*
X139860000Y-77003664D01*
X140243270Y-77003664D01*
X142300000Y-79060395D01*
X144356730Y-77003664D01*
X144074958Y-76580916D01*
X142922259Y-76104080D01*
X141674828Y-76104660D01*
X140525042Y-76580916D01*
X140243270Y-77003664D01*
X139860000Y-77003664D01*
X139860000Y-75785000D01*
X140114250Y-75785000D01*
X140273000Y-75626250D01*
X140273000Y-74627000D01*
X140253000Y-74627000D01*
X140253000Y-74373000D01*
X140273000Y-74373000D01*
X140273000Y-74353000D01*
X140527000Y-74353000D01*
X140527000Y-74373000D01*
X140547000Y-74373000D01*
X140547000Y-74627000D01*
X140527000Y-74627000D01*
X140527000Y-75626250D01*
X140685750Y-75785000D01*
X141276309Y-75785000D01*
X141509698Y-75688327D01*
X141688327Y-75509699D01*
X141744654Y-75373713D01*
X141746838Y-75385317D01*
X141885910Y-75601441D01*
X142098110Y-75746431D01*
X142350000Y-75797440D01*
X143850000Y-75797440D01*
X144085317Y-75753162D01*
X144301441Y-75614090D01*
X144446431Y-75401890D01*
X144497440Y-75150000D01*
X144497440Y-73850000D01*
X144453162Y-73614683D01*
X144379380Y-73500022D01*
X144446431Y-73401890D01*
X144497440Y-73150000D01*
X144497440Y-71850000D01*
X144453162Y-71614683D01*
X144314090Y-71398559D01*
X144101890Y-71253569D01*
X143850000Y-71202560D01*
X142350000Y-71202560D01*
X142114683Y-71246838D01*
X142108615Y-71250743D01*
X142234828Y-70946788D01*
X142235170Y-70554931D01*
X142085529Y-70192771D01*
X141808686Y-69915445D01*
X141554746Y-69810000D01*
X145480948Y-69810000D01*
X145185730Y-70104703D01*
G36*
X165627000Y-94623000D02*
X165647000Y-94623000D01*
X165647000Y-94877000D01*
X165627000Y-94877000D01*
X165627000Y-96226250D01*
X165785750Y-96385000D01*
X166426310Y-96385000D01*
X166440000Y-96379329D01*
X166440000Y-97130911D01*
X166300000Y-97102560D01*
X164955458Y-97102560D01*
X164919541Y-97078561D01*
X164600000Y-97015000D01*
X164531446Y-97015000D01*
X164503162Y-96864683D01*
X164364090Y-96648559D01*
X164234947Y-96560319D01*
X164235045Y-96448539D01*
X164259699Y-96438327D01*
X164389372Y-96308653D01*
X164573690Y-96385000D01*
X165214250Y-96385000D01*
X165373000Y-96226250D01*
X165373000Y-94877000D01*
X165353000Y-94877000D01*
X165353000Y-94623000D01*
X165373000Y-94623000D01*
X165373000Y-94603000D01*
X165627000Y-94603000D01*
X165627000Y-94623000D01*
X165627000Y-94623000D01*
G37*
X165627000Y-94623000D02*
X165647000Y-94623000D01*
X165647000Y-94877000D01*
X165627000Y-94877000D01*
X165627000Y-96226250D01*
X165785750Y-96385000D01*
X166426310Y-96385000D01*
X166440000Y-96379329D01*
X166440000Y-97130911D01*
X166300000Y-97102560D01*
X164955458Y-97102560D01*
X164919541Y-97078561D01*
X164600000Y-97015000D01*
X164531446Y-97015000D01*
X164503162Y-96864683D01*
X164364090Y-96648559D01*
X164234947Y-96560319D01*
X164235045Y-96448539D01*
X164259699Y-96438327D01*
X164389372Y-96308653D01*
X164573690Y-96385000D01*
X165214250Y-96385000D01*
X165373000Y-96226250D01*
X165373000Y-94877000D01*
X165353000Y-94877000D01*
X165353000Y-94623000D01*
X165373000Y-94623000D01*
X165373000Y-94603000D01*
X165627000Y-94603000D01*
X165627000Y-94623000D01*
M02*
