M48
;DRILL file {KiCad 4.0.6} date 02/16/18 16:32:44
;FORMAT={2:4/ absolute / inch / keep zeros}
FMAT,2
INCH,TZ
T1C0.008
T2C0.025
T3C0.031
T4C0.035
T5C0.039
T6C0.040
T7C0.047
T8C0.128
T9C0.138
%
G90
G05
M72
T1
X041181Y-030909
X041181Y-031929
X041201Y-036890
X042972Y-030138
X043346Y-047113
X043346Y-049013
X043425Y-030118
X043890Y-029433
X044295Y-047035
X044311Y-048606
X045079Y-042386
X045157Y-030118
X045248Y-029465
X046083Y-042402
X048110Y-033701
X048685Y-038421
X048709Y-037366
X048996Y-044587
X049016Y-042146
X049154Y-030571
X049213Y-033307
X049488Y-042165
X049961Y-042165
X050157Y-036417
X050335Y-035217
X050472Y-042894
X050634Y-038457
X050843Y-038094
X051575Y-042402
X051803Y-041012
X051811Y-041358
X052047Y-037323
X052047Y-037756
X052087Y-041594
X052224Y-035531
X052224Y-040709
X052303Y-044232
X052559Y-042047
X052835Y-035551
X052894Y-029488
X053075Y-030433
X053287Y-045236
X053457Y-041146
X053878Y-045276
X053913Y-040969
X054331Y-037480
X054370Y-043071
X054409Y-036634
X054409Y-045472
X054449Y-049724
X054724Y-037500
X054724Y-042520
X054783Y-036634
X054803Y-029272
X054921Y-030689
X055000Y-035276
X055118Y-042520
X055138Y-048445
X055197Y-044213
X055256Y-032067
X055315Y-035059
X055394Y-042717
X055689Y-035276
X055709Y-042520
X055760Y-044311
X056024Y-031417
X056024Y-035059
X056280Y-031791
X056319Y-035276
X056319Y-044311
X056496Y-042874
X056516Y-045197
X056575Y-041378
X056614Y-042520
X056811Y-044803
X056870Y-040748
X056890Y-039862
X056890Y-040315
X057205Y-031673
X057224Y-031299
X057402Y-043740
X057756Y-037126
X058248Y-035236
X058287Y-036850
X058287Y-037185
X058504Y-043937
X058819Y-031319
X058839Y-031713
X058878Y-026732
X060138Y-040630
X060177Y-040965
X060197Y-041319
X060256Y-030551
X060453Y-036161
X060472Y-037165
X061102Y-036575
X061181Y-031260
X061240Y-037638
X061339Y-030472
X061378Y-040059
X061850Y-034370
X061850Y-035315
X062205Y-033150
X062461Y-036142
X063346Y-035236
X064173Y-031850
X064193Y-026555
X064193Y-045098
X064409Y-037638
X065059Y-030492
X065571Y-029587
X066161Y-032461
X066201Y-030512
X066358Y-037008
X067205Y-032441
X068563Y-032421
X068622Y-040272
X069429Y-034508
X069764Y-032421
X070118Y-037165
X073465Y-035551
X074409Y-026358
X074449Y-043524
X074764Y-041142
X075079Y-042126
X075197Y-041378
X077362Y-042520
X077480Y-039331
X077528Y-040004
X077528Y-040717
X079094Y-039724
X080945Y-040236
X081693Y-039449
X081772Y-038150
X082598Y-038150
X082677Y-039449
X083307Y-039016
T2
X032559Y-039783
X036260Y-044449
X036890Y-042559
X038219Y-044459
X039065Y-045965
X039370Y-046339
X039417Y-045496
X039783Y-046535
X040039Y-050846
X041378Y-043543
X042530Y-050039
X044331Y-051496
X045508Y-031177
X045512Y-034213
X045551Y-032717
X045591Y-040669
X045984Y-027953
X046024Y-030472
X046654Y-033189
X046693Y-031693
X047559Y-047756
X048602Y-040709
X049469Y-046161
X053406Y-038717
X053937Y-036516
X054469Y-041280
X056946Y-041213
X058346Y-037795
X058346Y-040354
X058740Y-029272
X058740Y-030079
X061693Y-033110
X062165Y-031890
X063189Y-033110
X063701Y-031850
X064094Y-049724
X064724Y-033071
X065079Y-049724
X066063Y-049626
X066102Y-038150
X068819Y-039291
X069311Y-037421
X072913Y-040866
X075236Y-040591
X080197Y-042087
X081319Y-041949
X083189Y-039921
X083268Y-038583
T3
X029646Y-027598
X029646Y-028583
X032047Y-037756
X033031Y-037756
X035276Y-035827
X035276Y-036811
X042402Y-036791
X043386Y-036791
X064567Y-036142
X065551Y-036142
X075201Y-034823
X075201Y-035807
T4
X038937Y-040024
X038937Y-041024
X040673Y-028402
X041173Y-027402
X041673Y-028402
X041890Y-040024
X041890Y-041024
X042173Y-027402
X042673Y-028402
X043173Y-027402
X043673Y-028402
X044173Y-027402
X047130Y-028402
X047630Y-027402
X048130Y-028402
X048630Y-027402
X049130Y-028402
X049630Y-027402
X050130Y-028402
X050630Y-027402
X053587Y-028402
X054087Y-027402
X054587Y-028402
X055087Y-027402
X055587Y-028402
X056087Y-027402
X056587Y-028402
X057087Y-027402
X060043Y-028402
X060543Y-027402
X061043Y-028402
X061543Y-027402
X062043Y-028402
X062543Y-027402
X063043Y-028402
X063543Y-027402
X066500Y-028402
X067000Y-027402
X067500Y-028402
X068000Y-027402
X068500Y-028402
X069000Y-027402
X069500Y-028402
X070000Y-027402
X072957Y-028402
X073457Y-027402
X073957Y-028402
X074457Y-027402
X074957Y-028402
X075457Y-027402
X075957Y-028402
X076457Y-027402
T5
X033803Y-042402
X034803Y-042402
X035339Y-039370
X035591Y-049380
X035797Y-047008
X036339Y-039370
X036591Y-049380
X036720Y-033524
X036797Y-047008
X037591Y-049380
X037720Y-033524
X037797Y-047008
X038720Y-033524
X043295Y-045965
X044295Y-045965
X045295Y-045965
X046181Y-037323
X046181Y-038323
X047433Y-040370
X047756Y-037323
X047756Y-038323
X048209Y-045059
X049598Y-047098
X050598Y-047098
X052906Y-046969
X053906Y-046969
X054906Y-046969
X055906Y-046969
X062047Y-047087
X062969Y-042390
X063047Y-047087
X063969Y-042390
X064047Y-047087
X065047Y-047087
X066047Y-047087
X067244Y-038094
X067244Y-039094
X072717Y-045827
X073717Y-045827
X074717Y-045827
X075717Y-045827
T6
X071260Y-036772
X071260Y-037772
X071260Y-038772
X072260Y-036772
X072260Y-037772
X072260Y-038772
T7
X029685Y-032535
X032638Y-032535
T8
X040087Y-024902
X044760Y-024902
X046543Y-024902
X051217Y-024902
X053000Y-024902
X057673Y-024902
X059457Y-024902
X064130Y-024902
X065913Y-024902
X070587Y-024902
X072370Y-024902
X077043Y-024902
T9
X033780Y-027087
X033780Y-048425
X078898Y-027087
X078898Y-048425
T5
X035394Y-025039G85X035394Y-025827
G05
X037638Y-024252G85X036850Y-024252
G05
X037638Y-026614G85X036850Y-026614
G05
T0
M30
