G04 #@! TF.FileFunction,Soldermask,Bot*
%FSLAX46Y46*%
G04 Gerber Fmt 4.6, Leading zero omitted, Abs format (unit mm)*
G04 Created by KiCad (PCBNEW 4.0.6) date 02/16/18 16:32:41*
%MOMM*%
%LPD*%
G01*
G04 APERTURE LIST*
%ADD10C,0.100000*%
%ADD11C,4.050000*%
%ADD12R,1.900000X1.900000*%
%ADD13C,1.900000*%
%ADD14R,2.000000X2.000000*%
%ADD15C,2.000000*%
%ADD16R,2.100000X2.100000*%
%ADD17O,2.100000X2.100000*%
%ADD18R,2.127200X2.127200*%
%ADD19O,2.127200X2.127200*%
%ADD20R,2.200000X2.200000*%
%ADD21O,2.200000X2.200000*%
%ADD22R,3.900000X3.900000*%
%ADD23C,3.900000*%
%ADD24C,2.200000*%
%ADD25R,2.800000X2.800000*%
%ADD26C,2.800000*%
G04 APERTURE END LIST*
D10*
D11*
X183820000Y-63250000D03*
X195690000Y-63250000D03*
D12*
X194200000Y-69600000D03*
D13*
X192930000Y-72140000D03*
X191660000Y-69600000D03*
X190390000Y-72140000D03*
X189120000Y-69600000D03*
X187850000Y-72140000D03*
X186580000Y-69600000D03*
X185310000Y-72140000D03*
D14*
X75300000Y-70100000D03*
D15*
X75300000Y-72600000D03*
D14*
X89600000Y-93500000D03*
D15*
X89600000Y-91000000D03*
D14*
X83900000Y-95900000D03*
D15*
X81400000Y-95900000D03*
D14*
X164000000Y-91800000D03*
D15*
X166500000Y-91800000D03*
D14*
X110200000Y-93450000D03*
D15*
X107700000Y-93450000D03*
D16*
X142000000Y-119300000D03*
D17*
X139460000Y-119300000D03*
X136920000Y-119300000D03*
X134380000Y-119300000D03*
D16*
X157600000Y-119600000D03*
D17*
X160140000Y-119600000D03*
X162680000Y-119600000D03*
X165220000Y-119600000D03*
X167760000Y-119600000D03*
D18*
X181000000Y-93400000D03*
D19*
X183540000Y-93400000D03*
X181000000Y-95940000D03*
X183540000Y-95940000D03*
X181000000Y-98480000D03*
X183540000Y-98480000D03*
D11*
X167420000Y-63250000D03*
X179290000Y-63250000D03*
D12*
X177800000Y-69600000D03*
D13*
X176530000Y-72140000D03*
X175260000Y-69600000D03*
X173990000Y-72140000D03*
X172720000Y-69600000D03*
X171450000Y-72140000D03*
X170180000Y-69600000D03*
X168910000Y-72140000D03*
D11*
X151020000Y-63250000D03*
X162890000Y-63250000D03*
D12*
X161400000Y-69600000D03*
D13*
X160130000Y-72140000D03*
X158860000Y-69600000D03*
X157590000Y-72140000D03*
X156320000Y-69600000D03*
X155050000Y-72140000D03*
X153780000Y-69600000D03*
X152510000Y-72140000D03*
D11*
X134620000Y-63250000D03*
X146490000Y-63250000D03*
D12*
X145000000Y-69600000D03*
D13*
X143730000Y-72140000D03*
X142460000Y-69600000D03*
X141190000Y-72140000D03*
X139920000Y-69600000D03*
X138650000Y-72140000D03*
X137380000Y-69600000D03*
X136110000Y-72140000D03*
D11*
X118220000Y-63250000D03*
X130090000Y-63250000D03*
D12*
X128600000Y-69600000D03*
D13*
X127330000Y-72140000D03*
X126060000Y-69600000D03*
X124790000Y-72140000D03*
X123520000Y-69600000D03*
X122250000Y-72140000D03*
X120980000Y-69600000D03*
X119710000Y-72140000D03*
D11*
X101820000Y-63250000D03*
X113690000Y-63250000D03*
D12*
X112200000Y-69600000D03*
D13*
X110930000Y-72140000D03*
X109660000Y-69600000D03*
X108390000Y-72140000D03*
X107120000Y-69600000D03*
X105850000Y-72140000D03*
X104580000Y-69600000D03*
X103310000Y-72140000D03*
D20*
X93270000Y-85150000D03*
D21*
X95810000Y-85150000D03*
X98350000Y-85150000D03*
D22*
X94600000Y-67600000D03*
X94600000Y-61600000D03*
X89900000Y-64600000D03*
D16*
X115050000Y-116750000D03*
D17*
X112510000Y-116750000D03*
X109970000Y-116750000D03*
D23*
X85800000Y-123000000D03*
X200400000Y-123000000D03*
X200400000Y-68800000D03*
X85800000Y-68800000D03*
D20*
X106400000Y-104200000D03*
D24*
X106400000Y-101660000D03*
D20*
X98900000Y-104200000D03*
D24*
X98900000Y-101660000D03*
D16*
X90400000Y-125425000D03*
D17*
X92940000Y-125425000D03*
X95480000Y-125425000D03*
D16*
X90925000Y-119400000D03*
D17*
X93465000Y-119400000D03*
X96005000Y-119400000D03*
D14*
X191010000Y-90950000D03*
D15*
X191010000Y-88450000D03*
D16*
X120480000Y-102540000D03*
X122450000Y-114450000D03*
X170800000Y-99300000D03*
D17*
X170800000Y-96760000D03*
D16*
X88400000Y-107700000D03*
D17*
X85860000Y-107700000D03*
D16*
X92300000Y-100000000D03*
D17*
X89760000Y-100000000D03*
D16*
X184700000Y-116400000D03*
D17*
X187240000Y-116400000D03*
X189780000Y-116400000D03*
X192320000Y-116400000D03*
D25*
X75400000Y-82640000D03*
D26*
X82900000Y-82640000D03*
D16*
X117300000Y-94800000D03*
D17*
X117300000Y-97340000D03*
D16*
X159940000Y-107670000D03*
D17*
X162480000Y-107670000D03*
D16*
X128520000Y-119630000D03*
D17*
X125980000Y-119630000D03*
D16*
X121300000Y-94800000D03*
D17*
X121300000Y-97340000D03*
M02*
