G04 #@! TF.FileFunction,Soldermask,Top*
%FSLAX46Y46*%
G04 Gerber Fmt 4.6, Leading zero omitted, Abs format (unit mm)*
G04 Created by KiCad (PCBNEW 4.0.6) date 02/16/18 16:32:41*
%MOMM*%
%LPD*%
G01*
G04 APERTURE LIST*
%ADD10C,0.100000*%
%ADD11R,0.950000X1.900000*%
%ADD12R,1.900000X0.950000*%
%ADD13C,4.050000*%
%ADD14R,1.900000X1.900000*%
%ADD15C,1.900000*%
%ADD16R,2.000000X2.000000*%
%ADD17C,2.000000*%
%ADD18R,1.150000X1.600000*%
%ADD19R,1.600000X1.150000*%
%ADD20R,2.100000X2.100000*%
%ADD21O,2.100000X2.100000*%
%ADD22R,2.127200X2.127200*%
%ADD23O,2.127200X2.127200*%
%ADD24R,1.600000X1.300000*%
%ADD25R,2.400000X2.100000*%
%ADD26R,1.300000X1.600000*%
%ADD27R,2.200000X2.200000*%
%ADD28O,2.200000X2.200000*%
%ADD29R,1.950000X1.000000*%
%ADD30R,3.900000X3.900000*%
%ADD31C,3.900000*%
%ADD32C,2.200000*%
%ADD33R,0.908000X1.543000*%
%ADD34R,1.543000X0.908000*%
%ADD35R,1.200000X2.300000*%
%ADD36R,2.800000X2.800000*%
%ADD37C,2.800000*%
%ADD38R,1.900000X1.700000*%
%ADD39R,2.250000X1.100000*%
%ADD40R,2.150000X1.100000*%
%ADD41R,1.800000X1.600000*%
%ADD42R,2.100000X1.400000*%
%ADD43R,1.900000X1.600000*%
%ADD44R,1.400000X2.250000*%
G04 APERTURE END LIST*
D10*
D11*
X147850000Y-91140000D03*
X147050000Y-91140000D03*
X146250000Y-91140000D03*
X145450000Y-91140000D03*
X144650000Y-91140000D03*
X143850000Y-91140000D03*
X143050000Y-91140000D03*
X142250000Y-91140000D03*
X141450000Y-91140000D03*
X140650000Y-91140000D03*
X139850000Y-91140000D03*
X139050000Y-91140000D03*
X138250000Y-91140000D03*
X137450000Y-91140000D03*
X136650000Y-91140000D03*
X135850000Y-91140000D03*
D12*
X134150000Y-92840000D03*
X134150000Y-93640000D03*
X134150000Y-94440000D03*
X134150000Y-95240000D03*
X134150000Y-96040000D03*
X134150000Y-96840000D03*
X134150000Y-97640000D03*
X134150000Y-98440000D03*
X134150000Y-99240000D03*
X134150000Y-100040000D03*
X134150000Y-100840000D03*
X134150000Y-101640000D03*
X134150000Y-102440000D03*
X134150000Y-103240000D03*
X134150000Y-104040000D03*
X134150000Y-104840000D03*
D11*
X135850000Y-106540000D03*
X136650000Y-106540000D03*
X137450000Y-106540000D03*
X138250000Y-106540000D03*
X139050000Y-106540000D03*
X139850000Y-106540000D03*
X140650000Y-106540000D03*
X141450000Y-106540000D03*
X142250000Y-106540000D03*
X143050000Y-106540000D03*
X143850000Y-106540000D03*
X144650000Y-106540000D03*
X145450000Y-106540000D03*
X146250000Y-106540000D03*
X147050000Y-106540000D03*
X147850000Y-106540000D03*
D12*
X149550000Y-104840000D03*
X149550000Y-104040000D03*
X149550000Y-103240000D03*
X149550000Y-102440000D03*
X149550000Y-101640000D03*
X149550000Y-100840000D03*
X149550000Y-100040000D03*
X149550000Y-99240000D03*
X149550000Y-98440000D03*
X149550000Y-97640000D03*
X149550000Y-96840000D03*
X149550000Y-96040000D03*
X149550000Y-95240000D03*
X149550000Y-94440000D03*
X149550000Y-93640000D03*
X149550000Y-92840000D03*
D13*
X183820000Y-63250000D03*
X195690000Y-63250000D03*
D14*
X194200000Y-69600000D03*
D15*
X192930000Y-72140000D03*
X191660000Y-69600000D03*
X190390000Y-72140000D03*
X189120000Y-69600000D03*
X187850000Y-72140000D03*
X186580000Y-69600000D03*
X185310000Y-72140000D03*
D16*
X75300000Y-70100000D03*
D17*
X75300000Y-72600000D03*
D16*
X89600000Y-93500000D03*
D17*
X89600000Y-91000000D03*
D18*
X167800000Y-122600000D03*
X167800000Y-124500000D03*
D19*
X139840000Y-126120000D03*
X141740000Y-126120000D03*
D16*
X83900000Y-95900000D03*
D17*
X81400000Y-95900000D03*
D18*
X165300000Y-122600000D03*
X165300000Y-124500000D03*
D19*
X139850000Y-124050000D03*
X141750000Y-124050000D03*
D18*
X162800000Y-122600000D03*
X162800000Y-124500000D03*
D19*
X131900000Y-98500000D03*
X130000000Y-98500000D03*
X151950000Y-102000000D03*
X153850000Y-102000000D03*
D18*
X137000000Y-88450000D03*
X137000000Y-86550000D03*
X136500000Y-109050000D03*
X136500000Y-110950000D03*
D19*
X144850000Y-109300000D03*
X146750000Y-109300000D03*
X153850000Y-95500000D03*
X151950000Y-95500000D03*
D16*
X164000000Y-91800000D03*
D17*
X166500000Y-91800000D03*
D16*
X110200000Y-93450000D03*
D17*
X107700000Y-93450000D03*
D20*
X142000000Y-119300000D03*
D21*
X139460000Y-119300000D03*
X136920000Y-119300000D03*
X134380000Y-119300000D03*
D20*
X157600000Y-119600000D03*
D21*
X160140000Y-119600000D03*
X162680000Y-119600000D03*
X165220000Y-119600000D03*
X167760000Y-119600000D03*
D22*
X181000000Y-93400000D03*
D23*
X183540000Y-93400000D03*
X181000000Y-95940000D03*
X183540000Y-95940000D03*
X181000000Y-98480000D03*
X183540000Y-98480000D03*
D13*
X167420000Y-63250000D03*
X179290000Y-63250000D03*
D14*
X177800000Y-69600000D03*
D15*
X176530000Y-72140000D03*
X175260000Y-69600000D03*
X173990000Y-72140000D03*
X172720000Y-69600000D03*
X171450000Y-72140000D03*
X170180000Y-69600000D03*
X168910000Y-72140000D03*
D13*
X151020000Y-63250000D03*
X162890000Y-63250000D03*
D14*
X161400000Y-69600000D03*
D15*
X160130000Y-72140000D03*
X158860000Y-69600000D03*
X157590000Y-72140000D03*
X156320000Y-69600000D03*
X155050000Y-72140000D03*
X153780000Y-69600000D03*
X152510000Y-72140000D03*
D13*
X134620000Y-63250000D03*
X146490000Y-63250000D03*
D14*
X145000000Y-69600000D03*
D15*
X143730000Y-72140000D03*
X142460000Y-69600000D03*
X141190000Y-72140000D03*
X139920000Y-69600000D03*
X138650000Y-72140000D03*
X137380000Y-69600000D03*
X136110000Y-72140000D03*
D13*
X118220000Y-63250000D03*
X130090000Y-63250000D03*
D14*
X128600000Y-69600000D03*
D15*
X127330000Y-72140000D03*
X126060000Y-69600000D03*
X124790000Y-72140000D03*
X123520000Y-69600000D03*
X122250000Y-72140000D03*
X120980000Y-69600000D03*
X119710000Y-72140000D03*
D13*
X101820000Y-63250000D03*
X113690000Y-63250000D03*
D14*
X112200000Y-69600000D03*
D15*
X110930000Y-72140000D03*
X109660000Y-69600000D03*
X108390000Y-72140000D03*
X107120000Y-69600000D03*
X105850000Y-72140000D03*
X104580000Y-69600000D03*
X103310000Y-72140000D03*
D24*
X95400000Y-93500000D03*
X97600000Y-93500000D03*
D25*
X90700000Y-76800000D03*
X94700000Y-76800000D03*
X94700000Y-73900000D03*
X90700000Y-73900000D03*
X94700000Y-79700000D03*
X90700000Y-79700000D03*
D26*
X188600000Y-98200000D03*
X188600000Y-96000000D03*
D27*
X93270000Y-85150000D03*
D28*
X95810000Y-85150000D03*
X98350000Y-85150000D03*
D29*
X106450000Y-124875000D03*
X106450000Y-123605000D03*
X106450000Y-122335000D03*
X106450000Y-121065000D03*
X101050000Y-121065000D03*
X101050000Y-122335000D03*
X101050000Y-123605000D03*
X101050000Y-124875000D03*
D30*
X94600000Y-67600000D03*
X94600000Y-61600000D03*
X89900000Y-64600000D03*
D20*
X115050000Y-116750000D03*
D21*
X112510000Y-116750000D03*
X109970000Y-116750000D03*
D31*
X85800000Y-123000000D03*
X200400000Y-123000000D03*
X200400000Y-68800000D03*
X85800000Y-68800000D03*
D27*
X106400000Y-104200000D03*
D32*
X106400000Y-101660000D03*
D27*
X98900000Y-104200000D03*
D32*
X98900000Y-101660000D03*
D25*
X109100000Y-108100000D03*
X105100000Y-108100000D03*
X100500000Y-108100000D03*
X96500000Y-108100000D03*
D19*
X106125000Y-127050000D03*
X104225000Y-127050000D03*
D33*
X156690000Y-85802000D03*
X157960000Y-85802000D03*
X159230000Y-85802000D03*
X160500000Y-85802000D03*
X161770000Y-85802000D03*
X163040000Y-85802000D03*
X164310000Y-85802000D03*
X164310000Y-79452000D03*
X163040000Y-79452000D03*
X160500000Y-79452000D03*
X159230000Y-79452000D03*
X157960000Y-79452000D03*
X156690000Y-79452000D03*
X161770000Y-79452000D03*
D34*
X113898000Y-79190000D03*
X113898000Y-80460000D03*
X113898000Y-81730000D03*
X113898000Y-83000000D03*
X113898000Y-84270000D03*
X113898000Y-85540000D03*
X113898000Y-86810000D03*
X120248000Y-86810000D03*
X120248000Y-85540000D03*
X120248000Y-83000000D03*
X120248000Y-81730000D03*
X120248000Y-80460000D03*
X120248000Y-79190000D03*
X120248000Y-84270000D03*
D35*
X93575000Y-115925000D03*
X95475000Y-115925000D03*
X94525000Y-112925000D03*
D26*
X98500000Y-125875000D03*
X98500000Y-128075000D03*
D24*
X95660000Y-122250000D03*
X97860000Y-122250000D03*
D26*
X110150000Y-127150000D03*
X110150000Y-129350000D03*
X112600000Y-127100000D03*
X112600000Y-129300000D03*
D20*
X90400000Y-125425000D03*
D21*
X92940000Y-125425000D03*
X95480000Y-125425000D03*
D20*
X90925000Y-119400000D03*
D21*
X93465000Y-119400000D03*
X96005000Y-119400000D03*
D26*
X125200000Y-101100000D03*
X125200000Y-103300000D03*
X125650000Y-113350000D03*
X125650000Y-115550000D03*
D24*
X164300000Y-96900000D03*
X166500000Y-96900000D03*
X164300000Y-98600000D03*
X166500000Y-98600000D03*
X127300000Y-101100000D03*
X129500000Y-101100000D03*
X125750000Y-111350000D03*
X127950000Y-111350000D03*
X162000000Y-96900000D03*
X159800000Y-96900000D03*
X162000000Y-98500000D03*
X159800000Y-98500000D03*
D26*
X160700000Y-94000000D03*
X160700000Y-91800000D03*
D16*
X191010000Y-90950000D03*
D17*
X191010000Y-88450000D03*
D18*
X198000000Y-91950000D03*
X198000000Y-90050000D03*
D24*
X195100000Y-103000000D03*
X192900000Y-103000000D03*
X192900000Y-97000000D03*
X195100000Y-97000000D03*
X192900000Y-99000000D03*
X195100000Y-99000000D03*
X195100000Y-105000000D03*
X192900000Y-105000000D03*
X195100000Y-107000000D03*
X192900000Y-107000000D03*
X195100000Y-101000000D03*
X192900000Y-101000000D03*
D20*
X120480000Y-102540000D03*
X122450000Y-114450000D03*
X170800000Y-99300000D03*
D21*
X170800000Y-96760000D03*
D24*
X195100000Y-109000000D03*
X192900000Y-109000000D03*
D20*
X88400000Y-107700000D03*
D21*
X85860000Y-107700000D03*
D20*
X92300000Y-100000000D03*
D21*
X89760000Y-100000000D03*
D20*
X184700000Y-116400000D03*
D21*
X187240000Y-116400000D03*
X189780000Y-116400000D03*
X192320000Y-116400000D03*
D36*
X75400000Y-82640000D03*
D37*
X82900000Y-82640000D03*
D20*
X117300000Y-94800000D03*
D21*
X117300000Y-97340000D03*
D20*
X159940000Y-107670000D03*
D21*
X162480000Y-107670000D03*
D20*
X128520000Y-119630000D03*
D21*
X125980000Y-119630000D03*
D20*
X121300000Y-94800000D03*
D21*
X121300000Y-97340000D03*
D38*
X214250000Y-104700000D03*
D39*
X214400000Y-103400000D03*
D40*
X214350000Y-102300000D03*
X214350000Y-101200000D03*
X214350000Y-100100000D03*
X214350000Y-99000000D03*
X214350000Y-97900000D03*
X214350000Y-96800000D03*
D39*
X214400000Y-95700000D03*
D14*
X214250000Y-93750000D03*
D41*
X206000000Y-93150000D03*
D42*
X203550000Y-93750000D03*
D43*
X206650000Y-104900000D03*
D44*
X205150000Y-104350000D03*
D19*
X173850000Y-98300000D03*
X175750000Y-98300000D03*
X173850000Y-96300000D03*
X175750000Y-96300000D03*
D18*
X122300000Y-117850000D03*
X122300000Y-119750000D03*
X117300000Y-100850000D03*
X117300000Y-102750000D03*
M02*
