M48
;DRILL file {KiCad 4.0.6} date 03/05/19 05:03:20
;FORMAT={2:4/ absolute / inch / keep zeros}
FMAT,2
INCH,TZ
T1C0.016
T2C0.024
T3C0.028
T4C0.031
T5C0.035
T6C0.071
T7C0.098
T8C0.128
%
G90
G05
M72
T1
X057008Y-041850
X057087Y-031299
X057598Y-036831
X057598Y-044409
X057795Y-042244
X057953Y-030394
X057992Y-035650
X057992Y-037421
X058386Y-035945
X058976Y-039980
X059173Y-041850
X059272Y-038996
X059469Y-035453
X059764Y-041260
X060551Y-041260
X060748Y-035059
X060748Y-040669
X061142Y-040177
X061535Y-043720
X061831Y-038406
X062913Y-041260
X063307Y-038602
X064193Y-041555
T2
X063504Y-035945
X064291Y-035945
T3
X055827Y-040512
X055827Y-041260
X055827Y-042441
X055827Y-043189
X055866Y-044409
X056614Y-044409
X057008Y-040472
X057008Y-041220
X057008Y-042441
X057008Y-043189
X058583Y-038150
X058583Y-038898
X062224Y-039724
X062224Y-040472
X062520Y-037756
X062520Y-038504
X063740Y-042441
X064488Y-042441
X064685Y-040315
X064685Y-041063
T4
X056142Y-029921
X056142Y-030709
X056299Y-032520
X056299Y-033504
X056299Y-035315
X056299Y-036299
X057008Y-037898
X057008Y-038898
X058976Y-033622
X059961Y-033622
X062441Y-033110
X062441Y-034094
X062520Y-042047
X062520Y-043047
X064390Y-038012
X064390Y-039012
X064606Y-031732
X064606Y-032520
T5
X058547Y-031630
X059047Y-030630
X059547Y-031630
X060047Y-030630
X060157Y-038110
X060157Y-039110
X060547Y-031630
X061047Y-030630
X061547Y-031630
X062047Y-030630
X063602Y-039783
X063602Y-040783
T6
X058205Y-046673
X059764Y-046673
X061323Y-046673
T7
X062618Y-044902
X064587Y-046870
T8
X057961Y-028130
X062634Y-028130
T0
M30
