G04 #@! TF.FileFunction,Soldermask,Bot*
%FSLAX46Y46*%
G04 Gerber Fmt 4.6, Leading zero omitted, Abs format (unit mm)*
G04 Created by KiCad (PCBNEW 4.0.6) date 03/05/19 05:03:15*
%MOMM*%
%LPD*%
G01*
G04 APERTURE LIST*
%ADD10C,0.100000*%
%ADD11C,5.401260*%
%ADD12C,4.050000*%
%ADD13R,1.900000X1.900000*%
%ADD14C,1.900000*%
%ADD15O,3.399740X5.401260*%
%ADD16R,2.000000X2.000000*%
%ADD17C,2.000000*%
%ADD18R,1.600000X1.600000*%
%ADD19C,1.600000*%
%ADD20O,2.000000X2.000000*%
%ADD21R,2.200000X2.200000*%
%ADD22O,2.200000X2.200000*%
%ADD23C,1.800000*%
%ADD24O,1.800000X1.800000*%
G04 APERTURE END LIST*
D10*
D11*
X164050000Y-119050000D03*
X159050000Y-114050000D03*
D12*
X147220000Y-71450000D03*
X159090000Y-71450000D03*
D13*
X157600000Y-77800000D03*
D14*
X156330000Y-80340000D03*
X155060000Y-77800000D03*
X153790000Y-80340000D03*
X152520000Y-77800000D03*
X151250000Y-80340000D03*
X149980000Y-77800000D03*
X148710000Y-80340000D03*
D15*
X155759860Y-118550000D03*
X151800000Y-118550000D03*
X147840140Y-118550000D03*
D16*
X164100000Y-80600000D03*
D17*
X164100000Y-82600000D03*
D18*
X161300000Y-91300000D03*
D19*
X163300000Y-91300000D03*
D16*
X158800000Y-106800000D03*
D20*
X158800000Y-109340000D03*
D16*
X142600000Y-76000000D03*
D17*
X142600000Y-78000000D03*
D16*
X143000000Y-82600000D03*
D17*
X143000000Y-85100000D03*
D16*
X149800000Y-85400000D03*
D17*
X152300000Y-85400000D03*
D16*
X158600000Y-86600000D03*
D17*
X158600000Y-84100000D03*
D16*
X143000000Y-92200000D03*
D17*
X143000000Y-89700000D03*
D21*
X161550000Y-101050000D03*
D22*
X161550000Y-103590000D03*
D21*
X152800000Y-96800000D03*
D22*
X152800000Y-99340000D03*
D16*
X163550000Y-96550000D03*
D20*
X163550000Y-99090000D03*
D17*
X144800000Y-98800000D03*
D20*
X144800000Y-96260000D03*
D23*
X144800000Y-107800000D03*
D24*
X144800000Y-109700000D03*
D23*
X143800000Y-112800000D03*
D24*
X141900000Y-112800000D03*
D23*
X158050000Y-102800000D03*
D24*
X158050000Y-100900000D03*
D23*
X141800000Y-104800000D03*
D24*
X141800000Y-102900000D03*
D23*
X158800000Y-97800000D03*
D24*
X158800000Y-95900000D03*
D23*
X163800000Y-107800000D03*
D24*
X161900000Y-107800000D03*
D23*
X144800000Y-102800000D03*
D24*
X144800000Y-104700000D03*
D23*
X164300000Y-104300000D03*
D24*
X164300000Y-102400000D03*
D23*
X141800000Y-107800000D03*
D24*
X141800000Y-109700000D03*
D23*
X148800000Y-98800000D03*
D24*
X148800000Y-96900000D03*
M02*
