G04 #@! TF.FileFunction,Copper,L1,Top,Signal*
%FSLAX46Y46*%
G04 Gerber Fmt 4.6, Leading zero omitted, Abs format (unit mm)*
G04 Created by KiCad (PCBNEW 4.0.6) date 03/05/19 05:03:15*
%MOMM*%
%LPD*%
G01*
G04 APERTURE LIST*
%ADD10C,0.100000*%
%ADD11C,5.001260*%
%ADD12C,3.650000*%
%ADD13R,1.500000X1.500000*%
%ADD14C,1.500000*%
%ADD15O,2.999740X5.001260*%
%ADD16R,1.143000X0.508000*%
%ADD17R,1.600000X1.600000*%
%ADD18C,1.600000*%
%ADD19R,1.200000X1.200000*%
%ADD20C,1.200000*%
%ADD21O,1.600000X1.600000*%
%ADD22R,1.800000X1.800000*%
%ADD23O,1.800000X1.800000*%
%ADD24R,1.550000X0.600000*%
%ADD25C,1.400000*%
%ADD26O,1.400000X1.400000*%
%ADD27C,0.700000*%
%ADD28C,0.400000*%
%ADD29C,1.000000*%
%ADD30C,0.254000*%
G04 APERTURE END LIST*
D10*
D11*
X164050000Y-119050000D03*
X159050000Y-114050000D03*
D12*
X147220000Y-71450000D03*
X159090000Y-71450000D03*
D13*
X157600000Y-77800000D03*
D14*
X156330000Y-80340000D03*
X155060000Y-77800000D03*
X153790000Y-80340000D03*
X152520000Y-77800000D03*
X151250000Y-80340000D03*
X149980000Y-77800000D03*
X148710000Y-80340000D03*
D15*
X155759860Y-118550000D03*
X151800000Y-118550000D03*
X147840140Y-118550000D03*
D16*
X148898000Y-102590000D03*
X148898000Y-103860000D03*
X148898000Y-105130000D03*
X148898000Y-106400000D03*
X148898000Y-107670000D03*
X148898000Y-108940000D03*
X148898000Y-110210000D03*
X155248000Y-110210000D03*
X155248000Y-108940000D03*
X155248000Y-106400000D03*
X155248000Y-105130000D03*
X155248000Y-103860000D03*
X155248000Y-102590000D03*
X155248000Y-107670000D03*
D17*
X164100000Y-80600000D03*
D18*
X164100000Y-82600000D03*
D19*
X161300000Y-91300000D03*
D20*
X163300000Y-91300000D03*
D17*
X158800000Y-106800000D03*
D21*
X158800000Y-109340000D03*
D17*
X142600000Y-76000000D03*
D18*
X142600000Y-78000000D03*
D17*
X143000000Y-82600000D03*
D18*
X143000000Y-85100000D03*
D17*
X149800000Y-85400000D03*
D18*
X152300000Y-85400000D03*
D17*
X158600000Y-86600000D03*
D18*
X158600000Y-84100000D03*
D17*
X143000000Y-92200000D03*
D18*
X143000000Y-89700000D03*
D22*
X161550000Y-101050000D03*
D23*
X161550000Y-103590000D03*
D22*
X152800000Y-96800000D03*
D23*
X152800000Y-99340000D03*
D24*
X149600000Y-89895000D03*
X149600000Y-91165000D03*
X149600000Y-92435000D03*
X149600000Y-93705000D03*
X155000000Y-93705000D03*
X155000000Y-92435000D03*
X155000000Y-91165000D03*
X155000000Y-89895000D03*
D17*
X163550000Y-96550000D03*
D21*
X163550000Y-99090000D03*
D18*
X144800000Y-98800000D03*
D21*
X144800000Y-96260000D03*
D25*
X144800000Y-107800000D03*
D26*
X144800000Y-109700000D03*
D25*
X143800000Y-112800000D03*
D26*
X141900000Y-112800000D03*
D25*
X158050000Y-102800000D03*
D26*
X158050000Y-100900000D03*
D25*
X141800000Y-104800000D03*
D26*
X141800000Y-102900000D03*
D25*
X158800000Y-97800000D03*
D26*
X158800000Y-95900000D03*
D25*
X163800000Y-107800000D03*
D26*
X161900000Y-107800000D03*
D25*
X144800000Y-102800000D03*
D26*
X144800000Y-104700000D03*
D25*
X164300000Y-104300000D03*
D26*
X164300000Y-102400000D03*
D25*
X141800000Y-107800000D03*
D26*
X141800000Y-109700000D03*
D25*
X148800000Y-98800000D03*
D26*
X148800000Y-96900000D03*
D27*
X163050000Y-105550000D03*
X146300000Y-112800000D03*
X155300000Y-102050000D03*
X159800000Y-104800000D03*
X154300000Y-103300000D03*
X160800000Y-98050000D03*
D20*
X150300000Y-106300000D03*
D27*
X148300000Y-91300000D03*
X146300000Y-93550000D03*
X147300000Y-90550000D03*
X147300000Y-95050000D03*
X154300000Y-89050000D03*
X151050000Y-90050000D03*
X157050000Y-97550000D03*
X156300000Y-111050000D03*
X150550000Y-99050000D03*
X149800000Y-101550000D03*
X147200000Y-77200000D03*
X145000000Y-79500000D03*
X144800000Y-106300000D03*
X146800000Y-107300000D03*
X151800000Y-104800000D03*
X153800000Y-104800000D03*
D28*
X155248000Y-108940000D02*
X156440000Y-108940000D01*
X163050000Y-105800000D02*
X163050000Y-105550000D01*
X164050000Y-106300000D02*
X163050000Y-105800000D01*
X164050000Y-106300000D02*
X164050000Y-106300000D01*
X164950000Y-106750000D02*
X164050000Y-106300000D01*
X164893995Y-108545133D02*
X164950000Y-106750000D01*
X164504625Y-108870085D02*
X164893995Y-108545133D01*
X161801072Y-111056614D02*
X164504625Y-108870085D01*
X160300000Y-111050000D02*
X161801072Y-111056614D01*
X157550000Y-111050000D02*
X160300000Y-111050000D01*
X157050000Y-110550000D02*
X157550000Y-111050000D01*
X157050000Y-109550000D02*
X157050000Y-110550000D01*
X156440000Y-108940000D02*
X157050000Y-109550000D01*
X153660000Y-108940000D02*
X155248000Y-108940000D01*
X150800000Y-111800000D02*
X153660000Y-108940000D01*
X147300000Y-111800000D02*
X150800000Y-111800000D01*
X146300000Y-112800000D02*
X147300000Y-111800000D01*
X158800000Y-109340000D02*
X161760000Y-109340000D01*
X162400000Y-109200000D02*
X163800000Y-107800000D01*
X161900000Y-109200000D02*
X162400000Y-109200000D01*
X161760000Y-109340000D02*
X161900000Y-109200000D01*
X155248000Y-102590000D02*
X155248000Y-102102000D01*
X155248000Y-102102000D02*
X155300000Y-102050000D01*
X159800000Y-104800000D02*
X161900000Y-106900000D01*
X161900000Y-106900000D02*
X161900000Y-107800000D01*
X154300000Y-103300000D02*
X154860000Y-103860000D01*
X154860000Y-103860000D02*
X155248000Y-103860000D01*
X144800000Y-107800000D02*
X146800000Y-105800000D01*
X147970000Y-105130000D02*
X148898000Y-105130000D01*
X147300000Y-105800000D02*
X147970000Y-105130000D01*
X146800000Y-105800000D02*
X147300000Y-105800000D01*
X153790000Y-80340000D02*
X153790000Y-81290000D01*
X163300000Y-86300000D02*
X163300000Y-91300000D01*
X159300000Y-82300000D02*
X163300000Y-86300000D01*
X154800000Y-82300000D02*
X159300000Y-82300000D01*
X153790000Y-81290000D02*
X154800000Y-82300000D01*
X163300000Y-91300000D02*
X163800000Y-91300000D01*
X162550000Y-96550000D02*
X163550000Y-96550000D01*
X160800000Y-98050000D02*
X162550000Y-96550000D01*
D29*
X148898000Y-106400000D02*
X150200000Y-106400000D01*
X150200000Y-106400000D02*
X150300000Y-106300000D01*
D28*
X149600000Y-91165000D02*
X148435000Y-91165000D01*
X148435000Y-91165000D02*
X148300000Y-91300000D01*
X146300000Y-93550000D02*
X147205000Y-93705000D01*
X147205000Y-93705000D02*
X149600000Y-93705000D01*
X152300000Y-85400000D02*
X152300000Y-85050000D01*
X152300000Y-85050000D02*
X153250000Y-84100000D01*
X153250000Y-84100000D02*
X158600000Y-84100000D01*
X155000000Y-93705000D02*
X153705000Y-93705000D01*
X153300000Y-86400000D02*
X152300000Y-85400000D01*
X153300000Y-93300000D02*
X153300000Y-86400000D01*
X153705000Y-93705000D02*
X153300000Y-93300000D01*
X155248000Y-106400000D02*
X153900000Y-106400000D01*
X155000000Y-99600000D02*
X155000000Y-93705000D01*
X152800000Y-101800000D02*
X155000000Y-99600000D01*
X152800000Y-105300000D02*
X152800000Y-101800000D01*
X153900000Y-106400000D02*
X152800000Y-105300000D01*
X144800000Y-96260000D02*
X146090000Y-96260000D01*
X148705000Y-89895000D02*
X149600000Y-89895000D01*
X147300000Y-90550000D02*
X148705000Y-89895000D01*
X146090000Y-96260000D02*
X147300000Y-95050000D01*
X149600000Y-89895000D02*
X150895000Y-89895000D01*
X154300000Y-89050000D02*
X155000000Y-89750000D01*
X150895000Y-89895000D02*
X151050000Y-90050000D01*
X155000000Y-89750000D02*
X155000000Y-89895000D01*
X155000000Y-89895000D02*
X156455000Y-89895000D01*
X158600000Y-87750000D02*
X158600000Y-86600000D01*
X156455000Y-89895000D02*
X158600000Y-87750000D01*
X141800000Y-107800000D02*
X141300000Y-107800000D01*
X141300000Y-107800000D02*
X140300000Y-108800000D01*
X140300000Y-111200000D02*
X141900000Y-112800000D01*
X140300000Y-108800000D02*
X140300000Y-111200000D01*
X141800000Y-104800000D02*
X141800000Y-107800000D01*
X141800000Y-104800000D02*
X140800000Y-104800000D01*
X140300000Y-94900000D02*
X143000000Y-92200000D01*
X140300000Y-104300000D02*
X140300000Y-94900000D01*
X140800000Y-104800000D02*
X140300000Y-104300000D01*
X161800000Y-100300000D02*
X161550000Y-101050000D01*
X160800000Y-99300000D02*
X161800000Y-100300000D01*
X157550000Y-99300000D02*
X160800000Y-99300000D01*
X157300000Y-99050000D02*
X157550000Y-99300000D01*
X157300000Y-97800000D02*
X157300000Y-99050000D01*
X157050000Y-97550000D02*
X157300000Y-97800000D01*
X148800000Y-96900000D02*
X152700000Y-96900000D01*
X152700000Y-96900000D02*
X152800000Y-96800000D01*
X155248000Y-110210000D02*
X155460000Y-110210000D01*
X155460000Y-110210000D02*
X156300000Y-111050000D01*
X164300000Y-104300000D02*
X161590000Y-103550000D01*
X161590000Y-103550000D02*
X161550000Y-103590000D01*
X148898000Y-108940000D02*
X150160000Y-108940000D01*
X152010000Y-98550000D02*
X152800000Y-99340000D01*
X151050000Y-98550000D02*
X152010000Y-98550000D01*
X150550000Y-99050000D02*
X151050000Y-98550000D01*
X150050000Y-101800000D02*
X149800000Y-101550000D01*
X150050000Y-104550000D02*
X150050000Y-101800000D01*
X151800000Y-106300000D02*
X150050000Y-104550000D01*
X151800000Y-107300000D02*
X151800000Y-106300000D01*
X150160000Y-108940000D02*
X151800000Y-107300000D01*
X148898000Y-110210000D02*
X148898000Y-108940000D01*
X151800000Y-118550000D02*
X151800000Y-117300000D01*
X151800000Y-117300000D02*
X149800000Y-115300000D01*
X152520000Y-76620000D02*
X152520000Y-77800000D01*
X151300000Y-75400000D02*
X152520000Y-76620000D01*
X149000000Y-75400000D02*
X151300000Y-75400000D01*
X147200000Y-77200000D02*
X149000000Y-75400000D01*
X144400000Y-80100000D02*
X145000000Y-79500000D01*
X141700000Y-80100000D02*
X144400000Y-80100000D01*
X139600000Y-82200000D02*
X141700000Y-80100000D01*
X139600000Y-114100000D02*
X139600000Y-82200000D01*
X140800000Y-115300000D02*
X139600000Y-114100000D01*
X149800000Y-115300000D02*
X140800000Y-115300000D01*
X152520000Y-77080000D02*
X152520000Y-77800000D01*
X148898000Y-102590000D02*
X145010000Y-102590000D01*
X145010000Y-102590000D02*
X144800000Y-102800000D01*
X141800000Y-102900000D02*
X144700000Y-102900000D01*
X144700000Y-102900000D02*
X144800000Y-102800000D01*
X144800000Y-104700000D02*
X146900000Y-104700000D01*
X147740000Y-103860000D02*
X148898000Y-103860000D01*
X146900000Y-104700000D02*
X147740000Y-103860000D01*
X141800000Y-109700000D02*
X141900000Y-109700000D01*
X141900000Y-109700000D02*
X143300000Y-108300000D01*
X143300000Y-108300000D02*
X143300000Y-106800000D01*
X143300000Y-106800000D02*
X143800000Y-106300000D01*
X143800000Y-106300000D02*
X144800000Y-106300000D01*
X146800000Y-107300000D02*
X147170000Y-107670000D01*
X147170000Y-107670000D02*
X148898000Y-107670000D01*
X155248000Y-105130000D02*
X154130000Y-105130000D01*
X150800000Y-100800000D02*
X148800000Y-98800000D01*
X150800000Y-103800000D02*
X150800000Y-100800000D01*
X151800000Y-104800000D02*
X150800000Y-103800000D01*
X154130000Y-105130000D02*
X153800000Y-104800000D01*
D30*
G36*
X145135730Y-70054703D02*
X144760428Y-70958529D01*
X144759574Y-71937177D01*
X145133298Y-72841657D01*
X145824703Y-73534270D01*
X146728529Y-73909572D01*
X147707177Y-73910426D01*
X148611657Y-73536702D01*
X149304270Y-72845297D01*
X149679572Y-71941471D01*
X149680426Y-70962823D01*
X149306702Y-70058343D01*
X149058792Y-69810000D01*
X157250861Y-69810000D01*
X157005730Y-70054703D01*
X156630428Y-70958529D01*
X156629574Y-71937177D01*
X157003298Y-72841657D01*
X157694703Y-73534270D01*
X158598529Y-73909572D01*
X159577177Y-73910426D01*
X160481657Y-73536702D01*
X160690000Y-73328722D01*
X160690000Y-75350000D01*
X160744046Y-75621705D01*
X160897954Y-75852046D01*
X161128295Y-76005954D01*
X161400000Y-76060000D01*
X165355908Y-76060000D01*
X166440000Y-77144092D01*
X166440000Y-117095691D01*
X166286336Y-116993270D01*
X164229605Y-119050000D01*
X164243748Y-119064142D01*
X164064142Y-119243748D01*
X164050000Y-119229605D01*
X161993270Y-121286336D01*
X162062365Y-121390000D01*
X156868010Y-121390000D01*
X157269441Y-121121772D01*
X157732223Y-120429170D01*
X157894730Y-119612191D01*
X157894730Y-118427741D01*
X160914080Y-118427741D01*
X160914660Y-119675172D01*
X161390916Y-120824958D01*
X161813664Y-121106730D01*
X163870395Y-119050000D01*
X161813664Y-116993270D01*
X161390916Y-117275042D01*
X160914080Y-118427741D01*
X157894730Y-118427741D01*
X157894730Y-117487809D01*
X157781483Y-116918476D01*
X158423548Y-117185085D01*
X159670979Y-117186173D01*
X160572520Y-116813664D01*
X161993270Y-116813664D01*
X164050000Y-118870395D01*
X166106730Y-116813664D01*
X165824958Y-116390916D01*
X164672259Y-115914080D01*
X163424828Y-115914660D01*
X162275042Y-116390916D01*
X161993270Y-116813664D01*
X160572520Y-116813664D01*
X160823871Y-116709808D01*
X161706708Y-115828511D01*
X162185085Y-114676452D01*
X162186173Y-113429021D01*
X161709808Y-112276129D01*
X161323873Y-111889520D01*
X161797393Y-111891606D01*
X161916697Y-111868421D01*
X162037729Y-111857375D01*
X162075420Y-111837575D01*
X162117211Y-111829453D01*
X162218558Y-111762379D01*
X162326153Y-111705856D01*
X165029706Y-109519327D01*
X165033896Y-109514295D01*
X165039642Y-109511163D01*
X165429013Y-109186211D01*
X165444633Y-109166855D01*
X165465730Y-109153691D01*
X165546422Y-109040720D01*
X165633617Y-108932669D01*
X165640640Y-108908811D01*
X165655095Y-108888574D01*
X165686415Y-108753313D01*
X165725620Y-108620129D01*
X165722979Y-108595401D01*
X165728589Y-108571171D01*
X165784594Y-106776038D01*
X165760490Y-106631424D01*
X165742151Y-106485950D01*
X165733800Y-106471300D01*
X165731028Y-106454671D01*
X165653428Y-106330307D01*
X165580805Y-106202907D01*
X165567482Y-106192567D01*
X165558558Y-106178265D01*
X165439275Y-106093065D01*
X165323424Y-106003153D01*
X164577084Y-105629983D01*
X165055229Y-105432418D01*
X165431098Y-105057204D01*
X165634768Y-104566713D01*
X165635231Y-104035617D01*
X165432418Y-103544771D01*
X165249644Y-103361678D01*
X165533379Y-102937036D01*
X165635000Y-102426154D01*
X165635000Y-102373846D01*
X165533379Y-101862964D01*
X165243988Y-101429858D01*
X164810882Y-101140467D01*
X164300000Y-101038846D01*
X163789118Y-101140467D01*
X163356012Y-101429858D01*
X163097440Y-101816840D01*
X163097440Y-100439027D01*
X163200961Y-100481904D01*
X163423000Y-100359915D01*
X163423000Y-99217000D01*
X163677000Y-99217000D01*
X163677000Y-100359915D01*
X163899039Y-100481904D01*
X164287423Y-100321041D01*
X164702389Y-99945134D01*
X164941914Y-99439041D01*
X164820629Y-99217000D01*
X163677000Y-99217000D01*
X163423000Y-99217000D01*
X162279371Y-99217000D01*
X162158086Y-99439041D01*
X162188148Y-99502560D01*
X162183428Y-99502560D01*
X161461904Y-98781036D01*
X161634555Y-98608686D01*
X161746898Y-98338133D01*
X162334392Y-97834567D01*
X162498110Y-97946431D01*
X162676204Y-97982496D01*
X162397611Y-98234866D01*
X162158086Y-98740959D01*
X162279371Y-98963000D01*
X163423000Y-98963000D01*
X163423000Y-98943000D01*
X163677000Y-98943000D01*
X163677000Y-98963000D01*
X164820629Y-98963000D01*
X164941914Y-98740959D01*
X164702389Y-98234866D01*
X164424764Y-97983372D01*
X164585317Y-97953162D01*
X164801441Y-97814090D01*
X164946431Y-97601890D01*
X164997440Y-97350000D01*
X164997440Y-95750000D01*
X164953162Y-95514683D01*
X164814090Y-95298559D01*
X164601890Y-95153569D01*
X164350000Y-95102560D01*
X162750000Y-95102560D01*
X162514683Y-95146838D01*
X162298559Y-95285910D01*
X162153569Y-95498110D01*
X162102560Y-95750000D01*
X162102560Y-95862052D01*
X162006589Y-95916021D01*
X160666249Y-97064884D01*
X160604931Y-97064830D01*
X160242771Y-97214471D01*
X160072690Y-97384256D01*
X159932418Y-97044771D01*
X159720983Y-96832966D01*
X159866764Y-96702663D01*
X160092727Y-96233331D01*
X159970206Y-96027000D01*
X158927000Y-96027000D01*
X158927000Y-96047000D01*
X158673000Y-96047000D01*
X158673000Y-96027000D01*
X157629794Y-96027000D01*
X157507273Y-96233331D01*
X157733236Y-96702663D01*
X157879060Y-96833004D01*
X157802417Y-96909514D01*
X157608686Y-96715445D01*
X157246788Y-96565172D01*
X156854931Y-96564830D01*
X156492771Y-96714471D01*
X156215445Y-96991314D01*
X156065172Y-97353212D01*
X156064830Y-97745069D01*
X156214471Y-98107229D01*
X156465000Y-98358195D01*
X156465000Y-99050000D01*
X156528561Y-99369541D01*
X156682549Y-99600000D01*
X156709566Y-99640434D01*
X156959566Y-99890434D01*
X157079022Y-99970252D01*
X156816621Y-100362964D01*
X156715000Y-100873846D01*
X156715000Y-100926154D01*
X156816621Y-101437036D01*
X157100348Y-101861666D01*
X156918902Y-102042796D01*
X156715232Y-102533287D01*
X156714769Y-103064383D01*
X156917582Y-103555229D01*
X157292796Y-103931098D01*
X157783287Y-104134768D01*
X158314383Y-104135231D01*
X158805229Y-103932418D01*
X159181098Y-103557204D01*
X159384768Y-103066713D01*
X159385231Y-102535617D01*
X159182418Y-102044771D01*
X158999644Y-101861678D01*
X159283379Y-101437036D01*
X159385000Y-100926154D01*
X159385000Y-100873846D01*
X159283379Y-100362964D01*
X159131059Y-100135000D01*
X160005598Y-100135000D01*
X160002560Y-100150000D01*
X160002560Y-101950000D01*
X160046838Y-102185317D01*
X160185910Y-102401441D01*
X160398110Y-102546431D01*
X160414344Y-102549719D01*
X160131845Y-102972509D01*
X160015000Y-103559928D01*
X160015000Y-103620072D01*
X160058941Y-103840980D01*
X159996788Y-103815172D01*
X159604931Y-103814830D01*
X159242771Y-103964471D01*
X158965445Y-104241314D01*
X158815172Y-104603212D01*
X158814830Y-104995069D01*
X158962542Y-105352560D01*
X158000000Y-105352560D01*
X157764683Y-105396838D01*
X157548559Y-105535910D01*
X157403569Y-105748110D01*
X157352560Y-106000000D01*
X157352560Y-107600000D01*
X157396838Y-107835317D01*
X157535910Y-108051441D01*
X157748110Y-108196431D01*
X157892375Y-108225645D01*
X157785302Y-108297189D01*
X157474233Y-108762736D01*
X157469151Y-108788283D01*
X157030434Y-108349566D01*
X156950524Y-108296172D01*
X156759541Y-108168561D01*
X156440000Y-108105000D01*
X156431846Y-108105000D01*
X156454500Y-108050309D01*
X156454500Y-107955750D01*
X156295750Y-107797000D01*
X155375000Y-107797000D01*
X155375000Y-107817000D01*
X155121000Y-107817000D01*
X155121000Y-107797000D01*
X154200250Y-107797000D01*
X154041500Y-107955750D01*
X154041500Y-108050309D01*
X154064154Y-108105000D01*
X153660000Y-108105000D01*
X153340460Y-108168560D01*
X153069566Y-108349566D01*
X150454132Y-110965000D01*
X149863581Y-110965000D01*
X149920941Y-110928090D01*
X150065931Y-110715890D01*
X150116940Y-110464000D01*
X150116940Y-109956000D01*
X150082882Y-109775000D01*
X150160000Y-109775000D01*
X150479541Y-109711439D01*
X150750434Y-109530434D01*
X152390434Y-107890434D01*
X152450860Y-107800000D01*
X152571439Y-107619541D01*
X152635000Y-107300000D01*
X152635000Y-106315868D01*
X153309566Y-106990434D01*
X153580459Y-107171439D01*
X153900000Y-107235000D01*
X154064154Y-107235000D01*
X154041500Y-107289691D01*
X154041500Y-107384250D01*
X154200250Y-107543000D01*
X155121000Y-107543000D01*
X155121000Y-107523000D01*
X155375000Y-107523000D01*
X155375000Y-107543000D01*
X156295750Y-107543000D01*
X156454500Y-107384250D01*
X156454500Y-107289691D01*
X156357827Y-107056302D01*
X156331291Y-107029765D01*
X156415931Y-106905890D01*
X156466940Y-106654000D01*
X156466940Y-106146000D01*
X156422662Y-105910683D01*
X156328334Y-105764093D01*
X156415931Y-105635890D01*
X156466940Y-105384000D01*
X156466940Y-104876000D01*
X156422662Y-104640683D01*
X156328334Y-104494093D01*
X156415931Y-104365890D01*
X156466940Y-104114000D01*
X156466940Y-103606000D01*
X156422662Y-103370683D01*
X156328334Y-103224093D01*
X156415931Y-103095890D01*
X156466940Y-102844000D01*
X156466940Y-102336000D01*
X156422662Y-102100683D01*
X156285142Y-101886971D01*
X156285170Y-101854931D01*
X156135529Y-101492771D01*
X155858686Y-101215445D01*
X155496788Y-101065172D01*
X155104931Y-101064830D01*
X154742771Y-101214471D01*
X154465445Y-101491314D01*
X154337434Y-101799599D01*
X154225059Y-101871910D01*
X154080069Y-102084110D01*
X154029060Y-102336000D01*
X154029060Y-102346179D01*
X153742771Y-102464471D01*
X153635000Y-102572054D01*
X153635000Y-102145868D01*
X155590434Y-100190434D01*
X155627474Y-100135000D01*
X155771439Y-99919541D01*
X155835000Y-99600000D01*
X155835000Y-95566669D01*
X157507273Y-95566669D01*
X157629794Y-95773000D01*
X158673000Y-95773000D01*
X158673000Y-94730626D01*
X158927000Y-94730626D01*
X158927000Y-95773000D01*
X159970206Y-95773000D01*
X160092727Y-95566669D01*
X159866764Y-95097337D01*
X159478396Y-94750203D01*
X159133329Y-94607284D01*
X158927000Y-94730626D01*
X158673000Y-94730626D01*
X158466671Y-94607284D01*
X158121604Y-94750203D01*
X157733236Y-95097337D01*
X157507273Y-95566669D01*
X155835000Y-95566669D01*
X155835000Y-94641150D01*
X156010317Y-94608162D01*
X156226441Y-94469090D01*
X156371431Y-94256890D01*
X156422440Y-94005000D01*
X156422440Y-93405000D01*
X156378162Y-93169683D01*
X156314322Y-93070472D01*
X156371431Y-92986890D01*
X156422440Y-92735000D01*
X156422440Y-92135000D01*
X156378162Y-91899683D01*
X156314322Y-91800472D01*
X156371431Y-91716890D01*
X156397987Y-91585750D01*
X160065000Y-91585750D01*
X160065000Y-92026310D01*
X160161673Y-92259699D01*
X160340302Y-92438327D01*
X160573691Y-92535000D01*
X161014250Y-92535000D01*
X161173000Y-92376250D01*
X161173000Y-91427000D01*
X160223750Y-91427000D01*
X160065000Y-91585750D01*
X156397987Y-91585750D01*
X156422440Y-91465000D01*
X156422440Y-90865000D01*
X156397038Y-90730000D01*
X156455000Y-90730000D01*
X156774541Y-90666439D01*
X156913349Y-90573690D01*
X160065000Y-90573690D01*
X160065000Y-91014250D01*
X160223750Y-91173000D01*
X161173000Y-91173000D01*
X161173000Y-90223750D01*
X161014250Y-90065000D01*
X160573691Y-90065000D01*
X160340302Y-90161673D01*
X160161673Y-90340301D01*
X160065000Y-90573690D01*
X156913349Y-90573690D01*
X157045434Y-90485434D01*
X159190434Y-88340434D01*
X159274600Y-88214471D01*
X159371439Y-88069541D01*
X159375835Y-88047440D01*
X159400000Y-88047440D01*
X159635317Y-88003162D01*
X159851441Y-87864090D01*
X159996431Y-87651890D01*
X160047440Y-87400000D01*
X160047440Y-85800000D01*
X160003162Y-85564683D01*
X159864090Y-85348559D01*
X159651890Y-85203569D01*
X159546959Y-85182320D01*
X159815824Y-84913923D01*
X160034750Y-84386691D01*
X160034899Y-84215767D01*
X162465000Y-86645868D01*
X162465000Y-90388513D01*
X162460258Y-90393247D01*
X162438327Y-90340301D01*
X162259698Y-90161673D01*
X162026309Y-90065000D01*
X161585750Y-90065000D01*
X161427000Y-90223750D01*
X161427000Y-91173000D01*
X161447000Y-91173000D01*
X161447000Y-91427000D01*
X161427000Y-91427000D01*
X161427000Y-92376250D01*
X161585750Y-92535000D01*
X162026309Y-92535000D01*
X162259698Y-92438327D01*
X162438327Y-92259699D01*
X162460224Y-92206836D01*
X162599515Y-92346371D01*
X163053266Y-92534785D01*
X163544579Y-92535214D01*
X163998657Y-92347592D01*
X164346371Y-92000485D01*
X164394751Y-91883973D01*
X164571439Y-91619541D01*
X164635000Y-91300000D01*
X164571439Y-90980459D01*
X164395347Y-90716919D01*
X164347592Y-90601343D01*
X164135000Y-90388379D01*
X164135000Y-86300000D01*
X164071439Y-85980459D01*
X163890434Y-85709566D01*
X161788613Y-83607745D01*
X163271861Y-83607745D01*
X163345995Y-83853864D01*
X163883223Y-84046965D01*
X164453454Y-84019778D01*
X164854005Y-83853864D01*
X164928139Y-83607745D01*
X164100000Y-82779605D01*
X163271861Y-83607745D01*
X161788613Y-83607745D01*
X159890434Y-81709566D01*
X159619541Y-81528561D01*
X159300000Y-81465000D01*
X157163433Y-81465000D01*
X157503461Y-81125564D01*
X157714759Y-80616702D01*
X157715240Y-80065715D01*
X157605450Y-79800000D01*
X162652560Y-79800000D01*
X162652560Y-81400000D01*
X162696838Y-81635317D01*
X162835910Y-81851441D01*
X162842548Y-81855977D01*
X162653035Y-82383223D01*
X162680222Y-82953454D01*
X162846136Y-83354005D01*
X163092255Y-83428139D01*
X163920395Y-82600000D01*
X163906252Y-82585858D01*
X164085858Y-82406253D01*
X164100000Y-82420395D01*
X164114143Y-82406253D01*
X164293748Y-82585858D01*
X164279605Y-82600000D01*
X165107745Y-83428139D01*
X165353864Y-83354005D01*
X165546965Y-82816777D01*
X165519778Y-82246546D01*
X165357616Y-81855053D01*
X165496431Y-81651890D01*
X165547440Y-81400000D01*
X165547440Y-79800000D01*
X165503162Y-79564683D01*
X165364090Y-79348559D01*
X165151890Y-79203569D01*
X164900000Y-79152560D01*
X163300000Y-79152560D01*
X163064683Y-79196838D01*
X162848559Y-79335910D01*
X162703569Y-79548110D01*
X162652560Y-79800000D01*
X157605450Y-79800000D01*
X157504831Y-79556485D01*
X157146411Y-79197440D01*
X158350000Y-79197440D01*
X158585317Y-79153162D01*
X158801441Y-79014090D01*
X158946431Y-78801890D01*
X158997440Y-78550000D01*
X158997440Y-77050000D01*
X158953162Y-76814683D01*
X158814090Y-76598559D01*
X158601890Y-76453569D01*
X158350000Y-76402560D01*
X156850000Y-76402560D01*
X156614683Y-76446838D01*
X156398559Y-76585910D01*
X156253569Y-76798110D01*
X156202560Y-77050000D01*
X156202560Y-77056353D01*
X156031517Y-77008088D01*
X155239605Y-77800000D01*
X156031517Y-78591912D01*
X156202560Y-78543647D01*
X156202560Y-78550000D01*
X156246838Y-78785317D01*
X156356040Y-78955022D01*
X156055715Y-78954760D01*
X155546485Y-79165169D01*
X155156539Y-79554436D01*
X155060024Y-79786870D01*
X154964831Y-79556485D01*
X154575564Y-79166539D01*
X154066702Y-78955241D01*
X153515715Y-78954760D01*
X153006485Y-79165169D01*
X152616539Y-79554436D01*
X152520024Y-79786870D01*
X152424831Y-79556485D01*
X152035564Y-79166539D01*
X151526702Y-78955241D01*
X150975715Y-78954760D01*
X150466485Y-79165169D01*
X150076539Y-79554436D01*
X149980024Y-79786870D01*
X149884831Y-79556485D01*
X149495564Y-79166539D01*
X148986702Y-78955241D01*
X148435715Y-78954760D01*
X147926485Y-79165169D01*
X147536539Y-79554436D01*
X147325241Y-80063298D01*
X147324760Y-80614285D01*
X147535169Y-81123515D01*
X147924436Y-81513461D01*
X148433298Y-81724759D01*
X148984285Y-81725240D01*
X149493515Y-81514831D01*
X149883461Y-81125564D01*
X149979976Y-80893130D01*
X150075169Y-81123515D01*
X150464436Y-81513461D01*
X150973298Y-81724759D01*
X151524285Y-81725240D01*
X152033515Y-81514831D01*
X152423461Y-81125564D01*
X152519976Y-80893130D01*
X152615169Y-81123515D01*
X152998209Y-81507223D01*
X153018561Y-81609541D01*
X153188645Y-81864090D01*
X153199566Y-81880434D01*
X154209566Y-82890434D01*
X154480460Y-83071440D01*
X154800000Y-83135000D01*
X157535517Y-83135000D01*
X157405290Y-83265000D01*
X153250000Y-83265000D01*
X152930459Y-83328561D01*
X152659566Y-83509566D01*
X152204216Y-83964916D01*
X152015813Y-83964752D01*
X151488200Y-84182757D01*
X151223813Y-84446683D01*
X151138327Y-84240301D01*
X150959698Y-84061673D01*
X150726309Y-83965000D01*
X150085750Y-83965000D01*
X149927000Y-84123750D01*
X149927000Y-85273000D01*
X149947000Y-85273000D01*
X149947000Y-85527000D01*
X149927000Y-85527000D01*
X149927000Y-86676250D01*
X150085750Y-86835000D01*
X150726309Y-86835000D01*
X150959698Y-86738327D01*
X151138327Y-86559699D01*
X151223876Y-86353165D01*
X151486077Y-86615824D01*
X152013309Y-86834750D01*
X152465000Y-86835144D01*
X152465000Y-93300000D01*
X152528561Y-93619541D01*
X152613585Y-93746788D01*
X152709566Y-93890434D01*
X153114565Y-94295434D01*
X153247945Y-94384555D01*
X153385459Y-94476439D01*
X153705000Y-94540000D01*
X153883203Y-94540000D01*
X153973110Y-94601431D01*
X154165000Y-94640290D01*
X154165000Y-95449973D01*
X154164090Y-95448559D01*
X153951890Y-95303569D01*
X153700000Y-95252560D01*
X151900000Y-95252560D01*
X151664683Y-95296838D01*
X151448559Y-95435910D01*
X151303569Y-95648110D01*
X151252560Y-95900000D01*
X151252560Y-96065000D01*
X149834287Y-96065000D01*
X149743988Y-95929858D01*
X149310882Y-95640467D01*
X148800000Y-95538846D01*
X148289118Y-95640467D01*
X147856012Y-95929858D01*
X147566621Y-96362964D01*
X147465000Y-96873846D01*
X147465000Y-96926154D01*
X147566621Y-97437036D01*
X147850348Y-97861666D01*
X147668902Y-98042796D01*
X147465232Y-98533287D01*
X147464769Y-99064383D01*
X147667582Y-99555229D01*
X148042796Y-99931098D01*
X148533287Y-100134768D01*
X148954267Y-100135135D01*
X149448569Y-100629437D01*
X149242771Y-100714471D01*
X148965445Y-100991314D01*
X148815172Y-101353212D01*
X148814879Y-101688560D01*
X148326500Y-101688560D01*
X148091183Y-101732838D01*
X148056742Y-101755000D01*
X145643152Y-101755000D01*
X145557204Y-101668902D01*
X145066713Y-101465232D01*
X144535617Y-101464769D01*
X144044771Y-101667582D01*
X143668902Y-102042796D01*
X143659682Y-102065000D01*
X142834287Y-102065000D01*
X142743988Y-101929858D01*
X142310882Y-101640467D01*
X141800000Y-101538846D01*
X141289118Y-101640467D01*
X141135000Y-101743445D01*
X141135000Y-99084187D01*
X143364752Y-99084187D01*
X143582757Y-99611800D01*
X143986077Y-100015824D01*
X144513309Y-100234750D01*
X145084187Y-100235248D01*
X145611800Y-100017243D01*
X146015824Y-99613923D01*
X146234750Y-99086691D01*
X146235248Y-98515813D01*
X146017243Y-97988200D01*
X145613923Y-97584176D01*
X145478046Y-97527755D01*
X145814698Y-97302811D01*
X145953553Y-97095000D01*
X146090000Y-97095000D01*
X146409541Y-97031439D01*
X146680434Y-96850434D01*
X147496141Y-96034727D01*
X147857229Y-95885529D01*
X148134555Y-95608686D01*
X148284828Y-95246788D01*
X148285170Y-94854931D01*
X148155044Y-94540000D01*
X148483203Y-94540000D01*
X148573110Y-94601431D01*
X148825000Y-94652440D01*
X150375000Y-94652440D01*
X150610317Y-94608162D01*
X150826441Y-94469090D01*
X150971431Y-94256890D01*
X151022440Y-94005000D01*
X151022440Y-93405000D01*
X150978162Y-93169683D01*
X150919822Y-93079020D01*
X151010000Y-92861310D01*
X151010000Y-92720750D01*
X150851250Y-92562000D01*
X149727000Y-92562000D01*
X149727000Y-92582000D01*
X149473000Y-92582000D01*
X149473000Y-92562000D01*
X148348750Y-92562000D01*
X148190000Y-92720750D01*
X148190000Y-92861310D01*
X148193600Y-92870000D01*
X147275988Y-92870000D01*
X146958729Y-92815663D01*
X146858686Y-92715445D01*
X146496788Y-92565172D01*
X146104931Y-92564830D01*
X145742771Y-92714471D01*
X145465445Y-92991314D01*
X145315172Y-93353212D01*
X145314830Y-93745069D01*
X145464471Y-94107229D01*
X145741314Y-94384555D01*
X146103212Y-94534828D01*
X146447252Y-94535128D01*
X146315172Y-94853212D01*
X146315171Y-94853961D01*
X145869671Y-95299461D01*
X145814698Y-95217189D01*
X145349151Y-94906120D01*
X144800000Y-94796887D01*
X144250849Y-94906120D01*
X143785302Y-95217189D01*
X143474233Y-95682736D01*
X143365000Y-96231887D01*
X143365000Y-96288113D01*
X143474233Y-96837264D01*
X143785302Y-97302811D01*
X144121710Y-97527592D01*
X143988200Y-97582757D01*
X143584176Y-97986077D01*
X143365250Y-98513309D01*
X143364752Y-99084187D01*
X141135000Y-99084187D01*
X141135000Y-95245868D01*
X142733428Y-93647440D01*
X143800000Y-93647440D01*
X144035317Y-93603162D01*
X144251441Y-93464090D01*
X144396431Y-93251890D01*
X144447440Y-93000000D01*
X144447440Y-91400000D01*
X144403162Y-91164683D01*
X144264090Y-90948559D01*
X144051890Y-90803569D01*
X143813799Y-90755354D01*
X143816896Y-90745069D01*
X146314830Y-90745069D01*
X146464471Y-91107229D01*
X146741314Y-91384555D01*
X147103212Y-91534828D01*
X147331340Y-91535027D01*
X147464471Y-91857229D01*
X147741314Y-92134555D01*
X148103212Y-92284828D01*
X148325772Y-92285022D01*
X148348750Y-92308000D01*
X149473000Y-92308000D01*
X149473000Y-92288000D01*
X149727000Y-92288000D01*
X149727000Y-92308000D01*
X150851250Y-92308000D01*
X151010000Y-92149250D01*
X151010000Y-92008690D01*
X150920194Y-91791878D01*
X150971431Y-91716890D01*
X151022440Y-91465000D01*
X151022440Y-91034976D01*
X151245069Y-91035170D01*
X151607229Y-90885529D01*
X151884555Y-90608686D01*
X152034828Y-90246788D01*
X152035170Y-89854931D01*
X151885529Y-89492771D01*
X151608686Y-89215445D01*
X151246788Y-89065172D01*
X150919566Y-89064886D01*
X150895000Y-89060000D01*
X150716797Y-89060000D01*
X150626890Y-88998569D01*
X150375000Y-88947560D01*
X148825000Y-88947560D01*
X148589683Y-88991838D01*
X148373559Y-89130910D01*
X148372802Y-89132018D01*
X148370113Y-89133815D01*
X148352185Y-89138200D01*
X147436427Y-89565119D01*
X147104931Y-89564830D01*
X146742771Y-89714471D01*
X146465445Y-89991314D01*
X146315172Y-90353212D01*
X146314830Y-90745069D01*
X143816896Y-90745069D01*
X143828139Y-90707745D01*
X143000000Y-89879605D01*
X142171861Y-90707745D01*
X142186145Y-90755167D01*
X141964683Y-90796838D01*
X141748559Y-90935910D01*
X141603569Y-91148110D01*
X141552560Y-91400000D01*
X141552560Y-92466572D01*
X140435000Y-93584132D01*
X140435000Y-89483223D01*
X141553035Y-89483223D01*
X141580222Y-90053454D01*
X141746136Y-90454005D01*
X141992255Y-90528139D01*
X142820395Y-89700000D01*
X143179605Y-89700000D01*
X144007745Y-90528139D01*
X144253864Y-90454005D01*
X144446965Y-89916777D01*
X144419778Y-89346546D01*
X144253864Y-88945995D01*
X144007745Y-88871861D01*
X143179605Y-89700000D01*
X142820395Y-89700000D01*
X141992255Y-88871861D01*
X141746136Y-88945995D01*
X141553035Y-89483223D01*
X140435000Y-89483223D01*
X140435000Y-88692255D01*
X142171861Y-88692255D01*
X143000000Y-89520395D01*
X143828139Y-88692255D01*
X143754005Y-88446136D01*
X143216777Y-88253035D01*
X142646546Y-88280222D01*
X142245995Y-88446136D01*
X142171861Y-88692255D01*
X140435000Y-88692255D01*
X140435000Y-82545868D01*
X141180868Y-81800000D01*
X141552560Y-81800000D01*
X141552560Y-83400000D01*
X141596838Y-83635317D01*
X141735910Y-83851441D01*
X141948110Y-83996431D01*
X142053041Y-84017680D01*
X141784176Y-84286077D01*
X141565250Y-84813309D01*
X141564752Y-85384187D01*
X141782757Y-85911800D01*
X142186077Y-86315824D01*
X142713309Y-86534750D01*
X143284187Y-86535248D01*
X143811800Y-86317243D01*
X144215824Y-85913923D01*
X144310569Y-85685750D01*
X148365000Y-85685750D01*
X148365000Y-86326310D01*
X148461673Y-86559699D01*
X148640302Y-86738327D01*
X148873691Y-86835000D01*
X149514250Y-86835000D01*
X149673000Y-86676250D01*
X149673000Y-85527000D01*
X148523750Y-85527000D01*
X148365000Y-85685750D01*
X144310569Y-85685750D01*
X144434750Y-85386691D01*
X144435248Y-84815813D01*
X144293886Y-84473690D01*
X148365000Y-84473690D01*
X148365000Y-85114250D01*
X148523750Y-85273000D01*
X149673000Y-85273000D01*
X149673000Y-84123750D01*
X149514250Y-83965000D01*
X148873691Y-83965000D01*
X148640302Y-84061673D01*
X148461673Y-84240301D01*
X148365000Y-84473690D01*
X144293886Y-84473690D01*
X144217243Y-84288200D01*
X143948928Y-84019417D01*
X144035317Y-84003162D01*
X144251441Y-83864090D01*
X144396431Y-83651890D01*
X144447440Y-83400000D01*
X144447440Y-81800000D01*
X144403162Y-81564683D01*
X144264090Y-81348559D01*
X144051890Y-81203569D01*
X143800000Y-81152560D01*
X142200000Y-81152560D01*
X141964683Y-81196838D01*
X141748559Y-81335910D01*
X141603569Y-81548110D01*
X141552560Y-81800000D01*
X141180868Y-81800000D01*
X142045869Y-80935000D01*
X144400000Y-80935000D01*
X144719541Y-80871439D01*
X144990434Y-80690434D01*
X145196141Y-80484727D01*
X145557229Y-80335529D01*
X145834555Y-80058686D01*
X145984828Y-79696788D01*
X145985170Y-79304931D01*
X145835529Y-78942771D01*
X145558686Y-78665445D01*
X145196788Y-78515172D01*
X144804931Y-78514830D01*
X144442771Y-78664471D01*
X144165445Y-78941314D01*
X144031039Y-79265000D01*
X143327120Y-79265000D01*
X143354005Y-79253864D01*
X143428139Y-79007745D01*
X142600000Y-78179605D01*
X141771861Y-79007745D01*
X141845995Y-79253864D01*
X141876977Y-79265000D01*
X141700000Y-79265000D01*
X141380459Y-79328561D01*
X141245013Y-79419063D01*
X141109565Y-79509566D01*
X139860000Y-80759132D01*
X139860000Y-75200000D01*
X141152560Y-75200000D01*
X141152560Y-76800000D01*
X141196838Y-77035317D01*
X141335910Y-77251441D01*
X141342548Y-77255977D01*
X141153035Y-77783223D01*
X141180222Y-78353454D01*
X141346136Y-78754005D01*
X141592255Y-78828139D01*
X142420395Y-78000000D01*
X142406252Y-77985858D01*
X142585858Y-77806253D01*
X142600000Y-77820395D01*
X142614143Y-77806253D01*
X142793748Y-77985858D01*
X142779605Y-78000000D01*
X143607745Y-78828139D01*
X143853864Y-78754005D01*
X144046965Y-78216777D01*
X144019778Y-77646546D01*
X143915613Y-77395069D01*
X146214830Y-77395069D01*
X146364471Y-77757229D01*
X146641314Y-78034555D01*
X147003212Y-78184828D01*
X147395069Y-78185170D01*
X147757229Y-78035529D01*
X148034555Y-77758686D01*
X148184828Y-77396788D01*
X148184829Y-77396039D01*
X149345868Y-76235000D01*
X150954132Y-76235000D01*
X151540222Y-76821090D01*
X151346539Y-77014436D01*
X151250024Y-77246870D01*
X151154831Y-77016485D01*
X150765564Y-76626539D01*
X150256702Y-76415241D01*
X149705715Y-76414760D01*
X149196485Y-76625169D01*
X148806539Y-77014436D01*
X148595241Y-77523298D01*
X148594760Y-78074285D01*
X148805169Y-78583515D01*
X149194436Y-78973461D01*
X149703298Y-79184759D01*
X150254285Y-79185240D01*
X150763515Y-78974831D01*
X151153461Y-78585564D01*
X151249976Y-78353130D01*
X151345169Y-78583515D01*
X151734436Y-78973461D01*
X152243298Y-79184759D01*
X152794285Y-79185240D01*
X153303515Y-78974831D01*
X153507183Y-78771517D01*
X154268088Y-78771517D01*
X154336077Y-79012460D01*
X154855171Y-79197201D01*
X155405448Y-79169230D01*
X155783923Y-79012460D01*
X155851912Y-78771517D01*
X155060000Y-77979605D01*
X154268088Y-78771517D01*
X153507183Y-78771517D01*
X153693461Y-78585564D01*
X153783377Y-78369021D01*
X153847540Y-78523923D01*
X154088483Y-78591912D01*
X154880395Y-77800000D01*
X154088483Y-77008088D01*
X153847540Y-77076077D01*
X153788268Y-77242621D01*
X153694831Y-77016485D01*
X153507157Y-76828483D01*
X154268088Y-76828483D01*
X155060000Y-77620395D01*
X155851912Y-76828483D01*
X155783923Y-76587540D01*
X155264829Y-76402799D01*
X154714552Y-76430770D01*
X154336077Y-76587540D01*
X154268088Y-76828483D01*
X153507157Y-76828483D01*
X153355000Y-76676061D01*
X153355000Y-76620000D01*
X153314271Y-76415241D01*
X153291440Y-76300460D01*
X153110434Y-76029566D01*
X151890434Y-74809566D01*
X151619541Y-74628561D01*
X151300000Y-74565000D01*
X149000000Y-74565000D01*
X148680459Y-74628561D01*
X148409566Y-74809566D01*
X147003859Y-76215273D01*
X146642771Y-76364471D01*
X146365445Y-76641314D01*
X146215172Y-77003212D01*
X146214830Y-77395069D01*
X143915613Y-77395069D01*
X143857616Y-77255053D01*
X143996431Y-77051890D01*
X144047440Y-76800000D01*
X144047440Y-75200000D01*
X144003162Y-74964683D01*
X143864090Y-74748559D01*
X143651890Y-74603569D01*
X143400000Y-74552560D01*
X141800000Y-74552560D01*
X141564683Y-74596838D01*
X141348559Y-74735910D01*
X141203569Y-74948110D01*
X141152560Y-75200000D01*
X139860000Y-75200000D01*
X139860000Y-71394092D01*
X141444092Y-69810000D01*
X145380861Y-69810000D01*
X145135730Y-70054703D01*
X145135730Y-70054703D01*
G37*
X145135730Y-70054703D02*
X144760428Y-70958529D01*
X144759574Y-71937177D01*
X145133298Y-72841657D01*
X145824703Y-73534270D01*
X146728529Y-73909572D01*
X147707177Y-73910426D01*
X148611657Y-73536702D01*
X149304270Y-72845297D01*
X149679572Y-71941471D01*
X149680426Y-70962823D01*
X149306702Y-70058343D01*
X149058792Y-69810000D01*
X157250861Y-69810000D01*
X157005730Y-70054703D01*
X156630428Y-70958529D01*
X156629574Y-71937177D01*
X157003298Y-72841657D01*
X157694703Y-73534270D01*
X158598529Y-73909572D01*
X159577177Y-73910426D01*
X160481657Y-73536702D01*
X160690000Y-73328722D01*
X160690000Y-75350000D01*
X160744046Y-75621705D01*
X160897954Y-75852046D01*
X161128295Y-76005954D01*
X161400000Y-76060000D01*
X165355908Y-76060000D01*
X166440000Y-77144092D01*
X166440000Y-117095691D01*
X166286336Y-116993270D01*
X164229605Y-119050000D01*
X164243748Y-119064142D01*
X164064142Y-119243748D01*
X164050000Y-119229605D01*
X161993270Y-121286336D01*
X162062365Y-121390000D01*
X156868010Y-121390000D01*
X157269441Y-121121772D01*
X157732223Y-120429170D01*
X157894730Y-119612191D01*
X157894730Y-118427741D01*
X160914080Y-118427741D01*
X160914660Y-119675172D01*
X161390916Y-120824958D01*
X161813664Y-121106730D01*
X163870395Y-119050000D01*
X161813664Y-116993270D01*
X161390916Y-117275042D01*
X160914080Y-118427741D01*
X157894730Y-118427741D01*
X157894730Y-117487809D01*
X157781483Y-116918476D01*
X158423548Y-117185085D01*
X159670979Y-117186173D01*
X160572520Y-116813664D01*
X161993270Y-116813664D01*
X164050000Y-118870395D01*
X166106730Y-116813664D01*
X165824958Y-116390916D01*
X164672259Y-115914080D01*
X163424828Y-115914660D01*
X162275042Y-116390916D01*
X161993270Y-116813664D01*
X160572520Y-116813664D01*
X160823871Y-116709808D01*
X161706708Y-115828511D01*
X162185085Y-114676452D01*
X162186173Y-113429021D01*
X161709808Y-112276129D01*
X161323873Y-111889520D01*
X161797393Y-111891606D01*
X161916697Y-111868421D01*
X162037729Y-111857375D01*
X162075420Y-111837575D01*
X162117211Y-111829453D01*
X162218558Y-111762379D01*
X162326153Y-111705856D01*
X165029706Y-109519327D01*
X165033896Y-109514295D01*
X165039642Y-109511163D01*
X165429013Y-109186211D01*
X165444633Y-109166855D01*
X165465730Y-109153691D01*
X165546422Y-109040720D01*
X165633617Y-108932669D01*
X165640640Y-108908811D01*
X165655095Y-108888574D01*
X165686415Y-108753313D01*
X165725620Y-108620129D01*
X165722979Y-108595401D01*
X165728589Y-108571171D01*
X165784594Y-106776038D01*
X165760490Y-106631424D01*
X165742151Y-106485950D01*
X165733800Y-106471300D01*
X165731028Y-106454671D01*
X165653428Y-106330307D01*
X165580805Y-106202907D01*
X165567482Y-106192567D01*
X165558558Y-106178265D01*
X165439275Y-106093065D01*
X165323424Y-106003153D01*
X164577084Y-105629983D01*
X165055229Y-105432418D01*
X165431098Y-105057204D01*
X165634768Y-104566713D01*
X165635231Y-104035617D01*
X165432418Y-103544771D01*
X165249644Y-103361678D01*
X165533379Y-102937036D01*
X165635000Y-102426154D01*
X165635000Y-102373846D01*
X165533379Y-101862964D01*
X165243988Y-101429858D01*
X164810882Y-101140467D01*
X164300000Y-101038846D01*
X163789118Y-101140467D01*
X163356012Y-101429858D01*
X163097440Y-101816840D01*
X163097440Y-100439027D01*
X163200961Y-100481904D01*
X163423000Y-100359915D01*
X163423000Y-99217000D01*
X163677000Y-99217000D01*
X163677000Y-100359915D01*
X163899039Y-100481904D01*
X164287423Y-100321041D01*
X164702389Y-99945134D01*
X164941914Y-99439041D01*
X164820629Y-99217000D01*
X163677000Y-99217000D01*
X163423000Y-99217000D01*
X162279371Y-99217000D01*
X162158086Y-99439041D01*
X162188148Y-99502560D01*
X162183428Y-99502560D01*
X161461904Y-98781036D01*
X161634555Y-98608686D01*
X161746898Y-98338133D01*
X162334392Y-97834567D01*
X162498110Y-97946431D01*
X162676204Y-97982496D01*
X162397611Y-98234866D01*
X162158086Y-98740959D01*
X162279371Y-98963000D01*
X163423000Y-98963000D01*
X163423000Y-98943000D01*
X163677000Y-98943000D01*
X163677000Y-98963000D01*
X164820629Y-98963000D01*
X164941914Y-98740959D01*
X164702389Y-98234866D01*
X164424764Y-97983372D01*
X164585317Y-97953162D01*
X164801441Y-97814090D01*
X164946431Y-97601890D01*
X164997440Y-97350000D01*
X164997440Y-95750000D01*
X164953162Y-95514683D01*
X164814090Y-95298559D01*
X164601890Y-95153569D01*
X164350000Y-95102560D01*
X162750000Y-95102560D01*
X162514683Y-95146838D01*
X162298559Y-95285910D01*
X162153569Y-95498110D01*
X162102560Y-95750000D01*
X162102560Y-95862052D01*
X162006589Y-95916021D01*
X160666249Y-97064884D01*
X160604931Y-97064830D01*
X160242771Y-97214471D01*
X160072690Y-97384256D01*
X159932418Y-97044771D01*
X159720983Y-96832966D01*
X159866764Y-96702663D01*
X160092727Y-96233331D01*
X159970206Y-96027000D01*
X158927000Y-96027000D01*
X158927000Y-96047000D01*
X158673000Y-96047000D01*
X158673000Y-96027000D01*
X157629794Y-96027000D01*
X157507273Y-96233331D01*
X157733236Y-96702663D01*
X157879060Y-96833004D01*
X157802417Y-96909514D01*
X157608686Y-96715445D01*
X157246788Y-96565172D01*
X156854931Y-96564830D01*
X156492771Y-96714471D01*
X156215445Y-96991314D01*
X156065172Y-97353212D01*
X156064830Y-97745069D01*
X156214471Y-98107229D01*
X156465000Y-98358195D01*
X156465000Y-99050000D01*
X156528561Y-99369541D01*
X156682549Y-99600000D01*
X156709566Y-99640434D01*
X156959566Y-99890434D01*
X157079022Y-99970252D01*
X156816621Y-100362964D01*
X156715000Y-100873846D01*
X156715000Y-100926154D01*
X156816621Y-101437036D01*
X157100348Y-101861666D01*
X156918902Y-102042796D01*
X156715232Y-102533287D01*
X156714769Y-103064383D01*
X156917582Y-103555229D01*
X157292796Y-103931098D01*
X157783287Y-104134768D01*
X158314383Y-104135231D01*
X158805229Y-103932418D01*
X159181098Y-103557204D01*
X159384768Y-103066713D01*
X159385231Y-102535617D01*
X159182418Y-102044771D01*
X158999644Y-101861678D01*
X159283379Y-101437036D01*
X159385000Y-100926154D01*
X159385000Y-100873846D01*
X159283379Y-100362964D01*
X159131059Y-100135000D01*
X160005598Y-100135000D01*
X160002560Y-100150000D01*
X160002560Y-101950000D01*
X160046838Y-102185317D01*
X160185910Y-102401441D01*
X160398110Y-102546431D01*
X160414344Y-102549719D01*
X160131845Y-102972509D01*
X160015000Y-103559928D01*
X160015000Y-103620072D01*
X160058941Y-103840980D01*
X159996788Y-103815172D01*
X159604931Y-103814830D01*
X159242771Y-103964471D01*
X158965445Y-104241314D01*
X158815172Y-104603212D01*
X158814830Y-104995069D01*
X158962542Y-105352560D01*
X158000000Y-105352560D01*
X157764683Y-105396838D01*
X157548559Y-105535910D01*
X157403569Y-105748110D01*
X157352560Y-106000000D01*
X157352560Y-107600000D01*
X157396838Y-107835317D01*
X157535910Y-108051441D01*
X157748110Y-108196431D01*
X157892375Y-108225645D01*
X157785302Y-108297189D01*
X157474233Y-108762736D01*
X157469151Y-108788283D01*
X157030434Y-108349566D01*
X156950524Y-108296172D01*
X156759541Y-108168561D01*
X156440000Y-108105000D01*
X156431846Y-108105000D01*
X156454500Y-108050309D01*
X156454500Y-107955750D01*
X156295750Y-107797000D01*
X155375000Y-107797000D01*
X155375000Y-107817000D01*
X155121000Y-107817000D01*
X155121000Y-107797000D01*
X154200250Y-107797000D01*
X154041500Y-107955750D01*
X154041500Y-108050309D01*
X154064154Y-108105000D01*
X153660000Y-108105000D01*
X153340460Y-108168560D01*
X153069566Y-108349566D01*
X150454132Y-110965000D01*
X149863581Y-110965000D01*
X149920941Y-110928090D01*
X150065931Y-110715890D01*
X150116940Y-110464000D01*
X150116940Y-109956000D01*
X150082882Y-109775000D01*
X150160000Y-109775000D01*
X150479541Y-109711439D01*
X150750434Y-109530434D01*
X152390434Y-107890434D01*
X152450860Y-107800000D01*
X152571439Y-107619541D01*
X152635000Y-107300000D01*
X152635000Y-106315868D01*
X153309566Y-106990434D01*
X153580459Y-107171439D01*
X153900000Y-107235000D01*
X154064154Y-107235000D01*
X154041500Y-107289691D01*
X154041500Y-107384250D01*
X154200250Y-107543000D01*
X155121000Y-107543000D01*
X155121000Y-107523000D01*
X155375000Y-107523000D01*
X155375000Y-107543000D01*
X156295750Y-107543000D01*
X156454500Y-107384250D01*
X156454500Y-107289691D01*
X156357827Y-107056302D01*
X156331291Y-107029765D01*
X156415931Y-106905890D01*
X156466940Y-106654000D01*
X156466940Y-106146000D01*
X156422662Y-105910683D01*
X156328334Y-105764093D01*
X156415931Y-105635890D01*
X156466940Y-105384000D01*
X156466940Y-104876000D01*
X156422662Y-104640683D01*
X156328334Y-104494093D01*
X156415931Y-104365890D01*
X156466940Y-104114000D01*
X156466940Y-103606000D01*
X156422662Y-103370683D01*
X156328334Y-103224093D01*
X156415931Y-103095890D01*
X156466940Y-102844000D01*
X156466940Y-102336000D01*
X156422662Y-102100683D01*
X156285142Y-101886971D01*
X156285170Y-101854931D01*
X156135529Y-101492771D01*
X155858686Y-101215445D01*
X155496788Y-101065172D01*
X155104931Y-101064830D01*
X154742771Y-101214471D01*
X154465445Y-101491314D01*
X154337434Y-101799599D01*
X154225059Y-101871910D01*
X154080069Y-102084110D01*
X154029060Y-102336000D01*
X154029060Y-102346179D01*
X153742771Y-102464471D01*
X153635000Y-102572054D01*
X153635000Y-102145868D01*
X155590434Y-100190434D01*
X155627474Y-100135000D01*
X155771439Y-99919541D01*
X155835000Y-99600000D01*
X155835000Y-95566669D01*
X157507273Y-95566669D01*
X157629794Y-95773000D01*
X158673000Y-95773000D01*
X158673000Y-94730626D01*
X158927000Y-94730626D01*
X158927000Y-95773000D01*
X159970206Y-95773000D01*
X160092727Y-95566669D01*
X159866764Y-95097337D01*
X159478396Y-94750203D01*
X159133329Y-94607284D01*
X158927000Y-94730626D01*
X158673000Y-94730626D01*
X158466671Y-94607284D01*
X158121604Y-94750203D01*
X157733236Y-95097337D01*
X157507273Y-95566669D01*
X155835000Y-95566669D01*
X155835000Y-94641150D01*
X156010317Y-94608162D01*
X156226441Y-94469090D01*
X156371431Y-94256890D01*
X156422440Y-94005000D01*
X156422440Y-93405000D01*
X156378162Y-93169683D01*
X156314322Y-93070472D01*
X156371431Y-92986890D01*
X156422440Y-92735000D01*
X156422440Y-92135000D01*
X156378162Y-91899683D01*
X156314322Y-91800472D01*
X156371431Y-91716890D01*
X156397987Y-91585750D01*
X160065000Y-91585750D01*
X160065000Y-92026310D01*
X160161673Y-92259699D01*
X160340302Y-92438327D01*
X160573691Y-92535000D01*
X161014250Y-92535000D01*
X161173000Y-92376250D01*
X161173000Y-91427000D01*
X160223750Y-91427000D01*
X160065000Y-91585750D01*
X156397987Y-91585750D01*
X156422440Y-91465000D01*
X156422440Y-90865000D01*
X156397038Y-90730000D01*
X156455000Y-90730000D01*
X156774541Y-90666439D01*
X156913349Y-90573690D01*
X160065000Y-90573690D01*
X160065000Y-91014250D01*
X160223750Y-91173000D01*
X161173000Y-91173000D01*
X161173000Y-90223750D01*
X161014250Y-90065000D01*
X160573691Y-90065000D01*
X160340302Y-90161673D01*
X160161673Y-90340301D01*
X160065000Y-90573690D01*
X156913349Y-90573690D01*
X157045434Y-90485434D01*
X159190434Y-88340434D01*
X159274600Y-88214471D01*
X159371439Y-88069541D01*
X159375835Y-88047440D01*
X159400000Y-88047440D01*
X159635317Y-88003162D01*
X159851441Y-87864090D01*
X159996431Y-87651890D01*
X160047440Y-87400000D01*
X160047440Y-85800000D01*
X160003162Y-85564683D01*
X159864090Y-85348559D01*
X159651890Y-85203569D01*
X159546959Y-85182320D01*
X159815824Y-84913923D01*
X160034750Y-84386691D01*
X160034899Y-84215767D01*
X162465000Y-86645868D01*
X162465000Y-90388513D01*
X162460258Y-90393247D01*
X162438327Y-90340301D01*
X162259698Y-90161673D01*
X162026309Y-90065000D01*
X161585750Y-90065000D01*
X161427000Y-90223750D01*
X161427000Y-91173000D01*
X161447000Y-91173000D01*
X161447000Y-91427000D01*
X161427000Y-91427000D01*
X161427000Y-92376250D01*
X161585750Y-92535000D01*
X162026309Y-92535000D01*
X162259698Y-92438327D01*
X162438327Y-92259699D01*
X162460224Y-92206836D01*
X162599515Y-92346371D01*
X163053266Y-92534785D01*
X163544579Y-92535214D01*
X163998657Y-92347592D01*
X164346371Y-92000485D01*
X164394751Y-91883973D01*
X164571439Y-91619541D01*
X164635000Y-91300000D01*
X164571439Y-90980459D01*
X164395347Y-90716919D01*
X164347592Y-90601343D01*
X164135000Y-90388379D01*
X164135000Y-86300000D01*
X164071439Y-85980459D01*
X163890434Y-85709566D01*
X161788613Y-83607745D01*
X163271861Y-83607745D01*
X163345995Y-83853864D01*
X163883223Y-84046965D01*
X164453454Y-84019778D01*
X164854005Y-83853864D01*
X164928139Y-83607745D01*
X164100000Y-82779605D01*
X163271861Y-83607745D01*
X161788613Y-83607745D01*
X159890434Y-81709566D01*
X159619541Y-81528561D01*
X159300000Y-81465000D01*
X157163433Y-81465000D01*
X157503461Y-81125564D01*
X157714759Y-80616702D01*
X157715240Y-80065715D01*
X157605450Y-79800000D01*
X162652560Y-79800000D01*
X162652560Y-81400000D01*
X162696838Y-81635317D01*
X162835910Y-81851441D01*
X162842548Y-81855977D01*
X162653035Y-82383223D01*
X162680222Y-82953454D01*
X162846136Y-83354005D01*
X163092255Y-83428139D01*
X163920395Y-82600000D01*
X163906252Y-82585858D01*
X164085858Y-82406253D01*
X164100000Y-82420395D01*
X164114143Y-82406253D01*
X164293748Y-82585858D01*
X164279605Y-82600000D01*
X165107745Y-83428139D01*
X165353864Y-83354005D01*
X165546965Y-82816777D01*
X165519778Y-82246546D01*
X165357616Y-81855053D01*
X165496431Y-81651890D01*
X165547440Y-81400000D01*
X165547440Y-79800000D01*
X165503162Y-79564683D01*
X165364090Y-79348559D01*
X165151890Y-79203569D01*
X164900000Y-79152560D01*
X163300000Y-79152560D01*
X163064683Y-79196838D01*
X162848559Y-79335910D01*
X162703569Y-79548110D01*
X162652560Y-79800000D01*
X157605450Y-79800000D01*
X157504831Y-79556485D01*
X157146411Y-79197440D01*
X158350000Y-79197440D01*
X158585317Y-79153162D01*
X158801441Y-79014090D01*
X158946431Y-78801890D01*
X158997440Y-78550000D01*
X158997440Y-77050000D01*
X158953162Y-76814683D01*
X158814090Y-76598559D01*
X158601890Y-76453569D01*
X158350000Y-76402560D01*
X156850000Y-76402560D01*
X156614683Y-76446838D01*
X156398559Y-76585910D01*
X156253569Y-76798110D01*
X156202560Y-77050000D01*
X156202560Y-77056353D01*
X156031517Y-77008088D01*
X155239605Y-77800000D01*
X156031517Y-78591912D01*
X156202560Y-78543647D01*
X156202560Y-78550000D01*
X156246838Y-78785317D01*
X156356040Y-78955022D01*
X156055715Y-78954760D01*
X155546485Y-79165169D01*
X155156539Y-79554436D01*
X155060024Y-79786870D01*
X154964831Y-79556485D01*
X154575564Y-79166539D01*
X154066702Y-78955241D01*
X153515715Y-78954760D01*
X153006485Y-79165169D01*
X152616539Y-79554436D01*
X152520024Y-79786870D01*
X152424831Y-79556485D01*
X152035564Y-79166539D01*
X151526702Y-78955241D01*
X150975715Y-78954760D01*
X150466485Y-79165169D01*
X150076539Y-79554436D01*
X149980024Y-79786870D01*
X149884831Y-79556485D01*
X149495564Y-79166539D01*
X148986702Y-78955241D01*
X148435715Y-78954760D01*
X147926485Y-79165169D01*
X147536539Y-79554436D01*
X147325241Y-80063298D01*
X147324760Y-80614285D01*
X147535169Y-81123515D01*
X147924436Y-81513461D01*
X148433298Y-81724759D01*
X148984285Y-81725240D01*
X149493515Y-81514831D01*
X149883461Y-81125564D01*
X149979976Y-80893130D01*
X150075169Y-81123515D01*
X150464436Y-81513461D01*
X150973298Y-81724759D01*
X151524285Y-81725240D01*
X152033515Y-81514831D01*
X152423461Y-81125564D01*
X152519976Y-80893130D01*
X152615169Y-81123515D01*
X152998209Y-81507223D01*
X153018561Y-81609541D01*
X153188645Y-81864090D01*
X153199566Y-81880434D01*
X154209566Y-82890434D01*
X154480460Y-83071440D01*
X154800000Y-83135000D01*
X157535517Y-83135000D01*
X157405290Y-83265000D01*
X153250000Y-83265000D01*
X152930459Y-83328561D01*
X152659566Y-83509566D01*
X152204216Y-83964916D01*
X152015813Y-83964752D01*
X151488200Y-84182757D01*
X151223813Y-84446683D01*
X151138327Y-84240301D01*
X150959698Y-84061673D01*
X150726309Y-83965000D01*
X150085750Y-83965000D01*
X149927000Y-84123750D01*
X149927000Y-85273000D01*
X149947000Y-85273000D01*
X149947000Y-85527000D01*
X149927000Y-85527000D01*
X149927000Y-86676250D01*
X150085750Y-86835000D01*
X150726309Y-86835000D01*
X150959698Y-86738327D01*
X151138327Y-86559699D01*
X151223876Y-86353165D01*
X151486077Y-86615824D01*
X152013309Y-86834750D01*
X152465000Y-86835144D01*
X152465000Y-93300000D01*
X152528561Y-93619541D01*
X152613585Y-93746788D01*
X152709566Y-93890434D01*
X153114565Y-94295434D01*
X153247945Y-94384555D01*
X153385459Y-94476439D01*
X153705000Y-94540000D01*
X153883203Y-94540000D01*
X153973110Y-94601431D01*
X154165000Y-94640290D01*
X154165000Y-95449973D01*
X154164090Y-95448559D01*
X153951890Y-95303569D01*
X153700000Y-95252560D01*
X151900000Y-95252560D01*
X151664683Y-95296838D01*
X151448559Y-95435910D01*
X151303569Y-95648110D01*
X151252560Y-95900000D01*
X151252560Y-96065000D01*
X149834287Y-96065000D01*
X149743988Y-95929858D01*
X149310882Y-95640467D01*
X148800000Y-95538846D01*
X148289118Y-95640467D01*
X147856012Y-95929858D01*
X147566621Y-96362964D01*
X147465000Y-96873846D01*
X147465000Y-96926154D01*
X147566621Y-97437036D01*
X147850348Y-97861666D01*
X147668902Y-98042796D01*
X147465232Y-98533287D01*
X147464769Y-99064383D01*
X147667582Y-99555229D01*
X148042796Y-99931098D01*
X148533287Y-100134768D01*
X148954267Y-100135135D01*
X149448569Y-100629437D01*
X149242771Y-100714471D01*
X148965445Y-100991314D01*
X148815172Y-101353212D01*
X148814879Y-101688560D01*
X148326500Y-101688560D01*
X148091183Y-101732838D01*
X148056742Y-101755000D01*
X145643152Y-101755000D01*
X145557204Y-101668902D01*
X145066713Y-101465232D01*
X144535617Y-101464769D01*
X144044771Y-101667582D01*
X143668902Y-102042796D01*
X143659682Y-102065000D01*
X142834287Y-102065000D01*
X142743988Y-101929858D01*
X142310882Y-101640467D01*
X141800000Y-101538846D01*
X141289118Y-101640467D01*
X141135000Y-101743445D01*
X141135000Y-99084187D01*
X143364752Y-99084187D01*
X143582757Y-99611800D01*
X143986077Y-100015824D01*
X144513309Y-100234750D01*
X145084187Y-100235248D01*
X145611800Y-100017243D01*
X146015824Y-99613923D01*
X146234750Y-99086691D01*
X146235248Y-98515813D01*
X146017243Y-97988200D01*
X145613923Y-97584176D01*
X145478046Y-97527755D01*
X145814698Y-97302811D01*
X145953553Y-97095000D01*
X146090000Y-97095000D01*
X146409541Y-97031439D01*
X146680434Y-96850434D01*
X147496141Y-96034727D01*
X147857229Y-95885529D01*
X148134555Y-95608686D01*
X148284828Y-95246788D01*
X148285170Y-94854931D01*
X148155044Y-94540000D01*
X148483203Y-94540000D01*
X148573110Y-94601431D01*
X148825000Y-94652440D01*
X150375000Y-94652440D01*
X150610317Y-94608162D01*
X150826441Y-94469090D01*
X150971431Y-94256890D01*
X151022440Y-94005000D01*
X151022440Y-93405000D01*
X150978162Y-93169683D01*
X150919822Y-93079020D01*
X151010000Y-92861310D01*
X151010000Y-92720750D01*
X150851250Y-92562000D01*
X149727000Y-92562000D01*
X149727000Y-92582000D01*
X149473000Y-92582000D01*
X149473000Y-92562000D01*
X148348750Y-92562000D01*
X148190000Y-92720750D01*
X148190000Y-92861310D01*
X148193600Y-92870000D01*
X147275988Y-92870000D01*
X146958729Y-92815663D01*
X146858686Y-92715445D01*
X146496788Y-92565172D01*
X146104931Y-92564830D01*
X145742771Y-92714471D01*
X145465445Y-92991314D01*
X145315172Y-93353212D01*
X145314830Y-93745069D01*
X145464471Y-94107229D01*
X145741314Y-94384555D01*
X146103212Y-94534828D01*
X146447252Y-94535128D01*
X146315172Y-94853212D01*
X146315171Y-94853961D01*
X145869671Y-95299461D01*
X145814698Y-95217189D01*
X145349151Y-94906120D01*
X144800000Y-94796887D01*
X144250849Y-94906120D01*
X143785302Y-95217189D01*
X143474233Y-95682736D01*
X143365000Y-96231887D01*
X143365000Y-96288113D01*
X143474233Y-96837264D01*
X143785302Y-97302811D01*
X144121710Y-97527592D01*
X143988200Y-97582757D01*
X143584176Y-97986077D01*
X143365250Y-98513309D01*
X143364752Y-99084187D01*
X141135000Y-99084187D01*
X141135000Y-95245868D01*
X142733428Y-93647440D01*
X143800000Y-93647440D01*
X144035317Y-93603162D01*
X144251441Y-93464090D01*
X144396431Y-93251890D01*
X144447440Y-93000000D01*
X144447440Y-91400000D01*
X144403162Y-91164683D01*
X144264090Y-90948559D01*
X144051890Y-90803569D01*
X143813799Y-90755354D01*
X143816896Y-90745069D01*
X146314830Y-90745069D01*
X146464471Y-91107229D01*
X146741314Y-91384555D01*
X147103212Y-91534828D01*
X147331340Y-91535027D01*
X147464471Y-91857229D01*
X147741314Y-92134555D01*
X148103212Y-92284828D01*
X148325772Y-92285022D01*
X148348750Y-92308000D01*
X149473000Y-92308000D01*
X149473000Y-92288000D01*
X149727000Y-92288000D01*
X149727000Y-92308000D01*
X150851250Y-92308000D01*
X151010000Y-92149250D01*
X151010000Y-92008690D01*
X150920194Y-91791878D01*
X150971431Y-91716890D01*
X151022440Y-91465000D01*
X151022440Y-91034976D01*
X151245069Y-91035170D01*
X151607229Y-90885529D01*
X151884555Y-90608686D01*
X152034828Y-90246788D01*
X152035170Y-89854931D01*
X151885529Y-89492771D01*
X151608686Y-89215445D01*
X151246788Y-89065172D01*
X150919566Y-89064886D01*
X150895000Y-89060000D01*
X150716797Y-89060000D01*
X150626890Y-88998569D01*
X150375000Y-88947560D01*
X148825000Y-88947560D01*
X148589683Y-88991838D01*
X148373559Y-89130910D01*
X148372802Y-89132018D01*
X148370113Y-89133815D01*
X148352185Y-89138200D01*
X147436427Y-89565119D01*
X147104931Y-89564830D01*
X146742771Y-89714471D01*
X146465445Y-89991314D01*
X146315172Y-90353212D01*
X146314830Y-90745069D01*
X143816896Y-90745069D01*
X143828139Y-90707745D01*
X143000000Y-89879605D01*
X142171861Y-90707745D01*
X142186145Y-90755167D01*
X141964683Y-90796838D01*
X141748559Y-90935910D01*
X141603569Y-91148110D01*
X141552560Y-91400000D01*
X141552560Y-92466572D01*
X140435000Y-93584132D01*
X140435000Y-89483223D01*
X141553035Y-89483223D01*
X141580222Y-90053454D01*
X141746136Y-90454005D01*
X141992255Y-90528139D01*
X142820395Y-89700000D01*
X143179605Y-89700000D01*
X144007745Y-90528139D01*
X144253864Y-90454005D01*
X144446965Y-89916777D01*
X144419778Y-89346546D01*
X144253864Y-88945995D01*
X144007745Y-88871861D01*
X143179605Y-89700000D01*
X142820395Y-89700000D01*
X141992255Y-88871861D01*
X141746136Y-88945995D01*
X141553035Y-89483223D01*
X140435000Y-89483223D01*
X140435000Y-88692255D01*
X142171861Y-88692255D01*
X143000000Y-89520395D01*
X143828139Y-88692255D01*
X143754005Y-88446136D01*
X143216777Y-88253035D01*
X142646546Y-88280222D01*
X142245995Y-88446136D01*
X142171861Y-88692255D01*
X140435000Y-88692255D01*
X140435000Y-82545868D01*
X141180868Y-81800000D01*
X141552560Y-81800000D01*
X141552560Y-83400000D01*
X141596838Y-83635317D01*
X141735910Y-83851441D01*
X141948110Y-83996431D01*
X142053041Y-84017680D01*
X141784176Y-84286077D01*
X141565250Y-84813309D01*
X141564752Y-85384187D01*
X141782757Y-85911800D01*
X142186077Y-86315824D01*
X142713309Y-86534750D01*
X143284187Y-86535248D01*
X143811800Y-86317243D01*
X144215824Y-85913923D01*
X144310569Y-85685750D01*
X148365000Y-85685750D01*
X148365000Y-86326310D01*
X148461673Y-86559699D01*
X148640302Y-86738327D01*
X148873691Y-86835000D01*
X149514250Y-86835000D01*
X149673000Y-86676250D01*
X149673000Y-85527000D01*
X148523750Y-85527000D01*
X148365000Y-85685750D01*
X144310569Y-85685750D01*
X144434750Y-85386691D01*
X144435248Y-84815813D01*
X144293886Y-84473690D01*
X148365000Y-84473690D01*
X148365000Y-85114250D01*
X148523750Y-85273000D01*
X149673000Y-85273000D01*
X149673000Y-84123750D01*
X149514250Y-83965000D01*
X148873691Y-83965000D01*
X148640302Y-84061673D01*
X148461673Y-84240301D01*
X148365000Y-84473690D01*
X144293886Y-84473690D01*
X144217243Y-84288200D01*
X143948928Y-84019417D01*
X144035317Y-84003162D01*
X144251441Y-83864090D01*
X144396431Y-83651890D01*
X144447440Y-83400000D01*
X144447440Y-81800000D01*
X144403162Y-81564683D01*
X144264090Y-81348559D01*
X144051890Y-81203569D01*
X143800000Y-81152560D01*
X142200000Y-81152560D01*
X141964683Y-81196838D01*
X141748559Y-81335910D01*
X141603569Y-81548110D01*
X141552560Y-81800000D01*
X141180868Y-81800000D01*
X142045869Y-80935000D01*
X144400000Y-80935000D01*
X144719541Y-80871439D01*
X144990434Y-80690434D01*
X145196141Y-80484727D01*
X145557229Y-80335529D01*
X145834555Y-80058686D01*
X145984828Y-79696788D01*
X145985170Y-79304931D01*
X145835529Y-78942771D01*
X145558686Y-78665445D01*
X145196788Y-78515172D01*
X144804931Y-78514830D01*
X144442771Y-78664471D01*
X144165445Y-78941314D01*
X144031039Y-79265000D01*
X143327120Y-79265000D01*
X143354005Y-79253864D01*
X143428139Y-79007745D01*
X142600000Y-78179605D01*
X141771861Y-79007745D01*
X141845995Y-79253864D01*
X141876977Y-79265000D01*
X141700000Y-79265000D01*
X141380459Y-79328561D01*
X141245013Y-79419063D01*
X141109565Y-79509566D01*
X139860000Y-80759132D01*
X139860000Y-75200000D01*
X141152560Y-75200000D01*
X141152560Y-76800000D01*
X141196838Y-77035317D01*
X141335910Y-77251441D01*
X141342548Y-77255977D01*
X141153035Y-77783223D01*
X141180222Y-78353454D01*
X141346136Y-78754005D01*
X141592255Y-78828139D01*
X142420395Y-78000000D01*
X142406252Y-77985858D01*
X142585858Y-77806253D01*
X142600000Y-77820395D01*
X142614143Y-77806253D01*
X142793748Y-77985858D01*
X142779605Y-78000000D01*
X143607745Y-78828139D01*
X143853864Y-78754005D01*
X144046965Y-78216777D01*
X144019778Y-77646546D01*
X143915613Y-77395069D01*
X146214830Y-77395069D01*
X146364471Y-77757229D01*
X146641314Y-78034555D01*
X147003212Y-78184828D01*
X147395069Y-78185170D01*
X147757229Y-78035529D01*
X148034555Y-77758686D01*
X148184828Y-77396788D01*
X148184829Y-77396039D01*
X149345868Y-76235000D01*
X150954132Y-76235000D01*
X151540222Y-76821090D01*
X151346539Y-77014436D01*
X151250024Y-77246870D01*
X151154831Y-77016485D01*
X150765564Y-76626539D01*
X150256702Y-76415241D01*
X149705715Y-76414760D01*
X149196485Y-76625169D01*
X148806539Y-77014436D01*
X148595241Y-77523298D01*
X148594760Y-78074285D01*
X148805169Y-78583515D01*
X149194436Y-78973461D01*
X149703298Y-79184759D01*
X150254285Y-79185240D01*
X150763515Y-78974831D01*
X151153461Y-78585564D01*
X151249976Y-78353130D01*
X151345169Y-78583515D01*
X151734436Y-78973461D01*
X152243298Y-79184759D01*
X152794285Y-79185240D01*
X153303515Y-78974831D01*
X153507183Y-78771517D01*
X154268088Y-78771517D01*
X154336077Y-79012460D01*
X154855171Y-79197201D01*
X155405448Y-79169230D01*
X155783923Y-79012460D01*
X155851912Y-78771517D01*
X155060000Y-77979605D01*
X154268088Y-78771517D01*
X153507183Y-78771517D01*
X153693461Y-78585564D01*
X153783377Y-78369021D01*
X153847540Y-78523923D01*
X154088483Y-78591912D01*
X154880395Y-77800000D01*
X154088483Y-77008088D01*
X153847540Y-77076077D01*
X153788268Y-77242621D01*
X153694831Y-77016485D01*
X153507157Y-76828483D01*
X154268088Y-76828483D01*
X155060000Y-77620395D01*
X155851912Y-76828483D01*
X155783923Y-76587540D01*
X155264829Y-76402799D01*
X154714552Y-76430770D01*
X154336077Y-76587540D01*
X154268088Y-76828483D01*
X153507157Y-76828483D01*
X153355000Y-76676061D01*
X153355000Y-76620000D01*
X153314271Y-76415241D01*
X153291440Y-76300460D01*
X153110434Y-76029566D01*
X151890434Y-74809566D01*
X151619541Y-74628561D01*
X151300000Y-74565000D01*
X149000000Y-74565000D01*
X148680459Y-74628561D01*
X148409566Y-74809566D01*
X147003859Y-76215273D01*
X146642771Y-76364471D01*
X146365445Y-76641314D01*
X146215172Y-77003212D01*
X146214830Y-77395069D01*
X143915613Y-77395069D01*
X143857616Y-77255053D01*
X143996431Y-77051890D01*
X144047440Y-76800000D01*
X144047440Y-75200000D01*
X144003162Y-74964683D01*
X143864090Y-74748559D01*
X143651890Y-74603569D01*
X143400000Y-74552560D01*
X141800000Y-74552560D01*
X141564683Y-74596838D01*
X141348559Y-74735910D01*
X141203569Y-74948110D01*
X141152560Y-75200000D01*
X139860000Y-75200000D01*
X139860000Y-71394092D01*
X141444092Y-69810000D01*
X145380861Y-69810000D01*
X145135730Y-70054703D01*
M02*
