M48
;DRILL file {KiCad 4.0.6} date 08/29/19 03:11:07
;FORMAT={2:4/ absolute / inch / keep zeros}
FMAT,2
INCH,TZ
T1C0.016
T2C0.024
T3C0.031
T4C0.035
T5C0.071
T6C0.098
T7C0.128
%
G90
G05
M72
T1
X055543Y-042067
X056713Y-039685
X056909Y-036634
X057087Y-031299
X057953Y-030394
X058681Y-034370
X059764Y-040669
X060189Y-040445
X060748Y-038701
X060846Y-041358
X060945Y-043228
X061142Y-040472
X062028Y-036634
X062028Y-041752
X063406Y-041654
X063504Y-039094
X063799Y-041161
X064587Y-041358
T2
X059970Y-034094
X059970Y-034882
X063602Y-036240
X063602Y-037028
X064193Y-034567
X064193Y-035354
T3
X056697Y-032992
X057697Y-032992
X059577Y-045049
X060561Y-045049
X061421Y-032894
X062421Y-032894
X063504Y-032795
X064488Y-032795
T4
X058547Y-031630
X059047Y-030630
X059547Y-031630
X060047Y-030630
X060547Y-031630
X061047Y-030630
X061547Y-031630
X062047Y-030630
T5
X058205Y-046673
X059764Y-046673
X061323Y-046673
T6
X062618Y-044902
X064587Y-046870
T7
X057961Y-028130
X062634Y-028130
T0
M30
