G04 #@! TF.FileFunction,Legend,Bot*
%FSLAX46Y46*%
G04 Gerber Fmt 4.6, Leading zero omitted, Abs format (unit mm)*
G04 Created by KiCad (PCBNEW 4.0.6) date 03/05/19 05:03:15*
%MOMM*%
%LPD*%
G01*
G04 APERTURE LIST*
%ADD10C,0.100000*%
%ADD11C,0.300000*%
G04 APERTURE END LIST*
D10*
D11*
X141421429Y-97114285D02*
X141421429Y-96257142D01*
X139921429Y-96685713D02*
X141421429Y-96685713D01*
X139921429Y-94899999D02*
X140635714Y-95399999D01*
X139921429Y-95757142D02*
X141421429Y-95757142D01*
X141421429Y-95185714D01*
X141350000Y-95042856D01*
X141278571Y-94971428D01*
X141135714Y-94899999D01*
X140921429Y-94899999D01*
X140778571Y-94971428D01*
X140707143Y-95042856D01*
X140635714Y-95185714D01*
X140635714Y-95757142D01*
X141421429Y-93971428D02*
X141421429Y-93828571D01*
X141350000Y-93685714D01*
X141278571Y-93614285D01*
X141135714Y-93542856D01*
X140850000Y-93471428D01*
X140492857Y-93471428D01*
X140207143Y-93542856D01*
X140064286Y-93614285D01*
X139992857Y-93685714D01*
X139921429Y-93828571D01*
X139921429Y-93971428D01*
X139992857Y-94114285D01*
X140064286Y-94185714D01*
X140207143Y-94257142D01*
X140492857Y-94328571D01*
X140850000Y-94328571D01*
X141135714Y-94257142D01*
X141278571Y-94185714D01*
X141350000Y-94114285D01*
X141421429Y-93971428D01*
X141421429Y-92971428D02*
X141421429Y-91971428D01*
X139921429Y-92614285D01*
X140492857Y-90257143D02*
X140492857Y-89114286D01*
X139921429Y-86542857D02*
X139921429Y-87257143D01*
X141421429Y-87257143D01*
X139921429Y-86042857D02*
X140921429Y-86042857D01*
X141421429Y-86042857D02*
X141350000Y-86114286D01*
X141278571Y-86042857D01*
X141350000Y-85971429D01*
X141421429Y-86042857D01*
X141278571Y-86042857D01*
X140921429Y-85542857D02*
X140921429Y-84971428D01*
X141421429Y-85328571D02*
X140135714Y-85328571D01*
X139992857Y-85257143D01*
X139921429Y-85114285D01*
X139921429Y-84971428D01*
X139921429Y-84471428D02*
X140921429Y-84471428D01*
X141421429Y-84471428D02*
X141350000Y-84542857D01*
X141278571Y-84471428D01*
X141350000Y-84400000D01*
X141421429Y-84471428D01*
X141278571Y-84471428D01*
X139921429Y-83542856D02*
X139992857Y-83685714D01*
X140064286Y-83757142D01*
X140207143Y-83828571D01*
X140635714Y-83828571D01*
X140778571Y-83757142D01*
X140850000Y-83685714D01*
X140921429Y-83542856D01*
X140921429Y-83328571D01*
X140850000Y-83185714D01*
X140778571Y-83114285D01*
X140635714Y-83042856D01*
X140207143Y-83042856D01*
X140064286Y-83114285D01*
X139992857Y-83185714D01*
X139921429Y-83328571D01*
X139921429Y-83542856D01*
X139921429Y-82185713D02*
X139992857Y-82328571D01*
X140064286Y-82399999D01*
X140207143Y-82471428D01*
X140635714Y-82471428D01*
X140778571Y-82399999D01*
X140850000Y-82328571D01*
X140921429Y-82185713D01*
X140921429Y-81971428D01*
X140850000Y-81828571D01*
X140778571Y-81757142D01*
X140635714Y-81685713D01*
X140207143Y-81685713D01*
X140064286Y-81757142D01*
X139992857Y-81828571D01*
X139921429Y-81971428D01*
X139921429Y-82185713D01*
X140492857Y-79899999D02*
X140492857Y-78757142D01*
X141278571Y-76971428D02*
X141350000Y-76899999D01*
X141421429Y-76757142D01*
X141421429Y-76399999D01*
X141350000Y-76257142D01*
X141278571Y-76185713D01*
X141135714Y-76114285D01*
X140992857Y-76114285D01*
X140778571Y-76185713D01*
X139921429Y-77042856D01*
X139921429Y-76114285D01*
X141421429Y-75185714D02*
X141421429Y-75042857D01*
X141350000Y-74900000D01*
X141278571Y-74828571D01*
X141135714Y-74757142D01*
X140850000Y-74685714D01*
X140492857Y-74685714D01*
X140207143Y-74757142D01*
X140064286Y-74828571D01*
X139992857Y-74900000D01*
X139921429Y-75042857D01*
X139921429Y-75185714D01*
X139992857Y-75328571D01*
X140064286Y-75400000D01*
X140207143Y-75471428D01*
X140492857Y-75542857D01*
X140850000Y-75542857D01*
X141135714Y-75471428D01*
X141278571Y-75400000D01*
X141350000Y-75328571D01*
X141421429Y-75185714D01*
X139921429Y-73257143D02*
X139921429Y-74114286D01*
X139921429Y-73685714D02*
X141421429Y-73685714D01*
X141207143Y-73828571D01*
X141064286Y-73971429D01*
X140992857Y-74114286D01*
X139921429Y-72542858D02*
X139921429Y-72257143D01*
X139992857Y-72114286D01*
X140064286Y-72042858D01*
X140278571Y-71900000D01*
X140564286Y-71828572D01*
X141135714Y-71828572D01*
X141278571Y-71900000D01*
X141350000Y-71971429D01*
X141421429Y-72114286D01*
X141421429Y-72400000D01*
X141350000Y-72542858D01*
X141278571Y-72614286D01*
X141135714Y-72685715D01*
X140778571Y-72685715D01*
X140635714Y-72614286D01*
X140564286Y-72542858D01*
X140492857Y-72400000D01*
X140492857Y-72114286D01*
X140564286Y-71971429D01*
X140635714Y-71900000D01*
X140778571Y-71828572D01*
M02*
