M48
;DRILL file {KiCad 4.0.6} date 12/15/18 02:39:00
;FORMAT={2:4/ absolute / inch / keep zeros}
FMAT,2
INCH,TZ
T1C0.016
T2C0.024
T3C0.031
T4C0.035
T5C0.071
T6C0.098
T7C0.128
%
G90
G05
M72
T1
X055669Y-030669
X057361Y-045648
X057598Y-030669
X058740Y-037323
X058976Y-042953
X060118Y-040472
X060472Y-038898
X060945Y-033819
X061457Y-040512
X061496Y-037638
X062795Y-040394
X063307Y-039409
T2
X056024Y-043858
X056024Y-044646
X056260Y-041614
X056260Y-042402
X064409Y-035433
X064409Y-036220
T3
X056055Y-040472
X056173Y-033071
X056299Y-028858
X056299Y-031858
X056378Y-035465
X056378Y-038465
X057835Y-034331
X057835Y-037331
X058307Y-038425
X058307Y-039213
X059055Y-040472
X059173Y-033071
X059756Y-034488
X059756Y-035827
X060433Y-043268
X060465Y-041969
X060512Y-033110
X062756Y-034488
X062756Y-035827
X063433Y-043268
X063465Y-041969
X063512Y-033110
X063543Y-037402
X063543Y-040402
X064606Y-031732
X064606Y-032520
X064724Y-037433
X064724Y-040433
X064961Y-041520
X064961Y-042520
T4
X058547Y-031630
X059047Y-030630
X059547Y-031630
X060047Y-030630
X060547Y-031630
X061047Y-030630
X061547Y-031630
X062047Y-030630
T5
X058284Y-045748
X059843Y-045748
X061402Y-045748
T6
X063307Y-046772
X064409Y-044409
T7
X057961Y-028130
X062634Y-028130
T0
M30
