G04 #@! TF.FileFunction,Legend,Bot*
%FSLAX46Y46*%
G04 Gerber Fmt 4.6, Leading zero omitted, Abs format (unit mm)*
G04 Created by KiCad (PCBNEW 4.0.6) date 02/28/19 03:31:16*
%MOMM*%
%LPD*%
G01*
G04 APERTURE LIST*
%ADD10C,0.100000*%
%ADD11C,0.300000*%
G04 APERTURE END LIST*
D10*
D11*
X141221429Y-100214285D02*
X141221429Y-99357142D01*
X139721429Y-99785713D02*
X141221429Y-99785713D01*
X139721429Y-97999999D02*
X140435714Y-98499999D01*
X139721429Y-98857142D02*
X141221429Y-98857142D01*
X141221429Y-98285714D01*
X141150000Y-98142856D01*
X141078571Y-98071428D01*
X140935714Y-97999999D01*
X140721429Y-97999999D01*
X140578571Y-98071428D01*
X140507143Y-98142856D01*
X140435714Y-98285714D01*
X140435714Y-98857142D01*
X141221429Y-97071428D02*
X141221429Y-96928571D01*
X141150000Y-96785714D01*
X141078571Y-96714285D01*
X140935714Y-96642856D01*
X140650000Y-96571428D01*
X140292857Y-96571428D01*
X140007143Y-96642856D01*
X139864286Y-96714285D01*
X139792857Y-96785714D01*
X139721429Y-96928571D01*
X139721429Y-97071428D01*
X139792857Y-97214285D01*
X139864286Y-97285714D01*
X140007143Y-97357142D01*
X140292857Y-97428571D01*
X140650000Y-97428571D01*
X140935714Y-97357142D01*
X141078571Y-97285714D01*
X141150000Y-97214285D01*
X141221429Y-97071428D01*
X141221429Y-96071428D02*
X141221429Y-95071428D01*
X139721429Y-95714285D01*
X140292857Y-93357143D02*
X140292857Y-92214286D01*
X139721429Y-89642857D02*
X139721429Y-90357143D01*
X141221429Y-90357143D01*
X139721429Y-89142857D02*
X140721429Y-89142857D01*
X141221429Y-89142857D02*
X141150000Y-89214286D01*
X141078571Y-89142857D01*
X141150000Y-89071429D01*
X141221429Y-89142857D01*
X141078571Y-89142857D01*
X140721429Y-88642857D02*
X140721429Y-88071428D01*
X141221429Y-88428571D02*
X139935714Y-88428571D01*
X139792857Y-88357143D01*
X139721429Y-88214285D01*
X139721429Y-88071428D01*
X139721429Y-87571428D02*
X140721429Y-87571428D01*
X141221429Y-87571428D02*
X141150000Y-87642857D01*
X141078571Y-87571428D01*
X141150000Y-87500000D01*
X141221429Y-87571428D01*
X141078571Y-87571428D01*
X139721429Y-86642856D02*
X139792857Y-86785714D01*
X139864286Y-86857142D01*
X140007143Y-86928571D01*
X140435714Y-86928571D01*
X140578571Y-86857142D01*
X140650000Y-86785714D01*
X140721429Y-86642856D01*
X140721429Y-86428571D01*
X140650000Y-86285714D01*
X140578571Y-86214285D01*
X140435714Y-86142856D01*
X140007143Y-86142856D01*
X139864286Y-86214285D01*
X139792857Y-86285714D01*
X139721429Y-86428571D01*
X139721429Y-86642856D01*
X139721429Y-85285713D02*
X139792857Y-85428571D01*
X139864286Y-85499999D01*
X140007143Y-85571428D01*
X140435714Y-85571428D01*
X140578571Y-85499999D01*
X140650000Y-85428571D01*
X140721429Y-85285713D01*
X140721429Y-85071428D01*
X140650000Y-84928571D01*
X140578571Y-84857142D01*
X140435714Y-84785713D01*
X140007143Y-84785713D01*
X139864286Y-84857142D01*
X139792857Y-84928571D01*
X139721429Y-85071428D01*
X139721429Y-85285713D01*
X140292857Y-82999999D02*
X140292857Y-81857142D01*
X141078571Y-80071428D02*
X141150000Y-79999999D01*
X141221429Y-79857142D01*
X141221429Y-79499999D01*
X141150000Y-79357142D01*
X141078571Y-79285713D01*
X140935714Y-79214285D01*
X140792857Y-79214285D01*
X140578571Y-79285713D01*
X139721429Y-80142856D01*
X139721429Y-79214285D01*
X141221429Y-78285714D02*
X141221429Y-78142857D01*
X141150000Y-78000000D01*
X141078571Y-77928571D01*
X140935714Y-77857142D01*
X140650000Y-77785714D01*
X140292857Y-77785714D01*
X140007143Y-77857142D01*
X139864286Y-77928571D01*
X139792857Y-78000000D01*
X139721429Y-78142857D01*
X139721429Y-78285714D01*
X139792857Y-78428571D01*
X139864286Y-78500000D01*
X140007143Y-78571428D01*
X140292857Y-78642857D01*
X140650000Y-78642857D01*
X140935714Y-78571428D01*
X141078571Y-78500000D01*
X141150000Y-78428571D01*
X141221429Y-78285714D01*
X139721429Y-76357143D02*
X139721429Y-77214286D01*
X139721429Y-76785714D02*
X141221429Y-76785714D01*
X141007143Y-76928571D01*
X140864286Y-77071429D01*
X140792857Y-77214286D01*
X139721429Y-75642858D02*
X139721429Y-75357143D01*
X139792857Y-75214286D01*
X139864286Y-75142858D01*
X140078571Y-75000000D01*
X140364286Y-74928572D01*
X140935714Y-74928572D01*
X141078571Y-75000000D01*
X141150000Y-75071429D01*
X141221429Y-75214286D01*
X141221429Y-75500000D01*
X141150000Y-75642858D01*
X141078571Y-75714286D01*
X140935714Y-75785715D01*
X140578571Y-75785715D01*
X140435714Y-75714286D01*
X140364286Y-75642858D01*
X140292857Y-75500000D01*
X140292857Y-75214286D01*
X140364286Y-75071429D01*
X140435714Y-75000000D01*
X140578571Y-74928572D01*
M02*
