G04 #@! TF.FileFunction,Copper,L2,Bot,Signal*
%FSLAX46Y46*%
G04 Gerber Fmt 4.6, Leading zero omitted, Abs format (unit mm)*
G04 Created by KiCad (PCBNEW 4.0.6) date 03/06/19 15:39:07*
%MOMM*%
%LPD*%
G01*
G04 APERTURE LIST*
%ADD10C,0.100000*%
%ADD11R,1.600000X1.600000*%
%ADD12C,1.600000*%
%ADD13C,5.001260*%
%ADD14C,3.650000*%
%ADD15R,1.500000X1.500000*%
%ADD16C,1.500000*%
%ADD17O,2.999740X5.001260*%
%ADD18O,1.600000X1.600000*%
%ADD19R,1.200000X1.200000*%
%ADD20C,1.200000*%
%ADD21C,0.700000*%
%ADD22C,1.000000*%
%ADD23C,0.400000*%
%ADD24C,0.254000*%
G04 APERTURE END LIST*
D10*
D11*
X161300000Y-83300000D03*
D12*
X163800000Y-83300000D03*
D13*
X164050000Y-119050000D03*
X159050000Y-114050000D03*
D14*
X147220000Y-71450000D03*
X159090000Y-71450000D03*
D15*
X157600000Y-77800000D03*
D16*
X156330000Y-80340000D03*
X155060000Y-77800000D03*
X153790000Y-80340000D03*
X152520000Y-77800000D03*
X151250000Y-80340000D03*
X149980000Y-77800000D03*
X148710000Y-80340000D03*
D17*
X155759860Y-118550000D03*
X151800000Y-118550000D03*
X147840140Y-118550000D03*
D11*
X146550000Y-83800000D03*
D18*
X144010000Y-83800000D03*
D12*
X158550000Y-83550000D03*
D18*
X156010000Y-83550000D03*
D19*
X152325000Y-86600000D03*
D20*
X152325000Y-88600000D03*
D19*
X161550000Y-94050000D03*
D20*
X161550000Y-92050000D03*
D19*
X163050000Y-87800000D03*
D20*
X163050000Y-89800000D03*
D11*
X151325000Y-114425000D03*
D12*
X153825000Y-114425000D03*
D21*
X164050000Y-105050000D03*
X157550000Y-106050000D03*
X149050000Y-87300000D03*
X154300000Y-98300000D03*
D20*
X146800000Y-105800000D03*
X144550000Y-93050000D03*
X151800000Y-103300000D03*
D21*
X157550000Y-93050000D03*
X155300000Y-102800000D03*
X144050000Y-100800000D03*
X141050000Y-104550000D03*
X161300000Y-99300000D03*
X162050000Y-104550000D03*
X154550000Y-105050000D03*
X161050000Y-105800000D03*
X147200000Y-77200000D03*
X145000000Y-79500000D03*
X153550000Y-102800000D03*
X154800000Y-109800000D03*
D22*
X155759860Y-118550000D02*
X155759860Y-116159860D01*
X155759860Y-116159860D02*
X153800000Y-114450000D01*
X155759860Y-118550000D02*
X159550000Y-118550000D01*
X158850000Y-76550000D02*
X157600000Y-77800000D01*
X164800000Y-76550000D02*
X158850000Y-76550000D01*
X166300000Y-78050000D02*
X164800000Y-76550000D01*
X166300000Y-111800000D02*
X166300000Y-78050000D01*
X159550000Y-118550000D02*
X166300000Y-111800000D01*
X157600000Y-77800000D02*
X157600000Y-79070000D01*
X157600000Y-79070000D02*
X156330000Y-80340000D01*
X147840140Y-118550000D02*
X147840140Y-116059860D01*
X147840140Y-116059860D02*
X149450000Y-114450000D01*
X149450000Y-114450000D02*
X151300000Y-114450000D01*
X147840140Y-118550000D02*
X146500000Y-118550000D01*
X146500000Y-118550000D02*
X145800000Y-115300000D01*
X145800000Y-115300000D02*
X140800000Y-115300000D01*
X140800000Y-115300000D02*
X139850000Y-114500000D01*
X139850000Y-114500000D02*
X139850000Y-74000000D01*
X139850000Y-74000000D02*
X141050000Y-73050000D01*
X141050000Y-73050000D02*
X143550000Y-73050000D01*
X143550000Y-73050000D02*
X145050000Y-74550000D01*
X145050000Y-74550000D02*
X146730000Y-74550000D01*
X146730000Y-74550000D02*
X149980000Y-77800000D01*
X149980000Y-77800000D02*
X149550000Y-77800000D01*
X149550000Y-77800000D02*
X148710000Y-78640000D01*
X148710000Y-78640000D02*
X148710000Y-80340000D01*
D23*
X164050000Y-105800000D02*
X164050000Y-105050000D01*
X162800000Y-107050000D02*
X164050000Y-105800000D01*
X161300000Y-107050000D02*
X162800000Y-107050000D01*
X160800000Y-106550000D02*
X161300000Y-107050000D01*
X160300000Y-106550000D02*
X160800000Y-106550000D01*
X159800000Y-106050000D02*
X160300000Y-106550000D01*
X157550000Y-106050000D02*
X159800000Y-106050000D01*
X149050000Y-94800000D02*
X149050000Y-87300000D01*
X152800000Y-98550000D02*
X149050000Y-94800000D01*
X154050000Y-98550000D02*
X152800000Y-98550000D01*
X154300000Y-98300000D02*
X154050000Y-98550000D01*
X158000000Y-114050000D02*
X159050000Y-114050000D01*
X159050000Y-114050000D02*
X159050000Y-114050000D01*
X153790000Y-81040000D02*
X153790000Y-80340000D01*
X155300000Y-95550000D02*
X157550000Y-93050000D01*
X155300000Y-102550000D02*
X155300000Y-95550000D01*
X155300000Y-102800000D02*
X155300000Y-102550000D01*
X141300000Y-100800000D02*
X144050000Y-100800000D01*
X141050000Y-101050000D02*
X141300000Y-100800000D01*
X141050000Y-104550000D02*
X141050000Y-101050000D01*
X161300000Y-99800000D02*
X161300000Y-99300000D01*
X162050000Y-100550000D02*
X161300000Y-99800000D01*
X162050000Y-104550000D02*
X162050000Y-100550000D01*
X160300000Y-105050000D02*
X154550000Y-105050000D01*
X161050000Y-105800000D02*
X160300000Y-105050000D01*
X147200000Y-77300000D02*
X147200000Y-77200000D01*
X145000000Y-79500000D02*
X147200000Y-77300000D01*
X151800000Y-118550000D02*
X151800000Y-119550000D01*
X153550000Y-108550000D02*
X153550000Y-102800000D01*
X154800000Y-109800000D02*
X153550000Y-108550000D01*
D24*
G36*
X144247434Y-75352566D02*
X144615654Y-75598603D01*
X145050000Y-75685000D01*
X146259868Y-75685000D01*
X146852628Y-76277760D01*
X146642771Y-76364471D01*
X146365445Y-76641314D01*
X146215172Y-77003212D01*
X146215084Y-77104048D01*
X144803859Y-78515273D01*
X144442771Y-78664471D01*
X144165445Y-78941314D01*
X144015172Y-79303212D01*
X144014830Y-79695069D01*
X144164471Y-80057229D01*
X144441314Y-80334555D01*
X144803212Y-80484828D01*
X145195069Y-80485170D01*
X145557229Y-80335529D01*
X145834555Y-80058686D01*
X145984828Y-79696788D01*
X145984829Y-79696039D01*
X147566554Y-78114314D01*
X147757229Y-78035529D01*
X147810811Y-77982040D01*
X147661397Y-78205654D01*
X147575000Y-78640000D01*
X147575000Y-79516042D01*
X147536539Y-79554436D01*
X147325241Y-80063298D01*
X147324760Y-80614285D01*
X147535169Y-81123515D01*
X147924436Y-81513461D01*
X148433298Y-81724759D01*
X148984285Y-81725240D01*
X149493515Y-81514831D01*
X149697183Y-81311517D01*
X150458088Y-81311517D01*
X150526077Y-81552460D01*
X151045171Y-81737201D01*
X151595448Y-81709230D01*
X151973923Y-81552460D01*
X152041912Y-81311517D01*
X151250000Y-80519605D01*
X150458088Y-81311517D01*
X149697183Y-81311517D01*
X149883461Y-81125564D01*
X149973377Y-80909021D01*
X150037540Y-81063923D01*
X150278483Y-81131912D01*
X151070395Y-80340000D01*
X150278483Y-79548088D01*
X150037540Y-79616077D01*
X149978268Y-79782621D01*
X149884831Y-79556485D01*
X149845000Y-79516585D01*
X149845000Y-79368483D01*
X150458088Y-79368483D01*
X151250000Y-80160395D01*
X152041912Y-79368483D01*
X151973923Y-79127540D01*
X151454829Y-78942799D01*
X150904552Y-78970770D01*
X150526077Y-79127540D01*
X150458088Y-79368483D01*
X149845000Y-79368483D01*
X149845000Y-79184883D01*
X150254285Y-79185240D01*
X150763515Y-78974831D01*
X151153461Y-78585564D01*
X151249976Y-78353130D01*
X151345169Y-78583515D01*
X151734436Y-78973461D01*
X152243298Y-79184759D01*
X152794285Y-79185240D01*
X153303515Y-78974831D01*
X153693461Y-78585564D01*
X153789976Y-78353130D01*
X153885169Y-78583515D01*
X154274436Y-78973461D01*
X154783298Y-79184759D01*
X155334285Y-79185240D01*
X155843515Y-78974831D01*
X156213080Y-78605909D01*
X156246838Y-78785317D01*
X156259646Y-78805222D01*
X156110061Y-78954807D01*
X156055715Y-78954760D01*
X155546485Y-79165169D01*
X155156539Y-79554436D01*
X155060024Y-79786870D01*
X154964831Y-79556485D01*
X154575564Y-79166539D01*
X154066702Y-78955241D01*
X153515715Y-78954760D01*
X153006485Y-79165169D01*
X152616539Y-79554436D01*
X152526623Y-79770979D01*
X152462460Y-79616077D01*
X152221517Y-79548088D01*
X151429605Y-80340000D01*
X152221517Y-81131912D01*
X152462460Y-81063923D01*
X152521732Y-80897379D01*
X152615169Y-81123515D01*
X153004436Y-81513461D01*
X153166323Y-81580682D01*
X153199566Y-81630434D01*
X153470459Y-81811439D01*
X153790000Y-81875000D01*
X154109541Y-81811439D01*
X154380434Y-81630434D01*
X154413500Y-81580948D01*
X154573515Y-81514831D01*
X154963461Y-81125564D01*
X155059976Y-80893130D01*
X155155169Y-81123515D01*
X155544436Y-81513461D01*
X156053298Y-81724759D01*
X156604285Y-81725240D01*
X157113515Y-81514831D01*
X157503461Y-81125564D01*
X157714759Y-80616702D01*
X157714808Y-80560324D01*
X158402566Y-79872566D01*
X158437997Y-79819540D01*
X158648603Y-79504346D01*
X158735000Y-79070000D01*
X158735000Y-79056844D01*
X158801441Y-79014090D01*
X158946431Y-78801890D01*
X158997440Y-78550000D01*
X158997440Y-78007692D01*
X159320132Y-77685000D01*
X164329868Y-77685000D01*
X165165000Y-78520132D01*
X165165000Y-82845800D01*
X165017243Y-82488200D01*
X164613923Y-82084176D01*
X164086691Y-81865250D01*
X163515813Y-81864752D01*
X162988200Y-82082757D01*
X162723813Y-82346683D01*
X162638327Y-82140301D01*
X162459698Y-81961673D01*
X162226309Y-81865000D01*
X161585750Y-81865000D01*
X161427000Y-82023750D01*
X161427000Y-83173000D01*
X161447000Y-83173000D01*
X161447000Y-83427000D01*
X161427000Y-83427000D01*
X161427000Y-84576250D01*
X161585750Y-84735000D01*
X162226309Y-84735000D01*
X162459698Y-84638327D01*
X162638327Y-84459699D01*
X162723876Y-84253165D01*
X162986077Y-84515824D01*
X163513309Y-84734750D01*
X164084187Y-84735248D01*
X164611800Y-84517243D01*
X165015824Y-84113923D01*
X165165000Y-83754668D01*
X165165000Y-111329867D01*
X162185405Y-114309462D01*
X162186173Y-113429021D01*
X161709808Y-112276129D01*
X160828511Y-111393292D01*
X159676452Y-110914915D01*
X158429021Y-110913827D01*
X157276129Y-111390192D01*
X156393292Y-112271489D01*
X155914915Y-113423548D01*
X155913827Y-114670979D01*
X155989400Y-114853879D01*
X155260181Y-114217680D01*
X155260248Y-114140813D01*
X155042243Y-113613200D01*
X154638923Y-113209176D01*
X154111691Y-112990250D01*
X153540813Y-112989752D01*
X153013200Y-113207757D01*
X152744417Y-113476072D01*
X152728162Y-113389683D01*
X152589090Y-113173559D01*
X152376890Y-113028569D01*
X152125000Y-112977560D01*
X150525000Y-112977560D01*
X150289683Y-113021838D01*
X150073559Y-113160910D01*
X149968274Y-113315000D01*
X149450000Y-113315000D01*
X149015654Y-113401397D01*
X148879577Y-113492321D01*
X148647434Y-113647434D01*
X147037574Y-115257294D01*
X146972731Y-115354338D01*
X146909555Y-115061019D01*
X146868679Y-114966582D01*
X146848603Y-114865654D01*
X146781569Y-114765330D01*
X146733641Y-114654602D01*
X146659737Y-114582996D01*
X146602566Y-114497434D01*
X146502243Y-114430400D01*
X146415589Y-114346441D01*
X146319908Y-114308568D01*
X146234346Y-114251397D01*
X146116006Y-114227858D01*
X146003819Y-114183451D01*
X145900929Y-114185076D01*
X145800000Y-114165000D01*
X141214238Y-114165000D01*
X140985000Y-113971957D01*
X140985000Y-106044579D01*
X145564786Y-106044579D01*
X145752408Y-106498657D01*
X146099515Y-106846371D01*
X146553266Y-107034785D01*
X147044579Y-107035214D01*
X147498657Y-106847592D01*
X147846371Y-106500485D01*
X148034785Y-106046734D01*
X148035214Y-105555421D01*
X147847592Y-105101343D01*
X147500485Y-104753629D01*
X147046734Y-104565215D01*
X146555421Y-104564786D01*
X146101343Y-104752408D01*
X145753629Y-105099515D01*
X145565215Y-105553266D01*
X145564786Y-106044579D01*
X140985000Y-106044579D01*
X140985000Y-105534943D01*
X141245069Y-105535170D01*
X141607229Y-105385529D01*
X141884555Y-105108686D01*
X142034828Y-104746788D01*
X142035170Y-104354931D01*
X141885529Y-103992771D01*
X141885000Y-103992241D01*
X141885000Y-101635000D01*
X143492386Y-101635000D01*
X143853212Y-101784828D01*
X144245069Y-101785170D01*
X144607229Y-101635529D01*
X144884555Y-101358686D01*
X145034828Y-100996788D01*
X145035170Y-100604931D01*
X144885529Y-100242771D01*
X144608686Y-99965445D01*
X144246788Y-99815172D01*
X143854931Y-99814830D01*
X143492771Y-99964471D01*
X143492241Y-99965000D01*
X141300000Y-99965000D01*
X140985000Y-100027658D01*
X140985000Y-87495069D01*
X148064830Y-87495069D01*
X148214471Y-87857229D01*
X148215000Y-87857759D01*
X148215000Y-94800000D01*
X148278561Y-95119541D01*
X148459566Y-95390434D01*
X152209566Y-99140434D01*
X152480459Y-99321439D01*
X152800000Y-99385000D01*
X154050000Y-99385000D01*
X154369541Y-99321439D01*
X154423914Y-99285108D01*
X154465000Y-99285144D01*
X154465000Y-102242386D01*
X154425087Y-102338508D01*
X154385529Y-102242771D01*
X154108686Y-101965445D01*
X153746788Y-101815172D01*
X153354931Y-101814830D01*
X152992771Y-101964471D01*
X152715445Y-102241314D01*
X152565172Y-102603212D01*
X152564830Y-102995069D01*
X152714471Y-103357229D01*
X152715000Y-103357759D01*
X152715000Y-108550000D01*
X152778561Y-108869541D01*
X152842642Y-108965445D01*
X152959566Y-109140434D01*
X153815273Y-109996141D01*
X153964471Y-110357229D01*
X154241314Y-110634555D01*
X154603212Y-110784828D01*
X154995069Y-110785170D01*
X155357229Y-110635529D01*
X155634555Y-110358686D01*
X155784828Y-109996788D01*
X155785170Y-109604931D01*
X155635529Y-109242771D01*
X155358686Y-108965445D01*
X154996788Y-108815172D01*
X154996039Y-108815171D01*
X154385000Y-108204132D01*
X154385000Y-106034856D01*
X154745069Y-106035170D01*
X155107229Y-105885529D01*
X155107759Y-105885000D01*
X156565144Y-105885000D01*
X156564830Y-106245069D01*
X156714471Y-106607229D01*
X156991314Y-106884555D01*
X157353212Y-107034828D01*
X157745069Y-107035170D01*
X158107229Y-106885529D01*
X158107759Y-106885000D01*
X159454132Y-106885000D01*
X159709566Y-107140434D01*
X159980460Y-107321440D01*
X160300000Y-107385000D01*
X160454132Y-107385000D01*
X160709566Y-107640434D01*
X160980460Y-107821440D01*
X161300000Y-107885000D01*
X162800000Y-107885000D01*
X163119541Y-107821439D01*
X163390434Y-107640434D01*
X164640434Y-106390434D01*
X164736415Y-106246788D01*
X164821439Y-106119541D01*
X164885000Y-105800000D01*
X164885000Y-105607614D01*
X165034828Y-105246788D01*
X165035170Y-104854931D01*
X164885529Y-104492771D01*
X164608686Y-104215445D01*
X164246788Y-104065172D01*
X163854931Y-104064830D01*
X163492771Y-104214471D01*
X163215445Y-104491314D01*
X163065172Y-104853212D01*
X163064830Y-105245069D01*
X163169863Y-105499269D01*
X162454132Y-106215000D01*
X161944219Y-106215000D01*
X162034828Y-105996788D01*
X162035170Y-105604931D01*
X162006259Y-105534962D01*
X162245069Y-105535170D01*
X162607229Y-105385529D01*
X162884555Y-105108686D01*
X163034828Y-104746788D01*
X163035170Y-104354931D01*
X162885529Y-103992771D01*
X162885000Y-103992241D01*
X162885000Y-100550000D01*
X162821439Y-100230459D01*
X162640434Y-99959566D01*
X162253383Y-99572515D01*
X162284828Y-99496788D01*
X162285170Y-99104931D01*
X162135529Y-98742771D01*
X161858686Y-98465445D01*
X161496788Y-98315172D01*
X161104931Y-98314830D01*
X160742771Y-98464471D01*
X160465445Y-98741314D01*
X160315172Y-99103212D01*
X160314830Y-99495069D01*
X160464471Y-99857229D01*
X160479348Y-99872132D01*
X160528561Y-100119541D01*
X160639231Y-100285170D01*
X160709566Y-100390434D01*
X161215000Y-100895868D01*
X161215000Y-103992386D01*
X161065172Y-104353212D01*
X161064927Y-104634059D01*
X160890434Y-104459566D01*
X160619541Y-104278561D01*
X160300000Y-104215000D01*
X155107614Y-104215000D01*
X154746788Y-104065172D01*
X154385000Y-104064856D01*
X154385000Y-103357614D01*
X154424913Y-103261492D01*
X154464471Y-103357229D01*
X154741314Y-103634555D01*
X155103212Y-103784828D01*
X155495069Y-103785170D01*
X155857229Y-103635529D01*
X156134555Y-103358686D01*
X156284828Y-102996788D01*
X156285170Y-102604931D01*
X156135529Y-102242771D01*
X156135000Y-102242241D01*
X156135000Y-95870420D01*
X157811387Y-94007768D01*
X158107229Y-93885529D01*
X158384555Y-93608686D01*
X158450447Y-93450000D01*
X160302560Y-93450000D01*
X160302560Y-94650000D01*
X160346838Y-94885317D01*
X160485910Y-95101441D01*
X160698110Y-95246431D01*
X160950000Y-95297440D01*
X162150000Y-95297440D01*
X162385317Y-95253162D01*
X162601441Y-95114090D01*
X162746431Y-94901890D01*
X162797440Y-94650000D01*
X162797440Y-93450000D01*
X162753162Y-93214683D01*
X162614090Y-92998559D01*
X162456042Y-92890569D01*
X162596371Y-92750485D01*
X162784785Y-92296734D01*
X162785214Y-91805421D01*
X162597592Y-91351343D01*
X162250485Y-91003629D01*
X161796734Y-90815215D01*
X161305421Y-90814786D01*
X160851343Y-91002408D01*
X160503629Y-91349515D01*
X160315215Y-91803266D01*
X160314786Y-92294579D01*
X160502408Y-92748657D01*
X160645109Y-92891608D01*
X160498559Y-92985910D01*
X160353569Y-93198110D01*
X160302560Y-93450000D01*
X158450447Y-93450000D01*
X158534828Y-93246788D01*
X158535170Y-92854931D01*
X158385529Y-92492771D01*
X158108686Y-92215445D01*
X157746788Y-92065172D01*
X157354931Y-92064830D01*
X156992771Y-92214471D01*
X156715445Y-92491314D01*
X156565172Y-92853212D01*
X156565135Y-92896097D01*
X154679349Y-94991414D01*
X154607092Y-95112928D01*
X154528561Y-95230459D01*
X154524216Y-95252302D01*
X154512832Y-95271447D01*
X154492578Y-95411357D01*
X154465000Y-95550000D01*
X154465000Y-97315144D01*
X154104931Y-97314830D01*
X153742771Y-97464471D01*
X153491805Y-97715000D01*
X153145868Y-97715000D01*
X149885000Y-94454132D01*
X149885000Y-87857614D01*
X150034828Y-87496788D01*
X150035170Y-87104931D01*
X149885529Y-86742771D01*
X149608686Y-86465445D01*
X149246788Y-86315172D01*
X148854931Y-86314830D01*
X148492771Y-86464471D01*
X148215445Y-86741314D01*
X148065172Y-87103212D01*
X148064830Y-87495069D01*
X140985000Y-87495069D01*
X140985000Y-86000000D01*
X151077560Y-86000000D01*
X151077560Y-87200000D01*
X151121838Y-87435317D01*
X151260910Y-87651441D01*
X151418958Y-87759431D01*
X151278629Y-87899515D01*
X151090215Y-88353266D01*
X151089786Y-88844579D01*
X151277408Y-89298657D01*
X151624515Y-89646371D01*
X152078266Y-89834785D01*
X152569579Y-89835214D01*
X153023657Y-89647592D01*
X153371371Y-89300485D01*
X153559785Y-88846734D01*
X153560214Y-88355421D01*
X153372592Y-87901343D01*
X153229891Y-87758392D01*
X153376441Y-87664090D01*
X153521431Y-87451890D01*
X153572440Y-87200000D01*
X161802560Y-87200000D01*
X161802560Y-88400000D01*
X161846838Y-88635317D01*
X161985910Y-88851441D01*
X162143958Y-88959431D01*
X162003629Y-89099515D01*
X161815215Y-89553266D01*
X161814786Y-90044579D01*
X162002408Y-90498657D01*
X162349515Y-90846371D01*
X162803266Y-91034785D01*
X163294579Y-91035214D01*
X163748657Y-90847592D01*
X164096371Y-90500485D01*
X164284785Y-90046734D01*
X164285214Y-89555421D01*
X164097592Y-89101343D01*
X163954891Y-88958392D01*
X164101441Y-88864090D01*
X164246431Y-88651890D01*
X164297440Y-88400000D01*
X164297440Y-87200000D01*
X164253162Y-86964683D01*
X164114090Y-86748559D01*
X163901890Y-86603569D01*
X163650000Y-86552560D01*
X162450000Y-86552560D01*
X162214683Y-86596838D01*
X161998559Y-86735910D01*
X161853569Y-86948110D01*
X161802560Y-87200000D01*
X153572440Y-87200000D01*
X153572440Y-86000000D01*
X153528162Y-85764683D01*
X153389090Y-85548559D01*
X153176890Y-85403569D01*
X152925000Y-85352560D01*
X151725000Y-85352560D01*
X151489683Y-85396838D01*
X151273559Y-85535910D01*
X151128569Y-85748110D01*
X151077560Y-86000000D01*
X140985000Y-86000000D01*
X140985000Y-83800000D01*
X142546887Y-83800000D01*
X142656120Y-84349151D01*
X142967189Y-84814698D01*
X143432736Y-85125767D01*
X143981887Y-85235000D01*
X144038113Y-85235000D01*
X144587264Y-85125767D01*
X145052811Y-84814698D01*
X145123150Y-84709428D01*
X145146838Y-84835317D01*
X145285910Y-85051441D01*
X145498110Y-85196431D01*
X145750000Y-85247440D01*
X147350000Y-85247440D01*
X147585317Y-85203162D01*
X147801441Y-85064090D01*
X147946431Y-84851890D01*
X147997440Y-84600000D01*
X147997440Y-83550000D01*
X154546887Y-83550000D01*
X154656120Y-84099151D01*
X154967189Y-84564698D01*
X155432736Y-84875767D01*
X155981887Y-84985000D01*
X156038113Y-84985000D01*
X156587264Y-84875767D01*
X157052811Y-84564698D01*
X157057456Y-84557745D01*
X157721861Y-84557745D01*
X157795995Y-84803864D01*
X158333223Y-84996965D01*
X158903454Y-84969778D01*
X159304005Y-84803864D01*
X159378139Y-84557745D01*
X158550000Y-83729605D01*
X157721861Y-84557745D01*
X157057456Y-84557745D01*
X157269679Y-84240132D01*
X157296136Y-84304005D01*
X157542255Y-84378139D01*
X158370395Y-83550000D01*
X158729605Y-83550000D01*
X159557745Y-84378139D01*
X159803864Y-84304005D01*
X159865000Y-84133918D01*
X159865000Y-84226310D01*
X159961673Y-84459699D01*
X160140302Y-84638327D01*
X160373691Y-84735000D01*
X161014250Y-84735000D01*
X161173000Y-84576250D01*
X161173000Y-83427000D01*
X161153000Y-83427000D01*
X161153000Y-83173000D01*
X161173000Y-83173000D01*
X161173000Y-82023750D01*
X161014250Y-81865000D01*
X160373691Y-81865000D01*
X160140302Y-81961673D01*
X159961673Y-82140301D01*
X159865000Y-82373690D01*
X159865000Y-82943590D01*
X159803864Y-82795995D01*
X159557745Y-82721861D01*
X158729605Y-83550000D01*
X158370395Y-83550000D01*
X157542255Y-82721861D01*
X157296136Y-82795995D01*
X157271954Y-82863272D01*
X157057457Y-82542255D01*
X157721861Y-82542255D01*
X158550000Y-83370395D01*
X159378139Y-82542255D01*
X159304005Y-82296136D01*
X158766777Y-82103035D01*
X158196546Y-82130222D01*
X157795995Y-82296136D01*
X157721861Y-82542255D01*
X157057457Y-82542255D01*
X157052811Y-82535302D01*
X156587264Y-82224233D01*
X156038113Y-82115000D01*
X155981887Y-82115000D01*
X155432736Y-82224233D01*
X154967189Y-82535302D01*
X154656120Y-83000849D01*
X154546887Y-83550000D01*
X147997440Y-83550000D01*
X147997440Y-83000000D01*
X147953162Y-82764683D01*
X147814090Y-82548559D01*
X147601890Y-82403569D01*
X147350000Y-82352560D01*
X145750000Y-82352560D01*
X145514683Y-82396838D01*
X145298559Y-82535910D01*
X145153569Y-82748110D01*
X145124355Y-82892375D01*
X145052811Y-82785302D01*
X144587264Y-82474233D01*
X144038113Y-82365000D01*
X143981887Y-82365000D01*
X143432736Y-82474233D01*
X142967189Y-82785302D01*
X142656120Y-83250849D01*
X142546887Y-83800000D01*
X140985000Y-83800000D01*
X140985000Y-74549078D01*
X141444888Y-74185000D01*
X143079868Y-74185000D01*
X144247434Y-75352566D01*
X144247434Y-75352566D01*
G37*
X144247434Y-75352566D02*
X144615654Y-75598603D01*
X145050000Y-75685000D01*
X146259868Y-75685000D01*
X146852628Y-76277760D01*
X146642771Y-76364471D01*
X146365445Y-76641314D01*
X146215172Y-77003212D01*
X146215084Y-77104048D01*
X144803859Y-78515273D01*
X144442771Y-78664471D01*
X144165445Y-78941314D01*
X144015172Y-79303212D01*
X144014830Y-79695069D01*
X144164471Y-80057229D01*
X144441314Y-80334555D01*
X144803212Y-80484828D01*
X145195069Y-80485170D01*
X145557229Y-80335529D01*
X145834555Y-80058686D01*
X145984828Y-79696788D01*
X145984829Y-79696039D01*
X147566554Y-78114314D01*
X147757229Y-78035529D01*
X147810811Y-77982040D01*
X147661397Y-78205654D01*
X147575000Y-78640000D01*
X147575000Y-79516042D01*
X147536539Y-79554436D01*
X147325241Y-80063298D01*
X147324760Y-80614285D01*
X147535169Y-81123515D01*
X147924436Y-81513461D01*
X148433298Y-81724759D01*
X148984285Y-81725240D01*
X149493515Y-81514831D01*
X149697183Y-81311517D01*
X150458088Y-81311517D01*
X150526077Y-81552460D01*
X151045171Y-81737201D01*
X151595448Y-81709230D01*
X151973923Y-81552460D01*
X152041912Y-81311517D01*
X151250000Y-80519605D01*
X150458088Y-81311517D01*
X149697183Y-81311517D01*
X149883461Y-81125564D01*
X149973377Y-80909021D01*
X150037540Y-81063923D01*
X150278483Y-81131912D01*
X151070395Y-80340000D01*
X150278483Y-79548088D01*
X150037540Y-79616077D01*
X149978268Y-79782621D01*
X149884831Y-79556485D01*
X149845000Y-79516585D01*
X149845000Y-79368483D01*
X150458088Y-79368483D01*
X151250000Y-80160395D01*
X152041912Y-79368483D01*
X151973923Y-79127540D01*
X151454829Y-78942799D01*
X150904552Y-78970770D01*
X150526077Y-79127540D01*
X150458088Y-79368483D01*
X149845000Y-79368483D01*
X149845000Y-79184883D01*
X150254285Y-79185240D01*
X150763515Y-78974831D01*
X151153461Y-78585564D01*
X151249976Y-78353130D01*
X151345169Y-78583515D01*
X151734436Y-78973461D01*
X152243298Y-79184759D01*
X152794285Y-79185240D01*
X153303515Y-78974831D01*
X153693461Y-78585564D01*
X153789976Y-78353130D01*
X153885169Y-78583515D01*
X154274436Y-78973461D01*
X154783298Y-79184759D01*
X155334285Y-79185240D01*
X155843515Y-78974831D01*
X156213080Y-78605909D01*
X156246838Y-78785317D01*
X156259646Y-78805222D01*
X156110061Y-78954807D01*
X156055715Y-78954760D01*
X155546485Y-79165169D01*
X155156539Y-79554436D01*
X155060024Y-79786870D01*
X154964831Y-79556485D01*
X154575564Y-79166539D01*
X154066702Y-78955241D01*
X153515715Y-78954760D01*
X153006485Y-79165169D01*
X152616539Y-79554436D01*
X152526623Y-79770979D01*
X152462460Y-79616077D01*
X152221517Y-79548088D01*
X151429605Y-80340000D01*
X152221517Y-81131912D01*
X152462460Y-81063923D01*
X152521732Y-80897379D01*
X152615169Y-81123515D01*
X153004436Y-81513461D01*
X153166323Y-81580682D01*
X153199566Y-81630434D01*
X153470459Y-81811439D01*
X153790000Y-81875000D01*
X154109541Y-81811439D01*
X154380434Y-81630434D01*
X154413500Y-81580948D01*
X154573515Y-81514831D01*
X154963461Y-81125564D01*
X155059976Y-80893130D01*
X155155169Y-81123515D01*
X155544436Y-81513461D01*
X156053298Y-81724759D01*
X156604285Y-81725240D01*
X157113515Y-81514831D01*
X157503461Y-81125564D01*
X157714759Y-80616702D01*
X157714808Y-80560324D01*
X158402566Y-79872566D01*
X158437997Y-79819540D01*
X158648603Y-79504346D01*
X158735000Y-79070000D01*
X158735000Y-79056844D01*
X158801441Y-79014090D01*
X158946431Y-78801890D01*
X158997440Y-78550000D01*
X158997440Y-78007692D01*
X159320132Y-77685000D01*
X164329868Y-77685000D01*
X165165000Y-78520132D01*
X165165000Y-82845800D01*
X165017243Y-82488200D01*
X164613923Y-82084176D01*
X164086691Y-81865250D01*
X163515813Y-81864752D01*
X162988200Y-82082757D01*
X162723813Y-82346683D01*
X162638327Y-82140301D01*
X162459698Y-81961673D01*
X162226309Y-81865000D01*
X161585750Y-81865000D01*
X161427000Y-82023750D01*
X161427000Y-83173000D01*
X161447000Y-83173000D01*
X161447000Y-83427000D01*
X161427000Y-83427000D01*
X161427000Y-84576250D01*
X161585750Y-84735000D01*
X162226309Y-84735000D01*
X162459698Y-84638327D01*
X162638327Y-84459699D01*
X162723876Y-84253165D01*
X162986077Y-84515824D01*
X163513309Y-84734750D01*
X164084187Y-84735248D01*
X164611800Y-84517243D01*
X165015824Y-84113923D01*
X165165000Y-83754668D01*
X165165000Y-111329867D01*
X162185405Y-114309462D01*
X162186173Y-113429021D01*
X161709808Y-112276129D01*
X160828511Y-111393292D01*
X159676452Y-110914915D01*
X158429021Y-110913827D01*
X157276129Y-111390192D01*
X156393292Y-112271489D01*
X155914915Y-113423548D01*
X155913827Y-114670979D01*
X155989400Y-114853879D01*
X155260181Y-114217680D01*
X155260248Y-114140813D01*
X155042243Y-113613200D01*
X154638923Y-113209176D01*
X154111691Y-112990250D01*
X153540813Y-112989752D01*
X153013200Y-113207757D01*
X152744417Y-113476072D01*
X152728162Y-113389683D01*
X152589090Y-113173559D01*
X152376890Y-113028569D01*
X152125000Y-112977560D01*
X150525000Y-112977560D01*
X150289683Y-113021838D01*
X150073559Y-113160910D01*
X149968274Y-113315000D01*
X149450000Y-113315000D01*
X149015654Y-113401397D01*
X148879577Y-113492321D01*
X148647434Y-113647434D01*
X147037574Y-115257294D01*
X146972731Y-115354338D01*
X146909555Y-115061019D01*
X146868679Y-114966582D01*
X146848603Y-114865654D01*
X146781569Y-114765330D01*
X146733641Y-114654602D01*
X146659737Y-114582996D01*
X146602566Y-114497434D01*
X146502243Y-114430400D01*
X146415589Y-114346441D01*
X146319908Y-114308568D01*
X146234346Y-114251397D01*
X146116006Y-114227858D01*
X146003819Y-114183451D01*
X145900929Y-114185076D01*
X145800000Y-114165000D01*
X141214238Y-114165000D01*
X140985000Y-113971957D01*
X140985000Y-106044579D01*
X145564786Y-106044579D01*
X145752408Y-106498657D01*
X146099515Y-106846371D01*
X146553266Y-107034785D01*
X147044579Y-107035214D01*
X147498657Y-106847592D01*
X147846371Y-106500485D01*
X148034785Y-106046734D01*
X148035214Y-105555421D01*
X147847592Y-105101343D01*
X147500485Y-104753629D01*
X147046734Y-104565215D01*
X146555421Y-104564786D01*
X146101343Y-104752408D01*
X145753629Y-105099515D01*
X145565215Y-105553266D01*
X145564786Y-106044579D01*
X140985000Y-106044579D01*
X140985000Y-105534943D01*
X141245069Y-105535170D01*
X141607229Y-105385529D01*
X141884555Y-105108686D01*
X142034828Y-104746788D01*
X142035170Y-104354931D01*
X141885529Y-103992771D01*
X141885000Y-103992241D01*
X141885000Y-101635000D01*
X143492386Y-101635000D01*
X143853212Y-101784828D01*
X144245069Y-101785170D01*
X144607229Y-101635529D01*
X144884555Y-101358686D01*
X145034828Y-100996788D01*
X145035170Y-100604931D01*
X144885529Y-100242771D01*
X144608686Y-99965445D01*
X144246788Y-99815172D01*
X143854931Y-99814830D01*
X143492771Y-99964471D01*
X143492241Y-99965000D01*
X141300000Y-99965000D01*
X140985000Y-100027658D01*
X140985000Y-87495069D01*
X148064830Y-87495069D01*
X148214471Y-87857229D01*
X148215000Y-87857759D01*
X148215000Y-94800000D01*
X148278561Y-95119541D01*
X148459566Y-95390434D01*
X152209566Y-99140434D01*
X152480459Y-99321439D01*
X152800000Y-99385000D01*
X154050000Y-99385000D01*
X154369541Y-99321439D01*
X154423914Y-99285108D01*
X154465000Y-99285144D01*
X154465000Y-102242386D01*
X154425087Y-102338508D01*
X154385529Y-102242771D01*
X154108686Y-101965445D01*
X153746788Y-101815172D01*
X153354931Y-101814830D01*
X152992771Y-101964471D01*
X152715445Y-102241314D01*
X152565172Y-102603212D01*
X152564830Y-102995069D01*
X152714471Y-103357229D01*
X152715000Y-103357759D01*
X152715000Y-108550000D01*
X152778561Y-108869541D01*
X152842642Y-108965445D01*
X152959566Y-109140434D01*
X153815273Y-109996141D01*
X153964471Y-110357229D01*
X154241314Y-110634555D01*
X154603212Y-110784828D01*
X154995069Y-110785170D01*
X155357229Y-110635529D01*
X155634555Y-110358686D01*
X155784828Y-109996788D01*
X155785170Y-109604931D01*
X155635529Y-109242771D01*
X155358686Y-108965445D01*
X154996788Y-108815172D01*
X154996039Y-108815171D01*
X154385000Y-108204132D01*
X154385000Y-106034856D01*
X154745069Y-106035170D01*
X155107229Y-105885529D01*
X155107759Y-105885000D01*
X156565144Y-105885000D01*
X156564830Y-106245069D01*
X156714471Y-106607229D01*
X156991314Y-106884555D01*
X157353212Y-107034828D01*
X157745069Y-107035170D01*
X158107229Y-106885529D01*
X158107759Y-106885000D01*
X159454132Y-106885000D01*
X159709566Y-107140434D01*
X159980460Y-107321440D01*
X160300000Y-107385000D01*
X160454132Y-107385000D01*
X160709566Y-107640434D01*
X160980460Y-107821440D01*
X161300000Y-107885000D01*
X162800000Y-107885000D01*
X163119541Y-107821439D01*
X163390434Y-107640434D01*
X164640434Y-106390434D01*
X164736415Y-106246788D01*
X164821439Y-106119541D01*
X164885000Y-105800000D01*
X164885000Y-105607614D01*
X165034828Y-105246788D01*
X165035170Y-104854931D01*
X164885529Y-104492771D01*
X164608686Y-104215445D01*
X164246788Y-104065172D01*
X163854931Y-104064830D01*
X163492771Y-104214471D01*
X163215445Y-104491314D01*
X163065172Y-104853212D01*
X163064830Y-105245069D01*
X163169863Y-105499269D01*
X162454132Y-106215000D01*
X161944219Y-106215000D01*
X162034828Y-105996788D01*
X162035170Y-105604931D01*
X162006259Y-105534962D01*
X162245069Y-105535170D01*
X162607229Y-105385529D01*
X162884555Y-105108686D01*
X163034828Y-104746788D01*
X163035170Y-104354931D01*
X162885529Y-103992771D01*
X162885000Y-103992241D01*
X162885000Y-100550000D01*
X162821439Y-100230459D01*
X162640434Y-99959566D01*
X162253383Y-99572515D01*
X162284828Y-99496788D01*
X162285170Y-99104931D01*
X162135529Y-98742771D01*
X161858686Y-98465445D01*
X161496788Y-98315172D01*
X161104931Y-98314830D01*
X160742771Y-98464471D01*
X160465445Y-98741314D01*
X160315172Y-99103212D01*
X160314830Y-99495069D01*
X160464471Y-99857229D01*
X160479348Y-99872132D01*
X160528561Y-100119541D01*
X160639231Y-100285170D01*
X160709566Y-100390434D01*
X161215000Y-100895868D01*
X161215000Y-103992386D01*
X161065172Y-104353212D01*
X161064927Y-104634059D01*
X160890434Y-104459566D01*
X160619541Y-104278561D01*
X160300000Y-104215000D01*
X155107614Y-104215000D01*
X154746788Y-104065172D01*
X154385000Y-104064856D01*
X154385000Y-103357614D01*
X154424913Y-103261492D01*
X154464471Y-103357229D01*
X154741314Y-103634555D01*
X155103212Y-103784828D01*
X155495069Y-103785170D01*
X155857229Y-103635529D01*
X156134555Y-103358686D01*
X156284828Y-102996788D01*
X156285170Y-102604931D01*
X156135529Y-102242771D01*
X156135000Y-102242241D01*
X156135000Y-95870420D01*
X157811387Y-94007768D01*
X158107229Y-93885529D01*
X158384555Y-93608686D01*
X158450447Y-93450000D01*
X160302560Y-93450000D01*
X160302560Y-94650000D01*
X160346838Y-94885317D01*
X160485910Y-95101441D01*
X160698110Y-95246431D01*
X160950000Y-95297440D01*
X162150000Y-95297440D01*
X162385317Y-95253162D01*
X162601441Y-95114090D01*
X162746431Y-94901890D01*
X162797440Y-94650000D01*
X162797440Y-93450000D01*
X162753162Y-93214683D01*
X162614090Y-92998559D01*
X162456042Y-92890569D01*
X162596371Y-92750485D01*
X162784785Y-92296734D01*
X162785214Y-91805421D01*
X162597592Y-91351343D01*
X162250485Y-91003629D01*
X161796734Y-90815215D01*
X161305421Y-90814786D01*
X160851343Y-91002408D01*
X160503629Y-91349515D01*
X160315215Y-91803266D01*
X160314786Y-92294579D01*
X160502408Y-92748657D01*
X160645109Y-92891608D01*
X160498559Y-92985910D01*
X160353569Y-93198110D01*
X160302560Y-93450000D01*
X158450447Y-93450000D01*
X158534828Y-93246788D01*
X158535170Y-92854931D01*
X158385529Y-92492771D01*
X158108686Y-92215445D01*
X157746788Y-92065172D01*
X157354931Y-92064830D01*
X156992771Y-92214471D01*
X156715445Y-92491314D01*
X156565172Y-92853212D01*
X156565135Y-92896097D01*
X154679349Y-94991414D01*
X154607092Y-95112928D01*
X154528561Y-95230459D01*
X154524216Y-95252302D01*
X154512832Y-95271447D01*
X154492578Y-95411357D01*
X154465000Y-95550000D01*
X154465000Y-97315144D01*
X154104931Y-97314830D01*
X153742771Y-97464471D01*
X153491805Y-97715000D01*
X153145868Y-97715000D01*
X149885000Y-94454132D01*
X149885000Y-87857614D01*
X150034828Y-87496788D01*
X150035170Y-87104931D01*
X149885529Y-86742771D01*
X149608686Y-86465445D01*
X149246788Y-86315172D01*
X148854931Y-86314830D01*
X148492771Y-86464471D01*
X148215445Y-86741314D01*
X148065172Y-87103212D01*
X148064830Y-87495069D01*
X140985000Y-87495069D01*
X140985000Y-86000000D01*
X151077560Y-86000000D01*
X151077560Y-87200000D01*
X151121838Y-87435317D01*
X151260910Y-87651441D01*
X151418958Y-87759431D01*
X151278629Y-87899515D01*
X151090215Y-88353266D01*
X151089786Y-88844579D01*
X151277408Y-89298657D01*
X151624515Y-89646371D01*
X152078266Y-89834785D01*
X152569579Y-89835214D01*
X153023657Y-89647592D01*
X153371371Y-89300485D01*
X153559785Y-88846734D01*
X153560214Y-88355421D01*
X153372592Y-87901343D01*
X153229891Y-87758392D01*
X153376441Y-87664090D01*
X153521431Y-87451890D01*
X153572440Y-87200000D01*
X161802560Y-87200000D01*
X161802560Y-88400000D01*
X161846838Y-88635317D01*
X161985910Y-88851441D01*
X162143958Y-88959431D01*
X162003629Y-89099515D01*
X161815215Y-89553266D01*
X161814786Y-90044579D01*
X162002408Y-90498657D01*
X162349515Y-90846371D01*
X162803266Y-91034785D01*
X163294579Y-91035214D01*
X163748657Y-90847592D01*
X164096371Y-90500485D01*
X164284785Y-90046734D01*
X164285214Y-89555421D01*
X164097592Y-89101343D01*
X163954891Y-88958392D01*
X164101441Y-88864090D01*
X164246431Y-88651890D01*
X164297440Y-88400000D01*
X164297440Y-87200000D01*
X164253162Y-86964683D01*
X164114090Y-86748559D01*
X163901890Y-86603569D01*
X163650000Y-86552560D01*
X162450000Y-86552560D01*
X162214683Y-86596838D01*
X161998559Y-86735910D01*
X161853569Y-86948110D01*
X161802560Y-87200000D01*
X153572440Y-87200000D01*
X153572440Y-86000000D01*
X153528162Y-85764683D01*
X153389090Y-85548559D01*
X153176890Y-85403569D01*
X152925000Y-85352560D01*
X151725000Y-85352560D01*
X151489683Y-85396838D01*
X151273559Y-85535910D01*
X151128569Y-85748110D01*
X151077560Y-86000000D01*
X140985000Y-86000000D01*
X140985000Y-83800000D01*
X142546887Y-83800000D01*
X142656120Y-84349151D01*
X142967189Y-84814698D01*
X143432736Y-85125767D01*
X143981887Y-85235000D01*
X144038113Y-85235000D01*
X144587264Y-85125767D01*
X145052811Y-84814698D01*
X145123150Y-84709428D01*
X145146838Y-84835317D01*
X145285910Y-85051441D01*
X145498110Y-85196431D01*
X145750000Y-85247440D01*
X147350000Y-85247440D01*
X147585317Y-85203162D01*
X147801441Y-85064090D01*
X147946431Y-84851890D01*
X147997440Y-84600000D01*
X147997440Y-83550000D01*
X154546887Y-83550000D01*
X154656120Y-84099151D01*
X154967189Y-84564698D01*
X155432736Y-84875767D01*
X155981887Y-84985000D01*
X156038113Y-84985000D01*
X156587264Y-84875767D01*
X157052811Y-84564698D01*
X157057456Y-84557745D01*
X157721861Y-84557745D01*
X157795995Y-84803864D01*
X158333223Y-84996965D01*
X158903454Y-84969778D01*
X159304005Y-84803864D01*
X159378139Y-84557745D01*
X158550000Y-83729605D01*
X157721861Y-84557745D01*
X157057456Y-84557745D01*
X157269679Y-84240132D01*
X157296136Y-84304005D01*
X157542255Y-84378139D01*
X158370395Y-83550000D01*
X158729605Y-83550000D01*
X159557745Y-84378139D01*
X159803864Y-84304005D01*
X159865000Y-84133918D01*
X159865000Y-84226310D01*
X159961673Y-84459699D01*
X160140302Y-84638327D01*
X160373691Y-84735000D01*
X161014250Y-84735000D01*
X161173000Y-84576250D01*
X161173000Y-83427000D01*
X161153000Y-83427000D01*
X161153000Y-83173000D01*
X161173000Y-83173000D01*
X161173000Y-82023750D01*
X161014250Y-81865000D01*
X160373691Y-81865000D01*
X160140302Y-81961673D01*
X159961673Y-82140301D01*
X159865000Y-82373690D01*
X159865000Y-82943590D01*
X159803864Y-82795995D01*
X159557745Y-82721861D01*
X158729605Y-83550000D01*
X158370395Y-83550000D01*
X157542255Y-82721861D01*
X157296136Y-82795995D01*
X157271954Y-82863272D01*
X157057457Y-82542255D01*
X157721861Y-82542255D01*
X158550000Y-83370395D01*
X159378139Y-82542255D01*
X159304005Y-82296136D01*
X158766777Y-82103035D01*
X158196546Y-82130222D01*
X157795995Y-82296136D01*
X157721861Y-82542255D01*
X157057457Y-82542255D01*
X157052811Y-82535302D01*
X156587264Y-82224233D01*
X156038113Y-82115000D01*
X155981887Y-82115000D01*
X155432736Y-82224233D01*
X154967189Y-82535302D01*
X154656120Y-83000849D01*
X154546887Y-83550000D01*
X147997440Y-83550000D01*
X147997440Y-83000000D01*
X147953162Y-82764683D01*
X147814090Y-82548559D01*
X147601890Y-82403569D01*
X147350000Y-82352560D01*
X145750000Y-82352560D01*
X145514683Y-82396838D01*
X145298559Y-82535910D01*
X145153569Y-82748110D01*
X145124355Y-82892375D01*
X145052811Y-82785302D01*
X144587264Y-82474233D01*
X144038113Y-82365000D01*
X143981887Y-82365000D01*
X143432736Y-82474233D01*
X142967189Y-82785302D01*
X142656120Y-83250849D01*
X142546887Y-83800000D01*
X140985000Y-83800000D01*
X140985000Y-74549078D01*
X141444888Y-74185000D01*
X143079868Y-74185000D01*
X144247434Y-75352566D01*
M02*
