G04 #@! TF.FileFunction,Legend,Top*
%FSLAX46Y46*%
G04 Gerber Fmt 4.6, Leading zero omitted, Abs format (unit mm)*
G04 Created by KiCad (PCBNEW 4.0.6) date 12/15/18 02:38:58*
%MOMM*%
%LPD*%
G01*
G04 APERTURE LIST*
%ADD10C,0.100000*%
%ADD11C,0.120000*%
%ADD12C,0.150000*%
G04 APERTURE END LIST*
D10*
D11*
X160770000Y-63580000D02*
X145530000Y-63580000D01*
X145530000Y-81610000D02*
X145540000Y-72620000D01*
X145530000Y-81610000D02*
X160770000Y-81610000D01*
X160770000Y-81610000D02*
X160770000Y-72610000D01*
X145540000Y-70280000D02*
X145530000Y-63580000D01*
X160770000Y-70290000D02*
X160770000Y-63580000D01*
D12*
X157560060Y-121848960D02*
X157560060Y-121300320D01*
X146439940Y-121300320D02*
X146439940Y-121848960D01*
X146439940Y-121848960D02*
X157560060Y-121848960D01*
X157560060Y-114068940D02*
X157560060Y-111099680D01*
X157560060Y-111099680D02*
X152000000Y-111099680D01*
X146439940Y-118331060D02*
X146439940Y-121300320D01*
X146439940Y-121300320D02*
X157560060Y-121300320D01*
X157560060Y-121300320D02*
X157560060Y-118331060D01*
X152000000Y-111099680D02*
X146439940Y-111099680D01*
X146439940Y-111099680D02*
X146439940Y-114068940D01*
X157486000Y-104080000D02*
X152660000Y-104080000D01*
X152660000Y-104080000D02*
X152660000Y-93920000D01*
X152660000Y-93920000D02*
X157486000Y-93920000D01*
X157486000Y-93920000D02*
X157486000Y-104080000D01*
X155708000Y-93920000D02*
X155708000Y-94555000D01*
X155708000Y-94555000D02*
X154438000Y-94555000D01*
X154438000Y-94555000D02*
X154438000Y-93920000D01*
D11*
X165279723Y-83905722D02*
G75*
G03X165280000Y-79294420I-1179723J2305722D01*
G01*
X162920277Y-83905722D02*
G75*
G02X162920000Y-79294420I1179723J2305722D01*
G01*
X162920277Y-83905722D02*
G75*
G03X165280000Y-83905580I1179723J2305722D01*
G01*
X166650000Y-81600000D02*
X161550000Y-81600000D01*
X166650000Y-81640000D02*
X165080000Y-81640000D01*
X163120000Y-81640000D02*
X161550000Y-81640000D01*
X166649000Y-81680000D02*
X165080000Y-81680000D01*
X163120000Y-81680000D02*
X161551000Y-81680000D01*
X166648000Y-81720000D02*
X165080000Y-81720000D01*
X163120000Y-81720000D02*
X161552000Y-81720000D01*
X166646000Y-81760000D02*
X165080000Y-81760000D01*
X163120000Y-81760000D02*
X161554000Y-81760000D01*
X166643000Y-81800000D02*
X165080000Y-81800000D01*
X163120000Y-81800000D02*
X161557000Y-81800000D01*
X166639000Y-81840000D02*
X165080000Y-81840000D01*
X163120000Y-81840000D02*
X161561000Y-81840000D01*
X166635000Y-81880000D02*
X165080000Y-81880000D01*
X163120000Y-81880000D02*
X161565000Y-81880000D01*
X166631000Y-81920000D02*
X165080000Y-81920000D01*
X163120000Y-81920000D02*
X161569000Y-81920000D01*
X166625000Y-81960000D02*
X165080000Y-81960000D01*
X163120000Y-81960000D02*
X161575000Y-81960000D01*
X166619000Y-82000000D02*
X165080000Y-82000000D01*
X163120000Y-82000000D02*
X161581000Y-82000000D01*
X166613000Y-82040000D02*
X165080000Y-82040000D01*
X163120000Y-82040000D02*
X161587000Y-82040000D01*
X166606000Y-82080000D02*
X165080000Y-82080000D01*
X163120000Y-82080000D02*
X161594000Y-82080000D01*
X166598000Y-82120000D02*
X165080000Y-82120000D01*
X163120000Y-82120000D02*
X161602000Y-82120000D01*
X166589000Y-82160000D02*
X165080000Y-82160000D01*
X163120000Y-82160000D02*
X161611000Y-82160000D01*
X166580000Y-82200000D02*
X165080000Y-82200000D01*
X163120000Y-82200000D02*
X161620000Y-82200000D01*
X166570000Y-82240000D02*
X165080000Y-82240000D01*
X163120000Y-82240000D02*
X161630000Y-82240000D01*
X166560000Y-82280000D02*
X165080000Y-82280000D01*
X163120000Y-82280000D02*
X161640000Y-82280000D01*
X166548000Y-82321000D02*
X165080000Y-82321000D01*
X163120000Y-82321000D02*
X161652000Y-82321000D01*
X166536000Y-82361000D02*
X165080000Y-82361000D01*
X163120000Y-82361000D02*
X161664000Y-82361000D01*
X166524000Y-82401000D02*
X165080000Y-82401000D01*
X163120000Y-82401000D02*
X161676000Y-82401000D01*
X166510000Y-82441000D02*
X165080000Y-82441000D01*
X163120000Y-82441000D02*
X161690000Y-82441000D01*
X166496000Y-82481000D02*
X165080000Y-82481000D01*
X163120000Y-82481000D02*
X161704000Y-82481000D01*
X166482000Y-82521000D02*
X165080000Y-82521000D01*
X163120000Y-82521000D02*
X161718000Y-82521000D01*
X166466000Y-82561000D02*
X165080000Y-82561000D01*
X163120000Y-82561000D02*
X161734000Y-82561000D01*
X166450000Y-82601000D02*
X165080000Y-82601000D01*
X163120000Y-82601000D02*
X161750000Y-82601000D01*
X166433000Y-82641000D02*
X165080000Y-82641000D01*
X163120000Y-82641000D02*
X161767000Y-82641000D01*
X166415000Y-82681000D02*
X165080000Y-82681000D01*
X163120000Y-82681000D02*
X161785000Y-82681000D01*
X166396000Y-82721000D02*
X165080000Y-82721000D01*
X163120000Y-82721000D02*
X161804000Y-82721000D01*
X166376000Y-82761000D02*
X165080000Y-82761000D01*
X163120000Y-82761000D02*
X161824000Y-82761000D01*
X166356000Y-82801000D02*
X165080000Y-82801000D01*
X163120000Y-82801000D02*
X161844000Y-82801000D01*
X166334000Y-82841000D02*
X165080000Y-82841000D01*
X163120000Y-82841000D02*
X161866000Y-82841000D01*
X166312000Y-82881000D02*
X165080000Y-82881000D01*
X163120000Y-82881000D02*
X161888000Y-82881000D01*
X166289000Y-82921000D02*
X165080000Y-82921000D01*
X163120000Y-82921000D02*
X161911000Y-82921000D01*
X166265000Y-82961000D02*
X165080000Y-82961000D01*
X163120000Y-82961000D02*
X161935000Y-82961000D01*
X166240000Y-83001000D02*
X165080000Y-83001000D01*
X163120000Y-83001000D02*
X161960000Y-83001000D01*
X166213000Y-83041000D02*
X165080000Y-83041000D01*
X163120000Y-83041000D02*
X161987000Y-83041000D01*
X166186000Y-83081000D02*
X165080000Y-83081000D01*
X163120000Y-83081000D02*
X162014000Y-83081000D01*
X166158000Y-83121000D02*
X165080000Y-83121000D01*
X163120000Y-83121000D02*
X162042000Y-83121000D01*
X166128000Y-83161000D02*
X165080000Y-83161000D01*
X163120000Y-83161000D02*
X162072000Y-83161000D01*
X166097000Y-83201000D02*
X165080000Y-83201000D01*
X163120000Y-83201000D02*
X162103000Y-83201000D01*
X166065000Y-83241000D02*
X165080000Y-83241000D01*
X163120000Y-83241000D02*
X162135000Y-83241000D01*
X166032000Y-83281000D02*
X165080000Y-83281000D01*
X163120000Y-83281000D02*
X162168000Y-83281000D01*
X165997000Y-83321000D02*
X165080000Y-83321000D01*
X163120000Y-83321000D02*
X162203000Y-83321000D01*
X165961000Y-83361000D02*
X165080000Y-83361000D01*
X163120000Y-83361000D02*
X162239000Y-83361000D01*
X165923000Y-83401000D02*
X165080000Y-83401000D01*
X163120000Y-83401000D02*
X162277000Y-83401000D01*
X165883000Y-83441000D02*
X165080000Y-83441000D01*
X163120000Y-83441000D02*
X162317000Y-83441000D01*
X165842000Y-83481000D02*
X165080000Y-83481000D01*
X163120000Y-83481000D02*
X162358000Y-83481000D01*
X165799000Y-83521000D02*
X165080000Y-83521000D01*
X163120000Y-83521000D02*
X162401000Y-83521000D01*
X165754000Y-83561000D02*
X165080000Y-83561000D01*
X163120000Y-83561000D02*
X162446000Y-83561000D01*
X165706000Y-83601000D02*
X162494000Y-83601000D01*
X165656000Y-83641000D02*
X162544000Y-83641000D01*
X165604000Y-83681000D02*
X162596000Y-83681000D01*
X165548000Y-83721000D02*
X162652000Y-83721000D01*
X165490000Y-83761000D02*
X162710000Y-83761000D01*
X165427000Y-83801000D02*
X162773000Y-83801000D01*
X165361000Y-83841000D02*
X162839000Y-83841000D01*
X165289000Y-83881000D02*
X162911000Y-83881000D01*
X165212000Y-83921000D02*
X162988000Y-83921000D01*
X165128000Y-83961000D02*
X163072000Y-83961000D01*
X165034000Y-84001000D02*
X163166000Y-84001000D01*
X164929000Y-84041000D02*
X163271000Y-84041000D01*
X164807000Y-84081000D02*
X163393000Y-84081000D01*
X164659000Y-84121000D02*
X163541000Y-84121000D01*
X164454000Y-84161000D02*
X163746000Y-84161000D01*
X164100000Y-78400000D02*
X164100000Y-79600000D01*
X164750000Y-79000000D02*
X163450000Y-79000000D01*
X164579170Y-92846436D02*
G75*
G03X164580000Y-89154004I-979170J1846436D01*
G01*
X162620830Y-92846436D02*
G75*
G02X162620000Y-89154004I979170J1846436D01*
G01*
X162620830Y-92846436D02*
G75*
G03X164580000Y-92845996I979170J1846436D01*
G01*
X165650000Y-91000000D02*
X161550000Y-91000000D01*
X165650000Y-91040000D02*
X161550000Y-91040000D01*
X165649000Y-91080000D02*
X161551000Y-91080000D01*
X165647000Y-91120000D02*
X161553000Y-91120000D01*
X165644000Y-91160000D02*
X161556000Y-91160000D01*
X165641000Y-91200000D02*
X161559000Y-91200000D01*
X165637000Y-91240000D02*
X164380000Y-91240000D01*
X162820000Y-91240000D02*
X161563000Y-91240000D01*
X165632000Y-91280000D02*
X164380000Y-91280000D01*
X162820000Y-91280000D02*
X161568000Y-91280000D01*
X165626000Y-91320000D02*
X164380000Y-91320000D01*
X162820000Y-91320000D02*
X161574000Y-91320000D01*
X165619000Y-91360000D02*
X164380000Y-91360000D01*
X162820000Y-91360000D02*
X161581000Y-91360000D01*
X165612000Y-91400000D02*
X164380000Y-91400000D01*
X162820000Y-91400000D02*
X161588000Y-91400000D01*
X165604000Y-91440000D02*
X164380000Y-91440000D01*
X162820000Y-91440000D02*
X161596000Y-91440000D01*
X165595000Y-91480000D02*
X164380000Y-91480000D01*
X162820000Y-91480000D02*
X161605000Y-91480000D01*
X165585000Y-91520000D02*
X164380000Y-91520000D01*
X162820000Y-91520000D02*
X161615000Y-91520000D01*
X165574000Y-91560000D02*
X164380000Y-91560000D01*
X162820000Y-91560000D02*
X161626000Y-91560000D01*
X165563000Y-91600000D02*
X164380000Y-91600000D01*
X162820000Y-91600000D02*
X161637000Y-91600000D01*
X165550000Y-91640000D02*
X164380000Y-91640000D01*
X162820000Y-91640000D02*
X161650000Y-91640000D01*
X165537000Y-91680000D02*
X164380000Y-91680000D01*
X162820000Y-91680000D02*
X161663000Y-91680000D01*
X165523000Y-91721000D02*
X164380000Y-91721000D01*
X162820000Y-91721000D02*
X161677000Y-91721000D01*
X165507000Y-91761000D02*
X164380000Y-91761000D01*
X162820000Y-91761000D02*
X161693000Y-91761000D01*
X165491000Y-91801000D02*
X164380000Y-91801000D01*
X162820000Y-91801000D02*
X161709000Y-91801000D01*
X165474000Y-91841000D02*
X164380000Y-91841000D01*
X162820000Y-91841000D02*
X161726000Y-91841000D01*
X165456000Y-91881000D02*
X164380000Y-91881000D01*
X162820000Y-91881000D02*
X161744000Y-91881000D01*
X165437000Y-91921000D02*
X164380000Y-91921000D01*
X162820000Y-91921000D02*
X161763000Y-91921000D01*
X165417000Y-91961000D02*
X164380000Y-91961000D01*
X162820000Y-91961000D02*
X161783000Y-91961000D01*
X165396000Y-92001000D02*
X164380000Y-92001000D01*
X162820000Y-92001000D02*
X161804000Y-92001000D01*
X165373000Y-92041000D02*
X164380000Y-92041000D01*
X162820000Y-92041000D02*
X161827000Y-92041000D01*
X165350000Y-92081000D02*
X164380000Y-92081000D01*
X162820000Y-92081000D02*
X161850000Y-92081000D01*
X165325000Y-92121000D02*
X164380000Y-92121000D01*
X162820000Y-92121000D02*
X161875000Y-92121000D01*
X165299000Y-92161000D02*
X164380000Y-92161000D01*
X162820000Y-92161000D02*
X161901000Y-92161000D01*
X165272000Y-92201000D02*
X164380000Y-92201000D01*
X162820000Y-92201000D02*
X161928000Y-92201000D01*
X165243000Y-92241000D02*
X164380000Y-92241000D01*
X162820000Y-92241000D02*
X161957000Y-92241000D01*
X165213000Y-92281000D02*
X164380000Y-92281000D01*
X162820000Y-92281000D02*
X161987000Y-92281000D01*
X165181000Y-92321000D02*
X164380000Y-92321000D01*
X162820000Y-92321000D02*
X162019000Y-92321000D01*
X165147000Y-92361000D02*
X164380000Y-92361000D01*
X162820000Y-92361000D02*
X162053000Y-92361000D01*
X165112000Y-92401000D02*
X164380000Y-92401000D01*
X162820000Y-92401000D02*
X162088000Y-92401000D01*
X165075000Y-92441000D02*
X164380000Y-92441000D01*
X162820000Y-92441000D02*
X162125000Y-92441000D01*
X165036000Y-92481000D02*
X164380000Y-92481000D01*
X162820000Y-92481000D02*
X162164000Y-92481000D01*
X164995000Y-92521000D02*
X164380000Y-92521000D01*
X162820000Y-92521000D02*
X162205000Y-92521000D01*
X164951000Y-92561000D02*
X164380000Y-92561000D01*
X162820000Y-92561000D02*
X162249000Y-92561000D01*
X164905000Y-92601000D02*
X164380000Y-92601000D01*
X162820000Y-92601000D02*
X162295000Y-92601000D01*
X164856000Y-92641000D02*
X164380000Y-92641000D01*
X162820000Y-92641000D02*
X162344000Y-92641000D01*
X164804000Y-92681000D02*
X164380000Y-92681000D01*
X162820000Y-92681000D02*
X162396000Y-92681000D01*
X164748000Y-92721000D02*
X164380000Y-92721000D01*
X162820000Y-92721000D02*
X162452000Y-92721000D01*
X164688000Y-92761000D02*
X164380000Y-92761000D01*
X162820000Y-92761000D02*
X162512000Y-92761000D01*
X164623000Y-92801000D02*
X162577000Y-92801000D01*
X164552000Y-92841000D02*
X162648000Y-92841000D01*
X164474000Y-92881000D02*
X162726000Y-92881000D01*
X164386000Y-92921000D02*
X162814000Y-92921000D01*
X164286000Y-92961000D02*
X162914000Y-92961000D01*
X164167000Y-93001000D02*
X163033000Y-93001000D01*
X164015000Y-93041000D02*
X163185000Y-93041000D01*
X163765000Y-93081000D02*
X163435000Y-93081000D01*
X163600000Y-88300000D02*
X163600000Y-89200000D01*
X164050000Y-88750000D02*
X163150000Y-88750000D01*
X165000000Y-106733629D02*
X165000000Y-106560000D01*
X165980000Y-106603000D02*
X166869000Y-106603000D01*
X166424500Y-106603000D02*
X165980000Y-106010333D01*
X165980000Y-106010333D02*
X166869000Y-106010333D01*
X166869000Y-106010333D02*
X166424500Y-106603000D01*
X166266371Y-108000000D02*
G75*
G03X166266371Y-108000000I-1266371J0D01*
G01*
X154100000Y-108920000D02*
X154100000Y-108590000D01*
X154100000Y-108590000D02*
X160520000Y-108590000D01*
X160520000Y-108590000D02*
X160520000Y-108920000D01*
X154100000Y-110880000D02*
X154100000Y-111210000D01*
X154100000Y-111210000D02*
X160520000Y-111210000D01*
X160520000Y-111210000D02*
X160520000Y-110880000D01*
X158800000Y-91980000D02*
X158800000Y-92310000D01*
X158800000Y-92310000D02*
X152380000Y-92310000D01*
X152380000Y-92310000D02*
X152380000Y-91980000D01*
X158800000Y-90020000D02*
X158800000Y-89690000D01*
X158800000Y-89690000D02*
X152380000Y-89690000D01*
X152380000Y-89690000D02*
X152380000Y-90020000D01*
X149400000Y-103780000D02*
X149400000Y-104110000D01*
X149400000Y-104110000D02*
X142980000Y-104110000D01*
X142980000Y-104110000D02*
X142980000Y-103780000D01*
X149400000Y-101820000D02*
X149400000Y-101490000D01*
X149400000Y-101490000D02*
X142980000Y-101490000D01*
X142980000Y-101490000D02*
X142980000Y-101820000D01*
X147880000Y-87800000D02*
X148210000Y-87800000D01*
X148210000Y-87800000D02*
X148210000Y-94220000D01*
X148210000Y-94220000D02*
X147880000Y-94220000D01*
X145920000Y-87800000D02*
X145590000Y-87800000D01*
X145590000Y-87800000D02*
X145590000Y-94220000D01*
X145590000Y-94220000D02*
X145920000Y-94220000D01*
X162380000Y-95600000D02*
X162710000Y-95600000D01*
X162710000Y-95600000D02*
X162710000Y-102020000D01*
X162710000Y-102020000D02*
X162380000Y-102020000D01*
X160420000Y-95600000D02*
X160090000Y-95600000D01*
X160090000Y-95600000D02*
X160090000Y-102020000D01*
X160090000Y-102020000D02*
X160420000Y-102020000D01*
X160600000Y-107580000D02*
X160600000Y-107910000D01*
X160600000Y-107910000D02*
X154180000Y-107910000D01*
X154180000Y-107910000D02*
X154180000Y-107580000D01*
X160600000Y-105620000D02*
X160600000Y-105290000D01*
X160600000Y-105290000D02*
X154180000Y-105290000D01*
X154180000Y-105290000D02*
X154180000Y-105620000D01*
X163420000Y-102100000D02*
X163090000Y-102100000D01*
X163090000Y-102100000D02*
X163090000Y-95680000D01*
X163090000Y-95680000D02*
X163420000Y-95680000D01*
X165380000Y-102100000D02*
X165710000Y-102100000D01*
X165710000Y-102100000D02*
X165710000Y-95680000D01*
X165710000Y-95680000D02*
X165380000Y-95680000D01*
X142220000Y-97100000D02*
X141890000Y-97100000D01*
X141890000Y-97100000D02*
X141890000Y-90680000D01*
X141890000Y-90680000D02*
X142220000Y-90680000D01*
X144180000Y-97100000D02*
X144510000Y-97100000D01*
X144510000Y-97100000D02*
X144510000Y-90680000D01*
X144510000Y-90680000D02*
X144180000Y-90680000D01*
X143980000Y-73900000D02*
X144310000Y-73900000D01*
X144310000Y-73900000D02*
X144310000Y-80320000D01*
X144310000Y-80320000D02*
X143980000Y-80320000D01*
X142020000Y-73900000D02*
X141690000Y-73900000D01*
X141690000Y-73900000D02*
X141690000Y-80320000D01*
X141690000Y-80320000D02*
X142020000Y-80320000D01*
X158800000Y-88580000D02*
X158800000Y-88910000D01*
X158800000Y-88910000D02*
X152380000Y-88910000D01*
X152380000Y-88910000D02*
X152380000Y-88580000D01*
X158800000Y-86620000D02*
X158800000Y-86290000D01*
X158800000Y-86290000D02*
X152380000Y-86290000D01*
X152380000Y-86290000D02*
X152380000Y-86620000D01*
X149279723Y-100905722D02*
G75*
G03X149280000Y-96294420I-1179723J2305722D01*
G01*
X146920277Y-100905722D02*
G75*
G02X146920000Y-96294420I1179723J2305722D01*
G01*
X146920277Y-100905722D02*
G75*
G03X149280000Y-100905580I1179723J2305722D01*
G01*
X150650000Y-98600000D02*
X145550000Y-98600000D01*
X150650000Y-98640000D02*
X149080000Y-98640000D01*
X147120000Y-98640000D02*
X145550000Y-98640000D01*
X150649000Y-98680000D02*
X149080000Y-98680000D01*
X147120000Y-98680000D02*
X145551000Y-98680000D01*
X150648000Y-98720000D02*
X149080000Y-98720000D01*
X147120000Y-98720000D02*
X145552000Y-98720000D01*
X150646000Y-98760000D02*
X149080000Y-98760000D01*
X147120000Y-98760000D02*
X145554000Y-98760000D01*
X150643000Y-98800000D02*
X149080000Y-98800000D01*
X147120000Y-98800000D02*
X145557000Y-98800000D01*
X150639000Y-98840000D02*
X149080000Y-98840000D01*
X147120000Y-98840000D02*
X145561000Y-98840000D01*
X150635000Y-98880000D02*
X149080000Y-98880000D01*
X147120000Y-98880000D02*
X145565000Y-98880000D01*
X150631000Y-98920000D02*
X149080000Y-98920000D01*
X147120000Y-98920000D02*
X145569000Y-98920000D01*
X150625000Y-98960000D02*
X149080000Y-98960000D01*
X147120000Y-98960000D02*
X145575000Y-98960000D01*
X150619000Y-99000000D02*
X149080000Y-99000000D01*
X147120000Y-99000000D02*
X145581000Y-99000000D01*
X150613000Y-99040000D02*
X149080000Y-99040000D01*
X147120000Y-99040000D02*
X145587000Y-99040000D01*
X150606000Y-99080000D02*
X149080000Y-99080000D01*
X147120000Y-99080000D02*
X145594000Y-99080000D01*
X150598000Y-99120000D02*
X149080000Y-99120000D01*
X147120000Y-99120000D02*
X145602000Y-99120000D01*
X150589000Y-99160000D02*
X149080000Y-99160000D01*
X147120000Y-99160000D02*
X145611000Y-99160000D01*
X150580000Y-99200000D02*
X149080000Y-99200000D01*
X147120000Y-99200000D02*
X145620000Y-99200000D01*
X150570000Y-99240000D02*
X149080000Y-99240000D01*
X147120000Y-99240000D02*
X145630000Y-99240000D01*
X150560000Y-99280000D02*
X149080000Y-99280000D01*
X147120000Y-99280000D02*
X145640000Y-99280000D01*
X150548000Y-99321000D02*
X149080000Y-99321000D01*
X147120000Y-99321000D02*
X145652000Y-99321000D01*
X150536000Y-99361000D02*
X149080000Y-99361000D01*
X147120000Y-99361000D02*
X145664000Y-99361000D01*
X150524000Y-99401000D02*
X149080000Y-99401000D01*
X147120000Y-99401000D02*
X145676000Y-99401000D01*
X150510000Y-99441000D02*
X149080000Y-99441000D01*
X147120000Y-99441000D02*
X145690000Y-99441000D01*
X150496000Y-99481000D02*
X149080000Y-99481000D01*
X147120000Y-99481000D02*
X145704000Y-99481000D01*
X150482000Y-99521000D02*
X149080000Y-99521000D01*
X147120000Y-99521000D02*
X145718000Y-99521000D01*
X150466000Y-99561000D02*
X149080000Y-99561000D01*
X147120000Y-99561000D02*
X145734000Y-99561000D01*
X150450000Y-99601000D02*
X149080000Y-99601000D01*
X147120000Y-99601000D02*
X145750000Y-99601000D01*
X150433000Y-99641000D02*
X149080000Y-99641000D01*
X147120000Y-99641000D02*
X145767000Y-99641000D01*
X150415000Y-99681000D02*
X149080000Y-99681000D01*
X147120000Y-99681000D02*
X145785000Y-99681000D01*
X150396000Y-99721000D02*
X149080000Y-99721000D01*
X147120000Y-99721000D02*
X145804000Y-99721000D01*
X150376000Y-99761000D02*
X149080000Y-99761000D01*
X147120000Y-99761000D02*
X145824000Y-99761000D01*
X150356000Y-99801000D02*
X149080000Y-99801000D01*
X147120000Y-99801000D02*
X145844000Y-99801000D01*
X150334000Y-99841000D02*
X149080000Y-99841000D01*
X147120000Y-99841000D02*
X145866000Y-99841000D01*
X150312000Y-99881000D02*
X149080000Y-99881000D01*
X147120000Y-99881000D02*
X145888000Y-99881000D01*
X150289000Y-99921000D02*
X149080000Y-99921000D01*
X147120000Y-99921000D02*
X145911000Y-99921000D01*
X150265000Y-99961000D02*
X149080000Y-99961000D01*
X147120000Y-99961000D02*
X145935000Y-99961000D01*
X150240000Y-100001000D02*
X149080000Y-100001000D01*
X147120000Y-100001000D02*
X145960000Y-100001000D01*
X150213000Y-100041000D02*
X149080000Y-100041000D01*
X147120000Y-100041000D02*
X145987000Y-100041000D01*
X150186000Y-100081000D02*
X149080000Y-100081000D01*
X147120000Y-100081000D02*
X146014000Y-100081000D01*
X150158000Y-100121000D02*
X149080000Y-100121000D01*
X147120000Y-100121000D02*
X146042000Y-100121000D01*
X150128000Y-100161000D02*
X149080000Y-100161000D01*
X147120000Y-100161000D02*
X146072000Y-100161000D01*
X150097000Y-100201000D02*
X149080000Y-100201000D01*
X147120000Y-100201000D02*
X146103000Y-100201000D01*
X150065000Y-100241000D02*
X149080000Y-100241000D01*
X147120000Y-100241000D02*
X146135000Y-100241000D01*
X150032000Y-100281000D02*
X149080000Y-100281000D01*
X147120000Y-100281000D02*
X146168000Y-100281000D01*
X149997000Y-100321000D02*
X149080000Y-100321000D01*
X147120000Y-100321000D02*
X146203000Y-100321000D01*
X149961000Y-100361000D02*
X149080000Y-100361000D01*
X147120000Y-100361000D02*
X146239000Y-100361000D01*
X149923000Y-100401000D02*
X149080000Y-100401000D01*
X147120000Y-100401000D02*
X146277000Y-100401000D01*
X149883000Y-100441000D02*
X149080000Y-100441000D01*
X147120000Y-100441000D02*
X146317000Y-100441000D01*
X149842000Y-100481000D02*
X149080000Y-100481000D01*
X147120000Y-100481000D02*
X146358000Y-100481000D01*
X149799000Y-100521000D02*
X149080000Y-100521000D01*
X147120000Y-100521000D02*
X146401000Y-100521000D01*
X149754000Y-100561000D02*
X149080000Y-100561000D01*
X147120000Y-100561000D02*
X146446000Y-100561000D01*
X149706000Y-100601000D02*
X146494000Y-100601000D01*
X149656000Y-100641000D02*
X146544000Y-100641000D01*
X149604000Y-100681000D02*
X146596000Y-100681000D01*
X149548000Y-100721000D02*
X146652000Y-100721000D01*
X149490000Y-100761000D02*
X146710000Y-100761000D01*
X149427000Y-100801000D02*
X146773000Y-100801000D01*
X149361000Y-100841000D02*
X146839000Y-100841000D01*
X149289000Y-100881000D02*
X146911000Y-100881000D01*
X149212000Y-100921000D02*
X146988000Y-100921000D01*
X149128000Y-100961000D02*
X147072000Y-100961000D01*
X149034000Y-101001000D02*
X147166000Y-101001000D01*
X148929000Y-101041000D02*
X147271000Y-101041000D01*
X148807000Y-101081000D02*
X147393000Y-101081000D01*
X148659000Y-101121000D02*
X147541000Y-101121000D01*
X148454000Y-101161000D02*
X147746000Y-101161000D01*
X148100000Y-95400000D02*
X148100000Y-96600000D01*
X148750000Y-96000000D02*
X147450000Y-96000000D01*
X155450000Y-83040000D02*
X155450000Y-85160000D01*
X155450000Y-85160000D02*
X159570000Y-85160000D01*
X159570000Y-85160000D02*
X159570000Y-83040000D01*
X159570000Y-83040000D02*
X155450000Y-83040000D01*
X154680000Y-84100000D02*
X155450000Y-84100000D01*
X160340000Y-84100000D02*
X159570000Y-84100000D01*
X156110000Y-83040000D02*
X156110000Y-85160000D01*
X148550000Y-85060000D02*
X148550000Y-82940000D01*
X148550000Y-82940000D02*
X144430000Y-82940000D01*
X144430000Y-82940000D02*
X144430000Y-85060000D01*
X144430000Y-85060000D02*
X148550000Y-85060000D01*
X149320000Y-84000000D02*
X148550000Y-84000000D01*
X143660000Y-84000000D02*
X144430000Y-84000000D01*
X147890000Y-85060000D02*
X147890000Y-82940000D01*
X141920830Y-104853564D02*
G75*
G03X141920000Y-108545996I979170J-1846436D01*
G01*
X143879170Y-104853564D02*
G75*
G02X143880000Y-108545996I-979170J-1846436D01*
G01*
X143879170Y-104853564D02*
G75*
G03X141920000Y-104854004I-979170J-1846436D01*
G01*
X140850000Y-106700000D02*
X144950000Y-106700000D01*
X140850000Y-106660000D02*
X144950000Y-106660000D01*
X140851000Y-106620000D02*
X144949000Y-106620000D01*
X140853000Y-106580000D02*
X144947000Y-106580000D01*
X140856000Y-106540000D02*
X144944000Y-106540000D01*
X140859000Y-106500000D02*
X144941000Y-106500000D01*
X140863000Y-106460000D02*
X142120000Y-106460000D01*
X143680000Y-106460000D02*
X144937000Y-106460000D01*
X140868000Y-106420000D02*
X142120000Y-106420000D01*
X143680000Y-106420000D02*
X144932000Y-106420000D01*
X140874000Y-106380000D02*
X142120000Y-106380000D01*
X143680000Y-106380000D02*
X144926000Y-106380000D01*
X140881000Y-106340000D02*
X142120000Y-106340000D01*
X143680000Y-106340000D02*
X144919000Y-106340000D01*
X140888000Y-106300000D02*
X142120000Y-106300000D01*
X143680000Y-106300000D02*
X144912000Y-106300000D01*
X140896000Y-106260000D02*
X142120000Y-106260000D01*
X143680000Y-106260000D02*
X144904000Y-106260000D01*
X140905000Y-106220000D02*
X142120000Y-106220000D01*
X143680000Y-106220000D02*
X144895000Y-106220000D01*
X140915000Y-106180000D02*
X142120000Y-106180000D01*
X143680000Y-106180000D02*
X144885000Y-106180000D01*
X140926000Y-106140000D02*
X142120000Y-106140000D01*
X143680000Y-106140000D02*
X144874000Y-106140000D01*
X140937000Y-106100000D02*
X142120000Y-106100000D01*
X143680000Y-106100000D02*
X144863000Y-106100000D01*
X140950000Y-106060000D02*
X142120000Y-106060000D01*
X143680000Y-106060000D02*
X144850000Y-106060000D01*
X140963000Y-106020000D02*
X142120000Y-106020000D01*
X143680000Y-106020000D02*
X144837000Y-106020000D01*
X140977000Y-105979000D02*
X142120000Y-105979000D01*
X143680000Y-105979000D02*
X144823000Y-105979000D01*
X140993000Y-105939000D02*
X142120000Y-105939000D01*
X143680000Y-105939000D02*
X144807000Y-105939000D01*
X141009000Y-105899000D02*
X142120000Y-105899000D01*
X143680000Y-105899000D02*
X144791000Y-105899000D01*
X141026000Y-105859000D02*
X142120000Y-105859000D01*
X143680000Y-105859000D02*
X144774000Y-105859000D01*
X141044000Y-105819000D02*
X142120000Y-105819000D01*
X143680000Y-105819000D02*
X144756000Y-105819000D01*
X141063000Y-105779000D02*
X142120000Y-105779000D01*
X143680000Y-105779000D02*
X144737000Y-105779000D01*
X141083000Y-105739000D02*
X142120000Y-105739000D01*
X143680000Y-105739000D02*
X144717000Y-105739000D01*
X141104000Y-105699000D02*
X142120000Y-105699000D01*
X143680000Y-105699000D02*
X144696000Y-105699000D01*
X141127000Y-105659000D02*
X142120000Y-105659000D01*
X143680000Y-105659000D02*
X144673000Y-105659000D01*
X141150000Y-105619000D02*
X142120000Y-105619000D01*
X143680000Y-105619000D02*
X144650000Y-105619000D01*
X141175000Y-105579000D02*
X142120000Y-105579000D01*
X143680000Y-105579000D02*
X144625000Y-105579000D01*
X141201000Y-105539000D02*
X142120000Y-105539000D01*
X143680000Y-105539000D02*
X144599000Y-105539000D01*
X141228000Y-105499000D02*
X142120000Y-105499000D01*
X143680000Y-105499000D02*
X144572000Y-105499000D01*
X141257000Y-105459000D02*
X142120000Y-105459000D01*
X143680000Y-105459000D02*
X144543000Y-105459000D01*
X141287000Y-105419000D02*
X142120000Y-105419000D01*
X143680000Y-105419000D02*
X144513000Y-105419000D01*
X141319000Y-105379000D02*
X142120000Y-105379000D01*
X143680000Y-105379000D02*
X144481000Y-105379000D01*
X141353000Y-105339000D02*
X142120000Y-105339000D01*
X143680000Y-105339000D02*
X144447000Y-105339000D01*
X141388000Y-105299000D02*
X142120000Y-105299000D01*
X143680000Y-105299000D02*
X144412000Y-105299000D01*
X141425000Y-105259000D02*
X142120000Y-105259000D01*
X143680000Y-105259000D02*
X144375000Y-105259000D01*
X141464000Y-105219000D02*
X142120000Y-105219000D01*
X143680000Y-105219000D02*
X144336000Y-105219000D01*
X141505000Y-105179000D02*
X142120000Y-105179000D01*
X143680000Y-105179000D02*
X144295000Y-105179000D01*
X141549000Y-105139000D02*
X142120000Y-105139000D01*
X143680000Y-105139000D02*
X144251000Y-105139000D01*
X141595000Y-105099000D02*
X142120000Y-105099000D01*
X143680000Y-105099000D02*
X144205000Y-105099000D01*
X141644000Y-105059000D02*
X142120000Y-105059000D01*
X143680000Y-105059000D02*
X144156000Y-105059000D01*
X141696000Y-105019000D02*
X142120000Y-105019000D01*
X143680000Y-105019000D02*
X144104000Y-105019000D01*
X141752000Y-104979000D02*
X142120000Y-104979000D01*
X143680000Y-104979000D02*
X144048000Y-104979000D01*
X141812000Y-104939000D02*
X142120000Y-104939000D01*
X143680000Y-104939000D02*
X143988000Y-104939000D01*
X141877000Y-104899000D02*
X143923000Y-104899000D01*
X141948000Y-104859000D02*
X143852000Y-104859000D01*
X142026000Y-104819000D02*
X143774000Y-104819000D01*
X142114000Y-104779000D02*
X143686000Y-104779000D01*
X142214000Y-104739000D02*
X143586000Y-104739000D01*
X142333000Y-104699000D02*
X143467000Y-104699000D01*
X142485000Y-104659000D02*
X143315000Y-104659000D01*
X142735000Y-104619000D02*
X143065000Y-104619000D01*
X142900000Y-109400000D02*
X142900000Y-108500000D01*
X142450000Y-108950000D02*
X143350000Y-108950000D01*
X143279170Y-114246436D02*
G75*
G03X143280000Y-110554004I-979170J1846436D01*
G01*
X141320830Y-114246436D02*
G75*
G02X141320000Y-110554004I979170J1846436D01*
G01*
X141320830Y-114246436D02*
G75*
G03X143280000Y-114245996I979170J1846436D01*
G01*
X144350000Y-112400000D02*
X140250000Y-112400000D01*
X144350000Y-112440000D02*
X140250000Y-112440000D01*
X144349000Y-112480000D02*
X140251000Y-112480000D01*
X144347000Y-112520000D02*
X140253000Y-112520000D01*
X144344000Y-112560000D02*
X140256000Y-112560000D01*
X144341000Y-112600000D02*
X140259000Y-112600000D01*
X144337000Y-112640000D02*
X143080000Y-112640000D01*
X141520000Y-112640000D02*
X140263000Y-112640000D01*
X144332000Y-112680000D02*
X143080000Y-112680000D01*
X141520000Y-112680000D02*
X140268000Y-112680000D01*
X144326000Y-112720000D02*
X143080000Y-112720000D01*
X141520000Y-112720000D02*
X140274000Y-112720000D01*
X144319000Y-112760000D02*
X143080000Y-112760000D01*
X141520000Y-112760000D02*
X140281000Y-112760000D01*
X144312000Y-112800000D02*
X143080000Y-112800000D01*
X141520000Y-112800000D02*
X140288000Y-112800000D01*
X144304000Y-112840000D02*
X143080000Y-112840000D01*
X141520000Y-112840000D02*
X140296000Y-112840000D01*
X144295000Y-112880000D02*
X143080000Y-112880000D01*
X141520000Y-112880000D02*
X140305000Y-112880000D01*
X144285000Y-112920000D02*
X143080000Y-112920000D01*
X141520000Y-112920000D02*
X140315000Y-112920000D01*
X144274000Y-112960000D02*
X143080000Y-112960000D01*
X141520000Y-112960000D02*
X140326000Y-112960000D01*
X144263000Y-113000000D02*
X143080000Y-113000000D01*
X141520000Y-113000000D02*
X140337000Y-113000000D01*
X144250000Y-113040000D02*
X143080000Y-113040000D01*
X141520000Y-113040000D02*
X140350000Y-113040000D01*
X144237000Y-113080000D02*
X143080000Y-113080000D01*
X141520000Y-113080000D02*
X140363000Y-113080000D01*
X144223000Y-113121000D02*
X143080000Y-113121000D01*
X141520000Y-113121000D02*
X140377000Y-113121000D01*
X144207000Y-113161000D02*
X143080000Y-113161000D01*
X141520000Y-113161000D02*
X140393000Y-113161000D01*
X144191000Y-113201000D02*
X143080000Y-113201000D01*
X141520000Y-113201000D02*
X140409000Y-113201000D01*
X144174000Y-113241000D02*
X143080000Y-113241000D01*
X141520000Y-113241000D02*
X140426000Y-113241000D01*
X144156000Y-113281000D02*
X143080000Y-113281000D01*
X141520000Y-113281000D02*
X140444000Y-113281000D01*
X144137000Y-113321000D02*
X143080000Y-113321000D01*
X141520000Y-113321000D02*
X140463000Y-113321000D01*
X144117000Y-113361000D02*
X143080000Y-113361000D01*
X141520000Y-113361000D02*
X140483000Y-113361000D01*
X144096000Y-113401000D02*
X143080000Y-113401000D01*
X141520000Y-113401000D02*
X140504000Y-113401000D01*
X144073000Y-113441000D02*
X143080000Y-113441000D01*
X141520000Y-113441000D02*
X140527000Y-113441000D01*
X144050000Y-113481000D02*
X143080000Y-113481000D01*
X141520000Y-113481000D02*
X140550000Y-113481000D01*
X144025000Y-113521000D02*
X143080000Y-113521000D01*
X141520000Y-113521000D02*
X140575000Y-113521000D01*
X143999000Y-113561000D02*
X143080000Y-113561000D01*
X141520000Y-113561000D02*
X140601000Y-113561000D01*
X143972000Y-113601000D02*
X143080000Y-113601000D01*
X141520000Y-113601000D02*
X140628000Y-113601000D01*
X143943000Y-113641000D02*
X143080000Y-113641000D01*
X141520000Y-113641000D02*
X140657000Y-113641000D01*
X143913000Y-113681000D02*
X143080000Y-113681000D01*
X141520000Y-113681000D02*
X140687000Y-113681000D01*
X143881000Y-113721000D02*
X143080000Y-113721000D01*
X141520000Y-113721000D02*
X140719000Y-113721000D01*
X143847000Y-113761000D02*
X143080000Y-113761000D01*
X141520000Y-113761000D02*
X140753000Y-113761000D01*
X143812000Y-113801000D02*
X143080000Y-113801000D01*
X141520000Y-113801000D02*
X140788000Y-113801000D01*
X143775000Y-113841000D02*
X143080000Y-113841000D01*
X141520000Y-113841000D02*
X140825000Y-113841000D01*
X143736000Y-113881000D02*
X143080000Y-113881000D01*
X141520000Y-113881000D02*
X140864000Y-113881000D01*
X143695000Y-113921000D02*
X143080000Y-113921000D01*
X141520000Y-113921000D02*
X140905000Y-113921000D01*
X143651000Y-113961000D02*
X143080000Y-113961000D01*
X141520000Y-113961000D02*
X140949000Y-113961000D01*
X143605000Y-114001000D02*
X143080000Y-114001000D01*
X141520000Y-114001000D02*
X140995000Y-114001000D01*
X143556000Y-114041000D02*
X143080000Y-114041000D01*
X141520000Y-114041000D02*
X141044000Y-114041000D01*
X143504000Y-114081000D02*
X143080000Y-114081000D01*
X141520000Y-114081000D02*
X141096000Y-114081000D01*
X143448000Y-114121000D02*
X143080000Y-114121000D01*
X141520000Y-114121000D02*
X141152000Y-114121000D01*
X143388000Y-114161000D02*
X143080000Y-114161000D01*
X141520000Y-114161000D02*
X141212000Y-114161000D01*
X143323000Y-114201000D02*
X141277000Y-114201000D01*
X143252000Y-114241000D02*
X141348000Y-114241000D01*
X143174000Y-114281000D02*
X141426000Y-114281000D01*
X143086000Y-114321000D02*
X141514000Y-114321000D01*
X142986000Y-114361000D02*
X141614000Y-114361000D01*
X142867000Y-114401000D02*
X141733000Y-114401000D01*
X142715000Y-114441000D02*
X141885000Y-114441000D01*
X142465000Y-114481000D02*
X142135000Y-114481000D01*
X142300000Y-109700000D02*
X142300000Y-110600000D01*
X142750000Y-110150000D02*
X141850000Y-110150000D01*
X150810000Y-106790000D02*
X149550000Y-106790000D01*
X143990000Y-106790000D02*
X145250000Y-106790000D01*
X150810000Y-110550000D02*
X150810000Y-106790000D01*
X143990000Y-112800000D02*
X143990000Y-106790000D01*
D12*
X159566667Y-112952381D02*
X159566667Y-113666667D01*
X159519047Y-113809524D01*
X159423809Y-113904762D01*
X159280952Y-113952381D01*
X159185714Y-113952381D01*
X160566667Y-113952381D02*
X159995238Y-113952381D01*
X160280952Y-113952381D02*
X160280952Y-112952381D01*
X160185714Y-113095238D01*
X160090476Y-113190476D01*
X159995238Y-113238095D01*
X153066667Y-73652381D02*
X153066667Y-74366667D01*
X153019047Y-74509524D01*
X152923809Y-74604762D01*
X152780952Y-74652381D01*
X152685714Y-74652381D01*
X153447619Y-73652381D02*
X154066667Y-73652381D01*
X153733333Y-74033333D01*
X153876191Y-74033333D01*
X153971429Y-74080952D01*
X154019048Y-74128571D01*
X154066667Y-74223810D01*
X154066667Y-74461905D01*
X154019048Y-74557143D01*
X153971429Y-74604762D01*
X153876191Y-74652381D01*
X153590476Y-74652381D01*
X153495238Y-74604762D01*
X153447619Y-74557143D01*
X151566667Y-119752381D02*
X151566667Y-120466667D01*
X151519047Y-120609524D01*
X151423809Y-120704762D01*
X151280952Y-120752381D01*
X151185714Y-120752381D01*
X151995238Y-119847619D02*
X152042857Y-119800000D01*
X152138095Y-119752381D01*
X152376191Y-119752381D01*
X152471429Y-119800000D01*
X152519048Y-119847619D01*
X152566667Y-119942857D01*
X152566667Y-120038095D01*
X152519048Y-120180952D01*
X151947619Y-120752381D01*
X152566667Y-120752381D01*
X154438095Y-94852381D02*
X154438095Y-95661905D01*
X154485714Y-95757143D01*
X154533333Y-95804762D01*
X154628571Y-95852381D01*
X154819048Y-95852381D01*
X154914286Y-95804762D01*
X154961905Y-95757143D01*
X155009524Y-95661905D01*
X155009524Y-94852381D01*
X156009524Y-95852381D02*
X155438095Y-95852381D01*
X155723809Y-95852381D02*
X155723809Y-94852381D01*
X155628571Y-94995238D01*
X155533333Y-95090476D01*
X155438095Y-95138095D01*
X166457143Y-84666666D02*
X166504762Y-84714285D01*
X166552381Y-84857142D01*
X166552381Y-84952380D01*
X166504762Y-85095238D01*
X166409524Y-85190476D01*
X166314286Y-85238095D01*
X166123810Y-85285714D01*
X165980952Y-85285714D01*
X165790476Y-85238095D01*
X165695238Y-85190476D01*
X165600000Y-85095238D01*
X165552381Y-84952380D01*
X165552381Y-84857142D01*
X165600000Y-84714285D01*
X165647619Y-84666666D01*
X165647619Y-84285714D02*
X165600000Y-84238095D01*
X165552381Y-84142857D01*
X165552381Y-83904761D01*
X165600000Y-83809523D01*
X165647619Y-83761904D01*
X165742857Y-83714285D01*
X165838095Y-83714285D01*
X165980952Y-83761904D01*
X166552381Y-84333333D01*
X166552381Y-83714285D01*
X165233334Y-88857143D02*
X165185715Y-88904762D01*
X165042858Y-88952381D01*
X164947620Y-88952381D01*
X164804762Y-88904762D01*
X164709524Y-88809524D01*
X164661905Y-88714286D01*
X164614286Y-88523810D01*
X164614286Y-88380952D01*
X164661905Y-88190476D01*
X164709524Y-88095238D01*
X164804762Y-88000000D01*
X164947620Y-87952381D01*
X165042858Y-87952381D01*
X165185715Y-88000000D01*
X165233334Y-88047619D01*
X166185715Y-88952381D02*
X165614286Y-88952381D01*
X165900000Y-88952381D02*
X165900000Y-87952381D01*
X165804762Y-88095238D01*
X165709524Y-88190476D01*
X165614286Y-88238095D01*
X163552381Y-107038095D02*
X162552381Y-107038095D01*
X162552381Y-106800000D01*
X162600000Y-106657142D01*
X162695238Y-106561904D01*
X162790476Y-106514285D01*
X162980952Y-106466666D01*
X163123810Y-106466666D01*
X163314286Y-106514285D01*
X163409524Y-106561904D01*
X163504762Y-106657142D01*
X163552381Y-106800000D01*
X163552381Y-107038095D01*
X163552381Y-105514285D02*
X163552381Y-106085714D01*
X163552381Y-105800000D02*
X162552381Y-105800000D01*
X162695238Y-105895238D01*
X162790476Y-105990476D01*
X162838095Y-106085714D01*
X157233334Y-110252381D02*
X156900000Y-109776190D01*
X156661905Y-110252381D02*
X156661905Y-109252381D01*
X157042858Y-109252381D01*
X157138096Y-109300000D01*
X157185715Y-109347619D01*
X157233334Y-109442857D01*
X157233334Y-109585714D01*
X157185715Y-109680952D01*
X157138096Y-109728571D01*
X157042858Y-109776190D01*
X156661905Y-109776190D01*
X158185715Y-110252381D02*
X157614286Y-110252381D01*
X157900000Y-110252381D02*
X157900000Y-109252381D01*
X157804762Y-109395238D01*
X157709524Y-109490476D01*
X157614286Y-109538095D01*
X155633334Y-91552381D02*
X155300000Y-91076190D01*
X155061905Y-91552381D02*
X155061905Y-90552381D01*
X155442858Y-90552381D01*
X155538096Y-90600000D01*
X155585715Y-90647619D01*
X155633334Y-90742857D01*
X155633334Y-90885714D01*
X155585715Y-90980952D01*
X155538096Y-91028571D01*
X155442858Y-91076190D01*
X155061905Y-91076190D01*
X156014286Y-90647619D02*
X156061905Y-90600000D01*
X156157143Y-90552381D01*
X156395239Y-90552381D01*
X156490477Y-90600000D01*
X156538096Y-90647619D01*
X156585715Y-90742857D01*
X156585715Y-90838095D01*
X156538096Y-90980952D01*
X155966667Y-91552381D01*
X156585715Y-91552381D01*
X146033334Y-103252381D02*
X145700000Y-102776190D01*
X145461905Y-103252381D02*
X145461905Y-102252381D01*
X145842858Y-102252381D01*
X145938096Y-102300000D01*
X145985715Y-102347619D01*
X146033334Y-102442857D01*
X146033334Y-102585714D01*
X145985715Y-102680952D01*
X145938096Y-102728571D01*
X145842858Y-102776190D01*
X145461905Y-102776190D01*
X146366667Y-102252381D02*
X146985715Y-102252381D01*
X146652381Y-102633333D01*
X146795239Y-102633333D01*
X146890477Y-102680952D01*
X146938096Y-102728571D01*
X146985715Y-102823810D01*
X146985715Y-103061905D01*
X146938096Y-103157143D01*
X146890477Y-103204762D01*
X146795239Y-103252381D01*
X146509524Y-103252381D01*
X146414286Y-103204762D01*
X146366667Y-103157143D01*
X147452381Y-91066666D02*
X146976190Y-91400000D01*
X147452381Y-91638095D02*
X146452381Y-91638095D01*
X146452381Y-91257142D01*
X146500000Y-91161904D01*
X146547619Y-91114285D01*
X146642857Y-91066666D01*
X146785714Y-91066666D01*
X146880952Y-91114285D01*
X146928571Y-91161904D01*
X146976190Y-91257142D01*
X146976190Y-91638095D01*
X146785714Y-90209523D02*
X147452381Y-90209523D01*
X146404762Y-90447619D02*
X147119048Y-90685714D01*
X147119048Y-90066666D01*
X162252381Y-98666666D02*
X161776190Y-99000000D01*
X162252381Y-99238095D02*
X161252381Y-99238095D01*
X161252381Y-98857142D01*
X161300000Y-98761904D01*
X161347619Y-98714285D01*
X161442857Y-98666666D01*
X161585714Y-98666666D01*
X161680952Y-98714285D01*
X161728571Y-98761904D01*
X161776190Y-98857142D01*
X161776190Y-99238095D01*
X161252381Y-97761904D02*
X161252381Y-98238095D01*
X161728571Y-98285714D01*
X161680952Y-98238095D01*
X161633333Y-98142857D01*
X161633333Y-97904761D01*
X161680952Y-97809523D01*
X161728571Y-97761904D01*
X161823810Y-97714285D01*
X162061905Y-97714285D01*
X162157143Y-97761904D01*
X162204762Y-97809523D01*
X162252381Y-97904761D01*
X162252381Y-98142857D01*
X162204762Y-98238095D01*
X162157143Y-98285714D01*
X157333334Y-107152381D02*
X157000000Y-106676190D01*
X156761905Y-107152381D02*
X156761905Y-106152381D01*
X157142858Y-106152381D01*
X157238096Y-106200000D01*
X157285715Y-106247619D01*
X157333334Y-106342857D01*
X157333334Y-106485714D01*
X157285715Y-106580952D01*
X157238096Y-106628571D01*
X157142858Y-106676190D01*
X156761905Y-106676190D01*
X158190477Y-106152381D02*
X158000000Y-106152381D01*
X157904762Y-106200000D01*
X157857143Y-106247619D01*
X157761905Y-106390476D01*
X157714286Y-106580952D01*
X157714286Y-106961905D01*
X157761905Y-107057143D01*
X157809524Y-107104762D01*
X157904762Y-107152381D01*
X158095239Y-107152381D01*
X158190477Y-107104762D01*
X158238096Y-107057143D01*
X158285715Y-106961905D01*
X158285715Y-106723810D01*
X158238096Y-106628571D01*
X158190477Y-106580952D01*
X158095239Y-106533333D01*
X157904762Y-106533333D01*
X157809524Y-106580952D01*
X157761905Y-106628571D01*
X157714286Y-106723810D01*
X164852381Y-99066666D02*
X164376190Y-99400000D01*
X164852381Y-99638095D02*
X163852381Y-99638095D01*
X163852381Y-99257142D01*
X163900000Y-99161904D01*
X163947619Y-99114285D01*
X164042857Y-99066666D01*
X164185714Y-99066666D01*
X164280952Y-99114285D01*
X164328571Y-99161904D01*
X164376190Y-99257142D01*
X164376190Y-99638095D01*
X164280952Y-98495238D02*
X164233333Y-98590476D01*
X164185714Y-98638095D01*
X164090476Y-98685714D01*
X164042857Y-98685714D01*
X163947619Y-98638095D01*
X163900000Y-98590476D01*
X163852381Y-98495238D01*
X163852381Y-98304761D01*
X163900000Y-98209523D01*
X163947619Y-98161904D01*
X164042857Y-98114285D01*
X164090476Y-98114285D01*
X164185714Y-98161904D01*
X164233333Y-98209523D01*
X164280952Y-98304761D01*
X164280952Y-98495238D01*
X164328571Y-98590476D01*
X164376190Y-98638095D01*
X164471429Y-98685714D01*
X164661905Y-98685714D01*
X164757143Y-98638095D01*
X164804762Y-98590476D01*
X164852381Y-98495238D01*
X164852381Y-98304761D01*
X164804762Y-98209523D01*
X164757143Y-98161904D01*
X164661905Y-98114285D01*
X164471429Y-98114285D01*
X164376190Y-98161904D01*
X164328571Y-98209523D01*
X164280952Y-98304761D01*
X143852381Y-94366666D02*
X143376190Y-94700000D01*
X143852381Y-94938095D02*
X142852381Y-94938095D01*
X142852381Y-94557142D01*
X142900000Y-94461904D01*
X142947619Y-94414285D01*
X143042857Y-94366666D01*
X143185714Y-94366666D01*
X143280952Y-94414285D01*
X143328571Y-94461904D01*
X143376190Y-94557142D01*
X143376190Y-94938095D01*
X143852381Y-93890476D02*
X143852381Y-93700000D01*
X143804762Y-93604761D01*
X143757143Y-93557142D01*
X143614286Y-93461904D01*
X143423810Y-93414285D01*
X143042857Y-93414285D01*
X142947619Y-93461904D01*
X142900000Y-93509523D01*
X142852381Y-93604761D01*
X142852381Y-93795238D01*
X142900000Y-93890476D01*
X142947619Y-93938095D01*
X143042857Y-93985714D01*
X143280952Y-93985714D01*
X143376190Y-93938095D01*
X143423810Y-93890476D01*
X143471429Y-93795238D01*
X143471429Y-93604761D01*
X143423810Y-93509523D01*
X143376190Y-93461904D01*
X143280952Y-93414285D01*
X143752381Y-77642857D02*
X143276190Y-77976191D01*
X143752381Y-78214286D02*
X142752381Y-78214286D01*
X142752381Y-77833333D01*
X142800000Y-77738095D01*
X142847619Y-77690476D01*
X142942857Y-77642857D01*
X143085714Y-77642857D01*
X143180952Y-77690476D01*
X143228571Y-77738095D01*
X143276190Y-77833333D01*
X143276190Y-78214286D01*
X143752381Y-76690476D02*
X143752381Y-77261905D01*
X143752381Y-76976191D02*
X142752381Y-76976191D01*
X142895238Y-77071429D01*
X142990476Y-77166667D01*
X143038095Y-77261905D01*
X142752381Y-76071429D02*
X142752381Y-75976190D01*
X142800000Y-75880952D01*
X142847619Y-75833333D01*
X142942857Y-75785714D01*
X143133333Y-75738095D01*
X143371429Y-75738095D01*
X143561905Y-75785714D01*
X143657143Y-75833333D01*
X143704762Y-75880952D01*
X143752381Y-75976190D01*
X143752381Y-76071429D01*
X143704762Y-76166667D01*
X143657143Y-76214286D01*
X143561905Y-76261905D01*
X143371429Y-76309524D01*
X143133333Y-76309524D01*
X142942857Y-76261905D01*
X142847619Y-76214286D01*
X142800000Y-76166667D01*
X142752381Y-76071429D01*
X154857143Y-88252381D02*
X154523809Y-87776190D01*
X154285714Y-88252381D02*
X154285714Y-87252381D01*
X154666667Y-87252381D01*
X154761905Y-87300000D01*
X154809524Y-87347619D01*
X154857143Y-87442857D01*
X154857143Y-87585714D01*
X154809524Y-87680952D01*
X154761905Y-87728571D01*
X154666667Y-87776190D01*
X154285714Y-87776190D01*
X155809524Y-88252381D02*
X155238095Y-88252381D01*
X155523809Y-88252381D02*
X155523809Y-87252381D01*
X155428571Y-87395238D01*
X155333333Y-87490476D01*
X155238095Y-87538095D01*
X156761905Y-88252381D02*
X156190476Y-88252381D01*
X156476190Y-88252381D02*
X156476190Y-87252381D01*
X156380952Y-87395238D01*
X156285714Y-87490476D01*
X156190476Y-87538095D01*
X150457143Y-97466666D02*
X150504762Y-97514285D01*
X150552381Y-97657142D01*
X150552381Y-97752380D01*
X150504762Y-97895238D01*
X150409524Y-97990476D01*
X150314286Y-98038095D01*
X150123810Y-98085714D01*
X149980952Y-98085714D01*
X149790476Y-98038095D01*
X149695238Y-97990476D01*
X149600000Y-97895238D01*
X149552381Y-97752380D01*
X149552381Y-97657142D01*
X149600000Y-97514285D01*
X149647619Y-97466666D01*
X149552381Y-97133333D02*
X149552381Y-96514285D01*
X149933333Y-96847619D01*
X149933333Y-96704761D01*
X149980952Y-96609523D01*
X150028571Y-96561904D01*
X150123810Y-96514285D01*
X150361905Y-96514285D01*
X150457143Y-96561904D01*
X150504762Y-96609523D01*
X150552381Y-96704761D01*
X150552381Y-96990476D01*
X150504762Y-97085714D01*
X150457143Y-97133333D01*
X156761905Y-84552381D02*
X156761905Y-83552381D01*
X157000000Y-83552381D01*
X157142858Y-83600000D01*
X157238096Y-83695238D01*
X157285715Y-83790476D01*
X157333334Y-83980952D01*
X157333334Y-84123810D01*
X157285715Y-84314286D01*
X157238096Y-84409524D01*
X157142858Y-84504762D01*
X157000000Y-84552381D01*
X156761905Y-84552381D01*
X157714286Y-83647619D02*
X157761905Y-83600000D01*
X157857143Y-83552381D01*
X158095239Y-83552381D01*
X158190477Y-83600000D01*
X158238096Y-83647619D01*
X158285715Y-83742857D01*
X158285715Y-83838095D01*
X158238096Y-83980952D01*
X157666667Y-84552381D01*
X158285715Y-84552381D01*
X145761905Y-84652381D02*
X145761905Y-83652381D01*
X146000000Y-83652381D01*
X146142858Y-83700000D01*
X146238096Y-83795238D01*
X146285715Y-83890476D01*
X146333334Y-84080952D01*
X146333334Y-84223810D01*
X146285715Y-84414286D01*
X146238096Y-84509524D01*
X146142858Y-84604762D01*
X146000000Y-84652381D01*
X145761905Y-84652381D01*
X146666667Y-83652381D02*
X147285715Y-83652381D01*
X146952381Y-84033333D01*
X147095239Y-84033333D01*
X147190477Y-84080952D01*
X147238096Y-84128571D01*
X147285715Y-84223810D01*
X147285715Y-84461905D01*
X147238096Y-84557143D01*
X147190477Y-84604762D01*
X147095239Y-84652381D01*
X146809524Y-84652381D01*
X146714286Y-84604762D01*
X146666667Y-84557143D01*
X141033334Y-109557143D02*
X140985715Y-109604762D01*
X140842858Y-109652381D01*
X140747620Y-109652381D01*
X140604762Y-109604762D01*
X140509524Y-109509524D01*
X140461905Y-109414286D01*
X140414286Y-109223810D01*
X140414286Y-109080952D01*
X140461905Y-108890476D01*
X140509524Y-108795238D01*
X140604762Y-108700000D01*
X140747620Y-108652381D01*
X140842858Y-108652381D01*
X140985715Y-108700000D01*
X141033334Y-108747619D01*
X141890477Y-108985714D02*
X141890477Y-109652381D01*
X141652381Y-108604762D02*
X141414286Y-109319048D01*
X142033334Y-109319048D01*
X140333334Y-115257143D02*
X140285715Y-115304762D01*
X140142858Y-115352381D01*
X140047620Y-115352381D01*
X139904762Y-115304762D01*
X139809524Y-115209524D01*
X139761905Y-115114286D01*
X139714286Y-114923810D01*
X139714286Y-114780952D01*
X139761905Y-114590476D01*
X139809524Y-114495238D01*
X139904762Y-114400000D01*
X140047620Y-114352381D01*
X140142858Y-114352381D01*
X140285715Y-114400000D01*
X140333334Y-114447619D01*
X141238096Y-114352381D02*
X140761905Y-114352381D01*
X140714286Y-114828571D01*
X140761905Y-114780952D01*
X140857143Y-114733333D01*
X141095239Y-114733333D01*
X141190477Y-114780952D01*
X141238096Y-114828571D01*
X141285715Y-114923810D01*
X141285715Y-115161905D01*
X141238096Y-115257143D01*
X141190477Y-115304762D01*
X141095239Y-115352381D01*
X140857143Y-115352381D01*
X140761905Y-115304762D01*
X140714286Y-115257143D01*
X144952381Y-109661905D02*
X145761905Y-109661905D01*
X145857143Y-109614286D01*
X145904762Y-109566667D01*
X145952381Y-109471429D01*
X145952381Y-109280952D01*
X145904762Y-109185714D01*
X145857143Y-109138095D01*
X145761905Y-109090476D01*
X144952381Y-109090476D01*
X145047619Y-108661905D02*
X145000000Y-108614286D01*
X144952381Y-108519048D01*
X144952381Y-108280952D01*
X145000000Y-108185714D01*
X145047619Y-108138095D01*
X145142857Y-108090476D01*
X145238095Y-108090476D01*
X145380952Y-108138095D01*
X145952381Y-108709524D01*
X145952381Y-108090476D01*
M02*
