G04 #@! TF.FileFunction,Copper,L1,Top,Signal*
%FSLAX46Y46*%
G04 Gerber Fmt 4.6, Leading zero omitted, Abs format (unit mm)*
G04 Created by KiCad (PCBNEW 4.0.6) date 12/15/18 02:38:58*
%MOMM*%
%LPD*%
G01*
G04 APERTURE LIST*
%ADD10C,0.100000*%
%ADD11C,5.001260*%
%ADD12C,3.650000*%
%ADD13R,1.500000X1.500000*%
%ADD14C,1.500000*%
%ADD15O,2.999740X5.001260*%
%ADD16R,1.143000X0.508000*%
%ADD17R,1.600000X1.600000*%
%ADD18C,1.600000*%
%ADD19R,1.200000X1.200000*%
%ADD20C,1.200000*%
%ADD21O,1.600000X1.600000*%
%ADD22R,3.800000X2.000000*%
%ADD23R,1.500000X2.000000*%
%ADD24C,0.700000*%
%ADD25C,0.400000*%
%ADD26C,1.000000*%
%ADD27C,0.254000*%
G04 APERTURE END LIST*
D10*
D11*
X160800000Y-118800000D03*
X163600000Y-112800000D03*
D12*
X147220000Y-71450000D03*
X159090000Y-71450000D03*
D13*
X157600000Y-77800000D03*
D14*
X156330000Y-80340000D03*
X155060000Y-77800000D03*
X153790000Y-80340000D03*
X152520000Y-77800000D03*
X151250000Y-80340000D03*
X149980000Y-77800000D03*
X148710000Y-80340000D03*
D15*
X155959860Y-116200000D03*
X152000000Y-116200000D03*
X148040140Y-116200000D03*
D16*
X151898000Y-95190000D03*
X151898000Y-96460000D03*
X151898000Y-97730000D03*
X151898000Y-99000000D03*
X151898000Y-100270000D03*
X151898000Y-101540000D03*
X151898000Y-102810000D03*
X158248000Y-102810000D03*
X158248000Y-101540000D03*
X158248000Y-99000000D03*
X158248000Y-97730000D03*
X158248000Y-96460000D03*
X158248000Y-95190000D03*
X158248000Y-100270000D03*
D17*
X164100000Y-80600000D03*
D18*
X164100000Y-82600000D03*
D19*
X163600000Y-90000000D03*
D20*
X163600000Y-92000000D03*
D17*
X165000000Y-108000000D03*
D21*
X165000000Y-105460000D03*
D18*
X153500000Y-109900000D03*
D21*
X161120000Y-109900000D03*
D18*
X159400000Y-91000000D03*
D21*
X151780000Y-91000000D03*
D18*
X150000000Y-102800000D03*
D21*
X142380000Y-102800000D03*
D18*
X146900000Y-87200000D03*
D21*
X146900000Y-94820000D03*
D18*
X161400000Y-95000000D03*
D21*
X161400000Y-102620000D03*
D18*
X161200000Y-106600000D03*
D21*
X153580000Y-106600000D03*
D18*
X164400000Y-102700000D03*
D21*
X164400000Y-95080000D03*
D18*
X143200000Y-97700000D03*
D21*
X143200000Y-90080000D03*
D18*
X143000000Y-73300000D03*
D21*
X143000000Y-80920000D03*
D18*
X159400000Y-87600000D03*
D21*
X151780000Y-87600000D03*
D17*
X148100000Y-97600000D03*
D18*
X148100000Y-99600000D03*
D17*
X153700000Y-84100000D03*
D21*
X161320000Y-84100000D03*
D17*
X150300000Y-84000000D03*
D21*
X142680000Y-84000000D03*
D19*
X142900000Y-107700000D03*
D20*
X142900000Y-105700000D03*
D19*
X142300000Y-111400000D03*
D20*
X142300000Y-113400000D03*
D22*
X147400000Y-105550000D03*
D23*
X147400000Y-111850000D03*
X149700000Y-111850000D03*
X145100000Y-111850000D03*
D24*
X156100000Y-102900000D03*
X159500000Y-102600000D03*
X145696878Y-115946743D03*
X141400000Y-77900000D03*
X146300000Y-77900000D03*
D20*
X149800000Y-109100000D03*
X153600000Y-98800000D03*
D24*
X154800000Y-85900000D03*
X160800000Y-100100000D03*
X152700000Y-102800000D03*
X149200000Y-94800000D03*
X156200000Y-95600000D03*
D25*
X148100000Y-99600000D02*
X150700000Y-100300000D01*
X150700000Y-100300000D02*
X151898000Y-100270000D01*
X156090000Y-102810000D02*
X158248000Y-102810000D01*
X156100000Y-102900000D02*
X156090000Y-102810000D01*
X158248000Y-102810000D02*
X159290000Y-102810000D01*
X159290000Y-102810000D02*
X159500000Y-102600000D01*
X150300000Y-84000000D02*
X150300000Y-82900000D01*
X150300000Y-82900000D02*
X151250000Y-81950000D01*
X151250000Y-81950000D02*
X151250000Y-80340000D01*
X151780000Y-87600000D02*
X152000000Y-87600000D01*
X152000000Y-87600000D02*
X158248000Y-93848000D01*
X158248000Y-93848000D02*
X158248000Y-95190000D01*
X145700000Y-120100000D02*
X149700000Y-120100000D01*
X145696878Y-115946743D02*
X145700000Y-120100000D01*
X141500000Y-77900000D02*
X141400000Y-77900000D01*
X146300000Y-77900000D02*
X141500000Y-77900000D01*
X149700000Y-120100000D02*
X152000000Y-116200000D01*
D26*
X149700000Y-111850000D02*
X149700000Y-109200000D01*
X149700000Y-109200000D02*
X149800000Y-109100000D01*
X148100000Y-97600000D02*
X149500000Y-98100000D01*
X150400000Y-99000000D02*
X151898000Y-99000000D01*
X149500000Y-98100000D02*
X150400000Y-99000000D01*
X151898000Y-99000000D02*
X153400000Y-99000000D01*
X153400000Y-99000000D02*
X153600000Y-98800000D01*
D25*
X146900000Y-87200000D02*
X146900000Y-87300000D01*
X149900000Y-85900000D02*
X154800000Y-85900000D01*
X146900000Y-87300000D02*
X149900000Y-85900000D01*
X158248000Y-100270000D02*
X159830000Y-100270000D01*
X159830000Y-100270000D02*
X160800000Y-100100000D01*
X151898000Y-102810000D02*
X150010000Y-102810000D01*
X150010000Y-102810000D02*
X150000000Y-102800000D01*
X146900000Y-94820000D02*
X149180000Y-94820000D01*
X152690000Y-102810000D02*
X151898000Y-102810000D01*
X152700000Y-102800000D02*
X152690000Y-102810000D01*
X149180000Y-94820000D02*
X149200000Y-94800000D01*
X143000000Y-80920000D02*
X143520000Y-80920000D01*
X143520000Y-80920000D02*
X145200000Y-82600000D01*
X145200000Y-85280000D02*
X143200000Y-90080000D01*
X145200000Y-82600000D02*
X145200000Y-85280000D01*
X157060000Y-96460000D02*
X158248000Y-96460000D01*
X156200000Y-95600000D02*
X157060000Y-96460000D01*
X158248000Y-97730000D02*
X161750000Y-97730000D01*
X161750000Y-97730000D02*
X164400000Y-95080000D01*
X159400000Y-87600000D02*
X160200000Y-87600000D01*
X160200000Y-87600000D02*
X161600000Y-89000000D01*
X161600000Y-89000000D02*
X161600000Y-91500000D01*
X161600000Y-91500000D02*
X162100000Y-92000000D01*
X162100000Y-92000000D02*
X163600000Y-92000000D01*
X158248000Y-101540000D02*
X160320000Y-101540000D01*
X160320000Y-101540000D02*
X161400000Y-102620000D01*
X165000000Y-108000000D02*
X164400000Y-108000000D01*
X164400000Y-108000000D02*
X163000000Y-106600000D01*
X163000000Y-106600000D02*
X163000000Y-104220000D01*
X163000000Y-104220000D02*
X161400000Y-102620000D01*
X142380000Y-102800000D02*
X147200000Y-102800000D01*
X151140000Y-101540000D02*
X151898000Y-101540000D01*
X150600000Y-101000000D02*
X151140000Y-101540000D01*
X149000000Y-101000000D02*
X150600000Y-101000000D01*
X147200000Y-102800000D02*
X149000000Y-101000000D01*
X151898000Y-101540000D02*
X153660000Y-101540000D01*
X154830000Y-97730000D02*
X151898000Y-97730000D01*
X155400000Y-98300000D02*
X154830000Y-97730000D01*
X155400000Y-99800000D02*
X155400000Y-98300000D01*
X153660000Y-101540000D02*
X155400000Y-99800000D01*
X153500000Y-109900000D02*
X152200000Y-109100000D01*
X152540000Y-101540000D02*
X151898000Y-101540000D01*
X153500000Y-102500000D02*
X152540000Y-101540000D01*
X153500000Y-103100000D02*
X153500000Y-102500000D01*
X151800000Y-105100000D02*
X153500000Y-103100000D01*
X151800000Y-108400000D02*
X151800000Y-105100000D01*
X152200000Y-109100000D02*
X151800000Y-108400000D01*
X151780000Y-91000000D02*
X151780000Y-95072000D01*
X151780000Y-95072000D02*
X151898000Y-95190000D01*
X151898000Y-96460000D02*
X151898000Y-95190000D01*
D26*
X147400000Y-111850000D02*
X147400000Y-105550000D01*
X142300000Y-113400000D02*
X142100000Y-114100000D01*
X142800000Y-114800000D02*
X146640140Y-114800000D01*
X142100000Y-114100000D02*
X142800000Y-114800000D01*
X146640140Y-114800000D02*
X148040140Y-116200000D01*
X148040140Y-116200000D02*
X148040140Y-114040140D01*
X148040140Y-114040140D02*
X147400000Y-113400000D01*
X147400000Y-113400000D02*
X147400000Y-111850000D01*
D27*
G36*
X145135730Y-70054703D02*
X144760428Y-70958529D01*
X144759574Y-71937177D01*
X145133298Y-72841657D01*
X145824703Y-73534270D01*
X146728529Y-73909572D01*
X147707177Y-73910426D01*
X148611657Y-73536702D01*
X149304270Y-72845297D01*
X149679572Y-71941471D01*
X149680426Y-70962823D01*
X149306702Y-70058343D01*
X149058792Y-69810000D01*
X157250861Y-69810000D01*
X157005730Y-70054703D01*
X156630428Y-70958529D01*
X156629574Y-71937177D01*
X157003298Y-72841657D01*
X157694703Y-73534270D01*
X158598529Y-73909572D01*
X159577177Y-73910426D01*
X160481657Y-73536702D01*
X160690000Y-73328722D01*
X160690000Y-75350000D01*
X160744046Y-75621705D01*
X160897954Y-75852046D01*
X161128295Y-76005954D01*
X161400000Y-76060000D01*
X165355908Y-76060000D01*
X166440000Y-77144092D01*
X166440000Y-107160460D01*
X166403162Y-106964683D01*
X166264090Y-106748559D01*
X166051890Y-106603569D01*
X165907625Y-106574355D01*
X166014698Y-106502811D01*
X166325767Y-106037264D01*
X166435000Y-105488113D01*
X166435000Y-105431887D01*
X166325767Y-104882736D01*
X166014698Y-104417189D01*
X165549151Y-104106120D01*
X165012857Y-103999444D01*
X165211800Y-103917243D01*
X165615824Y-103513923D01*
X165834750Y-102986691D01*
X165835248Y-102415813D01*
X165617243Y-101888200D01*
X165213923Y-101484176D01*
X164686691Y-101265250D01*
X164115813Y-101264752D01*
X163588200Y-101482757D01*
X163184176Y-101886077D01*
X162965250Y-102413309D01*
X162964752Y-102984187D01*
X162978621Y-103017753D01*
X162797501Y-102836633D01*
X162835000Y-102648113D01*
X162835000Y-102591887D01*
X162725767Y-102042736D01*
X162414698Y-101577189D01*
X161949151Y-101266120D01*
X161400000Y-101156887D01*
X161164582Y-101203714D01*
X161031136Y-101070268D01*
X161357229Y-100935529D01*
X161634555Y-100658686D01*
X161784828Y-100296788D01*
X161785170Y-99904931D01*
X161635529Y-99542771D01*
X161358686Y-99265445D01*
X160996788Y-99115172D01*
X160604931Y-99114830D01*
X160242771Y-99264471D01*
X160138930Y-99368132D01*
X159757386Y-99435000D01*
X159431846Y-99435000D01*
X159454500Y-99380309D01*
X159454500Y-99285750D01*
X159295750Y-99127000D01*
X158375000Y-99127000D01*
X158375000Y-99147000D01*
X158121000Y-99147000D01*
X158121000Y-99127000D01*
X157200250Y-99127000D01*
X157041500Y-99285750D01*
X157041500Y-99380309D01*
X157138173Y-99613698D01*
X157164709Y-99640235D01*
X157080069Y-99764110D01*
X157029060Y-100016000D01*
X157029060Y-100524000D01*
X157073338Y-100759317D01*
X157167666Y-100905907D01*
X157080069Y-101034110D01*
X157029060Y-101286000D01*
X157029060Y-101794000D01*
X157063118Y-101975000D01*
X156440870Y-101975000D01*
X156296788Y-101915172D01*
X155904931Y-101914830D01*
X155542771Y-102064471D01*
X155265445Y-102341314D01*
X155115172Y-102703212D01*
X155114830Y-103095069D01*
X155264471Y-103457229D01*
X155541314Y-103734555D01*
X155903212Y-103884828D01*
X156295069Y-103885170D01*
X156657229Y-103735529D01*
X156747916Y-103645000D01*
X157402026Y-103645000D01*
X157424610Y-103660431D01*
X157676500Y-103711440D01*
X158819500Y-103711440D01*
X159054817Y-103667162D01*
X159089258Y-103645000D01*
X159290000Y-103645000D01*
X159591240Y-103585079D01*
X159695069Y-103585170D01*
X160057229Y-103435529D01*
X160162932Y-103330011D01*
X160385302Y-103662811D01*
X160850849Y-103973880D01*
X161400000Y-104083113D01*
X161635418Y-104036286D01*
X162165000Y-104565868D01*
X162165000Y-105535517D01*
X162013923Y-105384176D01*
X161486691Y-105165250D01*
X160915813Y-105164752D01*
X160388200Y-105382757D01*
X159984176Y-105786077D01*
X159765250Y-106313309D01*
X159764752Y-106884187D01*
X159982757Y-107411800D01*
X160386077Y-107815824D01*
X160913309Y-108034750D01*
X161484187Y-108035248D01*
X162011800Y-107817243D01*
X162415824Y-107413923D01*
X162479561Y-107260429D01*
X163552560Y-108333428D01*
X163552560Y-108800000D01*
X163596838Y-109035317D01*
X163735910Y-109251441D01*
X163948110Y-109396431D01*
X164200000Y-109447440D01*
X165800000Y-109447440D01*
X166035317Y-109403162D01*
X166251441Y-109264090D01*
X166396431Y-109051890D01*
X166440000Y-108836740D01*
X166440000Y-111462227D01*
X166259808Y-111026129D01*
X165378511Y-110143292D01*
X164226452Y-109664915D01*
X162979021Y-109663827D01*
X162569771Y-109832926D01*
X162473880Y-109350849D01*
X162162811Y-108885302D01*
X161697264Y-108574233D01*
X161148113Y-108465000D01*
X161091887Y-108465000D01*
X160542736Y-108574233D01*
X160077189Y-108885302D01*
X159766120Y-109350849D01*
X159656887Y-109900000D01*
X159766120Y-110449151D01*
X160077189Y-110914698D01*
X160542736Y-111225767D01*
X160834380Y-111283779D01*
X160464915Y-112173548D01*
X160463827Y-113420979D01*
X160940192Y-114573871D01*
X161821489Y-115456708D01*
X162973548Y-115935085D01*
X164220979Y-115936173D01*
X165373871Y-115459808D01*
X166256708Y-114578511D01*
X166440000Y-114137095D01*
X166440000Y-120305908D01*
X165355908Y-121390000D01*
X162621004Y-121390000D01*
X162856730Y-121036336D01*
X160800000Y-118979605D01*
X158743270Y-121036336D01*
X158978996Y-121390000D01*
X145610000Y-121390000D01*
X145610000Y-120917098D01*
X145700000Y-120935000D01*
X149700000Y-120935000D01*
X149803397Y-120914433D01*
X149908648Y-120908511D01*
X149961740Y-120882936D01*
X150019541Y-120871439D01*
X150107196Y-120812870D01*
X150202169Y-120767121D01*
X150241433Y-120723175D01*
X150290434Y-120690434D01*
X150349002Y-120602781D01*
X150419241Y-120524167D01*
X151180698Y-119233002D01*
X151183021Y-119234554D01*
X152000000Y-119397061D01*
X152816979Y-119234554D01*
X153509581Y-118771772D01*
X153972363Y-118079170D01*
X153993583Y-117972489D01*
X154036098Y-118135072D01*
X154540081Y-118800144D01*
X155260213Y-119221724D01*
X155501048Y-119285745D01*
X155832860Y-119172795D01*
X155832860Y-116327000D01*
X156086860Y-116327000D01*
X156086860Y-119172795D01*
X156418672Y-119285745D01*
X156659507Y-119221724D01*
X157379639Y-118800144D01*
X157664195Y-118424635D01*
X157664660Y-119425172D01*
X158140916Y-120574958D01*
X158563664Y-120856730D01*
X160620395Y-118800000D01*
X160979605Y-118800000D01*
X163036336Y-120856730D01*
X163459084Y-120574958D01*
X163935920Y-119422259D01*
X163935340Y-118174828D01*
X163459084Y-117025042D01*
X163036336Y-116743270D01*
X160979605Y-118800000D01*
X160620395Y-118800000D01*
X158563664Y-116743270D01*
X158140916Y-117025042D01*
X158094730Y-117136692D01*
X158094730Y-116563664D01*
X158743270Y-116563664D01*
X160800000Y-118620395D01*
X162856730Y-116563664D01*
X162574958Y-116140916D01*
X161422259Y-115664080D01*
X160174828Y-115664660D01*
X159025042Y-116140916D01*
X158743270Y-116563664D01*
X158094730Y-116563664D01*
X158094730Y-116327000D01*
X156086860Y-116327000D01*
X155832860Y-116327000D01*
X155812860Y-116327000D01*
X155812860Y-116073000D01*
X155832860Y-116073000D01*
X155832860Y-113227205D01*
X156086860Y-113227205D01*
X156086860Y-116073000D01*
X158094730Y-116073000D01*
X158094730Y-115072240D01*
X157883622Y-114264928D01*
X157379639Y-113599856D01*
X156659507Y-113178276D01*
X156418672Y-113114255D01*
X156086860Y-113227205D01*
X155832860Y-113227205D01*
X155501048Y-113114255D01*
X155260213Y-113178276D01*
X154540081Y-113599856D01*
X154036098Y-114264928D01*
X153993583Y-114427511D01*
X153972363Y-114320830D01*
X153509581Y-113628228D01*
X152816979Y-113165446D01*
X152000000Y-113002939D01*
X151183021Y-113165446D01*
X150490419Y-113628228D01*
X150027637Y-114320830D01*
X150020070Y-114358872D01*
X150012503Y-114320830D01*
X149549721Y-113628228D01*
X149353983Y-113497440D01*
X150450000Y-113497440D01*
X150685317Y-113453162D01*
X150901441Y-113314090D01*
X151046431Y-113101890D01*
X151097440Y-112850000D01*
X151097440Y-110850000D01*
X151053162Y-110614683D01*
X150914090Y-110398559D01*
X150835000Y-110344519D01*
X150835000Y-109811836D01*
X150846371Y-109800485D01*
X151034785Y-109346734D01*
X151035214Y-108855421D01*
X150847592Y-108401343D01*
X150500485Y-108053629D01*
X150046734Y-107865215D01*
X149555421Y-107864786D01*
X149101343Y-108052408D01*
X148753629Y-108399515D01*
X148565215Y-108853266D01*
X148564786Y-109344579D01*
X148565000Y-109345097D01*
X148565000Y-110343156D01*
X148548523Y-110353759D01*
X148535000Y-110344519D01*
X148535000Y-107197440D01*
X149300000Y-107197440D01*
X149535317Y-107153162D01*
X149751441Y-107014090D01*
X149896431Y-106801890D01*
X149947440Y-106550000D01*
X149947440Y-104550000D01*
X149903162Y-104314683D01*
X149851804Y-104234871D01*
X150284187Y-104235248D01*
X150811800Y-104017243D01*
X151153277Y-103676361D01*
X151326500Y-103711440D01*
X151884389Y-103711440D01*
X151163781Y-104559214D01*
X151100650Y-104672570D01*
X151028561Y-104780459D01*
X151021892Y-104813986D01*
X151005260Y-104843850D01*
X150990313Y-104972741D01*
X150965000Y-105100000D01*
X150965000Y-108400000D01*
X150975384Y-108452206D01*
X150971667Y-108505302D01*
X151006895Y-108610619D01*
X151028561Y-108719541D01*
X151058132Y-108763797D01*
X151075017Y-108814276D01*
X151475017Y-109514276D01*
X151504690Y-109548417D01*
X151523551Y-109589532D01*
X151610728Y-109670422D01*
X151688740Y-109760180D01*
X151729219Y-109780367D01*
X151762379Y-109811135D01*
X152064915Y-109997311D01*
X152064752Y-110184187D01*
X152282757Y-110711800D01*
X152686077Y-111115824D01*
X153213309Y-111334750D01*
X153784187Y-111335248D01*
X154311800Y-111117243D01*
X154715824Y-110713923D01*
X154934750Y-110186691D01*
X154935248Y-109615813D01*
X154717243Y-109088200D01*
X154313923Y-108684176D01*
X153786691Y-108465250D01*
X153215813Y-108464752D01*
X152943666Y-108577201D01*
X152819202Y-108500607D01*
X152635000Y-108178254D01*
X152635000Y-107680053D01*
X153002736Y-107925767D01*
X153551887Y-108035000D01*
X153608113Y-108035000D01*
X154157264Y-107925767D01*
X154622811Y-107614698D01*
X154933880Y-107149151D01*
X155043113Y-106600000D01*
X154933880Y-106050849D01*
X154622811Y-105585302D01*
X154157264Y-105274233D01*
X153608113Y-105165000D01*
X153551887Y-105165000D01*
X153002736Y-105274233D01*
X152635000Y-105519947D01*
X152635000Y-105406926D01*
X154136219Y-103640786D01*
X154199350Y-103527430D01*
X154271439Y-103419541D01*
X154278108Y-103386014D01*
X154294740Y-103356150D01*
X154309687Y-103227259D01*
X154335000Y-103100000D01*
X154335000Y-102500000D01*
X154271439Y-102180459D01*
X154241847Y-102136172D01*
X154250434Y-102130434D01*
X155990434Y-100390434D01*
X156171440Y-100119540D01*
X156235000Y-99800000D01*
X156235000Y-98300000D01*
X156216635Y-98207673D01*
X156171440Y-97980460D01*
X155990434Y-97709566D01*
X155420434Y-97139566D01*
X155149541Y-96958561D01*
X154830000Y-96895000D01*
X153080287Y-96895000D01*
X153116940Y-96714000D01*
X153116940Y-96206000D01*
X153072662Y-95970683D01*
X152978334Y-95824093D01*
X153065931Y-95695890D01*
X153116940Y-95444000D01*
X153116940Y-94936000D01*
X153072662Y-94700683D01*
X152933590Y-94484559D01*
X152721390Y-94339569D01*
X152615000Y-94318024D01*
X152615000Y-92153553D01*
X152822811Y-92014698D01*
X153133880Y-91549151D01*
X153243113Y-91000000D01*
X153133880Y-90450849D01*
X152822811Y-89985302D01*
X152357264Y-89674233D01*
X151808113Y-89565000D01*
X151751887Y-89565000D01*
X151202736Y-89674233D01*
X150737189Y-89985302D01*
X150426120Y-90450849D01*
X150316887Y-91000000D01*
X150426120Y-91549151D01*
X150737189Y-92014698D01*
X150945000Y-92153553D01*
X150945000Y-94426904D01*
X150875059Y-94471910D01*
X150730069Y-94684110D01*
X150679060Y-94936000D01*
X150679060Y-95444000D01*
X150723338Y-95679317D01*
X150817666Y-95825907D01*
X150730069Y-95954110D01*
X150679060Y-96206000D01*
X150679060Y-96714000D01*
X150723338Y-96949317D01*
X150817666Y-97095907D01*
X150730069Y-97224110D01*
X150679060Y-97476000D01*
X150679060Y-97673928D01*
X150302566Y-97297434D01*
X150278780Y-97281541D01*
X150261725Y-97258573D01*
X150095457Y-97159048D01*
X149934345Y-97051397D01*
X149906289Y-97045816D01*
X149881742Y-97031123D01*
X149547440Y-96911729D01*
X149547440Y-96800000D01*
X149503162Y-96564683D01*
X149364090Y-96348559D01*
X149151890Y-96203569D01*
X148900000Y-96152560D01*
X147481059Y-96152560D01*
X147914698Y-95862811D01*
X148053553Y-95655000D01*
X148690551Y-95655000D01*
X149003212Y-95784828D01*
X149395069Y-95785170D01*
X149757229Y-95635529D01*
X150034555Y-95358686D01*
X150184828Y-94996788D01*
X150185170Y-94604931D01*
X150035529Y-94242771D01*
X149758686Y-93965445D01*
X149396788Y-93815172D01*
X149004931Y-93814830D01*
X148642771Y-93964471D01*
X148622206Y-93985000D01*
X148053553Y-93985000D01*
X147914698Y-93777189D01*
X147449151Y-93466120D01*
X146900000Y-93356887D01*
X146350849Y-93466120D01*
X145885302Y-93777189D01*
X145574233Y-94242736D01*
X145465000Y-94791887D01*
X145465000Y-94848113D01*
X145574233Y-95397264D01*
X145885302Y-95862811D01*
X146350849Y-96173880D01*
X146900000Y-96283113D01*
X146944303Y-96274301D01*
X146848559Y-96335910D01*
X146703569Y-96548110D01*
X146652560Y-96800000D01*
X146652560Y-98400000D01*
X146696838Y-98635317D01*
X146835910Y-98851441D01*
X146842548Y-98855977D01*
X146653035Y-99383223D01*
X146680222Y-99953454D01*
X146846136Y-100354005D01*
X147092255Y-100428139D01*
X147920395Y-99600000D01*
X147906252Y-99585858D01*
X148085858Y-99406253D01*
X148100000Y-99420395D01*
X148114143Y-99406253D01*
X148293748Y-99585858D01*
X148279605Y-99600000D01*
X148293748Y-99614143D01*
X148114142Y-99793748D01*
X148100000Y-99779605D01*
X147271861Y-100607745D01*
X147345995Y-100853864D01*
X147801531Y-101017601D01*
X146854132Y-101965000D01*
X143542882Y-101965000D01*
X143422811Y-101785302D01*
X142957264Y-101474233D01*
X142408113Y-101365000D01*
X142351887Y-101365000D01*
X141802736Y-101474233D01*
X141337189Y-101785302D01*
X141026120Y-102250849D01*
X140916887Y-102800000D01*
X141026120Y-103349151D01*
X141337189Y-103814698D01*
X141802736Y-104125767D01*
X142351887Y-104235000D01*
X142408113Y-104235000D01*
X142957264Y-104125767D01*
X143422811Y-103814698D01*
X143542882Y-103635000D01*
X147200000Y-103635000D01*
X147519541Y-103571439D01*
X147790434Y-103390434D01*
X148565161Y-102615707D01*
X148564752Y-103084187D01*
X148782757Y-103611800D01*
X149073010Y-103902560D01*
X145500000Y-103902560D01*
X145264683Y-103946838D01*
X145048559Y-104085910D01*
X144903569Y-104298110D01*
X144852560Y-104550000D01*
X144852560Y-106550000D01*
X144896838Y-106785317D01*
X145035910Y-107001441D01*
X145248110Y-107146431D01*
X145500000Y-107197440D01*
X146265000Y-107197440D01*
X146265000Y-110343156D01*
X146250508Y-110352482D01*
X146209699Y-110311673D01*
X145976310Y-110215000D01*
X145385750Y-110215000D01*
X145227000Y-110373750D01*
X145227000Y-111723000D01*
X145247000Y-111723000D01*
X145247000Y-111977000D01*
X145227000Y-111977000D01*
X145227000Y-113326250D01*
X145385750Y-113485000D01*
X145976310Y-113485000D01*
X146209699Y-113388327D01*
X146251660Y-113346366D01*
X146265000Y-113355481D01*
X146265000Y-113400000D01*
X146317712Y-113665000D01*
X143527200Y-113665000D01*
X143534785Y-113646734D01*
X143535214Y-113155421D01*
X143347592Y-112701343D01*
X143206753Y-112560258D01*
X143259699Y-112538327D01*
X143438327Y-112359698D01*
X143531089Y-112135750D01*
X143715000Y-112135750D01*
X143715000Y-112976309D01*
X143811673Y-113209698D01*
X143990301Y-113388327D01*
X144223690Y-113485000D01*
X144814250Y-113485000D01*
X144973000Y-113326250D01*
X144973000Y-111977000D01*
X143873750Y-111977000D01*
X143715000Y-112135750D01*
X143531089Y-112135750D01*
X143535000Y-112126309D01*
X143535000Y-111685750D01*
X143376250Y-111527000D01*
X142427000Y-111527000D01*
X142427000Y-111547000D01*
X142173000Y-111547000D01*
X142173000Y-111527000D01*
X141223750Y-111527000D01*
X141065000Y-111685750D01*
X141065000Y-112126309D01*
X141161673Y-112359698D01*
X141340301Y-112538327D01*
X141393164Y-112560224D01*
X141253629Y-112699515D01*
X141065215Y-113153266D01*
X141064832Y-113591624D01*
X141008670Y-113788192D01*
X140995762Y-113945348D01*
X140965000Y-114100000D01*
X140977782Y-114164261D01*
X140972419Y-114229561D01*
X141020635Y-114379693D01*
X141051397Y-114534345D01*
X141087797Y-114588822D01*
X141107832Y-114651205D01*
X141209830Y-114771458D01*
X141297434Y-114902566D01*
X141997433Y-115602566D01*
X142365654Y-115848603D01*
X142800000Y-115935000D01*
X144711888Y-115935000D01*
X144711710Y-116140000D01*
X140944092Y-116140000D01*
X139860000Y-115055908D01*
X139860000Y-110673691D01*
X141065000Y-110673691D01*
X141065000Y-111114250D01*
X141223750Y-111273000D01*
X142173000Y-111273000D01*
X142173000Y-110323750D01*
X142427000Y-110323750D01*
X142427000Y-111273000D01*
X143376250Y-111273000D01*
X143535000Y-111114250D01*
X143535000Y-110723691D01*
X143715000Y-110723691D01*
X143715000Y-111564250D01*
X143873750Y-111723000D01*
X144973000Y-111723000D01*
X144973000Y-110373750D01*
X144814250Y-110215000D01*
X144223690Y-110215000D01*
X143990301Y-110311673D01*
X143811673Y-110490302D01*
X143715000Y-110723691D01*
X143535000Y-110723691D01*
X143535000Y-110673691D01*
X143438327Y-110440302D01*
X143259699Y-110261673D01*
X143026310Y-110165000D01*
X142585750Y-110165000D01*
X142427000Y-110323750D01*
X142173000Y-110323750D01*
X142014250Y-110165000D01*
X141573690Y-110165000D01*
X141340301Y-110261673D01*
X141161673Y-110440302D01*
X141065000Y-110673691D01*
X139860000Y-110673691D01*
X139860000Y-107985750D01*
X141665000Y-107985750D01*
X141665000Y-108426309D01*
X141761673Y-108659698D01*
X141940301Y-108838327D01*
X142173690Y-108935000D01*
X142614250Y-108935000D01*
X142773000Y-108776250D01*
X142773000Y-107827000D01*
X143027000Y-107827000D01*
X143027000Y-108776250D01*
X143185750Y-108935000D01*
X143626310Y-108935000D01*
X143859699Y-108838327D01*
X144038327Y-108659698D01*
X144135000Y-108426309D01*
X144135000Y-107985750D01*
X143976250Y-107827000D01*
X143027000Y-107827000D01*
X142773000Y-107827000D01*
X141823750Y-107827000D01*
X141665000Y-107985750D01*
X139860000Y-107985750D01*
X139860000Y-105944579D01*
X141664786Y-105944579D01*
X141852408Y-106398657D01*
X141993247Y-106539742D01*
X141940301Y-106561673D01*
X141761673Y-106740302D01*
X141665000Y-106973691D01*
X141665000Y-107414250D01*
X141823750Y-107573000D01*
X142773000Y-107573000D01*
X142773000Y-107553000D01*
X143027000Y-107553000D01*
X143027000Y-107573000D01*
X143976250Y-107573000D01*
X144135000Y-107414250D01*
X144135000Y-106973691D01*
X144038327Y-106740302D01*
X143859699Y-106561673D01*
X143806836Y-106539776D01*
X143946371Y-106400485D01*
X144134785Y-105946734D01*
X144135214Y-105455421D01*
X143947592Y-105001343D01*
X143600485Y-104653629D01*
X143146734Y-104465215D01*
X142655421Y-104464786D01*
X142201343Y-104652408D01*
X141853629Y-104999515D01*
X141665215Y-105453266D01*
X141664786Y-105944579D01*
X139860000Y-105944579D01*
X139860000Y-97984187D01*
X141764752Y-97984187D01*
X141982757Y-98511800D01*
X142386077Y-98915824D01*
X142913309Y-99134750D01*
X143484187Y-99135248D01*
X144011800Y-98917243D01*
X144415824Y-98513923D01*
X144634750Y-97986691D01*
X144635248Y-97415813D01*
X144417243Y-96888200D01*
X144013923Y-96484176D01*
X143486691Y-96265250D01*
X142915813Y-96264752D01*
X142388200Y-96482757D01*
X141984176Y-96886077D01*
X141765250Y-97413309D01*
X141764752Y-97984187D01*
X139860000Y-97984187D01*
X139860000Y-84349039D01*
X141288096Y-84349039D01*
X141448959Y-84737423D01*
X141824866Y-85152389D01*
X142330959Y-85391914D01*
X142553000Y-85270629D01*
X142553000Y-84127000D01*
X142807000Y-84127000D01*
X142807000Y-85270629D01*
X143029041Y-85391914D01*
X143535134Y-85152389D01*
X143911041Y-84737423D01*
X144071904Y-84349039D01*
X143949915Y-84127000D01*
X142807000Y-84127000D01*
X142553000Y-84127000D01*
X141410085Y-84127000D01*
X141288096Y-84349039D01*
X139860000Y-84349039D01*
X139860000Y-83650961D01*
X141288096Y-83650961D01*
X141410085Y-83873000D01*
X142553000Y-83873000D01*
X142553000Y-82729371D01*
X142807000Y-82729371D01*
X142807000Y-83873000D01*
X143949915Y-83873000D01*
X144071904Y-83650961D01*
X143911041Y-83262577D01*
X143535134Y-82847611D01*
X143029041Y-82608086D01*
X142807000Y-82729371D01*
X142553000Y-82729371D01*
X142330959Y-82608086D01*
X141824866Y-82847611D01*
X141448959Y-83262577D01*
X141288096Y-83650961D01*
X139860000Y-83650961D01*
X139860000Y-80891887D01*
X141565000Y-80891887D01*
X141565000Y-80948113D01*
X141674233Y-81497264D01*
X141985302Y-81962811D01*
X142450849Y-82273880D01*
X143000000Y-82383113D01*
X143549151Y-82273880D01*
X143635389Y-82216257D01*
X144365000Y-82945868D01*
X144365000Y-85113000D01*
X142878392Y-88680859D01*
X142650849Y-88726120D01*
X142185302Y-89037189D01*
X141874233Y-89502736D01*
X141765000Y-90051887D01*
X141765000Y-90108113D01*
X141874233Y-90657264D01*
X142185302Y-91122811D01*
X142650849Y-91433880D01*
X143200000Y-91543113D01*
X143749151Y-91433880D01*
X144214698Y-91122811D01*
X144525767Y-90657264D01*
X144635000Y-90108113D01*
X144635000Y-90051887D01*
X144525767Y-89502736D01*
X144414496Y-89336208D01*
X145186171Y-87484187D01*
X145464752Y-87484187D01*
X145682757Y-88011800D01*
X146086077Y-88415824D01*
X146613309Y-88634750D01*
X147184187Y-88635248D01*
X147711800Y-88417243D01*
X148115824Y-88013923D01*
X148301166Y-87567570D01*
X150085244Y-86735000D01*
X150637164Y-86735000D01*
X150426120Y-87050849D01*
X150316887Y-87600000D01*
X150426120Y-88149151D01*
X150737189Y-88614698D01*
X151202736Y-88925767D01*
X151751887Y-89035000D01*
X151808113Y-89035000D01*
X152180133Y-88961001D01*
X157413000Y-94193868D01*
X157413000Y-94350973D01*
X157225059Y-94471910D01*
X157080069Y-94684110D01*
X157029060Y-94936000D01*
X157029060Y-95036291D01*
X156758686Y-94765445D01*
X156396788Y-94615172D01*
X156004931Y-94614830D01*
X155642771Y-94764471D01*
X155365445Y-95041314D01*
X155215172Y-95403212D01*
X155214830Y-95795069D01*
X155364471Y-96157229D01*
X155641314Y-96434555D01*
X156003212Y-96584828D01*
X156003961Y-96584829D01*
X156469566Y-97050434D01*
X156740460Y-97231440D01*
X157060000Y-97295000D01*
X157065713Y-97295000D01*
X157029060Y-97476000D01*
X157029060Y-97984000D01*
X157073338Y-98219317D01*
X157164104Y-98360371D01*
X157138173Y-98386302D01*
X157041500Y-98619691D01*
X157041500Y-98714250D01*
X157200250Y-98873000D01*
X158121000Y-98873000D01*
X158121000Y-98853000D01*
X158375000Y-98853000D01*
X158375000Y-98873000D01*
X159295750Y-98873000D01*
X159454500Y-98714250D01*
X159454500Y-98619691D01*
X159431846Y-98565000D01*
X161750000Y-98565000D01*
X162069541Y-98501439D01*
X162340434Y-98320434D01*
X164164582Y-96496286D01*
X164400000Y-96543113D01*
X164949151Y-96433880D01*
X165414698Y-96122811D01*
X165725767Y-95657264D01*
X165835000Y-95108113D01*
X165835000Y-95051887D01*
X165725767Y-94502736D01*
X165414698Y-94037189D01*
X164949151Y-93726120D01*
X164400000Y-93616887D01*
X163850849Y-93726120D01*
X163385302Y-94037189D01*
X163074233Y-94502736D01*
X162965000Y-95051887D01*
X162965000Y-95108113D01*
X163002499Y-95296633D01*
X162714880Y-95584252D01*
X162846965Y-95216777D01*
X162819778Y-94646546D01*
X162653864Y-94245995D01*
X162407745Y-94171861D01*
X161579605Y-95000000D01*
X161593748Y-95014142D01*
X161414142Y-95193748D01*
X161400000Y-95179605D01*
X160571861Y-96007745D01*
X160645995Y-96253864D01*
X161183223Y-96446965D01*
X161753454Y-96419778D01*
X161968379Y-96330753D01*
X161404132Y-96895000D01*
X159430287Y-96895000D01*
X159466940Y-96714000D01*
X159466940Y-96206000D01*
X159422662Y-95970683D01*
X159328334Y-95824093D01*
X159415931Y-95695890D01*
X159466940Y-95444000D01*
X159466940Y-94936000D01*
X159438193Y-94783223D01*
X159953035Y-94783223D01*
X159980222Y-95353454D01*
X160146136Y-95754005D01*
X160392255Y-95828139D01*
X161220395Y-95000000D01*
X160392255Y-94171861D01*
X160146136Y-94245995D01*
X159953035Y-94783223D01*
X159438193Y-94783223D01*
X159422662Y-94700683D01*
X159283590Y-94484559D01*
X159083000Y-94347502D01*
X159083000Y-93992255D01*
X160571861Y-93992255D01*
X161400000Y-94820395D01*
X162228139Y-93992255D01*
X162154005Y-93746136D01*
X161616777Y-93553035D01*
X161046546Y-93580222D01*
X160645995Y-93746136D01*
X160571861Y-93992255D01*
X159083000Y-93992255D01*
X159083000Y-93848000D01*
X159019439Y-93528459D01*
X158838434Y-93257566D01*
X153465055Y-87884187D01*
X157964752Y-87884187D01*
X158182757Y-88411800D01*
X158586077Y-88815824D01*
X159113309Y-89034750D01*
X159684187Y-89035248D01*
X160211800Y-88817243D01*
X160224098Y-88804966D01*
X160765000Y-89345868D01*
X160765000Y-90545800D01*
X160617243Y-90188200D01*
X160213923Y-89784176D01*
X159686691Y-89565250D01*
X159115813Y-89564752D01*
X158588200Y-89782757D01*
X158184176Y-90186077D01*
X157965250Y-90713309D01*
X157964752Y-91284187D01*
X158182757Y-91811800D01*
X158586077Y-92215824D01*
X159113309Y-92434750D01*
X159684187Y-92435248D01*
X160211800Y-92217243D01*
X160615824Y-91813923D01*
X160765000Y-91454668D01*
X160765000Y-91500000D01*
X160828561Y-91819541D01*
X160949140Y-92000000D01*
X161009566Y-92090434D01*
X161509566Y-92590434D01*
X161780460Y-92771440D01*
X162100000Y-92835000D01*
X162688513Y-92835000D01*
X162899515Y-93046371D01*
X163353266Y-93234785D01*
X163844579Y-93235214D01*
X164298657Y-93047592D01*
X164646371Y-92700485D01*
X164834785Y-92246734D01*
X164835214Y-91755421D01*
X164647592Y-91301343D01*
X164506753Y-91160258D01*
X164559699Y-91138327D01*
X164738327Y-90959698D01*
X164835000Y-90726309D01*
X164835000Y-90285750D01*
X164676250Y-90127000D01*
X163727000Y-90127000D01*
X163727000Y-90147000D01*
X163473000Y-90147000D01*
X163473000Y-90127000D01*
X163453000Y-90127000D01*
X163453000Y-89873000D01*
X163473000Y-89873000D01*
X163473000Y-88923750D01*
X163727000Y-88923750D01*
X163727000Y-89873000D01*
X164676250Y-89873000D01*
X164835000Y-89714250D01*
X164835000Y-89273691D01*
X164738327Y-89040302D01*
X164559699Y-88861673D01*
X164326310Y-88765000D01*
X163885750Y-88765000D01*
X163727000Y-88923750D01*
X163473000Y-88923750D01*
X163314250Y-88765000D01*
X162873690Y-88765000D01*
X162640301Y-88861673D01*
X162461673Y-89040302D01*
X162435000Y-89104696D01*
X162435000Y-89000000D01*
X162371439Y-88680459D01*
X162190434Y-88409566D01*
X160790434Y-87009566D01*
X160677541Y-86934134D01*
X160617243Y-86788200D01*
X160213923Y-86384176D01*
X159686691Y-86165250D01*
X159115813Y-86164752D01*
X158588200Y-86382757D01*
X158184176Y-86786077D01*
X157965250Y-87313309D01*
X157964752Y-87884187D01*
X153465055Y-87884187D01*
X153232786Y-87651918D01*
X153243113Y-87600000D01*
X153133880Y-87050849D01*
X152922836Y-86735000D01*
X154242386Y-86735000D01*
X154603212Y-86884828D01*
X154995069Y-86885170D01*
X155357229Y-86735529D01*
X155634555Y-86458686D01*
X155784828Y-86096788D01*
X155785170Y-85704931D01*
X155635529Y-85342771D01*
X155358686Y-85065445D01*
X155132921Y-84971699D01*
X155147440Y-84900000D01*
X155147440Y-84449039D01*
X159928096Y-84449039D01*
X160088959Y-84837423D01*
X160464866Y-85252389D01*
X160970959Y-85491914D01*
X161193000Y-85370629D01*
X161193000Y-84227000D01*
X161447000Y-84227000D01*
X161447000Y-85370629D01*
X161669041Y-85491914D01*
X162175134Y-85252389D01*
X162551041Y-84837423D01*
X162711904Y-84449039D01*
X162589915Y-84227000D01*
X161447000Y-84227000D01*
X161193000Y-84227000D01*
X160050085Y-84227000D01*
X159928096Y-84449039D01*
X155147440Y-84449039D01*
X155147440Y-83750961D01*
X159928096Y-83750961D01*
X160050085Y-83973000D01*
X161193000Y-83973000D01*
X161193000Y-82829371D01*
X161447000Y-82829371D01*
X161447000Y-83973000D01*
X162589915Y-83973000D01*
X162711904Y-83750961D01*
X162652587Y-83607745D01*
X163271861Y-83607745D01*
X163345995Y-83853864D01*
X163883223Y-84046965D01*
X164453454Y-84019778D01*
X164854005Y-83853864D01*
X164928139Y-83607745D01*
X164100000Y-82779605D01*
X163271861Y-83607745D01*
X162652587Y-83607745D01*
X162551041Y-83362577D01*
X162175134Y-82947611D01*
X161669041Y-82708086D01*
X161447000Y-82829371D01*
X161193000Y-82829371D01*
X160970959Y-82708086D01*
X160464866Y-82947611D01*
X160088959Y-83362577D01*
X159928096Y-83750961D01*
X155147440Y-83750961D01*
X155147440Y-83300000D01*
X155103162Y-83064683D01*
X154964090Y-82848559D01*
X154751890Y-82703569D01*
X154500000Y-82652560D01*
X152900000Y-82652560D01*
X152664683Y-82696838D01*
X152448559Y-82835910D01*
X152303569Y-83048110D01*
X152252560Y-83300000D01*
X152252560Y-84900000D01*
X152283607Y-85065000D01*
X151687473Y-85065000D01*
X151696431Y-85051890D01*
X151747440Y-84800000D01*
X151747440Y-83200000D01*
X151703162Y-82964683D01*
X151590800Y-82790068D01*
X151840434Y-82540434D01*
X152021439Y-82269541D01*
X152085000Y-81950000D01*
X152085000Y-81463436D01*
X152423461Y-81125564D01*
X152519976Y-80893130D01*
X152615169Y-81123515D01*
X153004436Y-81513461D01*
X153513298Y-81724759D01*
X154064285Y-81725240D01*
X154573515Y-81514831D01*
X154963461Y-81125564D01*
X155059976Y-80893130D01*
X155155169Y-81123515D01*
X155544436Y-81513461D01*
X156053298Y-81724759D01*
X156604285Y-81725240D01*
X157113515Y-81514831D01*
X157503461Y-81125564D01*
X157714759Y-80616702D01*
X157715240Y-80065715D01*
X157605450Y-79800000D01*
X162652560Y-79800000D01*
X162652560Y-81400000D01*
X162696838Y-81635317D01*
X162835910Y-81851441D01*
X162842548Y-81855977D01*
X162653035Y-82383223D01*
X162680222Y-82953454D01*
X162846136Y-83354005D01*
X163092255Y-83428139D01*
X163920395Y-82600000D01*
X163906252Y-82585858D01*
X164085858Y-82406253D01*
X164100000Y-82420395D01*
X164114143Y-82406253D01*
X164293748Y-82585858D01*
X164279605Y-82600000D01*
X165107745Y-83428139D01*
X165353864Y-83354005D01*
X165546965Y-82816777D01*
X165519778Y-82246546D01*
X165357616Y-81855053D01*
X165496431Y-81651890D01*
X165547440Y-81400000D01*
X165547440Y-79800000D01*
X165503162Y-79564683D01*
X165364090Y-79348559D01*
X165151890Y-79203569D01*
X164900000Y-79152560D01*
X163300000Y-79152560D01*
X163064683Y-79196838D01*
X162848559Y-79335910D01*
X162703569Y-79548110D01*
X162652560Y-79800000D01*
X157605450Y-79800000D01*
X157504831Y-79556485D01*
X157133993Y-79185000D01*
X157314250Y-79185000D01*
X157473000Y-79026250D01*
X157473000Y-77927000D01*
X157727000Y-77927000D01*
X157727000Y-79026250D01*
X157885750Y-79185000D01*
X158476309Y-79185000D01*
X158709698Y-79088327D01*
X158888327Y-78909699D01*
X158985000Y-78676310D01*
X158985000Y-78085750D01*
X158826250Y-77927000D01*
X157727000Y-77927000D01*
X157473000Y-77927000D01*
X157453000Y-77927000D01*
X157453000Y-77673000D01*
X157473000Y-77673000D01*
X157473000Y-76573750D01*
X157727000Y-76573750D01*
X157727000Y-77673000D01*
X158826250Y-77673000D01*
X158985000Y-77514250D01*
X158985000Y-76923690D01*
X158888327Y-76690301D01*
X158709698Y-76511673D01*
X158476309Y-76415000D01*
X157885750Y-76415000D01*
X157727000Y-76573750D01*
X157473000Y-76573750D01*
X157314250Y-76415000D01*
X156723691Y-76415000D01*
X156490302Y-76511673D01*
X156311673Y-76690301D01*
X156215000Y-76923690D01*
X156215000Y-77059863D01*
X156031517Y-77008088D01*
X155239605Y-77800000D01*
X156031517Y-78591912D01*
X156215000Y-78540137D01*
X156215000Y-78676310D01*
X156311673Y-78909699D01*
X156356997Y-78955023D01*
X156055715Y-78954760D01*
X155546485Y-79165169D01*
X155156539Y-79554436D01*
X155060024Y-79786870D01*
X154964831Y-79556485D01*
X154575564Y-79166539D01*
X154066702Y-78955241D01*
X153515715Y-78954760D01*
X153006485Y-79165169D01*
X152616539Y-79554436D01*
X152520024Y-79786870D01*
X152424831Y-79556485D01*
X152035564Y-79166539D01*
X151526702Y-78955241D01*
X150975715Y-78954760D01*
X150466485Y-79165169D01*
X150076539Y-79554436D01*
X149980024Y-79786870D01*
X149884831Y-79556485D01*
X149495564Y-79166539D01*
X148986702Y-78955241D01*
X148435715Y-78954760D01*
X147926485Y-79165169D01*
X147536539Y-79554436D01*
X147325241Y-80063298D01*
X147324760Y-80614285D01*
X147535169Y-81123515D01*
X147924436Y-81513461D01*
X148433298Y-81724759D01*
X148984285Y-81725240D01*
X149493515Y-81514831D01*
X149883461Y-81125564D01*
X149979976Y-80893130D01*
X150075169Y-81123515D01*
X150415000Y-81463939D01*
X150415000Y-81604132D01*
X149709566Y-82309566D01*
X149547203Y-82552560D01*
X149500000Y-82552560D01*
X149264683Y-82596838D01*
X149048559Y-82735910D01*
X148903569Y-82948110D01*
X148852560Y-83200000D01*
X148852560Y-84800000D01*
X148896838Y-85035317D01*
X149035910Y-85251441D01*
X149149267Y-85328895D01*
X147723829Y-85994099D01*
X147713923Y-85984176D01*
X147186691Y-85765250D01*
X146615813Y-85764752D01*
X146088200Y-85982757D01*
X145684176Y-86386077D01*
X145465250Y-86913309D01*
X145464752Y-87484187D01*
X145186171Y-87484187D01*
X145970769Y-85601154D01*
X145970945Y-85600281D01*
X145971439Y-85599541D01*
X146003062Y-85440565D01*
X146034998Y-85281746D01*
X146034826Y-85280873D01*
X146035000Y-85280000D01*
X146035000Y-82600000D01*
X146023152Y-82540434D01*
X145971440Y-82280460D01*
X145790434Y-82009566D01*
X144375965Y-80595097D01*
X144325767Y-80342736D01*
X144014698Y-79877189D01*
X143549151Y-79566120D01*
X143000000Y-79456887D01*
X142450849Y-79566120D01*
X141985302Y-79877189D01*
X141674233Y-80342736D01*
X141565000Y-80891887D01*
X139860000Y-80891887D01*
X139860000Y-78095069D01*
X140414830Y-78095069D01*
X140564471Y-78457229D01*
X140841314Y-78734555D01*
X141203212Y-78884828D01*
X141595069Y-78885170D01*
X141957229Y-78735529D01*
X141957759Y-78735000D01*
X145742386Y-78735000D01*
X146103212Y-78884828D01*
X146495069Y-78885170D01*
X146857229Y-78735529D01*
X147134555Y-78458686D01*
X147284828Y-78096788D01*
X147284847Y-78074285D01*
X148594760Y-78074285D01*
X148805169Y-78583515D01*
X149194436Y-78973461D01*
X149703298Y-79184759D01*
X150254285Y-79185240D01*
X150763515Y-78974831D01*
X151153461Y-78585564D01*
X151249976Y-78353130D01*
X151345169Y-78583515D01*
X151734436Y-78973461D01*
X152243298Y-79184759D01*
X152794285Y-79185240D01*
X153303515Y-78974831D01*
X153507183Y-78771517D01*
X154268088Y-78771517D01*
X154336077Y-79012460D01*
X154855171Y-79197201D01*
X155405448Y-79169230D01*
X155783923Y-79012460D01*
X155851912Y-78771517D01*
X155060000Y-77979605D01*
X154268088Y-78771517D01*
X153507183Y-78771517D01*
X153693461Y-78585564D01*
X153783377Y-78369021D01*
X153847540Y-78523923D01*
X154088483Y-78591912D01*
X154880395Y-77800000D01*
X154088483Y-77008088D01*
X153847540Y-77076077D01*
X153788268Y-77242621D01*
X153694831Y-77016485D01*
X153507157Y-76828483D01*
X154268088Y-76828483D01*
X155060000Y-77620395D01*
X155851912Y-76828483D01*
X155783923Y-76587540D01*
X155264829Y-76402799D01*
X154714552Y-76430770D01*
X154336077Y-76587540D01*
X154268088Y-76828483D01*
X153507157Y-76828483D01*
X153305564Y-76626539D01*
X152796702Y-76415241D01*
X152245715Y-76414760D01*
X151736485Y-76625169D01*
X151346539Y-77014436D01*
X151250024Y-77246870D01*
X151154831Y-77016485D01*
X150765564Y-76626539D01*
X150256702Y-76415241D01*
X149705715Y-76414760D01*
X149196485Y-76625169D01*
X148806539Y-77014436D01*
X148595241Y-77523298D01*
X148594760Y-78074285D01*
X147284847Y-78074285D01*
X147285170Y-77704931D01*
X147135529Y-77342771D01*
X146858686Y-77065445D01*
X146496788Y-76915172D01*
X146104931Y-76914830D01*
X145742771Y-77064471D01*
X145742241Y-77065000D01*
X141957614Y-77065000D01*
X141596788Y-76915172D01*
X141204931Y-76914830D01*
X140842771Y-77064471D01*
X140565445Y-77341314D01*
X140415172Y-77703212D01*
X140414830Y-78095069D01*
X139860000Y-78095069D01*
X139860000Y-74307745D01*
X142171861Y-74307745D01*
X142245995Y-74553864D01*
X142783223Y-74746965D01*
X143353454Y-74719778D01*
X143754005Y-74553864D01*
X143828139Y-74307745D01*
X143000000Y-73479605D01*
X142171861Y-74307745D01*
X139860000Y-74307745D01*
X139860000Y-73083223D01*
X141553035Y-73083223D01*
X141580222Y-73653454D01*
X141746136Y-74054005D01*
X141992255Y-74128139D01*
X142820395Y-73300000D01*
X143179605Y-73300000D01*
X144007745Y-74128139D01*
X144253864Y-74054005D01*
X144446965Y-73516777D01*
X144419778Y-72946546D01*
X144253864Y-72545995D01*
X144007745Y-72471861D01*
X143179605Y-73300000D01*
X142820395Y-73300000D01*
X141992255Y-72471861D01*
X141746136Y-72545995D01*
X141553035Y-73083223D01*
X139860000Y-73083223D01*
X139860000Y-72292255D01*
X142171861Y-72292255D01*
X143000000Y-73120395D01*
X143828139Y-72292255D01*
X143754005Y-72046136D01*
X143216777Y-71853035D01*
X142646546Y-71880222D01*
X142245995Y-72046136D01*
X142171861Y-72292255D01*
X139860000Y-72292255D01*
X139860000Y-71394092D01*
X141444092Y-69810000D01*
X145380861Y-69810000D01*
X145135730Y-70054703D01*
X145135730Y-70054703D01*
G37*
X145135730Y-70054703D02*
X144760428Y-70958529D01*
X144759574Y-71937177D01*
X145133298Y-72841657D01*
X145824703Y-73534270D01*
X146728529Y-73909572D01*
X147707177Y-73910426D01*
X148611657Y-73536702D01*
X149304270Y-72845297D01*
X149679572Y-71941471D01*
X149680426Y-70962823D01*
X149306702Y-70058343D01*
X149058792Y-69810000D01*
X157250861Y-69810000D01*
X157005730Y-70054703D01*
X156630428Y-70958529D01*
X156629574Y-71937177D01*
X157003298Y-72841657D01*
X157694703Y-73534270D01*
X158598529Y-73909572D01*
X159577177Y-73910426D01*
X160481657Y-73536702D01*
X160690000Y-73328722D01*
X160690000Y-75350000D01*
X160744046Y-75621705D01*
X160897954Y-75852046D01*
X161128295Y-76005954D01*
X161400000Y-76060000D01*
X165355908Y-76060000D01*
X166440000Y-77144092D01*
X166440000Y-107160460D01*
X166403162Y-106964683D01*
X166264090Y-106748559D01*
X166051890Y-106603569D01*
X165907625Y-106574355D01*
X166014698Y-106502811D01*
X166325767Y-106037264D01*
X166435000Y-105488113D01*
X166435000Y-105431887D01*
X166325767Y-104882736D01*
X166014698Y-104417189D01*
X165549151Y-104106120D01*
X165012857Y-103999444D01*
X165211800Y-103917243D01*
X165615824Y-103513923D01*
X165834750Y-102986691D01*
X165835248Y-102415813D01*
X165617243Y-101888200D01*
X165213923Y-101484176D01*
X164686691Y-101265250D01*
X164115813Y-101264752D01*
X163588200Y-101482757D01*
X163184176Y-101886077D01*
X162965250Y-102413309D01*
X162964752Y-102984187D01*
X162978621Y-103017753D01*
X162797501Y-102836633D01*
X162835000Y-102648113D01*
X162835000Y-102591887D01*
X162725767Y-102042736D01*
X162414698Y-101577189D01*
X161949151Y-101266120D01*
X161400000Y-101156887D01*
X161164582Y-101203714D01*
X161031136Y-101070268D01*
X161357229Y-100935529D01*
X161634555Y-100658686D01*
X161784828Y-100296788D01*
X161785170Y-99904931D01*
X161635529Y-99542771D01*
X161358686Y-99265445D01*
X160996788Y-99115172D01*
X160604931Y-99114830D01*
X160242771Y-99264471D01*
X160138930Y-99368132D01*
X159757386Y-99435000D01*
X159431846Y-99435000D01*
X159454500Y-99380309D01*
X159454500Y-99285750D01*
X159295750Y-99127000D01*
X158375000Y-99127000D01*
X158375000Y-99147000D01*
X158121000Y-99147000D01*
X158121000Y-99127000D01*
X157200250Y-99127000D01*
X157041500Y-99285750D01*
X157041500Y-99380309D01*
X157138173Y-99613698D01*
X157164709Y-99640235D01*
X157080069Y-99764110D01*
X157029060Y-100016000D01*
X157029060Y-100524000D01*
X157073338Y-100759317D01*
X157167666Y-100905907D01*
X157080069Y-101034110D01*
X157029060Y-101286000D01*
X157029060Y-101794000D01*
X157063118Y-101975000D01*
X156440870Y-101975000D01*
X156296788Y-101915172D01*
X155904931Y-101914830D01*
X155542771Y-102064471D01*
X155265445Y-102341314D01*
X155115172Y-102703212D01*
X155114830Y-103095069D01*
X155264471Y-103457229D01*
X155541314Y-103734555D01*
X155903212Y-103884828D01*
X156295069Y-103885170D01*
X156657229Y-103735529D01*
X156747916Y-103645000D01*
X157402026Y-103645000D01*
X157424610Y-103660431D01*
X157676500Y-103711440D01*
X158819500Y-103711440D01*
X159054817Y-103667162D01*
X159089258Y-103645000D01*
X159290000Y-103645000D01*
X159591240Y-103585079D01*
X159695069Y-103585170D01*
X160057229Y-103435529D01*
X160162932Y-103330011D01*
X160385302Y-103662811D01*
X160850849Y-103973880D01*
X161400000Y-104083113D01*
X161635418Y-104036286D01*
X162165000Y-104565868D01*
X162165000Y-105535517D01*
X162013923Y-105384176D01*
X161486691Y-105165250D01*
X160915813Y-105164752D01*
X160388200Y-105382757D01*
X159984176Y-105786077D01*
X159765250Y-106313309D01*
X159764752Y-106884187D01*
X159982757Y-107411800D01*
X160386077Y-107815824D01*
X160913309Y-108034750D01*
X161484187Y-108035248D01*
X162011800Y-107817243D01*
X162415824Y-107413923D01*
X162479561Y-107260429D01*
X163552560Y-108333428D01*
X163552560Y-108800000D01*
X163596838Y-109035317D01*
X163735910Y-109251441D01*
X163948110Y-109396431D01*
X164200000Y-109447440D01*
X165800000Y-109447440D01*
X166035317Y-109403162D01*
X166251441Y-109264090D01*
X166396431Y-109051890D01*
X166440000Y-108836740D01*
X166440000Y-111462227D01*
X166259808Y-111026129D01*
X165378511Y-110143292D01*
X164226452Y-109664915D01*
X162979021Y-109663827D01*
X162569771Y-109832926D01*
X162473880Y-109350849D01*
X162162811Y-108885302D01*
X161697264Y-108574233D01*
X161148113Y-108465000D01*
X161091887Y-108465000D01*
X160542736Y-108574233D01*
X160077189Y-108885302D01*
X159766120Y-109350849D01*
X159656887Y-109900000D01*
X159766120Y-110449151D01*
X160077189Y-110914698D01*
X160542736Y-111225767D01*
X160834380Y-111283779D01*
X160464915Y-112173548D01*
X160463827Y-113420979D01*
X160940192Y-114573871D01*
X161821489Y-115456708D01*
X162973548Y-115935085D01*
X164220979Y-115936173D01*
X165373871Y-115459808D01*
X166256708Y-114578511D01*
X166440000Y-114137095D01*
X166440000Y-120305908D01*
X165355908Y-121390000D01*
X162621004Y-121390000D01*
X162856730Y-121036336D01*
X160800000Y-118979605D01*
X158743270Y-121036336D01*
X158978996Y-121390000D01*
X145610000Y-121390000D01*
X145610000Y-120917098D01*
X145700000Y-120935000D01*
X149700000Y-120935000D01*
X149803397Y-120914433D01*
X149908648Y-120908511D01*
X149961740Y-120882936D01*
X150019541Y-120871439D01*
X150107196Y-120812870D01*
X150202169Y-120767121D01*
X150241433Y-120723175D01*
X150290434Y-120690434D01*
X150349002Y-120602781D01*
X150419241Y-120524167D01*
X151180698Y-119233002D01*
X151183021Y-119234554D01*
X152000000Y-119397061D01*
X152816979Y-119234554D01*
X153509581Y-118771772D01*
X153972363Y-118079170D01*
X153993583Y-117972489D01*
X154036098Y-118135072D01*
X154540081Y-118800144D01*
X155260213Y-119221724D01*
X155501048Y-119285745D01*
X155832860Y-119172795D01*
X155832860Y-116327000D01*
X156086860Y-116327000D01*
X156086860Y-119172795D01*
X156418672Y-119285745D01*
X156659507Y-119221724D01*
X157379639Y-118800144D01*
X157664195Y-118424635D01*
X157664660Y-119425172D01*
X158140916Y-120574958D01*
X158563664Y-120856730D01*
X160620395Y-118800000D01*
X160979605Y-118800000D01*
X163036336Y-120856730D01*
X163459084Y-120574958D01*
X163935920Y-119422259D01*
X163935340Y-118174828D01*
X163459084Y-117025042D01*
X163036336Y-116743270D01*
X160979605Y-118800000D01*
X160620395Y-118800000D01*
X158563664Y-116743270D01*
X158140916Y-117025042D01*
X158094730Y-117136692D01*
X158094730Y-116563664D01*
X158743270Y-116563664D01*
X160800000Y-118620395D01*
X162856730Y-116563664D01*
X162574958Y-116140916D01*
X161422259Y-115664080D01*
X160174828Y-115664660D01*
X159025042Y-116140916D01*
X158743270Y-116563664D01*
X158094730Y-116563664D01*
X158094730Y-116327000D01*
X156086860Y-116327000D01*
X155832860Y-116327000D01*
X155812860Y-116327000D01*
X155812860Y-116073000D01*
X155832860Y-116073000D01*
X155832860Y-113227205D01*
X156086860Y-113227205D01*
X156086860Y-116073000D01*
X158094730Y-116073000D01*
X158094730Y-115072240D01*
X157883622Y-114264928D01*
X157379639Y-113599856D01*
X156659507Y-113178276D01*
X156418672Y-113114255D01*
X156086860Y-113227205D01*
X155832860Y-113227205D01*
X155501048Y-113114255D01*
X155260213Y-113178276D01*
X154540081Y-113599856D01*
X154036098Y-114264928D01*
X153993583Y-114427511D01*
X153972363Y-114320830D01*
X153509581Y-113628228D01*
X152816979Y-113165446D01*
X152000000Y-113002939D01*
X151183021Y-113165446D01*
X150490419Y-113628228D01*
X150027637Y-114320830D01*
X150020070Y-114358872D01*
X150012503Y-114320830D01*
X149549721Y-113628228D01*
X149353983Y-113497440D01*
X150450000Y-113497440D01*
X150685317Y-113453162D01*
X150901441Y-113314090D01*
X151046431Y-113101890D01*
X151097440Y-112850000D01*
X151097440Y-110850000D01*
X151053162Y-110614683D01*
X150914090Y-110398559D01*
X150835000Y-110344519D01*
X150835000Y-109811836D01*
X150846371Y-109800485D01*
X151034785Y-109346734D01*
X151035214Y-108855421D01*
X150847592Y-108401343D01*
X150500485Y-108053629D01*
X150046734Y-107865215D01*
X149555421Y-107864786D01*
X149101343Y-108052408D01*
X148753629Y-108399515D01*
X148565215Y-108853266D01*
X148564786Y-109344579D01*
X148565000Y-109345097D01*
X148565000Y-110343156D01*
X148548523Y-110353759D01*
X148535000Y-110344519D01*
X148535000Y-107197440D01*
X149300000Y-107197440D01*
X149535317Y-107153162D01*
X149751441Y-107014090D01*
X149896431Y-106801890D01*
X149947440Y-106550000D01*
X149947440Y-104550000D01*
X149903162Y-104314683D01*
X149851804Y-104234871D01*
X150284187Y-104235248D01*
X150811800Y-104017243D01*
X151153277Y-103676361D01*
X151326500Y-103711440D01*
X151884389Y-103711440D01*
X151163781Y-104559214D01*
X151100650Y-104672570D01*
X151028561Y-104780459D01*
X151021892Y-104813986D01*
X151005260Y-104843850D01*
X150990313Y-104972741D01*
X150965000Y-105100000D01*
X150965000Y-108400000D01*
X150975384Y-108452206D01*
X150971667Y-108505302D01*
X151006895Y-108610619D01*
X151028561Y-108719541D01*
X151058132Y-108763797D01*
X151075017Y-108814276D01*
X151475017Y-109514276D01*
X151504690Y-109548417D01*
X151523551Y-109589532D01*
X151610728Y-109670422D01*
X151688740Y-109760180D01*
X151729219Y-109780367D01*
X151762379Y-109811135D01*
X152064915Y-109997311D01*
X152064752Y-110184187D01*
X152282757Y-110711800D01*
X152686077Y-111115824D01*
X153213309Y-111334750D01*
X153784187Y-111335248D01*
X154311800Y-111117243D01*
X154715824Y-110713923D01*
X154934750Y-110186691D01*
X154935248Y-109615813D01*
X154717243Y-109088200D01*
X154313923Y-108684176D01*
X153786691Y-108465250D01*
X153215813Y-108464752D01*
X152943666Y-108577201D01*
X152819202Y-108500607D01*
X152635000Y-108178254D01*
X152635000Y-107680053D01*
X153002736Y-107925767D01*
X153551887Y-108035000D01*
X153608113Y-108035000D01*
X154157264Y-107925767D01*
X154622811Y-107614698D01*
X154933880Y-107149151D01*
X155043113Y-106600000D01*
X154933880Y-106050849D01*
X154622811Y-105585302D01*
X154157264Y-105274233D01*
X153608113Y-105165000D01*
X153551887Y-105165000D01*
X153002736Y-105274233D01*
X152635000Y-105519947D01*
X152635000Y-105406926D01*
X154136219Y-103640786D01*
X154199350Y-103527430D01*
X154271439Y-103419541D01*
X154278108Y-103386014D01*
X154294740Y-103356150D01*
X154309687Y-103227259D01*
X154335000Y-103100000D01*
X154335000Y-102500000D01*
X154271439Y-102180459D01*
X154241847Y-102136172D01*
X154250434Y-102130434D01*
X155990434Y-100390434D01*
X156171440Y-100119540D01*
X156235000Y-99800000D01*
X156235000Y-98300000D01*
X156216635Y-98207673D01*
X156171440Y-97980460D01*
X155990434Y-97709566D01*
X155420434Y-97139566D01*
X155149541Y-96958561D01*
X154830000Y-96895000D01*
X153080287Y-96895000D01*
X153116940Y-96714000D01*
X153116940Y-96206000D01*
X153072662Y-95970683D01*
X152978334Y-95824093D01*
X153065931Y-95695890D01*
X153116940Y-95444000D01*
X153116940Y-94936000D01*
X153072662Y-94700683D01*
X152933590Y-94484559D01*
X152721390Y-94339569D01*
X152615000Y-94318024D01*
X152615000Y-92153553D01*
X152822811Y-92014698D01*
X153133880Y-91549151D01*
X153243113Y-91000000D01*
X153133880Y-90450849D01*
X152822811Y-89985302D01*
X152357264Y-89674233D01*
X151808113Y-89565000D01*
X151751887Y-89565000D01*
X151202736Y-89674233D01*
X150737189Y-89985302D01*
X150426120Y-90450849D01*
X150316887Y-91000000D01*
X150426120Y-91549151D01*
X150737189Y-92014698D01*
X150945000Y-92153553D01*
X150945000Y-94426904D01*
X150875059Y-94471910D01*
X150730069Y-94684110D01*
X150679060Y-94936000D01*
X150679060Y-95444000D01*
X150723338Y-95679317D01*
X150817666Y-95825907D01*
X150730069Y-95954110D01*
X150679060Y-96206000D01*
X150679060Y-96714000D01*
X150723338Y-96949317D01*
X150817666Y-97095907D01*
X150730069Y-97224110D01*
X150679060Y-97476000D01*
X150679060Y-97673928D01*
X150302566Y-97297434D01*
X150278780Y-97281541D01*
X150261725Y-97258573D01*
X150095457Y-97159048D01*
X149934345Y-97051397D01*
X149906289Y-97045816D01*
X149881742Y-97031123D01*
X149547440Y-96911729D01*
X149547440Y-96800000D01*
X149503162Y-96564683D01*
X149364090Y-96348559D01*
X149151890Y-96203569D01*
X148900000Y-96152560D01*
X147481059Y-96152560D01*
X147914698Y-95862811D01*
X148053553Y-95655000D01*
X148690551Y-95655000D01*
X149003212Y-95784828D01*
X149395069Y-95785170D01*
X149757229Y-95635529D01*
X150034555Y-95358686D01*
X150184828Y-94996788D01*
X150185170Y-94604931D01*
X150035529Y-94242771D01*
X149758686Y-93965445D01*
X149396788Y-93815172D01*
X149004931Y-93814830D01*
X148642771Y-93964471D01*
X148622206Y-93985000D01*
X148053553Y-93985000D01*
X147914698Y-93777189D01*
X147449151Y-93466120D01*
X146900000Y-93356887D01*
X146350849Y-93466120D01*
X145885302Y-93777189D01*
X145574233Y-94242736D01*
X145465000Y-94791887D01*
X145465000Y-94848113D01*
X145574233Y-95397264D01*
X145885302Y-95862811D01*
X146350849Y-96173880D01*
X146900000Y-96283113D01*
X146944303Y-96274301D01*
X146848559Y-96335910D01*
X146703569Y-96548110D01*
X146652560Y-96800000D01*
X146652560Y-98400000D01*
X146696838Y-98635317D01*
X146835910Y-98851441D01*
X146842548Y-98855977D01*
X146653035Y-99383223D01*
X146680222Y-99953454D01*
X146846136Y-100354005D01*
X147092255Y-100428139D01*
X147920395Y-99600000D01*
X147906252Y-99585858D01*
X148085858Y-99406253D01*
X148100000Y-99420395D01*
X148114143Y-99406253D01*
X148293748Y-99585858D01*
X148279605Y-99600000D01*
X148293748Y-99614143D01*
X148114142Y-99793748D01*
X148100000Y-99779605D01*
X147271861Y-100607745D01*
X147345995Y-100853864D01*
X147801531Y-101017601D01*
X146854132Y-101965000D01*
X143542882Y-101965000D01*
X143422811Y-101785302D01*
X142957264Y-101474233D01*
X142408113Y-101365000D01*
X142351887Y-101365000D01*
X141802736Y-101474233D01*
X141337189Y-101785302D01*
X141026120Y-102250849D01*
X140916887Y-102800000D01*
X141026120Y-103349151D01*
X141337189Y-103814698D01*
X141802736Y-104125767D01*
X142351887Y-104235000D01*
X142408113Y-104235000D01*
X142957264Y-104125767D01*
X143422811Y-103814698D01*
X143542882Y-103635000D01*
X147200000Y-103635000D01*
X147519541Y-103571439D01*
X147790434Y-103390434D01*
X148565161Y-102615707D01*
X148564752Y-103084187D01*
X148782757Y-103611800D01*
X149073010Y-103902560D01*
X145500000Y-103902560D01*
X145264683Y-103946838D01*
X145048559Y-104085910D01*
X144903569Y-104298110D01*
X144852560Y-104550000D01*
X144852560Y-106550000D01*
X144896838Y-106785317D01*
X145035910Y-107001441D01*
X145248110Y-107146431D01*
X145500000Y-107197440D01*
X146265000Y-107197440D01*
X146265000Y-110343156D01*
X146250508Y-110352482D01*
X146209699Y-110311673D01*
X145976310Y-110215000D01*
X145385750Y-110215000D01*
X145227000Y-110373750D01*
X145227000Y-111723000D01*
X145247000Y-111723000D01*
X145247000Y-111977000D01*
X145227000Y-111977000D01*
X145227000Y-113326250D01*
X145385750Y-113485000D01*
X145976310Y-113485000D01*
X146209699Y-113388327D01*
X146251660Y-113346366D01*
X146265000Y-113355481D01*
X146265000Y-113400000D01*
X146317712Y-113665000D01*
X143527200Y-113665000D01*
X143534785Y-113646734D01*
X143535214Y-113155421D01*
X143347592Y-112701343D01*
X143206753Y-112560258D01*
X143259699Y-112538327D01*
X143438327Y-112359698D01*
X143531089Y-112135750D01*
X143715000Y-112135750D01*
X143715000Y-112976309D01*
X143811673Y-113209698D01*
X143990301Y-113388327D01*
X144223690Y-113485000D01*
X144814250Y-113485000D01*
X144973000Y-113326250D01*
X144973000Y-111977000D01*
X143873750Y-111977000D01*
X143715000Y-112135750D01*
X143531089Y-112135750D01*
X143535000Y-112126309D01*
X143535000Y-111685750D01*
X143376250Y-111527000D01*
X142427000Y-111527000D01*
X142427000Y-111547000D01*
X142173000Y-111547000D01*
X142173000Y-111527000D01*
X141223750Y-111527000D01*
X141065000Y-111685750D01*
X141065000Y-112126309D01*
X141161673Y-112359698D01*
X141340301Y-112538327D01*
X141393164Y-112560224D01*
X141253629Y-112699515D01*
X141065215Y-113153266D01*
X141064832Y-113591624D01*
X141008670Y-113788192D01*
X140995762Y-113945348D01*
X140965000Y-114100000D01*
X140977782Y-114164261D01*
X140972419Y-114229561D01*
X141020635Y-114379693D01*
X141051397Y-114534345D01*
X141087797Y-114588822D01*
X141107832Y-114651205D01*
X141209830Y-114771458D01*
X141297434Y-114902566D01*
X141997433Y-115602566D01*
X142365654Y-115848603D01*
X142800000Y-115935000D01*
X144711888Y-115935000D01*
X144711710Y-116140000D01*
X140944092Y-116140000D01*
X139860000Y-115055908D01*
X139860000Y-110673691D01*
X141065000Y-110673691D01*
X141065000Y-111114250D01*
X141223750Y-111273000D01*
X142173000Y-111273000D01*
X142173000Y-110323750D01*
X142427000Y-110323750D01*
X142427000Y-111273000D01*
X143376250Y-111273000D01*
X143535000Y-111114250D01*
X143535000Y-110723691D01*
X143715000Y-110723691D01*
X143715000Y-111564250D01*
X143873750Y-111723000D01*
X144973000Y-111723000D01*
X144973000Y-110373750D01*
X144814250Y-110215000D01*
X144223690Y-110215000D01*
X143990301Y-110311673D01*
X143811673Y-110490302D01*
X143715000Y-110723691D01*
X143535000Y-110723691D01*
X143535000Y-110673691D01*
X143438327Y-110440302D01*
X143259699Y-110261673D01*
X143026310Y-110165000D01*
X142585750Y-110165000D01*
X142427000Y-110323750D01*
X142173000Y-110323750D01*
X142014250Y-110165000D01*
X141573690Y-110165000D01*
X141340301Y-110261673D01*
X141161673Y-110440302D01*
X141065000Y-110673691D01*
X139860000Y-110673691D01*
X139860000Y-107985750D01*
X141665000Y-107985750D01*
X141665000Y-108426309D01*
X141761673Y-108659698D01*
X141940301Y-108838327D01*
X142173690Y-108935000D01*
X142614250Y-108935000D01*
X142773000Y-108776250D01*
X142773000Y-107827000D01*
X143027000Y-107827000D01*
X143027000Y-108776250D01*
X143185750Y-108935000D01*
X143626310Y-108935000D01*
X143859699Y-108838327D01*
X144038327Y-108659698D01*
X144135000Y-108426309D01*
X144135000Y-107985750D01*
X143976250Y-107827000D01*
X143027000Y-107827000D01*
X142773000Y-107827000D01*
X141823750Y-107827000D01*
X141665000Y-107985750D01*
X139860000Y-107985750D01*
X139860000Y-105944579D01*
X141664786Y-105944579D01*
X141852408Y-106398657D01*
X141993247Y-106539742D01*
X141940301Y-106561673D01*
X141761673Y-106740302D01*
X141665000Y-106973691D01*
X141665000Y-107414250D01*
X141823750Y-107573000D01*
X142773000Y-107573000D01*
X142773000Y-107553000D01*
X143027000Y-107553000D01*
X143027000Y-107573000D01*
X143976250Y-107573000D01*
X144135000Y-107414250D01*
X144135000Y-106973691D01*
X144038327Y-106740302D01*
X143859699Y-106561673D01*
X143806836Y-106539776D01*
X143946371Y-106400485D01*
X144134785Y-105946734D01*
X144135214Y-105455421D01*
X143947592Y-105001343D01*
X143600485Y-104653629D01*
X143146734Y-104465215D01*
X142655421Y-104464786D01*
X142201343Y-104652408D01*
X141853629Y-104999515D01*
X141665215Y-105453266D01*
X141664786Y-105944579D01*
X139860000Y-105944579D01*
X139860000Y-97984187D01*
X141764752Y-97984187D01*
X141982757Y-98511800D01*
X142386077Y-98915824D01*
X142913309Y-99134750D01*
X143484187Y-99135248D01*
X144011800Y-98917243D01*
X144415824Y-98513923D01*
X144634750Y-97986691D01*
X144635248Y-97415813D01*
X144417243Y-96888200D01*
X144013923Y-96484176D01*
X143486691Y-96265250D01*
X142915813Y-96264752D01*
X142388200Y-96482757D01*
X141984176Y-96886077D01*
X141765250Y-97413309D01*
X141764752Y-97984187D01*
X139860000Y-97984187D01*
X139860000Y-84349039D01*
X141288096Y-84349039D01*
X141448959Y-84737423D01*
X141824866Y-85152389D01*
X142330959Y-85391914D01*
X142553000Y-85270629D01*
X142553000Y-84127000D01*
X142807000Y-84127000D01*
X142807000Y-85270629D01*
X143029041Y-85391914D01*
X143535134Y-85152389D01*
X143911041Y-84737423D01*
X144071904Y-84349039D01*
X143949915Y-84127000D01*
X142807000Y-84127000D01*
X142553000Y-84127000D01*
X141410085Y-84127000D01*
X141288096Y-84349039D01*
X139860000Y-84349039D01*
X139860000Y-83650961D01*
X141288096Y-83650961D01*
X141410085Y-83873000D01*
X142553000Y-83873000D01*
X142553000Y-82729371D01*
X142807000Y-82729371D01*
X142807000Y-83873000D01*
X143949915Y-83873000D01*
X144071904Y-83650961D01*
X143911041Y-83262577D01*
X143535134Y-82847611D01*
X143029041Y-82608086D01*
X142807000Y-82729371D01*
X142553000Y-82729371D01*
X142330959Y-82608086D01*
X141824866Y-82847611D01*
X141448959Y-83262577D01*
X141288096Y-83650961D01*
X139860000Y-83650961D01*
X139860000Y-80891887D01*
X141565000Y-80891887D01*
X141565000Y-80948113D01*
X141674233Y-81497264D01*
X141985302Y-81962811D01*
X142450849Y-82273880D01*
X143000000Y-82383113D01*
X143549151Y-82273880D01*
X143635389Y-82216257D01*
X144365000Y-82945868D01*
X144365000Y-85113000D01*
X142878392Y-88680859D01*
X142650849Y-88726120D01*
X142185302Y-89037189D01*
X141874233Y-89502736D01*
X141765000Y-90051887D01*
X141765000Y-90108113D01*
X141874233Y-90657264D01*
X142185302Y-91122811D01*
X142650849Y-91433880D01*
X143200000Y-91543113D01*
X143749151Y-91433880D01*
X144214698Y-91122811D01*
X144525767Y-90657264D01*
X144635000Y-90108113D01*
X144635000Y-90051887D01*
X144525767Y-89502736D01*
X144414496Y-89336208D01*
X145186171Y-87484187D01*
X145464752Y-87484187D01*
X145682757Y-88011800D01*
X146086077Y-88415824D01*
X146613309Y-88634750D01*
X147184187Y-88635248D01*
X147711800Y-88417243D01*
X148115824Y-88013923D01*
X148301166Y-87567570D01*
X150085244Y-86735000D01*
X150637164Y-86735000D01*
X150426120Y-87050849D01*
X150316887Y-87600000D01*
X150426120Y-88149151D01*
X150737189Y-88614698D01*
X151202736Y-88925767D01*
X151751887Y-89035000D01*
X151808113Y-89035000D01*
X152180133Y-88961001D01*
X157413000Y-94193868D01*
X157413000Y-94350973D01*
X157225059Y-94471910D01*
X157080069Y-94684110D01*
X157029060Y-94936000D01*
X157029060Y-95036291D01*
X156758686Y-94765445D01*
X156396788Y-94615172D01*
X156004931Y-94614830D01*
X155642771Y-94764471D01*
X155365445Y-95041314D01*
X155215172Y-95403212D01*
X155214830Y-95795069D01*
X155364471Y-96157229D01*
X155641314Y-96434555D01*
X156003212Y-96584828D01*
X156003961Y-96584829D01*
X156469566Y-97050434D01*
X156740460Y-97231440D01*
X157060000Y-97295000D01*
X157065713Y-97295000D01*
X157029060Y-97476000D01*
X157029060Y-97984000D01*
X157073338Y-98219317D01*
X157164104Y-98360371D01*
X157138173Y-98386302D01*
X157041500Y-98619691D01*
X157041500Y-98714250D01*
X157200250Y-98873000D01*
X158121000Y-98873000D01*
X158121000Y-98853000D01*
X158375000Y-98853000D01*
X158375000Y-98873000D01*
X159295750Y-98873000D01*
X159454500Y-98714250D01*
X159454500Y-98619691D01*
X159431846Y-98565000D01*
X161750000Y-98565000D01*
X162069541Y-98501439D01*
X162340434Y-98320434D01*
X164164582Y-96496286D01*
X164400000Y-96543113D01*
X164949151Y-96433880D01*
X165414698Y-96122811D01*
X165725767Y-95657264D01*
X165835000Y-95108113D01*
X165835000Y-95051887D01*
X165725767Y-94502736D01*
X165414698Y-94037189D01*
X164949151Y-93726120D01*
X164400000Y-93616887D01*
X163850849Y-93726120D01*
X163385302Y-94037189D01*
X163074233Y-94502736D01*
X162965000Y-95051887D01*
X162965000Y-95108113D01*
X163002499Y-95296633D01*
X162714880Y-95584252D01*
X162846965Y-95216777D01*
X162819778Y-94646546D01*
X162653864Y-94245995D01*
X162407745Y-94171861D01*
X161579605Y-95000000D01*
X161593748Y-95014142D01*
X161414142Y-95193748D01*
X161400000Y-95179605D01*
X160571861Y-96007745D01*
X160645995Y-96253864D01*
X161183223Y-96446965D01*
X161753454Y-96419778D01*
X161968379Y-96330753D01*
X161404132Y-96895000D01*
X159430287Y-96895000D01*
X159466940Y-96714000D01*
X159466940Y-96206000D01*
X159422662Y-95970683D01*
X159328334Y-95824093D01*
X159415931Y-95695890D01*
X159466940Y-95444000D01*
X159466940Y-94936000D01*
X159438193Y-94783223D01*
X159953035Y-94783223D01*
X159980222Y-95353454D01*
X160146136Y-95754005D01*
X160392255Y-95828139D01*
X161220395Y-95000000D01*
X160392255Y-94171861D01*
X160146136Y-94245995D01*
X159953035Y-94783223D01*
X159438193Y-94783223D01*
X159422662Y-94700683D01*
X159283590Y-94484559D01*
X159083000Y-94347502D01*
X159083000Y-93992255D01*
X160571861Y-93992255D01*
X161400000Y-94820395D01*
X162228139Y-93992255D01*
X162154005Y-93746136D01*
X161616777Y-93553035D01*
X161046546Y-93580222D01*
X160645995Y-93746136D01*
X160571861Y-93992255D01*
X159083000Y-93992255D01*
X159083000Y-93848000D01*
X159019439Y-93528459D01*
X158838434Y-93257566D01*
X153465055Y-87884187D01*
X157964752Y-87884187D01*
X158182757Y-88411800D01*
X158586077Y-88815824D01*
X159113309Y-89034750D01*
X159684187Y-89035248D01*
X160211800Y-88817243D01*
X160224098Y-88804966D01*
X160765000Y-89345868D01*
X160765000Y-90545800D01*
X160617243Y-90188200D01*
X160213923Y-89784176D01*
X159686691Y-89565250D01*
X159115813Y-89564752D01*
X158588200Y-89782757D01*
X158184176Y-90186077D01*
X157965250Y-90713309D01*
X157964752Y-91284187D01*
X158182757Y-91811800D01*
X158586077Y-92215824D01*
X159113309Y-92434750D01*
X159684187Y-92435248D01*
X160211800Y-92217243D01*
X160615824Y-91813923D01*
X160765000Y-91454668D01*
X160765000Y-91500000D01*
X160828561Y-91819541D01*
X160949140Y-92000000D01*
X161009566Y-92090434D01*
X161509566Y-92590434D01*
X161780460Y-92771440D01*
X162100000Y-92835000D01*
X162688513Y-92835000D01*
X162899515Y-93046371D01*
X163353266Y-93234785D01*
X163844579Y-93235214D01*
X164298657Y-93047592D01*
X164646371Y-92700485D01*
X164834785Y-92246734D01*
X164835214Y-91755421D01*
X164647592Y-91301343D01*
X164506753Y-91160258D01*
X164559699Y-91138327D01*
X164738327Y-90959698D01*
X164835000Y-90726309D01*
X164835000Y-90285750D01*
X164676250Y-90127000D01*
X163727000Y-90127000D01*
X163727000Y-90147000D01*
X163473000Y-90147000D01*
X163473000Y-90127000D01*
X163453000Y-90127000D01*
X163453000Y-89873000D01*
X163473000Y-89873000D01*
X163473000Y-88923750D01*
X163727000Y-88923750D01*
X163727000Y-89873000D01*
X164676250Y-89873000D01*
X164835000Y-89714250D01*
X164835000Y-89273691D01*
X164738327Y-89040302D01*
X164559699Y-88861673D01*
X164326310Y-88765000D01*
X163885750Y-88765000D01*
X163727000Y-88923750D01*
X163473000Y-88923750D01*
X163314250Y-88765000D01*
X162873690Y-88765000D01*
X162640301Y-88861673D01*
X162461673Y-89040302D01*
X162435000Y-89104696D01*
X162435000Y-89000000D01*
X162371439Y-88680459D01*
X162190434Y-88409566D01*
X160790434Y-87009566D01*
X160677541Y-86934134D01*
X160617243Y-86788200D01*
X160213923Y-86384176D01*
X159686691Y-86165250D01*
X159115813Y-86164752D01*
X158588200Y-86382757D01*
X158184176Y-86786077D01*
X157965250Y-87313309D01*
X157964752Y-87884187D01*
X153465055Y-87884187D01*
X153232786Y-87651918D01*
X153243113Y-87600000D01*
X153133880Y-87050849D01*
X152922836Y-86735000D01*
X154242386Y-86735000D01*
X154603212Y-86884828D01*
X154995069Y-86885170D01*
X155357229Y-86735529D01*
X155634555Y-86458686D01*
X155784828Y-86096788D01*
X155785170Y-85704931D01*
X155635529Y-85342771D01*
X155358686Y-85065445D01*
X155132921Y-84971699D01*
X155147440Y-84900000D01*
X155147440Y-84449039D01*
X159928096Y-84449039D01*
X160088959Y-84837423D01*
X160464866Y-85252389D01*
X160970959Y-85491914D01*
X161193000Y-85370629D01*
X161193000Y-84227000D01*
X161447000Y-84227000D01*
X161447000Y-85370629D01*
X161669041Y-85491914D01*
X162175134Y-85252389D01*
X162551041Y-84837423D01*
X162711904Y-84449039D01*
X162589915Y-84227000D01*
X161447000Y-84227000D01*
X161193000Y-84227000D01*
X160050085Y-84227000D01*
X159928096Y-84449039D01*
X155147440Y-84449039D01*
X155147440Y-83750961D01*
X159928096Y-83750961D01*
X160050085Y-83973000D01*
X161193000Y-83973000D01*
X161193000Y-82829371D01*
X161447000Y-82829371D01*
X161447000Y-83973000D01*
X162589915Y-83973000D01*
X162711904Y-83750961D01*
X162652587Y-83607745D01*
X163271861Y-83607745D01*
X163345995Y-83853864D01*
X163883223Y-84046965D01*
X164453454Y-84019778D01*
X164854005Y-83853864D01*
X164928139Y-83607745D01*
X164100000Y-82779605D01*
X163271861Y-83607745D01*
X162652587Y-83607745D01*
X162551041Y-83362577D01*
X162175134Y-82947611D01*
X161669041Y-82708086D01*
X161447000Y-82829371D01*
X161193000Y-82829371D01*
X160970959Y-82708086D01*
X160464866Y-82947611D01*
X160088959Y-83362577D01*
X159928096Y-83750961D01*
X155147440Y-83750961D01*
X155147440Y-83300000D01*
X155103162Y-83064683D01*
X154964090Y-82848559D01*
X154751890Y-82703569D01*
X154500000Y-82652560D01*
X152900000Y-82652560D01*
X152664683Y-82696838D01*
X152448559Y-82835910D01*
X152303569Y-83048110D01*
X152252560Y-83300000D01*
X152252560Y-84900000D01*
X152283607Y-85065000D01*
X151687473Y-85065000D01*
X151696431Y-85051890D01*
X151747440Y-84800000D01*
X151747440Y-83200000D01*
X151703162Y-82964683D01*
X151590800Y-82790068D01*
X151840434Y-82540434D01*
X152021439Y-82269541D01*
X152085000Y-81950000D01*
X152085000Y-81463436D01*
X152423461Y-81125564D01*
X152519976Y-80893130D01*
X152615169Y-81123515D01*
X153004436Y-81513461D01*
X153513298Y-81724759D01*
X154064285Y-81725240D01*
X154573515Y-81514831D01*
X154963461Y-81125564D01*
X155059976Y-80893130D01*
X155155169Y-81123515D01*
X155544436Y-81513461D01*
X156053298Y-81724759D01*
X156604285Y-81725240D01*
X157113515Y-81514831D01*
X157503461Y-81125564D01*
X157714759Y-80616702D01*
X157715240Y-80065715D01*
X157605450Y-79800000D01*
X162652560Y-79800000D01*
X162652560Y-81400000D01*
X162696838Y-81635317D01*
X162835910Y-81851441D01*
X162842548Y-81855977D01*
X162653035Y-82383223D01*
X162680222Y-82953454D01*
X162846136Y-83354005D01*
X163092255Y-83428139D01*
X163920395Y-82600000D01*
X163906252Y-82585858D01*
X164085858Y-82406253D01*
X164100000Y-82420395D01*
X164114143Y-82406253D01*
X164293748Y-82585858D01*
X164279605Y-82600000D01*
X165107745Y-83428139D01*
X165353864Y-83354005D01*
X165546965Y-82816777D01*
X165519778Y-82246546D01*
X165357616Y-81855053D01*
X165496431Y-81651890D01*
X165547440Y-81400000D01*
X165547440Y-79800000D01*
X165503162Y-79564683D01*
X165364090Y-79348559D01*
X165151890Y-79203569D01*
X164900000Y-79152560D01*
X163300000Y-79152560D01*
X163064683Y-79196838D01*
X162848559Y-79335910D01*
X162703569Y-79548110D01*
X162652560Y-79800000D01*
X157605450Y-79800000D01*
X157504831Y-79556485D01*
X157133993Y-79185000D01*
X157314250Y-79185000D01*
X157473000Y-79026250D01*
X157473000Y-77927000D01*
X157727000Y-77927000D01*
X157727000Y-79026250D01*
X157885750Y-79185000D01*
X158476309Y-79185000D01*
X158709698Y-79088327D01*
X158888327Y-78909699D01*
X158985000Y-78676310D01*
X158985000Y-78085750D01*
X158826250Y-77927000D01*
X157727000Y-77927000D01*
X157473000Y-77927000D01*
X157453000Y-77927000D01*
X157453000Y-77673000D01*
X157473000Y-77673000D01*
X157473000Y-76573750D01*
X157727000Y-76573750D01*
X157727000Y-77673000D01*
X158826250Y-77673000D01*
X158985000Y-77514250D01*
X158985000Y-76923690D01*
X158888327Y-76690301D01*
X158709698Y-76511673D01*
X158476309Y-76415000D01*
X157885750Y-76415000D01*
X157727000Y-76573750D01*
X157473000Y-76573750D01*
X157314250Y-76415000D01*
X156723691Y-76415000D01*
X156490302Y-76511673D01*
X156311673Y-76690301D01*
X156215000Y-76923690D01*
X156215000Y-77059863D01*
X156031517Y-77008088D01*
X155239605Y-77800000D01*
X156031517Y-78591912D01*
X156215000Y-78540137D01*
X156215000Y-78676310D01*
X156311673Y-78909699D01*
X156356997Y-78955023D01*
X156055715Y-78954760D01*
X155546485Y-79165169D01*
X155156539Y-79554436D01*
X155060024Y-79786870D01*
X154964831Y-79556485D01*
X154575564Y-79166539D01*
X154066702Y-78955241D01*
X153515715Y-78954760D01*
X153006485Y-79165169D01*
X152616539Y-79554436D01*
X152520024Y-79786870D01*
X152424831Y-79556485D01*
X152035564Y-79166539D01*
X151526702Y-78955241D01*
X150975715Y-78954760D01*
X150466485Y-79165169D01*
X150076539Y-79554436D01*
X149980024Y-79786870D01*
X149884831Y-79556485D01*
X149495564Y-79166539D01*
X148986702Y-78955241D01*
X148435715Y-78954760D01*
X147926485Y-79165169D01*
X147536539Y-79554436D01*
X147325241Y-80063298D01*
X147324760Y-80614285D01*
X147535169Y-81123515D01*
X147924436Y-81513461D01*
X148433298Y-81724759D01*
X148984285Y-81725240D01*
X149493515Y-81514831D01*
X149883461Y-81125564D01*
X149979976Y-80893130D01*
X150075169Y-81123515D01*
X150415000Y-81463939D01*
X150415000Y-81604132D01*
X149709566Y-82309566D01*
X149547203Y-82552560D01*
X149500000Y-82552560D01*
X149264683Y-82596838D01*
X149048559Y-82735910D01*
X148903569Y-82948110D01*
X148852560Y-83200000D01*
X148852560Y-84800000D01*
X148896838Y-85035317D01*
X149035910Y-85251441D01*
X149149267Y-85328895D01*
X147723829Y-85994099D01*
X147713923Y-85984176D01*
X147186691Y-85765250D01*
X146615813Y-85764752D01*
X146088200Y-85982757D01*
X145684176Y-86386077D01*
X145465250Y-86913309D01*
X145464752Y-87484187D01*
X145186171Y-87484187D01*
X145970769Y-85601154D01*
X145970945Y-85600281D01*
X145971439Y-85599541D01*
X146003062Y-85440565D01*
X146034998Y-85281746D01*
X146034826Y-85280873D01*
X146035000Y-85280000D01*
X146035000Y-82600000D01*
X146023152Y-82540434D01*
X145971440Y-82280460D01*
X145790434Y-82009566D01*
X144375965Y-80595097D01*
X144325767Y-80342736D01*
X144014698Y-79877189D01*
X143549151Y-79566120D01*
X143000000Y-79456887D01*
X142450849Y-79566120D01*
X141985302Y-79877189D01*
X141674233Y-80342736D01*
X141565000Y-80891887D01*
X139860000Y-80891887D01*
X139860000Y-78095069D01*
X140414830Y-78095069D01*
X140564471Y-78457229D01*
X140841314Y-78734555D01*
X141203212Y-78884828D01*
X141595069Y-78885170D01*
X141957229Y-78735529D01*
X141957759Y-78735000D01*
X145742386Y-78735000D01*
X146103212Y-78884828D01*
X146495069Y-78885170D01*
X146857229Y-78735529D01*
X147134555Y-78458686D01*
X147284828Y-78096788D01*
X147284847Y-78074285D01*
X148594760Y-78074285D01*
X148805169Y-78583515D01*
X149194436Y-78973461D01*
X149703298Y-79184759D01*
X150254285Y-79185240D01*
X150763515Y-78974831D01*
X151153461Y-78585564D01*
X151249976Y-78353130D01*
X151345169Y-78583515D01*
X151734436Y-78973461D01*
X152243298Y-79184759D01*
X152794285Y-79185240D01*
X153303515Y-78974831D01*
X153507183Y-78771517D01*
X154268088Y-78771517D01*
X154336077Y-79012460D01*
X154855171Y-79197201D01*
X155405448Y-79169230D01*
X155783923Y-79012460D01*
X155851912Y-78771517D01*
X155060000Y-77979605D01*
X154268088Y-78771517D01*
X153507183Y-78771517D01*
X153693461Y-78585564D01*
X153783377Y-78369021D01*
X153847540Y-78523923D01*
X154088483Y-78591912D01*
X154880395Y-77800000D01*
X154088483Y-77008088D01*
X153847540Y-77076077D01*
X153788268Y-77242621D01*
X153694831Y-77016485D01*
X153507157Y-76828483D01*
X154268088Y-76828483D01*
X155060000Y-77620395D01*
X155851912Y-76828483D01*
X155783923Y-76587540D01*
X155264829Y-76402799D01*
X154714552Y-76430770D01*
X154336077Y-76587540D01*
X154268088Y-76828483D01*
X153507157Y-76828483D01*
X153305564Y-76626539D01*
X152796702Y-76415241D01*
X152245715Y-76414760D01*
X151736485Y-76625169D01*
X151346539Y-77014436D01*
X151250024Y-77246870D01*
X151154831Y-77016485D01*
X150765564Y-76626539D01*
X150256702Y-76415241D01*
X149705715Y-76414760D01*
X149196485Y-76625169D01*
X148806539Y-77014436D01*
X148595241Y-77523298D01*
X148594760Y-78074285D01*
X147284847Y-78074285D01*
X147285170Y-77704931D01*
X147135529Y-77342771D01*
X146858686Y-77065445D01*
X146496788Y-76915172D01*
X146104931Y-76914830D01*
X145742771Y-77064471D01*
X145742241Y-77065000D01*
X141957614Y-77065000D01*
X141596788Y-76915172D01*
X141204931Y-76914830D01*
X140842771Y-77064471D01*
X140565445Y-77341314D01*
X140415172Y-77703212D01*
X140414830Y-78095069D01*
X139860000Y-78095069D01*
X139860000Y-74307745D01*
X142171861Y-74307745D01*
X142245995Y-74553864D01*
X142783223Y-74746965D01*
X143353454Y-74719778D01*
X143754005Y-74553864D01*
X143828139Y-74307745D01*
X143000000Y-73479605D01*
X142171861Y-74307745D01*
X139860000Y-74307745D01*
X139860000Y-73083223D01*
X141553035Y-73083223D01*
X141580222Y-73653454D01*
X141746136Y-74054005D01*
X141992255Y-74128139D01*
X142820395Y-73300000D01*
X143179605Y-73300000D01*
X144007745Y-74128139D01*
X144253864Y-74054005D01*
X144446965Y-73516777D01*
X144419778Y-72946546D01*
X144253864Y-72545995D01*
X144007745Y-72471861D01*
X143179605Y-73300000D01*
X142820395Y-73300000D01*
X141992255Y-72471861D01*
X141746136Y-72545995D01*
X141553035Y-73083223D01*
X139860000Y-73083223D01*
X139860000Y-72292255D01*
X142171861Y-72292255D01*
X143000000Y-73120395D01*
X143828139Y-72292255D01*
X143754005Y-72046136D01*
X143216777Y-71853035D01*
X142646546Y-71880222D01*
X142245995Y-72046136D01*
X142171861Y-72292255D01*
X139860000Y-72292255D01*
X139860000Y-71394092D01*
X141444092Y-69810000D01*
X145380861Y-69810000D01*
X145135730Y-70054703D01*
G36*
X153314132Y-100705000D02*
X153081846Y-100705000D01*
X153104500Y-100650309D01*
X153104500Y-100555750D01*
X152945750Y-100397000D01*
X152025000Y-100397000D01*
X152025000Y-100417000D01*
X151771000Y-100417000D01*
X151771000Y-100397000D01*
X151751000Y-100397000D01*
X151751000Y-100143000D01*
X151771000Y-100143000D01*
X151771000Y-100135000D01*
X152025000Y-100135000D01*
X152025000Y-100143000D01*
X152945750Y-100143000D01*
X152953750Y-100135000D01*
X153400000Y-100135000D01*
X153834346Y-100048603D01*
X153870273Y-100024598D01*
X154082032Y-99937100D01*
X153314132Y-100705000D01*
X153314132Y-100705000D01*
G37*
X153314132Y-100705000D02*
X153081846Y-100705000D01*
X153104500Y-100650309D01*
X153104500Y-100555750D01*
X152945750Y-100397000D01*
X152025000Y-100397000D01*
X152025000Y-100417000D01*
X151771000Y-100417000D01*
X151771000Y-100397000D01*
X151751000Y-100397000D01*
X151751000Y-100143000D01*
X151771000Y-100143000D01*
X151771000Y-100135000D01*
X152025000Y-100135000D01*
X152025000Y-100143000D01*
X152945750Y-100143000D01*
X152953750Y-100135000D01*
X153400000Y-100135000D01*
X153834346Y-100048603D01*
X153870273Y-100024598D01*
X154082032Y-99937100D01*
X153314132Y-100705000D01*
M02*
