G04 #@! TF.FileFunction,Legend,Bot*
%FSLAX46Y46*%
G04 Gerber Fmt 4.6, Leading zero omitted, Abs format (unit mm)*
G04 Created by KiCad (PCBNEW 4.0.6) date 12/15/18 02:38:58*
%MOMM*%
%LPD*%
G01*
G04 APERTURE LIST*
%ADD10C,0.100000*%
%ADD11C,0.300000*%
G04 APERTURE END LIST*
D10*
D11*
X141321429Y-106814285D02*
X141321429Y-105957142D01*
X139821429Y-106385713D02*
X141321429Y-106385713D01*
X139821429Y-104599999D02*
X140535714Y-105099999D01*
X139821429Y-105457142D02*
X141321429Y-105457142D01*
X141321429Y-104885714D01*
X141250000Y-104742856D01*
X141178571Y-104671428D01*
X141035714Y-104599999D01*
X140821429Y-104599999D01*
X140678571Y-104671428D01*
X140607143Y-104742856D01*
X140535714Y-104885714D01*
X140535714Y-105457142D01*
X141321429Y-103671428D02*
X141321429Y-103528571D01*
X141250000Y-103385714D01*
X141178571Y-103314285D01*
X141035714Y-103242856D01*
X140750000Y-103171428D01*
X140392857Y-103171428D01*
X140107143Y-103242856D01*
X139964286Y-103314285D01*
X139892857Y-103385714D01*
X139821429Y-103528571D01*
X139821429Y-103671428D01*
X139892857Y-103814285D01*
X139964286Y-103885714D01*
X140107143Y-103957142D01*
X140392857Y-104028571D01*
X140750000Y-104028571D01*
X141035714Y-103957142D01*
X141178571Y-103885714D01*
X141250000Y-103814285D01*
X141321429Y-103671428D01*
X141321429Y-101885714D02*
X141321429Y-102171428D01*
X141250000Y-102314285D01*
X141178571Y-102385714D01*
X140964286Y-102528571D01*
X140678571Y-102600000D01*
X140107143Y-102600000D01*
X139964286Y-102528571D01*
X139892857Y-102457143D01*
X139821429Y-102314285D01*
X139821429Y-102028571D01*
X139892857Y-101885714D01*
X139964286Y-101814285D01*
X140107143Y-101742857D01*
X140464286Y-101742857D01*
X140607143Y-101814285D01*
X140678571Y-101885714D01*
X140750000Y-102028571D01*
X140750000Y-102314285D01*
X140678571Y-102457143D01*
X140607143Y-102528571D01*
X140464286Y-102600000D01*
X140392857Y-99957143D02*
X140392857Y-98814286D01*
X139821429Y-96242857D02*
X139821429Y-96957143D01*
X141321429Y-96957143D01*
X139821429Y-95742857D02*
X140821429Y-95742857D01*
X141321429Y-95742857D02*
X141250000Y-95814286D01*
X141178571Y-95742857D01*
X141250000Y-95671429D01*
X141321429Y-95742857D01*
X141178571Y-95742857D01*
X140821429Y-95242857D02*
X140821429Y-94671428D01*
X141321429Y-95028571D02*
X140035714Y-95028571D01*
X139892857Y-94957143D01*
X139821429Y-94814285D01*
X139821429Y-94671428D01*
X139821429Y-94171428D02*
X140821429Y-94171428D01*
X141321429Y-94171428D02*
X141250000Y-94242857D01*
X141178571Y-94171428D01*
X141250000Y-94100000D01*
X141321429Y-94171428D01*
X141178571Y-94171428D01*
X139821429Y-93242856D02*
X139892857Y-93385714D01*
X139964286Y-93457142D01*
X140107143Y-93528571D01*
X140535714Y-93528571D01*
X140678571Y-93457142D01*
X140750000Y-93385714D01*
X140821429Y-93242856D01*
X140821429Y-93028571D01*
X140750000Y-92885714D01*
X140678571Y-92814285D01*
X140535714Y-92742856D01*
X140107143Y-92742856D01*
X139964286Y-92814285D01*
X139892857Y-92885714D01*
X139821429Y-93028571D01*
X139821429Y-93242856D01*
X139821429Y-91885713D02*
X139892857Y-92028571D01*
X139964286Y-92099999D01*
X140107143Y-92171428D01*
X140535714Y-92171428D01*
X140678571Y-92099999D01*
X140750000Y-92028571D01*
X140821429Y-91885713D01*
X140821429Y-91671428D01*
X140750000Y-91528571D01*
X140678571Y-91457142D01*
X140535714Y-91385713D01*
X140107143Y-91385713D01*
X139964286Y-91457142D01*
X139892857Y-91528571D01*
X139821429Y-91671428D01*
X139821429Y-91885713D01*
X140392857Y-89599999D02*
X140392857Y-88457142D01*
X141178571Y-86671428D02*
X141250000Y-86599999D01*
X141321429Y-86457142D01*
X141321429Y-86099999D01*
X141250000Y-85957142D01*
X141178571Y-85885713D01*
X141035714Y-85814285D01*
X140892857Y-85814285D01*
X140678571Y-85885713D01*
X139821429Y-86742856D01*
X139821429Y-85814285D01*
X141321429Y-84885714D02*
X141321429Y-84742857D01*
X141250000Y-84600000D01*
X141178571Y-84528571D01*
X141035714Y-84457142D01*
X140750000Y-84385714D01*
X140392857Y-84385714D01*
X140107143Y-84457142D01*
X139964286Y-84528571D01*
X139892857Y-84600000D01*
X139821429Y-84742857D01*
X139821429Y-84885714D01*
X139892857Y-85028571D01*
X139964286Y-85100000D01*
X140107143Y-85171428D01*
X140392857Y-85242857D01*
X140750000Y-85242857D01*
X141035714Y-85171428D01*
X141178571Y-85100000D01*
X141250000Y-85028571D01*
X141321429Y-84885714D01*
X139821429Y-82957143D02*
X139821429Y-83814286D01*
X139821429Y-83385714D02*
X141321429Y-83385714D01*
X141107143Y-83528571D01*
X140964286Y-83671429D01*
X140892857Y-83814286D01*
X140678571Y-82100000D02*
X140750000Y-82242858D01*
X140821429Y-82314286D01*
X140964286Y-82385715D01*
X141035714Y-82385715D01*
X141178571Y-82314286D01*
X141250000Y-82242858D01*
X141321429Y-82100000D01*
X141321429Y-81814286D01*
X141250000Y-81671429D01*
X141178571Y-81600000D01*
X141035714Y-81528572D01*
X140964286Y-81528572D01*
X140821429Y-81600000D01*
X140750000Y-81671429D01*
X140678571Y-81814286D01*
X140678571Y-82100000D01*
X140607143Y-82242858D01*
X140535714Y-82314286D01*
X140392857Y-82385715D01*
X140107143Y-82385715D01*
X139964286Y-82314286D01*
X139892857Y-82242858D01*
X139821429Y-82100000D01*
X139821429Y-81814286D01*
X139892857Y-81671429D01*
X139964286Y-81600000D01*
X140107143Y-81528572D01*
X140392857Y-81528572D01*
X140535714Y-81600000D01*
X140607143Y-81671429D01*
X140678571Y-81814286D01*
M02*
