G04 #@! TF.FileFunction,Paste,Top*
%FSLAX46Y46*%
G04 Gerber Fmt 4.6, Leading zero omitted, Abs format (unit mm)*
G04 Created by KiCad (PCBNEW 4.0.6) date 03/07/19 03:04:05*
%MOMM*%
%LPD*%
G01*
G04 APERTURE LIST*
%ADD10C,0.100000*%
%ADD11R,0.550000X1.500000*%
%ADD12R,1.500000X0.550000*%
%ADD13R,2.000000X1.700000*%
%ADD14R,1.550000X0.600000*%
%ADD15R,0.508000X1.143000*%
%ADD16R,1.143000X0.508000*%
%ADD17R,0.800000X1.900000*%
%ADD18R,1.250000X1.500000*%
%ADD19R,1.500000X1.250000*%
%ADD20R,1.300000X1.500000*%
%ADD21R,1.500000X1.300000*%
G04 APERTURE END LIST*
D10*
D11*
X147850000Y-91140000D03*
X147050000Y-91140000D03*
X146250000Y-91140000D03*
X145450000Y-91140000D03*
X144650000Y-91140000D03*
X143850000Y-91140000D03*
X143050000Y-91140000D03*
X142250000Y-91140000D03*
X141450000Y-91140000D03*
X140650000Y-91140000D03*
X139850000Y-91140000D03*
X139050000Y-91140000D03*
X138250000Y-91140000D03*
X137450000Y-91140000D03*
X136650000Y-91140000D03*
X135850000Y-91140000D03*
D12*
X134150000Y-92840000D03*
X134150000Y-93640000D03*
X134150000Y-94440000D03*
X134150000Y-95240000D03*
X134150000Y-96040000D03*
X134150000Y-96840000D03*
X134150000Y-97640000D03*
X134150000Y-98440000D03*
X134150000Y-99240000D03*
X134150000Y-100040000D03*
X134150000Y-100840000D03*
X134150000Y-101640000D03*
X134150000Y-102440000D03*
X134150000Y-103240000D03*
X134150000Y-104040000D03*
X134150000Y-104840000D03*
D11*
X135850000Y-106540000D03*
X136650000Y-106540000D03*
X137450000Y-106540000D03*
X138250000Y-106540000D03*
X139050000Y-106540000D03*
X139850000Y-106540000D03*
X140650000Y-106540000D03*
X141450000Y-106540000D03*
X142250000Y-106540000D03*
X143050000Y-106540000D03*
X143850000Y-106540000D03*
X144650000Y-106540000D03*
X145450000Y-106540000D03*
X146250000Y-106540000D03*
X147050000Y-106540000D03*
X147850000Y-106540000D03*
D12*
X149550000Y-104840000D03*
X149550000Y-104040000D03*
X149550000Y-103240000D03*
X149550000Y-102440000D03*
X149550000Y-101640000D03*
X149550000Y-100840000D03*
X149550000Y-100040000D03*
X149550000Y-99240000D03*
X149550000Y-98440000D03*
X149550000Y-97640000D03*
X149550000Y-96840000D03*
X149550000Y-96040000D03*
X149550000Y-95240000D03*
X149550000Y-94440000D03*
X149550000Y-93640000D03*
X149550000Y-92840000D03*
D13*
X90300000Y-100500000D03*
X94300000Y-100500000D03*
X94300000Y-97600000D03*
X90300000Y-97600000D03*
X94300000Y-103400000D03*
X90300000Y-103400000D03*
D14*
X106450000Y-124875000D03*
X106450000Y-123605000D03*
X106450000Y-122335000D03*
X106450000Y-121065000D03*
X101050000Y-121065000D03*
X101050000Y-122335000D03*
X101050000Y-123605000D03*
X101050000Y-124875000D03*
D13*
X187100000Y-118900000D03*
X183100000Y-118900000D03*
X179700000Y-118900000D03*
X175700000Y-118900000D03*
D15*
X159490000Y-85102000D03*
X160760000Y-85102000D03*
X162030000Y-85102000D03*
X163300000Y-85102000D03*
X164570000Y-85102000D03*
X165840000Y-85102000D03*
X167110000Y-85102000D03*
X167110000Y-78752000D03*
X165840000Y-78752000D03*
X163300000Y-78752000D03*
X162030000Y-78752000D03*
X160760000Y-78752000D03*
X159490000Y-78752000D03*
X164570000Y-78752000D03*
D16*
X132998000Y-75990000D03*
X132998000Y-77260000D03*
X132998000Y-78530000D03*
X132998000Y-79800000D03*
X132998000Y-81070000D03*
X132998000Y-82340000D03*
X132998000Y-83610000D03*
X139348000Y-83610000D03*
X139348000Y-82340000D03*
X139348000Y-79800000D03*
X139348000Y-78530000D03*
X139348000Y-77260000D03*
X139348000Y-75990000D03*
X139348000Y-81070000D03*
D17*
X93350000Y-115300000D03*
X95250000Y-115300000D03*
X94300000Y-112300000D03*
D18*
X162300000Y-117550000D03*
X162300000Y-120050000D03*
X165300000Y-117550000D03*
X165300000Y-120050000D03*
X168300000Y-117550000D03*
X168300000Y-120050000D03*
D19*
X131250000Y-98500000D03*
X128750000Y-98500000D03*
X152250000Y-102400000D03*
X154750000Y-102400000D03*
D18*
X137400000Y-88350000D03*
X137400000Y-85850000D03*
X136700000Y-109550000D03*
X136700000Y-112050000D03*
X144600000Y-109550000D03*
X144600000Y-112050000D03*
D19*
X154450000Y-95900000D03*
X151950000Y-95900000D03*
X106425000Y-127050000D03*
X103925000Y-127050000D03*
X173650000Y-99300000D03*
X176150000Y-99300000D03*
X173650000Y-96700000D03*
X176150000Y-96700000D03*
D20*
X156700000Y-99150000D03*
X156700000Y-96450000D03*
D21*
X124450000Y-110300000D03*
X127150000Y-110300000D03*
X97650000Y-125800000D03*
X94950000Y-125800000D03*
X94950000Y-122800000D03*
X97650000Y-122800000D03*
D20*
X110300000Y-124450000D03*
X110300000Y-127150000D03*
X188600000Y-98450000D03*
X188600000Y-95750000D03*
X113300000Y-124450000D03*
X113300000Y-127150000D03*
D21*
X164150000Y-96800000D03*
X166850000Y-96800000D03*
X164150000Y-98900000D03*
X166850000Y-98900000D03*
X161750000Y-96800000D03*
X159050000Y-96800000D03*
X161750000Y-98900000D03*
X159050000Y-98900000D03*
M02*
