G04 #@! TF.FileFunction,Soldermask,Top*
%FSLAX46Y46*%
G04 Gerber Fmt 4.6, Leading zero omitted, Abs format (unit mm)*
G04 Created by KiCad (PCBNEW 4.0.6) date 03/05/19 04:52:06*
%MOMM*%
%LPD*%
G01*
G04 APERTURE LIST*
%ADD10C,0.100000*%
%ADD11R,0.950000X1.900000*%
%ADD12R,1.900000X0.950000*%
%ADD13C,4.050000*%
%ADD14R,1.900000X1.900000*%
%ADD15C,1.900000*%
%ADD16R,2.000000X2.000000*%
%ADD17C,2.000000*%
%ADD18R,2.100000X2.100000*%
%ADD19O,2.100000X2.100000*%
%ADD20R,2.127200X2.127200*%
%ADD21O,2.127200X2.127200*%
%ADD22R,2.400000X2.100000*%
%ADD23R,1.950000X1.000000*%
%ADD24R,3.900000X3.900000*%
%ADD25R,2.200000X2.200000*%
%ADD26C,2.200000*%
%ADD27R,0.908000X1.543000*%
%ADD28R,1.543000X0.908000*%
%ADD29R,1.200000X2.300000*%
%ADD30C,2.750000*%
%ADD31R,1.650000X1.900000*%
%ADD32R,1.900000X1.650000*%
%ADD33R,2.800000X2.800000*%
%ADD34C,2.800000*%
%ADD35R,1.700000X1.900000*%
%ADD36R,1.900000X1.700000*%
%ADD37C,3.900000*%
%ADD38O,2.200000X2.200000*%
%ADD39C,3.000000*%
%ADD40R,1.750000X2.200000*%
%ADD41O,1.750000X2.200000*%
%ADD42O,2.000000X2.000000*%
%ADD43C,2.400000*%
%ADD44O,2.400000X2.400000*%
G04 APERTURE END LIST*
D10*
D11*
X147850000Y-91140000D03*
X147050000Y-91140000D03*
X146250000Y-91140000D03*
X145450000Y-91140000D03*
X144650000Y-91140000D03*
X143850000Y-91140000D03*
X143050000Y-91140000D03*
X142250000Y-91140000D03*
X141450000Y-91140000D03*
X140650000Y-91140000D03*
X139850000Y-91140000D03*
X139050000Y-91140000D03*
X138250000Y-91140000D03*
X137450000Y-91140000D03*
X136650000Y-91140000D03*
X135850000Y-91140000D03*
D12*
X134150000Y-92840000D03*
X134150000Y-93640000D03*
X134150000Y-94440000D03*
X134150000Y-95240000D03*
X134150000Y-96040000D03*
X134150000Y-96840000D03*
X134150000Y-97640000D03*
X134150000Y-98440000D03*
X134150000Y-99240000D03*
X134150000Y-100040000D03*
X134150000Y-100840000D03*
X134150000Y-101640000D03*
X134150000Y-102440000D03*
X134150000Y-103240000D03*
X134150000Y-104040000D03*
X134150000Y-104840000D03*
D11*
X135850000Y-106540000D03*
X136650000Y-106540000D03*
X137450000Y-106540000D03*
X138250000Y-106540000D03*
X139050000Y-106540000D03*
X139850000Y-106540000D03*
X140650000Y-106540000D03*
X141450000Y-106540000D03*
X142250000Y-106540000D03*
X143050000Y-106540000D03*
X143850000Y-106540000D03*
X144650000Y-106540000D03*
X145450000Y-106540000D03*
X146250000Y-106540000D03*
X147050000Y-106540000D03*
X147850000Y-106540000D03*
D12*
X149550000Y-104840000D03*
X149550000Y-104040000D03*
X149550000Y-103240000D03*
X149550000Y-102440000D03*
X149550000Y-101640000D03*
X149550000Y-100840000D03*
X149550000Y-100040000D03*
X149550000Y-99240000D03*
X149550000Y-98440000D03*
X149550000Y-97640000D03*
X149550000Y-96840000D03*
X149550000Y-96040000D03*
X149550000Y-95240000D03*
X149550000Y-94440000D03*
X149550000Y-93640000D03*
X149550000Y-92840000D03*
D13*
X183820000Y-63250000D03*
X195690000Y-63250000D03*
D14*
X194200000Y-69600000D03*
D15*
X192930000Y-72140000D03*
X191660000Y-69600000D03*
X190390000Y-72140000D03*
X189120000Y-69600000D03*
X187850000Y-72140000D03*
X186580000Y-69600000D03*
X185310000Y-72140000D03*
D16*
X95300000Y-91800000D03*
D17*
X92800000Y-91800000D03*
D16*
X115800000Y-114300000D03*
D17*
X113300000Y-114300000D03*
D16*
X122800000Y-114300000D03*
D17*
X120300000Y-114300000D03*
D16*
X164000000Y-91800000D03*
D17*
X166500000Y-91800000D03*
D16*
X130800000Y-113800000D03*
D17*
X128300000Y-113800000D03*
D18*
X134300000Y-122800000D03*
D19*
X136840000Y-122800000D03*
X139380000Y-122800000D03*
X141920000Y-122800000D03*
D18*
X157600000Y-115200000D03*
D19*
X160140000Y-115200000D03*
X162680000Y-115200000D03*
X165220000Y-115200000D03*
X167760000Y-115200000D03*
D20*
X181000000Y-93400000D03*
D21*
X183540000Y-93400000D03*
X181000000Y-95940000D03*
X183540000Y-95940000D03*
X181000000Y-98480000D03*
X183540000Y-98480000D03*
D13*
X167420000Y-63250000D03*
X179290000Y-63250000D03*
D14*
X177800000Y-69600000D03*
D15*
X176530000Y-72140000D03*
X175260000Y-69600000D03*
X173990000Y-72140000D03*
X172720000Y-69600000D03*
X171450000Y-72140000D03*
X170180000Y-69600000D03*
X168910000Y-72140000D03*
D13*
X151020000Y-63250000D03*
X162890000Y-63250000D03*
D14*
X161400000Y-69600000D03*
D15*
X160130000Y-72140000D03*
X158860000Y-69600000D03*
X157590000Y-72140000D03*
X156320000Y-69600000D03*
X155050000Y-72140000D03*
X153780000Y-69600000D03*
X152510000Y-72140000D03*
D13*
X134620000Y-63250000D03*
X146490000Y-63250000D03*
D14*
X145000000Y-69600000D03*
D15*
X143730000Y-72140000D03*
X142460000Y-69600000D03*
X141190000Y-72140000D03*
X139920000Y-69600000D03*
X138650000Y-72140000D03*
X137380000Y-69600000D03*
X136110000Y-72140000D03*
D13*
X118220000Y-63250000D03*
X130090000Y-63250000D03*
D14*
X128600000Y-69600000D03*
D15*
X127330000Y-72140000D03*
X126060000Y-69600000D03*
X124790000Y-72140000D03*
X123520000Y-69600000D03*
X122250000Y-72140000D03*
X120980000Y-69600000D03*
X119710000Y-72140000D03*
D13*
X101820000Y-63250000D03*
X113690000Y-63250000D03*
D14*
X112200000Y-69600000D03*
D15*
X110930000Y-72140000D03*
X109660000Y-69600000D03*
X108390000Y-72140000D03*
X107120000Y-69600000D03*
X105850000Y-72140000D03*
X104580000Y-69600000D03*
X103310000Y-72140000D03*
D22*
X90300000Y-100500000D03*
X94300000Y-100500000D03*
X94300000Y-97600000D03*
X90300000Y-97600000D03*
X94300000Y-103400000D03*
X90300000Y-103400000D03*
D23*
X106450000Y-124875000D03*
X106450000Y-123605000D03*
X106450000Y-122335000D03*
X106450000Y-121065000D03*
X101050000Y-121065000D03*
X101050000Y-122335000D03*
X101050000Y-123605000D03*
X101050000Y-124875000D03*
D24*
X94600000Y-67600000D03*
X94600000Y-61600000D03*
X89900000Y-64600000D03*
D18*
X115300000Y-120800000D03*
D19*
X112760000Y-120800000D03*
X110220000Y-120800000D03*
D25*
X184500000Y-114800000D03*
D26*
X184500000Y-112260000D03*
D25*
X177000000Y-114800000D03*
D26*
X177000000Y-112260000D03*
D22*
X187100000Y-118900000D03*
X183100000Y-118900000D03*
X179700000Y-118900000D03*
X175700000Y-118900000D03*
D27*
X159490000Y-85102000D03*
X160760000Y-85102000D03*
X162030000Y-85102000D03*
X163300000Y-85102000D03*
X164570000Y-85102000D03*
X165840000Y-85102000D03*
X167110000Y-85102000D03*
X167110000Y-78752000D03*
X165840000Y-78752000D03*
X163300000Y-78752000D03*
X162030000Y-78752000D03*
X160760000Y-78752000D03*
X159490000Y-78752000D03*
X164570000Y-78752000D03*
D28*
X132998000Y-75990000D03*
X132998000Y-77260000D03*
X132998000Y-78530000D03*
X132998000Y-79800000D03*
X132998000Y-81070000D03*
X132998000Y-82340000D03*
X132998000Y-83610000D03*
X139348000Y-83610000D03*
X139348000Y-82340000D03*
X139348000Y-79800000D03*
X139348000Y-78530000D03*
X139348000Y-77260000D03*
X139348000Y-75990000D03*
X139348000Y-81070000D03*
D29*
X93350000Y-115300000D03*
X95250000Y-115300000D03*
X94300000Y-112300000D03*
D18*
X101300000Y-116800000D03*
D19*
X103840000Y-116800000D03*
X106380000Y-116800000D03*
D18*
X90300000Y-118800000D03*
D19*
X92840000Y-118800000D03*
X95380000Y-118800000D03*
D18*
X170800000Y-99300000D03*
D19*
X170800000Y-96760000D03*
D18*
X167050000Y-106300000D03*
D19*
X169590000Y-106300000D03*
X172130000Y-106300000D03*
X174670000Y-106300000D03*
D30*
X93620000Y-74200000D03*
X93620000Y-79280000D03*
X78300000Y-74200000D03*
X78300000Y-79280000D03*
D18*
X83300000Y-112800000D03*
D19*
X83300000Y-110260000D03*
X83300000Y-107720000D03*
X83300000Y-105180000D03*
X83300000Y-102640000D03*
X83300000Y-100100000D03*
D31*
X162300000Y-117550000D03*
X162300000Y-120050000D03*
X165300000Y-117550000D03*
X165300000Y-120050000D03*
X168300000Y-117550000D03*
X168300000Y-120050000D03*
D32*
X131250000Y-98500000D03*
X128750000Y-98500000D03*
X152250000Y-102400000D03*
X154750000Y-102400000D03*
D31*
X137400000Y-88350000D03*
X137400000Y-85850000D03*
X136700000Y-109550000D03*
X136700000Y-112050000D03*
X144600000Y-109550000D03*
X144600000Y-112050000D03*
D32*
X154450000Y-95900000D03*
X151950000Y-95900000D03*
D33*
X80300000Y-87800000D03*
D34*
X85300000Y-87800000D03*
D32*
X106425000Y-127050000D03*
X103925000Y-127050000D03*
X173650000Y-99300000D03*
X176150000Y-99300000D03*
X173650000Y-96700000D03*
X176150000Y-96700000D03*
D35*
X156700000Y-99150000D03*
X156700000Y-96450000D03*
D36*
X124450000Y-110300000D03*
X127150000Y-110300000D03*
X97650000Y-125800000D03*
X94950000Y-125800000D03*
X94950000Y-122800000D03*
X97650000Y-122800000D03*
D35*
X110300000Y-124450000D03*
X110300000Y-127150000D03*
X188600000Y-98450000D03*
X188600000Y-95750000D03*
X113300000Y-124450000D03*
X113300000Y-127150000D03*
D36*
X164150000Y-96800000D03*
X166850000Y-96800000D03*
X164150000Y-98900000D03*
X166850000Y-98900000D03*
X161750000Y-96800000D03*
X159050000Y-96800000D03*
D37*
X85800000Y-123000000D03*
X200400000Y-123000000D03*
X200400000Y-68800000D03*
X85800000Y-68800000D03*
D36*
X161750000Y-98900000D03*
X159050000Y-98900000D03*
D25*
X90300000Y-107800000D03*
D38*
X92840000Y-107800000D03*
X95380000Y-107800000D03*
D25*
X102300000Y-82800000D03*
D38*
X107380000Y-82800000D03*
D39*
X121300000Y-96200000D03*
X121300000Y-101200000D03*
D40*
X101300000Y-87800000D03*
D41*
X103000000Y-87800000D03*
X104700000Y-87800000D03*
X106400000Y-87800000D03*
X108100000Y-87800000D03*
D33*
X117300000Y-82600000D03*
D34*
X117300000Y-90100000D03*
D17*
X100300000Y-97800000D03*
D42*
X110460000Y-97800000D03*
D17*
X100300000Y-91800000D03*
D42*
X110460000Y-91800000D03*
D17*
X100300000Y-94800000D03*
D42*
X110460000Y-94800000D03*
D16*
X107300000Y-102800000D03*
D17*
X109800000Y-102800000D03*
D16*
X95300000Y-84800000D03*
D17*
X92800000Y-84800000D03*
D43*
X119900000Y-77000000D03*
D44*
X114820000Y-77000000D03*
D16*
X114300000Y-106200000D03*
D17*
X114300000Y-103700000D03*
D16*
X102300000Y-102800000D03*
D17*
X102300000Y-105300000D03*
D16*
X77300000Y-109800000D03*
D17*
X77300000Y-107300000D03*
D16*
X172300000Y-77800000D03*
D17*
X174800000Y-77800000D03*
D16*
X188300000Y-77800000D03*
D17*
X190800000Y-77800000D03*
D16*
X152300000Y-77800000D03*
D17*
X154800000Y-77800000D03*
D16*
X106300000Y-76800000D03*
D17*
X108800000Y-76800000D03*
D16*
X126300000Y-77800000D03*
D17*
X128800000Y-77800000D03*
D16*
X143300000Y-77800000D03*
D17*
X145800000Y-77800000D03*
M02*
