G04 #@! TF.FileFunction,Soldermask,Bot*
%FSLAX46Y46*%
G04 Gerber Fmt 4.6, Leading zero omitted, Abs format (unit mm)*
G04 Created by KiCad (PCBNEW 4.0.6) date 08/29/19 03:52:50*
%MOMM*%
%LPD*%
G01*
G04 APERTURE LIST*
%ADD10C,0.100000*%
%ADD11C,4.050000*%
%ADD12R,1.900000X1.900000*%
%ADD13C,1.900000*%
%ADD14R,2.000000X2.000000*%
%ADD15C,2.000000*%
%ADD16R,2.100000X2.100000*%
%ADD17O,2.100000X2.100000*%
%ADD18R,2.127200X2.127200*%
%ADD19O,2.127200X2.127200*%
%ADD20R,3.900000X3.900000*%
%ADD21R,2.200000X2.200000*%
%ADD22C,2.200000*%
%ADD23C,2.750000*%
%ADD24R,2.800000X2.800000*%
%ADD25C,2.800000*%
%ADD26C,3.900000*%
%ADD27O,2.200000X2.200000*%
%ADD28C,3.000000*%
%ADD29R,1.750000X2.200000*%
%ADD30O,1.750000X2.200000*%
%ADD31O,2.000000X2.000000*%
%ADD32C,2.400000*%
%ADD33O,2.400000X2.400000*%
%ADD34R,3.600000X3.600000*%
%ADD35O,3.600000X3.600000*%
G04 APERTURE END LIST*
D10*
D11*
X183820000Y-63250000D03*
X195690000Y-63250000D03*
D12*
X194200000Y-69600000D03*
D13*
X192930000Y-72140000D03*
X191660000Y-69600000D03*
X190390000Y-72140000D03*
X189120000Y-69600000D03*
X187850000Y-72140000D03*
X186580000Y-69600000D03*
X185310000Y-72140000D03*
D14*
X95300000Y-91800000D03*
D15*
X92800000Y-91800000D03*
D14*
X115800000Y-114300000D03*
D15*
X113300000Y-114300000D03*
D14*
X122800000Y-114300000D03*
D15*
X120300000Y-114300000D03*
D14*
X164000000Y-91800000D03*
D15*
X166500000Y-91800000D03*
D14*
X130800000Y-113800000D03*
D15*
X128300000Y-113800000D03*
D16*
X134300000Y-122800000D03*
D17*
X136840000Y-122800000D03*
X139380000Y-122800000D03*
X141920000Y-122800000D03*
D16*
X157600000Y-115200000D03*
D17*
X160140000Y-115200000D03*
X162680000Y-115200000D03*
X165220000Y-115200000D03*
X167760000Y-115200000D03*
D18*
X181000000Y-93400000D03*
D19*
X183540000Y-93400000D03*
X181000000Y-95940000D03*
X183540000Y-95940000D03*
X181000000Y-98480000D03*
X183540000Y-98480000D03*
D11*
X167420000Y-63250000D03*
X179290000Y-63250000D03*
D12*
X177800000Y-69600000D03*
D13*
X176530000Y-72140000D03*
X175260000Y-69600000D03*
X173990000Y-72140000D03*
X172720000Y-69600000D03*
X171450000Y-72140000D03*
X170180000Y-69600000D03*
X168910000Y-72140000D03*
D11*
X151020000Y-63250000D03*
X162890000Y-63250000D03*
D12*
X161400000Y-69600000D03*
D13*
X160130000Y-72140000D03*
X158860000Y-69600000D03*
X157590000Y-72140000D03*
X156320000Y-69600000D03*
X155050000Y-72140000D03*
X153780000Y-69600000D03*
X152510000Y-72140000D03*
D11*
X134620000Y-63250000D03*
X146490000Y-63250000D03*
D12*
X145000000Y-69600000D03*
D13*
X143730000Y-72140000D03*
X142460000Y-69600000D03*
X141190000Y-72140000D03*
X139920000Y-69600000D03*
X138650000Y-72140000D03*
X137380000Y-69600000D03*
X136110000Y-72140000D03*
D11*
X118220000Y-63250000D03*
X130090000Y-63250000D03*
D12*
X128600000Y-69600000D03*
D13*
X127330000Y-72140000D03*
X126060000Y-69600000D03*
X124790000Y-72140000D03*
X123520000Y-69600000D03*
X122250000Y-72140000D03*
X120980000Y-69600000D03*
X119710000Y-72140000D03*
D11*
X101820000Y-63250000D03*
X113690000Y-63250000D03*
D12*
X112200000Y-69600000D03*
D13*
X110930000Y-72140000D03*
X109660000Y-69600000D03*
X108390000Y-72140000D03*
X107120000Y-69600000D03*
X105850000Y-72140000D03*
X104580000Y-69600000D03*
X103310000Y-72140000D03*
D20*
X94600000Y-67600000D03*
X94600000Y-61600000D03*
X89900000Y-64600000D03*
D16*
X115300000Y-120800000D03*
D17*
X112760000Y-120800000D03*
X110220000Y-120800000D03*
D21*
X184500000Y-114800000D03*
D22*
X184500000Y-112260000D03*
D21*
X177000000Y-114800000D03*
D22*
X177000000Y-112260000D03*
D16*
X101300000Y-116800000D03*
D17*
X103840000Y-116800000D03*
X106380000Y-116800000D03*
D16*
X90300000Y-118800000D03*
D17*
X92840000Y-118800000D03*
X95380000Y-118800000D03*
D16*
X170800000Y-99300000D03*
D17*
X170800000Y-96760000D03*
D16*
X167050000Y-106300000D03*
D17*
X169590000Y-106300000D03*
X172130000Y-106300000D03*
X174670000Y-106300000D03*
D23*
X93620000Y-74200000D03*
X93620000Y-79280000D03*
X78300000Y-74200000D03*
X78300000Y-79280000D03*
D16*
X83300000Y-112800000D03*
D17*
X83300000Y-110260000D03*
X83300000Y-107720000D03*
X83300000Y-105180000D03*
X83300000Y-102640000D03*
X83300000Y-100100000D03*
D24*
X80300000Y-87800000D03*
D25*
X85300000Y-87800000D03*
D26*
X85800000Y-123000000D03*
X200400000Y-123000000D03*
X200400000Y-68800000D03*
X85800000Y-68800000D03*
D21*
X90300000Y-107800000D03*
D27*
X92840000Y-107800000D03*
X95380000Y-107800000D03*
D28*
X121300000Y-96200000D03*
X121300000Y-101200000D03*
D29*
X101370000Y-83680000D03*
D30*
X103070000Y-83680000D03*
X104770000Y-83680000D03*
X106470000Y-83680000D03*
X108170000Y-83680000D03*
D24*
X117300000Y-82600000D03*
D25*
X117300000Y-90100000D03*
D15*
X100250000Y-95580000D03*
D31*
X110410000Y-95580000D03*
D15*
X100140000Y-88960000D03*
D31*
X110300000Y-88960000D03*
D15*
X100280000Y-92450000D03*
D31*
X110440000Y-92450000D03*
D14*
X107590000Y-100810000D03*
D15*
X110090000Y-100810000D03*
D14*
X95300000Y-84800000D03*
D15*
X92800000Y-84800000D03*
D32*
X119900000Y-77000000D03*
D33*
X114820000Y-77000000D03*
D14*
X114530000Y-103780000D03*
D15*
X114530000Y-101280000D03*
D14*
X100470000Y-100090000D03*
D15*
X102970000Y-100090000D03*
D14*
X77300000Y-109800000D03*
D15*
X77300000Y-107300000D03*
D14*
X172300000Y-77800000D03*
D15*
X174800000Y-77800000D03*
D14*
X188300000Y-77800000D03*
D15*
X190800000Y-77800000D03*
D14*
X152300000Y-77800000D03*
D15*
X154800000Y-77800000D03*
D14*
X106300000Y-76800000D03*
D15*
X108800000Y-76800000D03*
D14*
X126300000Y-77800000D03*
D15*
X128800000Y-77800000D03*
D14*
X143300000Y-77800000D03*
D15*
X145800000Y-77800000D03*
D34*
X100810000Y-108180000D03*
D35*
X116050000Y-108180000D03*
M02*
