M48
;DRILL file {KiCad 4.0.6} date 03/07/19 03:04:09
;FORMAT={2:4/ absolute / inch / keep zeros}
FMAT,2
INCH,TZ
T1C0.012
T2C0.025
T3C0.031
T4C0.035
T5C0.039
T6C0.040
T7C0.047
T8C0.051
T9C0.053
T10C0.128
T11C0.138
%
G90
G05
M72
T1
X037913Y-037165
X037913Y-037480
X038307Y-045197
X041063Y-039291
X041063Y-039685
X042835Y-048740
X043110Y-039291
X043110Y-039685
X043622Y-044311
X043898Y-031496
X044016Y-048937
X045197Y-049035
X045984Y-046280
X046496Y-034252
X046673Y-046280
X047461Y-043622
X050512Y-032126
X051791Y-041063
X051850Y-027953
X051890Y-040571
X051988Y-039980
X052244Y-037874
X052244Y-038268
X052244Y-042205
X052874Y-041949
X052953Y-030472
X053583Y-036929
X053898Y-046535
X054055Y-032441
X054055Y-040669
X054252Y-046181
X054449Y-041457
X054744Y-041260
X055315Y-035276
X055433Y-041358
X055630Y-031732
X055630Y-032756
X055709Y-035354
X056024Y-032835
X056024Y-035039
X056220Y-042638
X056417Y-036693
X056654Y-035512
X056890Y-034803
X057598Y-035197
X057913Y-035197
X058071Y-032126
X058780Y-030787
X058780Y-031890
X059370Y-038504
X059567Y-039094
X059764Y-038701
X060276Y-035748
X060512Y-036850
X060591Y-035984
X061063Y-032441
X062008Y-030709
X062402Y-034488
X062693Y-039630
X062953Y-026063
X063268Y-034016
X063652Y-032197
X063819Y-031575
X063898Y-036063
X063976Y-030394
X064606Y-028504
X064685Y-034803
X064843Y-033937
X065315Y-033071
X065787Y-030551
X068622Y-026693
X069016Y-031260
X069252Y-033780
X069331Y-026063
X069724Y-048661
X070591Y-039094
X070591Y-039882
X073740Y-039488
T2
X036339Y-044016
X036339Y-044409
X037913Y-038504
X037913Y-044409
X039094Y-047559
X041260Y-033583
X041850Y-050709
X044606Y-050709
X049646Y-023465
X049646Y-024882
X049646Y-026220
X051890Y-032894
X052874Y-029941
X052874Y-031417
X053465Y-038701
X054055Y-036535
X054055Y-041260
X054350Y-030433
X054350Y-031909
X056260Y-023307
X057008Y-041260
X058071Y-037874
X058189Y-040472
X060748Y-037323
X062323Y-033583
X062559Y-023465
X063307Y-030531
X063976Y-047874
X064291Y-032992
X064783Y-030531
X065079Y-047874
X066260Y-033484
X066260Y-038110
X066260Y-047953
X068937Y-023465
X070000Y-038110
T3
X030433Y-042244
X030433Y-043228
X036535Y-033386
X036535Y-036142
X037520Y-033386
X037520Y-036142
X039488Y-036142
X039488Y-037323
X039488Y-038504
X040276Y-040472
X040276Y-041457
X041850Y-030236
X042244Y-040472
X042835Y-030236
X043228Y-040472
X043488Y-036142
X043488Y-037323
X043488Y-038504
X044606Y-045000
X045000Y-040827
X045000Y-041811
X045591Y-045000
X047362Y-045000
X048346Y-045000
X049724Y-030630
X050512Y-044803
X050709Y-030630
X051496Y-044803
X056417Y-030630
X057402Y-030630
X059961Y-030630
X060945Y-030630
X064567Y-036142
X065551Y-036142
X067835Y-030630
X068819Y-030630
X074134Y-030630
X075118Y-030630
T4
X040673Y-028402
X041173Y-027402
X041673Y-028402
X042173Y-027402
X042673Y-028402
X043173Y-027402
X043673Y-028402
X044173Y-027402
X047130Y-028402
X047630Y-027402
X048130Y-028402
X048630Y-027402
X049130Y-028402
X049630Y-027402
X050130Y-028402
X050630Y-027402
X053587Y-028402
X054087Y-027402
X054587Y-028402
X055087Y-027402
X055587Y-028402
X056087Y-027402
X056587Y-028402
X057087Y-027402
X060043Y-028402
X060543Y-027402
X061043Y-028402
X061543Y-027402
X062043Y-028402
X062543Y-027402
X063043Y-028402
X063543Y-027402
X066500Y-028402
X067000Y-027402
X067500Y-028402
X068000Y-027402
X068500Y-028402
X069000Y-027402
X069500Y-028402
X069685Y-044197
X069685Y-045197
X070000Y-027402
X072638Y-044197
X072638Y-045197
X072957Y-028402
X073457Y-027402
X073957Y-028402
X074457Y-027402
X074957Y-028402
X075457Y-027402
X075957Y-028402
X076457Y-027402
T5
X032795Y-039409
X032795Y-040409
X032795Y-041409
X032795Y-042409
X032795Y-043409
X032795Y-044409
X035551Y-042441
X035551Y-046772
X036551Y-042441
X036551Y-046772
X037551Y-042441
X037551Y-046772
X039882Y-034567
X039882Y-045984
X040276Y-032598
X040551Y-034567
X040882Y-045984
X041220Y-034567
X041882Y-045984
X041890Y-034567
X042276Y-032598
X042559Y-034567
X043394Y-047559
X044394Y-047559
X045205Y-030315
X045394Y-047559
X047205Y-030315
X052874Y-048346
X053874Y-048346
X054874Y-048346
X055874Y-048346
X062047Y-045354
X063047Y-045354
X064047Y-045354
X065047Y-045354
X065768Y-041850
X066047Y-045354
X066768Y-041850
X067244Y-038094
X067244Y-039094
X067768Y-041850
X068768Y-041850
T6
X071260Y-036772
X071260Y-037772
X071260Y-038772
X072260Y-036772
X072260Y-037772
X072260Y-038772
T7
X031614Y-034567
X033583Y-034567
X046181Y-032520
X046181Y-035472
T8
X047756Y-037874
X047756Y-039843
T9
X030827Y-029213
X030827Y-031213
X036858Y-029213
X036858Y-031213
T10
X040087Y-024902
X044760Y-024902
X046543Y-024902
X051217Y-024902
X053000Y-024902
X057673Y-024902
X059457Y-024902
X064130Y-024902
X065913Y-024902
X070587Y-024902
X072370Y-024902
X077043Y-024902
T11
X033780Y-027087
X033780Y-048425
X078898Y-027087
X078898Y-048425
T5
X035394Y-025039G85X035394Y-025827
G05
X037638Y-024252G85X036850Y-024252
G05
X037638Y-026614G85X036850Y-026614
G05
T0
M30
