M48
;DRILL file {KiCad 4.0.6} date 07/23/18 23:10:14
;FORMAT={-:-/ absolute / inch / decimal}
FMAT,2
INCH,TZ
T1C0.016
T2C0.035
T3C0.039
T4C0.071
T5C0.098
T6C0.128
%
G90
G05
M72
T1
X5.5394Y-3.6614
X5.561Y-2.7854
X5.7874Y-3.3661
X5.8071Y-3.6516
X5.8071Y-3.75
X5.8465Y-4.4094
X5.8898Y-3.6988
X5.9055Y-3.4547
X5.9055Y-4.0846
X5.9449Y-3.5531
X5.9547Y-4.2126
X5.9744Y-4.3898
X6.0138Y-3.6516
X6.0236Y-3.8484
X6.0236Y-3.9961
X6.0827Y-3.9173
X6.0866Y-3.75
X6.1358Y-3.6398
X6.1614Y-4.1732
X6.1713Y-4.2224
X6.1811Y-3.4547
X6.1811Y-3.9469
X6.2205Y-3.2677
X6.2205Y-4.0846
X6.3091Y-3.6457
X6.3091Y-3.8386
X6.3287Y-3.7992
X6.376Y-3.5433
X6.378Y-3.1398
X6.4173Y-3.189
X6.4272Y-3.7992
X6.4331Y-3.2559
X6.4469Y-3.6516
X6.4567Y-3.1004
X6.4764Y-3.4646
T2
X5.8567Y-3.165
X5.9067Y-3.065
X5.9567Y-3.165
X6.0067Y-3.065
X6.0567Y-3.165
X6.1067Y-3.065
X6.1567Y-3.165
X6.2067Y-3.065
T3
X5.5299Y-4.1815
X5.6299Y-4.0815
X5.6299Y-4.2815
T4
X5.848Y-4.6476
X6.0039Y-4.6476
X6.1598Y-4.6476
T5
X5.6024Y-3.1197
X5.6024Y-3.5197
X6.3976Y-4.2224
X6.3976Y-4.6224
T6
X5.798Y-2.815
X6.2654Y-2.815
T0
M30
