G04 #@! TF.FileFunction,Legend,Bot*
%FSLAX46Y46*%
G04 Gerber Fmt 4.6, Leading zero omitted, Abs format (unit mm)*
G04 Created by KiCad (PCBNEW 4.0.6) date 07/23/18 23:10:11*
%MOMM*%
%LPD*%
G01*
G04 APERTURE LIST*
%ADD10C,0.100000*%
%ADD11C,0.300000*%
G04 APERTURE END LIST*
D10*
D11*
X154882143Y-110821428D02*
X154882143Y-110321428D01*
X154096429Y-110107142D02*
X154096429Y-110821428D01*
X155596429Y-110821428D01*
X155596429Y-110107142D01*
X154239286Y-108607142D02*
X154167857Y-108678571D01*
X154096429Y-108892857D01*
X154096429Y-109035714D01*
X154167857Y-109249999D01*
X154310714Y-109392857D01*
X154453571Y-109464285D01*
X154739286Y-109535714D01*
X154953571Y-109535714D01*
X155239286Y-109464285D01*
X155382143Y-109392857D01*
X155525000Y-109249999D01*
X155596429Y-109035714D01*
X155596429Y-108892857D01*
X155525000Y-108678571D01*
X155453571Y-108607142D01*
X154667857Y-107964285D02*
X154667857Y-106821428D01*
X154096429Y-106107142D02*
X155596429Y-106107142D01*
X155596429Y-105749999D01*
X155525000Y-105535714D01*
X155382143Y-105392856D01*
X155239286Y-105321428D01*
X154953571Y-105249999D01*
X154739286Y-105249999D01*
X154453571Y-105321428D01*
X154310714Y-105392856D01*
X154167857Y-105535714D01*
X154096429Y-105749999D01*
X154096429Y-106107142D01*
X154096429Y-103892856D02*
X154096429Y-104607142D01*
X155596429Y-104607142D01*
X154096429Y-103392856D02*
X155596429Y-103392856D01*
X154525000Y-102892856D01*
X155596429Y-102392856D01*
X154096429Y-102392856D01*
X154667857Y-101678570D02*
X154667857Y-100535713D01*
X155596429Y-100035713D02*
X155596429Y-99178570D01*
X154096429Y-99607141D02*
X155596429Y-99607141D01*
X154096429Y-97821427D02*
X154810714Y-98321427D01*
X154096429Y-98678570D02*
X155596429Y-98678570D01*
X155596429Y-98107142D01*
X155525000Y-97964284D01*
X155453571Y-97892856D01*
X155310714Y-97821427D01*
X155096429Y-97821427D01*
X154953571Y-97892856D01*
X154882143Y-97964284D01*
X154810714Y-98107142D01*
X154810714Y-98678570D01*
X155596429Y-96892856D02*
X155596429Y-96749999D01*
X155525000Y-96607142D01*
X155453571Y-96535713D01*
X155310714Y-96464284D01*
X155025000Y-96392856D01*
X154667857Y-96392856D01*
X154382143Y-96464284D01*
X154239286Y-96535713D01*
X154167857Y-96607142D01*
X154096429Y-96749999D01*
X154096429Y-96892856D01*
X154167857Y-97035713D01*
X154239286Y-97107142D01*
X154382143Y-97178570D01*
X154667857Y-97249999D01*
X155025000Y-97249999D01*
X155310714Y-97178570D01*
X155453571Y-97107142D01*
X155525000Y-97035713D01*
X155596429Y-96892856D01*
X154096429Y-94964285D02*
X154096429Y-95821428D01*
X154096429Y-95392856D02*
X155596429Y-95392856D01*
X155382143Y-95535713D01*
X155239286Y-95678571D01*
X155167857Y-95821428D01*
X153525000Y-92750000D02*
X153596429Y-92821428D01*
X153810714Y-92964285D01*
X153953571Y-93035714D01*
X154167857Y-93107143D01*
X154525000Y-93178571D01*
X154810714Y-93178571D01*
X155167857Y-93107143D01*
X155382143Y-93035714D01*
X155525000Y-92964285D01*
X155739286Y-92821428D01*
X155810714Y-92750000D01*
X154096429Y-91321428D02*
X154810714Y-91821428D01*
X154096429Y-92178571D02*
X155596429Y-92178571D01*
X155596429Y-91607143D01*
X155525000Y-91464285D01*
X155453571Y-91392857D01*
X155310714Y-91321428D01*
X155096429Y-91321428D01*
X154953571Y-91392857D01*
X154882143Y-91464285D01*
X154810714Y-91607143D01*
X154810714Y-92178571D01*
X154882143Y-90678571D02*
X154882143Y-90178571D01*
X154096429Y-89964285D02*
X154096429Y-90678571D01*
X155596429Y-90678571D01*
X155596429Y-89964285D01*
X155596429Y-89535714D02*
X154096429Y-89035714D01*
X155596429Y-88535714D01*
X155596429Y-88178571D02*
X155596429Y-87178571D01*
X154096429Y-87821428D01*
X154239286Y-86607143D02*
X154167857Y-86535715D01*
X154096429Y-86607143D01*
X154167857Y-86678572D01*
X154239286Y-86607143D01*
X154096429Y-86607143D01*
X154096429Y-85107143D02*
X154096429Y-85964286D01*
X154096429Y-85535714D02*
X155596429Y-85535714D01*
X155382143Y-85678571D01*
X155239286Y-85821429D01*
X155167857Y-85964286D01*
X153525000Y-84607143D02*
X153596429Y-84535715D01*
X153810714Y-84392858D01*
X153953571Y-84321429D01*
X154167857Y-84250000D01*
X154525000Y-84178572D01*
X154810714Y-84178572D01*
X155167857Y-84250000D01*
X155382143Y-84321429D01*
X155525000Y-84392858D01*
X155739286Y-84535715D01*
X155810714Y-84607143D01*
X152332143Y-108571427D02*
X152332143Y-108071427D01*
X151546429Y-107857141D02*
X151546429Y-108571427D01*
X153046429Y-108571427D01*
X153046429Y-107857141D01*
X151546429Y-106999998D02*
X151617857Y-107142856D01*
X151760714Y-107214284D01*
X153046429Y-107214284D01*
X151617857Y-105857142D02*
X151546429Y-105999999D01*
X151546429Y-106285713D01*
X151617857Y-106428570D01*
X151760714Y-106499999D01*
X152332143Y-106499999D01*
X152475000Y-106428570D01*
X152546429Y-106285713D01*
X152546429Y-105999999D01*
X152475000Y-105857142D01*
X152332143Y-105785713D01*
X152189286Y-105785713D01*
X152046429Y-106499999D01*
X151617857Y-104499999D02*
X151546429Y-104642856D01*
X151546429Y-104928570D01*
X151617857Y-105071428D01*
X151689286Y-105142856D01*
X151832143Y-105214285D01*
X152260714Y-105214285D01*
X152403571Y-105142856D01*
X152475000Y-105071428D01*
X152546429Y-104928570D01*
X152546429Y-104642856D01*
X152475000Y-104499999D01*
X152546429Y-104071428D02*
X152546429Y-103499999D01*
X153046429Y-103857142D02*
X151760714Y-103857142D01*
X151617857Y-103785714D01*
X151546429Y-103642856D01*
X151546429Y-103499999D01*
X151546429Y-102999999D02*
X152546429Y-102999999D01*
X152260714Y-102999999D02*
X152403571Y-102928571D01*
X152475000Y-102857142D01*
X152546429Y-102714285D01*
X152546429Y-102571428D01*
X151546429Y-101857142D02*
X151617857Y-102000000D01*
X151689286Y-102071428D01*
X151832143Y-102142857D01*
X152260714Y-102142857D01*
X152403571Y-102071428D01*
X152475000Y-102000000D01*
X152546429Y-101857142D01*
X152546429Y-101642857D01*
X152475000Y-101500000D01*
X152403571Y-101428571D01*
X152260714Y-101357142D01*
X151832143Y-101357142D01*
X151689286Y-101428571D01*
X151617857Y-101500000D01*
X151546429Y-101642857D01*
X151546429Y-101857142D01*
X151689286Y-98714285D02*
X151617857Y-98785714D01*
X151546429Y-99000000D01*
X151546429Y-99142857D01*
X151617857Y-99357142D01*
X151760714Y-99500000D01*
X151903571Y-99571428D01*
X152189286Y-99642857D01*
X152403571Y-99642857D01*
X152689286Y-99571428D01*
X152832143Y-99500000D01*
X152975000Y-99357142D01*
X153046429Y-99142857D01*
X153046429Y-99000000D01*
X152975000Y-98785714D01*
X152903571Y-98714285D01*
X151546429Y-97428571D02*
X152332143Y-97428571D01*
X152475000Y-97500000D01*
X152546429Y-97642857D01*
X152546429Y-97928571D01*
X152475000Y-98071428D01*
X151617857Y-97428571D02*
X151546429Y-97571428D01*
X151546429Y-97928571D01*
X151617857Y-98071428D01*
X151760714Y-98142857D01*
X151903571Y-98142857D01*
X152046429Y-98071428D01*
X152117857Y-97928571D01*
X152117857Y-97571428D01*
X152189286Y-97428571D01*
X151617857Y-96785714D02*
X151546429Y-96642857D01*
X151546429Y-96357142D01*
X151617857Y-96214285D01*
X151760714Y-96142857D01*
X151832143Y-96142857D01*
X151975000Y-96214285D01*
X152046429Y-96357142D01*
X152046429Y-96571428D01*
X152117857Y-96714285D01*
X152260714Y-96785714D01*
X152332143Y-96785714D01*
X152475000Y-96714285D01*
X152546429Y-96571428D01*
X152546429Y-96357142D01*
X152475000Y-96214285D01*
X152546429Y-95714285D02*
X152546429Y-95142856D01*
X153046429Y-95499999D02*
X151760714Y-95499999D01*
X151617857Y-95428571D01*
X151546429Y-95285713D01*
X151546429Y-95142856D01*
X151546429Y-94428570D02*
X151617857Y-94571428D01*
X151760714Y-94642856D01*
X153046429Y-94642856D01*
X151617857Y-93285714D02*
X151546429Y-93428571D01*
X151546429Y-93714285D01*
X151617857Y-93857142D01*
X151760714Y-93928571D01*
X152332143Y-93928571D01*
X152475000Y-93857142D01*
X152546429Y-93714285D01*
X152546429Y-93428571D01*
X152475000Y-93285714D01*
X152332143Y-93214285D01*
X152189286Y-93214285D01*
X152046429Y-93928571D01*
X152903571Y-91500000D02*
X152975000Y-91428571D01*
X153046429Y-91285714D01*
X153046429Y-90928571D01*
X152975000Y-90785714D01*
X152903571Y-90714285D01*
X152760714Y-90642857D01*
X152617857Y-90642857D01*
X152403571Y-90714285D01*
X151546429Y-91571428D01*
X151546429Y-90642857D01*
X153046429Y-89714286D02*
X153046429Y-89571429D01*
X152975000Y-89428572D01*
X152903571Y-89357143D01*
X152760714Y-89285714D01*
X152475000Y-89214286D01*
X152117857Y-89214286D01*
X151832143Y-89285714D01*
X151689286Y-89357143D01*
X151617857Y-89428572D01*
X151546429Y-89571429D01*
X151546429Y-89714286D01*
X151617857Y-89857143D01*
X151689286Y-89928572D01*
X151832143Y-90000000D01*
X152117857Y-90071429D01*
X152475000Y-90071429D01*
X152760714Y-90000000D01*
X152903571Y-89928572D01*
X152975000Y-89857143D01*
X153046429Y-89714286D01*
X151546429Y-87785715D02*
X151546429Y-88642858D01*
X151546429Y-88214286D02*
X153046429Y-88214286D01*
X152832143Y-88357143D01*
X152689286Y-88500001D01*
X152617857Y-88642858D01*
X152403571Y-86928572D02*
X152475000Y-87071430D01*
X152546429Y-87142858D01*
X152689286Y-87214287D01*
X152760714Y-87214287D01*
X152903571Y-87142858D01*
X152975000Y-87071430D01*
X153046429Y-86928572D01*
X153046429Y-86642858D01*
X152975000Y-86500001D01*
X152903571Y-86428572D01*
X152760714Y-86357144D01*
X152689286Y-86357144D01*
X152546429Y-86428572D01*
X152475000Y-86500001D01*
X152403571Y-86642858D01*
X152403571Y-86928572D01*
X152332143Y-87071430D01*
X152260714Y-87142858D01*
X152117857Y-87214287D01*
X151832143Y-87214287D01*
X151689286Y-87142858D01*
X151617857Y-87071430D01*
X151546429Y-86928572D01*
X151546429Y-86642858D01*
X151617857Y-86500001D01*
X151689286Y-86428572D01*
X151832143Y-86357144D01*
X152117857Y-86357144D01*
X152260714Y-86428572D01*
X152332143Y-86500001D01*
X152403571Y-86642858D01*
M02*
