G04 #@! TF.FileFunction,Copper,L2,Bot,Signal*
%FSLAX46Y46*%
G04 Gerber Fmt 4.6, Leading zero omitted, Abs format (unit mm)*
G04 Created by KiCad (PCBNEW 4.0.6) date 07/23/18 23:10:11*
%MOMM*%
%LPD*%
G01*
G04 APERTURE LIST*
%ADD10C,0.100000*%
%ADD11C,5.001260*%
%ADD12C,3.650000*%
%ADD13R,1.500000X1.500000*%
%ADD14C,1.500000*%
%ADD15O,2.999740X5.001260*%
%ADD16R,1.700000X1.700000*%
%ADD17O,1.700000X1.700000*%
%ADD18C,0.700000*%
%ADD19C,0.400000*%
%ADD20C,0.254000*%
G04 APERTURE END LIST*
D10*
D11*
X162500000Y-107250000D03*
X162500000Y-117410000D03*
D12*
X147270000Y-71500000D03*
X159140000Y-71500000D03*
D13*
X157650000Y-77850000D03*
D14*
X156380000Y-80390000D03*
X155110000Y-77850000D03*
X153840000Y-80390000D03*
X152570000Y-77850000D03*
X151300000Y-80390000D03*
X150030000Y-77850000D03*
X148760000Y-80390000D03*
D11*
X142300000Y-89400000D03*
X142300000Y-79240000D03*
D15*
X156459860Y-118050000D03*
X152500000Y-118050000D03*
X148540140Y-118050000D03*
D16*
X143000000Y-108750000D03*
D17*
X140460000Y-106210000D03*
X143000000Y-103670000D03*
D18*
X147000000Y-85500000D03*
X141250000Y-70750000D03*
X140700000Y-93000000D03*
X163400000Y-82700000D03*
X156500000Y-106000000D03*
X152750000Y-92750000D03*
X160750000Y-96500000D03*
X163250000Y-96500000D03*
X153000000Y-97750000D03*
X153000000Y-101500000D03*
X151750000Y-111500000D03*
X148500000Y-112000000D03*
X163750000Y-92750000D03*
X160250000Y-97500000D03*
X151000000Y-90250000D03*
X150000000Y-87750000D03*
X154500000Y-99500000D03*
X155850000Y-92450000D03*
X160250000Y-92600000D03*
X161950000Y-90000000D03*
X154600000Y-95250000D03*
X149600000Y-93950000D03*
X164500000Y-88000000D03*
X147500000Y-95250000D03*
X147500000Y-92750000D03*
X162000000Y-79750000D03*
X158000000Y-83000000D03*
X151250000Y-107000000D03*
X150000000Y-103750000D03*
X157000000Y-100250000D03*
X157000000Y-87750000D03*
X158000000Y-103750000D03*
X156750000Y-107250000D03*
X163000000Y-81000000D03*
X164000000Y-78750000D03*
D19*
X162900000Y-101650000D02*
X162500000Y-107250000D01*
X159000000Y-97750000D02*
X162900000Y-101650000D01*
X159000000Y-88250000D02*
X159000000Y-97750000D01*
X156250000Y-85500000D02*
X159000000Y-88250000D01*
X147000000Y-85500000D02*
X156250000Y-85500000D01*
X160750000Y-96500000D02*
X163250000Y-96500000D01*
X153000000Y-101500000D02*
X153000000Y-97750000D01*
X149000000Y-111500000D02*
X151750000Y-111500000D01*
X148500000Y-112000000D02*
X149000000Y-111500000D01*
X159750000Y-93750000D02*
X163750000Y-92750000D01*
X159750000Y-97000000D02*
X159750000Y-93750000D01*
X160250000Y-97500000D02*
X159750000Y-97000000D01*
X151000000Y-88750000D02*
X151000000Y-90250000D01*
X150000000Y-87750000D02*
X151000000Y-88750000D01*
X148760000Y-80390000D02*
X147360000Y-80390000D01*
X152500000Y-114500000D02*
X152500000Y-118050000D01*
X151250000Y-113250000D02*
X152500000Y-114500000D01*
X147000000Y-113250000D02*
X151250000Y-113250000D01*
X146250000Y-111500000D02*
X147000000Y-113250000D01*
X146250000Y-92500000D02*
X146250000Y-111500000D01*
X146500000Y-90500000D02*
X146250000Y-92500000D01*
X147000000Y-89500000D02*
X146500000Y-90500000D01*
X146000000Y-87750000D02*
X147000000Y-89500000D01*
X146000000Y-81500000D02*
X146000000Y-87750000D01*
X147360000Y-80390000D02*
X146000000Y-81500000D01*
X148550000Y-80600000D02*
X148760000Y-80390000D01*
X148650000Y-80500000D02*
X148760000Y-80390000D01*
X155750000Y-95250000D02*
X154500000Y-99500000D01*
X155850000Y-92450000D02*
X155750000Y-95250000D01*
X160250000Y-91700000D02*
X160250000Y-92600000D01*
X161950000Y-90000000D02*
X160250000Y-91700000D01*
X150700000Y-95050000D02*
X154600000Y-95250000D01*
X149600000Y-93950000D02*
X150700000Y-95050000D01*
X156380000Y-80390000D02*
X156380000Y-83130000D01*
X161250000Y-88000000D02*
X164500000Y-88000000D01*
X156380000Y-83130000D02*
X161250000Y-88000000D01*
X156380000Y-80390000D02*
X156380000Y-80870000D01*
X156380000Y-80390000D02*
X156380000Y-80759000D01*
X156380000Y-80759000D02*
X156576000Y-80955000D01*
X147500000Y-92750000D02*
X147500000Y-95250000D01*
X161250000Y-81000000D02*
X162000000Y-79750000D01*
X160000000Y-81000000D02*
X161250000Y-81000000D01*
X158000000Y-83000000D02*
X160000000Y-81000000D01*
X151250000Y-105000000D02*
X151250000Y-107000000D01*
X150000000Y-103750000D02*
X151250000Y-105000000D01*
X157000000Y-87750000D02*
X157000000Y-100250000D01*
X158000000Y-106750000D02*
X158000000Y-103750000D01*
X156750000Y-107250000D02*
X158000000Y-106750000D01*
X164000000Y-78750000D02*
X163000000Y-81000000D01*
D20*
G36*
X145185730Y-70104703D02*
X144810428Y-71008529D01*
X144809574Y-71987177D01*
X145183298Y-72891657D01*
X145874703Y-73584270D01*
X146778529Y-73959572D01*
X147757177Y-73960426D01*
X148661657Y-73586702D01*
X149354270Y-72895297D01*
X149729572Y-71991471D01*
X149730426Y-71012823D01*
X149356702Y-70108343D01*
X149125762Y-69877000D01*
X157283831Y-69877000D01*
X157055730Y-70104703D01*
X156680428Y-71008529D01*
X156679574Y-71987177D01*
X157053298Y-72891657D01*
X157744703Y-73584270D01*
X158648529Y-73959572D01*
X159627177Y-73960426D01*
X160531657Y-73586702D01*
X160623000Y-73495518D01*
X160623000Y-76000000D01*
X160633006Y-76049410D01*
X160661447Y-76091035D01*
X160703841Y-76118315D01*
X160750000Y-76127000D01*
X165197394Y-76127000D01*
X166373000Y-77302606D01*
X166373000Y-120197394D01*
X165197394Y-121373000D01*
X145633860Y-121373000D01*
X145802070Y-118177000D01*
X146405270Y-118177000D01*
X146405270Y-119177760D01*
X146616378Y-119985072D01*
X147120361Y-120650144D01*
X147840493Y-121071724D01*
X148081328Y-121135745D01*
X148413140Y-121022795D01*
X148413140Y-118177000D01*
X146405270Y-118177000D01*
X145802070Y-118177000D01*
X145868110Y-116922240D01*
X146405270Y-116922240D01*
X146405270Y-117923000D01*
X148413140Y-117923000D01*
X148413140Y-115077205D01*
X148081328Y-114964255D01*
X147840493Y-115028276D01*
X147120361Y-115449856D01*
X146616378Y-116114928D01*
X146405270Y-116922240D01*
X145868110Y-116922240D01*
X145876824Y-116756675D01*
X145869429Y-116706807D01*
X145826200Y-116648400D01*
X144826200Y-115898400D01*
X144780668Y-115876759D01*
X144750000Y-115873000D01*
X140811039Y-115873000D01*
X139877000Y-114705452D01*
X139877000Y-107900000D01*
X141502560Y-107900000D01*
X141502560Y-109600000D01*
X141546838Y-109835317D01*
X141685910Y-110051441D01*
X141898110Y-110196431D01*
X142150000Y-110247440D01*
X143850000Y-110247440D01*
X144085317Y-110203162D01*
X144301441Y-110064090D01*
X144446431Y-109851890D01*
X144497440Y-109600000D01*
X144497440Y-107900000D01*
X144453162Y-107664683D01*
X144314090Y-107448559D01*
X144101890Y-107303569D01*
X143850000Y-107252560D01*
X142150000Y-107252560D01*
X141914683Y-107296838D01*
X141698559Y-107435910D01*
X141553569Y-107648110D01*
X141502560Y-107900000D01*
X139877000Y-107900000D01*
X139877000Y-107584821D01*
X140430907Y-107695000D01*
X140489093Y-107695000D01*
X141057378Y-107581961D01*
X141539147Y-107260054D01*
X141861054Y-106778285D01*
X141974093Y-106210000D01*
X141861054Y-105641715D01*
X141539147Y-105159946D01*
X141057378Y-104838039D01*
X140489093Y-104725000D01*
X140430907Y-104725000D01*
X139877000Y-104835179D01*
X139877000Y-103670000D01*
X141485907Y-103670000D01*
X141598946Y-104238285D01*
X141920853Y-104720054D01*
X142402622Y-105041961D01*
X142970907Y-105155000D01*
X143029093Y-105155000D01*
X143597378Y-105041961D01*
X144079147Y-104720054D01*
X144401054Y-104238285D01*
X144514093Y-103670000D01*
X144401054Y-103101715D01*
X144079147Y-102619946D01*
X143597378Y-102298039D01*
X143029093Y-102185000D01*
X142970907Y-102185000D01*
X142402622Y-102298039D01*
X141920853Y-102619946D01*
X141598946Y-103101715D01*
X141485907Y-103670000D01*
X139877000Y-103670000D01*
X139877000Y-91411093D01*
X140521489Y-92056708D01*
X141673548Y-92535085D01*
X142920979Y-92536173D01*
X144073871Y-92059808D01*
X144956708Y-91178511D01*
X145435085Y-90026452D01*
X145436173Y-88779021D01*
X144959808Y-87626129D01*
X144078511Y-86743292D01*
X142926452Y-86264915D01*
X141679021Y-86263827D01*
X140526129Y-86740192D01*
X139877000Y-87388189D01*
X139877000Y-81251093D01*
X140521489Y-81896708D01*
X141673548Y-82375085D01*
X142920979Y-82376173D01*
X144073871Y-81899808D01*
X144474377Y-81500000D01*
X145165000Y-81500000D01*
X145165000Y-87750000D01*
X145175384Y-87802206D01*
X145171667Y-87855302D01*
X145206895Y-87960619D01*
X145228561Y-88069541D01*
X145258132Y-88113797D01*
X145275017Y-88164276D01*
X146053303Y-89526277D01*
X145753153Y-90126577D01*
X145715904Y-90262596D01*
X145671448Y-90396431D01*
X145421448Y-92396431D01*
X145425214Y-92448651D01*
X145415000Y-92500000D01*
X145415000Y-111500000D01*
X145416011Y-111505084D01*
X145415062Y-111510180D01*
X145447757Y-111664677D01*
X145478561Y-111819541D01*
X145481441Y-111823851D01*
X145482514Y-111828923D01*
X146232514Y-113578922D01*
X146321826Y-113709122D01*
X146409566Y-113840434D01*
X146413877Y-113843314D01*
X146416809Y-113847589D01*
X146549161Y-113933708D01*
X146680459Y-114021439D01*
X146685543Y-114022450D01*
X146689889Y-114025278D01*
X146845105Y-114054189D01*
X147000000Y-114085000D01*
X150904132Y-114085000D01*
X151665000Y-114845868D01*
X151665000Y-115027487D01*
X150990419Y-115478228D01*
X150527637Y-116170830D01*
X150506417Y-116277511D01*
X150463902Y-116114928D01*
X149959919Y-115449856D01*
X149239787Y-115028276D01*
X148998952Y-114964255D01*
X148667140Y-115077205D01*
X148667140Y-117923000D01*
X148687140Y-117923000D01*
X148687140Y-118177000D01*
X148667140Y-118177000D01*
X148667140Y-121022795D01*
X148998952Y-121135745D01*
X149239787Y-121071724D01*
X149959919Y-120650144D01*
X150463902Y-119985072D01*
X150506417Y-119822489D01*
X150527637Y-119929170D01*
X150990419Y-120621772D01*
X151683021Y-121084554D01*
X152500000Y-121247061D01*
X153316979Y-121084554D01*
X154009581Y-120621772D01*
X154472363Y-119929170D01*
X154479930Y-119891128D01*
X154487497Y-119929170D01*
X154950279Y-120621772D01*
X155642881Y-121084554D01*
X156459860Y-121247061D01*
X157276839Y-121084554D01*
X157969441Y-120621772D01*
X158432223Y-119929170D01*
X158594730Y-119112191D01*
X158594730Y-118030979D01*
X159363827Y-118030979D01*
X159840192Y-119183871D01*
X160721489Y-120066708D01*
X161873548Y-120545085D01*
X163120979Y-120546173D01*
X164273871Y-120069808D01*
X165156708Y-119188511D01*
X165635085Y-118036452D01*
X165636173Y-116789021D01*
X165159808Y-115636129D01*
X164278511Y-114753292D01*
X163126452Y-114274915D01*
X161879021Y-114273827D01*
X160726129Y-114750192D01*
X159843292Y-115631489D01*
X159364915Y-116783548D01*
X159363827Y-118030979D01*
X158594730Y-118030979D01*
X158594730Y-116987809D01*
X158432223Y-116170830D01*
X157969441Y-115478228D01*
X157276839Y-115015446D01*
X156459860Y-114852939D01*
X155642881Y-115015446D01*
X154950279Y-115478228D01*
X154487497Y-116170830D01*
X154479930Y-116208872D01*
X154472363Y-116170830D01*
X154009581Y-115478228D01*
X153335000Y-115027487D01*
X153335000Y-114500000D01*
X153271439Y-114180459D01*
X153090434Y-113909566D01*
X151840434Y-112659566D01*
X151578954Y-112484850D01*
X151945069Y-112485170D01*
X152307229Y-112335529D01*
X152584555Y-112058686D01*
X152734828Y-111696788D01*
X152735170Y-111304931D01*
X152585529Y-110942771D01*
X152308686Y-110665445D01*
X151946788Y-110515172D01*
X151554931Y-110514830D01*
X151192771Y-110664471D01*
X151192241Y-110665000D01*
X149000000Y-110665000D01*
X148680460Y-110728560D01*
X148409566Y-110909566D01*
X148303859Y-111015273D01*
X147942771Y-111164471D01*
X147665445Y-111441314D01*
X147515172Y-111803212D01*
X147514830Y-112195069D01*
X147605703Y-112415000D01*
X147550596Y-112415000D01*
X147085000Y-111328610D01*
X147085000Y-103945069D01*
X149014830Y-103945069D01*
X149164471Y-104307229D01*
X149441314Y-104584555D01*
X149803212Y-104734828D01*
X149803961Y-104734829D01*
X150415000Y-105345868D01*
X150415000Y-106442386D01*
X150265172Y-106803212D01*
X150264830Y-107195069D01*
X150414471Y-107557229D01*
X150691314Y-107834555D01*
X151053212Y-107984828D01*
X151445069Y-107985170D01*
X151807229Y-107835529D01*
X152084555Y-107558686D01*
X152131732Y-107445069D01*
X155764830Y-107445069D01*
X155914471Y-107807229D01*
X156191314Y-108084555D01*
X156553212Y-108234828D01*
X156945069Y-108235170D01*
X157307229Y-108085529D01*
X157573165Y-107820057D01*
X158310111Y-107525278D01*
X158314457Y-107522450D01*
X158319541Y-107521439D01*
X158450839Y-107433708D01*
X158583191Y-107347589D01*
X158586123Y-107343314D01*
X158590434Y-107340434D01*
X158678160Y-107209142D01*
X158767486Y-107078923D01*
X158768559Y-107073851D01*
X158771439Y-107069541D01*
X158802250Y-106914645D01*
X158834937Y-106760181D01*
X158833988Y-106755087D01*
X158835000Y-106750000D01*
X158835000Y-104307614D01*
X158984828Y-103946788D01*
X158985170Y-103554931D01*
X158835529Y-103192771D01*
X158558686Y-102915445D01*
X158196788Y-102765172D01*
X157804931Y-102764830D01*
X157442771Y-102914471D01*
X157165445Y-103191314D01*
X157015172Y-103553212D01*
X157014830Y-103945069D01*
X157164471Y-104307229D01*
X157165000Y-104307759D01*
X157165000Y-106184678D01*
X156955117Y-106268631D01*
X156946788Y-106265172D01*
X156554931Y-106264830D01*
X156192771Y-106414471D01*
X155915445Y-106691314D01*
X155765172Y-107053212D01*
X155764830Y-107445069D01*
X152131732Y-107445069D01*
X152234828Y-107196788D01*
X152235170Y-106804931D01*
X152085529Y-106442771D01*
X152085000Y-106442241D01*
X152085000Y-105000000D01*
X152021439Y-104680459D01*
X151840434Y-104409566D01*
X150984727Y-103553859D01*
X150835529Y-103192771D01*
X150558686Y-102915445D01*
X150196788Y-102765172D01*
X149804931Y-102764830D01*
X149442771Y-102914471D01*
X149165445Y-103191314D01*
X149015172Y-103553212D01*
X149014830Y-103945069D01*
X147085000Y-103945069D01*
X147085000Y-96144219D01*
X147303212Y-96234828D01*
X147695069Y-96235170D01*
X148057229Y-96085529D01*
X148334555Y-95808686D01*
X148484828Y-95446788D01*
X148485170Y-95054931D01*
X148335529Y-94692771D01*
X148335000Y-94692241D01*
X148335000Y-93307614D01*
X148484828Y-92946788D01*
X148485170Y-92554931D01*
X148335529Y-92192771D01*
X148058686Y-91915445D01*
X147696788Y-91765172D01*
X147304931Y-91764830D01*
X147176775Y-91817783D01*
X147310811Y-90745494D01*
X147746847Y-89873423D01*
X147768684Y-89793683D01*
X147805577Y-89719703D01*
X147811291Y-89638097D01*
X147832899Y-89559192D01*
X147822559Y-89477167D01*
X147828333Y-89394698D01*
X147802382Y-89317115D01*
X147792150Y-89235950D01*
X147751209Y-89164129D01*
X147724983Y-89085724D01*
X147073181Y-87945069D01*
X149014830Y-87945069D01*
X149164471Y-88307229D01*
X149441314Y-88584555D01*
X149803212Y-88734828D01*
X149803961Y-88734829D01*
X150165000Y-89095868D01*
X150165000Y-89692386D01*
X150015172Y-90053212D01*
X150014830Y-90445069D01*
X150164471Y-90807229D01*
X150441314Y-91084555D01*
X150803212Y-91234828D01*
X151195069Y-91235170D01*
X151557229Y-91085529D01*
X151834555Y-90808686D01*
X151984828Y-90446788D01*
X151985170Y-90054931D01*
X151835529Y-89692771D01*
X151835000Y-89692241D01*
X151835000Y-88750000D01*
X151818510Y-88667101D01*
X151771440Y-88430460D01*
X151590434Y-88159566D01*
X150984727Y-87553859D01*
X150835529Y-87192771D01*
X150558686Y-86915445D01*
X150196788Y-86765172D01*
X149804931Y-86764830D01*
X149442771Y-86914471D01*
X149165445Y-87191314D01*
X149015172Y-87553212D01*
X149014830Y-87945069D01*
X147073181Y-87945069D01*
X146835000Y-87528254D01*
X146835000Y-86484856D01*
X147195069Y-86485170D01*
X147557229Y-86335529D01*
X147557759Y-86335000D01*
X155904132Y-86335000D01*
X156471664Y-86902532D01*
X156442771Y-86914471D01*
X156165445Y-87191314D01*
X156015172Y-87553212D01*
X156014830Y-87945069D01*
X156164471Y-88307229D01*
X156165000Y-88307759D01*
X156165000Y-91514258D01*
X156046788Y-91465172D01*
X155654931Y-91464830D01*
X155292771Y-91614471D01*
X155015445Y-91891314D01*
X154865172Y-92253212D01*
X154864830Y-92645069D01*
X154996150Y-92962889D01*
X154947406Y-94327714D01*
X154796788Y-94265172D01*
X154404931Y-94264830D01*
X154105517Y-94388545D01*
X151063407Y-94232539D01*
X150584727Y-93753859D01*
X150435529Y-93392771D01*
X150158686Y-93115445D01*
X149796788Y-92965172D01*
X149404931Y-92964830D01*
X149042771Y-93114471D01*
X148765445Y-93391314D01*
X148615172Y-93753212D01*
X148614830Y-94145069D01*
X148764471Y-94507229D01*
X149041314Y-94784555D01*
X149403212Y-94934828D01*
X149403961Y-94934829D01*
X150109566Y-95640434D01*
X150227563Y-95719277D01*
X150341369Y-95804061D01*
X150362413Y-95809380D01*
X150380460Y-95821439D01*
X150519651Y-95849126D01*
X150657236Y-95883904D01*
X154012793Y-96055984D01*
X154041314Y-96084555D01*
X154403212Y-96234828D01*
X154589930Y-96234991D01*
X153847365Y-98759710D01*
X153835000Y-98772054D01*
X153835000Y-98307614D01*
X153984828Y-97946788D01*
X153985170Y-97554931D01*
X153835529Y-97192771D01*
X153558686Y-96915445D01*
X153196788Y-96765172D01*
X152804931Y-96764830D01*
X152442771Y-96914471D01*
X152165445Y-97191314D01*
X152015172Y-97553212D01*
X152014830Y-97945069D01*
X152164471Y-98307229D01*
X152165000Y-98307759D01*
X152165000Y-100942386D01*
X152015172Y-101303212D01*
X152014830Y-101695069D01*
X152164471Y-102057229D01*
X152441314Y-102334555D01*
X152803212Y-102484828D01*
X153195069Y-102485170D01*
X153557229Y-102335529D01*
X153834555Y-102058686D01*
X153984828Y-101696788D01*
X153985170Y-101304931D01*
X153835529Y-100942771D01*
X153835000Y-100942241D01*
X153835000Y-100228056D01*
X153941314Y-100334555D01*
X154303212Y-100484828D01*
X154695069Y-100485170D01*
X155057229Y-100335529D01*
X155334555Y-100058686D01*
X155484828Y-99696788D01*
X155485170Y-99304931D01*
X155451621Y-99223736D01*
X156165000Y-96798247D01*
X156165000Y-99692386D01*
X156015172Y-100053212D01*
X156014830Y-100445069D01*
X156164471Y-100807229D01*
X156441314Y-101084555D01*
X156803212Y-101234828D01*
X157195069Y-101235170D01*
X157557229Y-101085529D01*
X157834555Y-100808686D01*
X157984828Y-100446788D01*
X157985170Y-100054931D01*
X157835529Y-99692771D01*
X157835000Y-99692241D01*
X157835000Y-88307614D01*
X157847249Y-88278117D01*
X158165000Y-88595868D01*
X158165000Y-97750000D01*
X158228561Y-98069541D01*
X158363466Y-98271440D01*
X158409566Y-98340434D01*
X162039957Y-101970825D01*
X161886884Y-104113834D01*
X161879021Y-104113827D01*
X160726129Y-104590192D01*
X159843292Y-105471489D01*
X159364915Y-106623548D01*
X159363827Y-107870979D01*
X159840192Y-109023871D01*
X160721489Y-109906708D01*
X161873548Y-110385085D01*
X163120979Y-110386173D01*
X164273871Y-109909808D01*
X165156708Y-109028511D01*
X165635085Y-107876452D01*
X165636173Y-106629021D01*
X165159808Y-105476129D01*
X164278511Y-104593292D01*
X163548543Y-104290183D01*
X163732878Y-101709491D01*
X163729117Y-101679573D01*
X163735000Y-101650000D01*
X163708919Y-101518882D01*
X163692245Y-101386233D01*
X163677321Y-101360031D01*
X163671439Y-101330460D01*
X163597169Y-101219306D01*
X163531000Y-101103133D01*
X163507186Y-101084637D01*
X163490434Y-101059566D01*
X160778336Y-98347468D01*
X160807229Y-98335529D01*
X161084555Y-98058686D01*
X161234828Y-97696788D01*
X161235117Y-97365325D01*
X161307229Y-97335529D01*
X161307759Y-97335000D01*
X162692386Y-97335000D01*
X163053212Y-97484828D01*
X163445069Y-97485170D01*
X163807229Y-97335529D01*
X164084555Y-97058686D01*
X164234828Y-96696788D01*
X164235170Y-96304931D01*
X164085529Y-95942771D01*
X163808686Y-95665445D01*
X163446788Y-95515172D01*
X163054931Y-95514830D01*
X162692771Y-95664471D01*
X162692241Y-95665000D01*
X161307614Y-95665000D01*
X160946788Y-95515172D01*
X160585000Y-95514856D01*
X160585000Y-94401948D01*
X163440571Y-93688056D01*
X163553212Y-93734828D01*
X163945069Y-93735170D01*
X164307229Y-93585529D01*
X164584555Y-93308686D01*
X164734828Y-92946788D01*
X164735170Y-92554931D01*
X164585529Y-92192771D01*
X164308686Y-91915445D01*
X163946788Y-91765172D01*
X163554931Y-91764830D01*
X163192771Y-91914471D01*
X163040233Y-92066744D01*
X161235071Y-92518034D01*
X161235170Y-92404931D01*
X161086280Y-92044588D01*
X162146141Y-90984727D01*
X162507229Y-90835529D01*
X162784555Y-90558686D01*
X162934828Y-90196788D01*
X162935170Y-89804931D01*
X162785529Y-89442771D01*
X162508686Y-89165445D01*
X162146788Y-89015172D01*
X161754931Y-89014830D01*
X161392771Y-89164471D01*
X161115445Y-89441314D01*
X160965172Y-89803212D01*
X160965171Y-89803961D01*
X159835000Y-90934132D01*
X159835000Y-88250000D01*
X159771439Y-87930459D01*
X159590434Y-87659566D01*
X156840434Y-84909566D01*
X156569541Y-84728561D01*
X156250000Y-84665000D01*
X147557614Y-84665000D01*
X147196788Y-84515172D01*
X146835000Y-84514856D01*
X146835000Y-81896304D01*
X147645963Y-81234415D01*
X147974436Y-81563461D01*
X148483298Y-81774759D01*
X149034285Y-81775240D01*
X149543515Y-81564831D01*
X149933461Y-81175564D01*
X150029976Y-80943130D01*
X150125169Y-81173515D01*
X150514436Y-81563461D01*
X151023298Y-81774759D01*
X151574285Y-81775240D01*
X152083515Y-81564831D01*
X152473461Y-81175564D01*
X152569976Y-80943130D01*
X152665169Y-81173515D01*
X153054436Y-81563461D01*
X153563298Y-81774759D01*
X154114285Y-81775240D01*
X154623515Y-81564831D01*
X155013461Y-81175564D01*
X155109976Y-80943130D01*
X155205169Y-81173515D01*
X155545000Y-81513939D01*
X155545000Y-83130000D01*
X155608561Y-83449541D01*
X155702703Y-83590434D01*
X155789566Y-83720434D01*
X160659566Y-88590434D01*
X160930459Y-88771439D01*
X161250000Y-88835000D01*
X163942386Y-88835000D01*
X164303212Y-88984828D01*
X164695069Y-88985170D01*
X165057229Y-88835529D01*
X165334555Y-88558686D01*
X165484828Y-88196788D01*
X165485170Y-87804931D01*
X165335529Y-87442771D01*
X165058686Y-87165445D01*
X164696788Y-87015172D01*
X164304931Y-87014830D01*
X163942771Y-87164471D01*
X163942241Y-87165000D01*
X161595868Y-87165000D01*
X158351431Y-83920563D01*
X158557229Y-83835529D01*
X158834555Y-83558686D01*
X158984828Y-83196788D01*
X158984829Y-83196039D01*
X160345868Y-81835000D01*
X161250000Y-81835000D01*
X161350336Y-81815042D01*
X161452517Y-81810069D01*
X161508652Y-81783551D01*
X161569541Y-81771439D01*
X161654602Y-81714603D01*
X161747101Y-81670906D01*
X161788814Y-81624925D01*
X161840434Y-81590434D01*
X161897269Y-81505375D01*
X161966007Y-81429604D01*
X162052307Y-81285771D01*
X162164471Y-81557229D01*
X162441314Y-81834555D01*
X162803212Y-81984828D01*
X163195069Y-81985170D01*
X163557229Y-81835529D01*
X163834555Y-81558686D01*
X163984828Y-81196788D01*
X163985140Y-80839385D01*
X164539075Y-79593030D01*
X164557229Y-79585529D01*
X164834555Y-79308686D01*
X164984828Y-78946788D01*
X164985170Y-78554931D01*
X164835529Y-78192771D01*
X164558686Y-77915445D01*
X164196788Y-77765172D01*
X163804931Y-77764830D01*
X163442771Y-77914471D01*
X163165445Y-78191314D01*
X163015172Y-78553212D01*
X163014860Y-78910615D01*
X162861511Y-79255651D01*
X162835529Y-79192771D01*
X162558686Y-78915445D01*
X162196788Y-78765172D01*
X161804931Y-78764830D01*
X161442771Y-78914471D01*
X161165445Y-79191314D01*
X161015172Y-79553212D01*
X161014984Y-79768745D01*
X160777231Y-80165000D01*
X160000000Y-80165000D01*
X159680459Y-80228561D01*
X159560544Y-80308686D01*
X159409566Y-80409566D01*
X157803859Y-82015273D01*
X157442771Y-82164471D01*
X157215000Y-82391845D01*
X157215000Y-81513436D01*
X157553461Y-81175564D01*
X157764759Y-80666702D01*
X157765240Y-80115715D01*
X157554831Y-79606485D01*
X157196411Y-79247440D01*
X158400000Y-79247440D01*
X158635317Y-79203162D01*
X158851441Y-79064090D01*
X158996431Y-78851890D01*
X159047440Y-78600000D01*
X159047440Y-77100000D01*
X159003162Y-76864683D01*
X158864090Y-76648559D01*
X158651890Y-76503569D01*
X158400000Y-76452560D01*
X156900000Y-76452560D01*
X156664683Y-76496838D01*
X156448559Y-76635910D01*
X156303569Y-76848110D01*
X156263645Y-77045262D01*
X155895564Y-76676539D01*
X155386702Y-76465241D01*
X154835715Y-76464760D01*
X154326485Y-76675169D01*
X153936539Y-77064436D01*
X153846623Y-77280979D01*
X153782460Y-77126077D01*
X153541517Y-77058088D01*
X152749605Y-77850000D01*
X153541517Y-78641912D01*
X153782460Y-78573923D01*
X153841732Y-78407379D01*
X153935169Y-78633515D01*
X154324436Y-79023461D01*
X154833298Y-79234759D01*
X155384285Y-79235240D01*
X155893515Y-79024831D01*
X156263080Y-78655909D01*
X156296838Y-78835317D01*
X156406040Y-79005022D01*
X156105715Y-79004760D01*
X155596485Y-79215169D01*
X155206539Y-79604436D01*
X155110024Y-79836870D01*
X155014831Y-79606485D01*
X154625564Y-79216539D01*
X154116702Y-79005241D01*
X153565715Y-79004760D01*
X153056485Y-79215169D01*
X152666539Y-79604436D01*
X152570024Y-79836870D01*
X152474831Y-79606485D01*
X152085564Y-79216539D01*
X151576702Y-79005241D01*
X151025715Y-79004760D01*
X150516485Y-79215169D01*
X150126539Y-79604436D01*
X150030024Y-79836870D01*
X149934831Y-79606485D01*
X149545564Y-79216539D01*
X149036702Y-79005241D01*
X148485715Y-79004760D01*
X147976485Y-79215169D01*
X147636061Y-79555000D01*
X147360000Y-79555000D01*
X147240775Y-79578715D01*
X147119768Y-79590304D01*
X147082189Y-79610260D01*
X147040459Y-79618561D01*
X146939388Y-79686095D01*
X146832024Y-79743110D01*
X145472024Y-80853110D01*
X145444943Y-80885928D01*
X145409566Y-80909566D01*
X145342030Y-81010641D01*
X145264660Y-81104400D01*
X145252200Y-81145081D01*
X145228561Y-81180459D01*
X145204845Y-81299686D01*
X145169245Y-81415915D01*
X145173301Y-81458268D01*
X145165000Y-81500000D01*
X144474377Y-81500000D01*
X144956708Y-81018511D01*
X145435085Y-79866452D01*
X145435996Y-78821517D01*
X149238088Y-78821517D01*
X149306077Y-79062460D01*
X149825171Y-79247201D01*
X150375448Y-79219230D01*
X150753923Y-79062460D01*
X150821912Y-78821517D01*
X151778088Y-78821517D01*
X151846077Y-79062460D01*
X152365171Y-79247201D01*
X152915448Y-79219230D01*
X153293923Y-79062460D01*
X153361912Y-78821517D01*
X152570000Y-78029605D01*
X151778088Y-78821517D01*
X150821912Y-78821517D01*
X150030000Y-78029605D01*
X149238088Y-78821517D01*
X145435996Y-78821517D01*
X145436173Y-78619021D01*
X145033787Y-77645171D01*
X148632799Y-77645171D01*
X148660770Y-78195448D01*
X148817540Y-78573923D01*
X149058483Y-78641912D01*
X149850395Y-77850000D01*
X150209605Y-77850000D01*
X151001517Y-78641912D01*
X151242460Y-78573923D01*
X151295642Y-78424489D01*
X151357540Y-78573923D01*
X151598483Y-78641912D01*
X152390395Y-77850000D01*
X151598483Y-77058088D01*
X151357540Y-77126077D01*
X151304358Y-77275511D01*
X151242460Y-77126077D01*
X151001517Y-77058088D01*
X150209605Y-77850000D01*
X149850395Y-77850000D01*
X149058483Y-77058088D01*
X148817540Y-77126077D01*
X148632799Y-77645171D01*
X145033787Y-77645171D01*
X144959808Y-77466129D01*
X144373188Y-76878483D01*
X149238088Y-76878483D01*
X150030000Y-77670395D01*
X150821912Y-76878483D01*
X151778088Y-76878483D01*
X152570000Y-77670395D01*
X153361912Y-76878483D01*
X153293923Y-76637540D01*
X152774829Y-76452799D01*
X152224552Y-76480770D01*
X151846077Y-76637540D01*
X151778088Y-76878483D01*
X150821912Y-76878483D01*
X150753923Y-76637540D01*
X150234829Y-76452799D01*
X149684552Y-76480770D01*
X149306077Y-76637540D01*
X149238088Y-76878483D01*
X144373188Y-76878483D01*
X144078511Y-76583292D01*
X142926452Y-76104915D01*
X141679021Y-76103827D01*
X140526129Y-76580192D01*
X139877000Y-77228189D01*
X139877000Y-71552606D01*
X141552606Y-69877000D01*
X145413831Y-69877000D01*
X145185730Y-70104703D01*
X145185730Y-70104703D01*
G37*
X145185730Y-70104703D02*
X144810428Y-71008529D01*
X144809574Y-71987177D01*
X145183298Y-72891657D01*
X145874703Y-73584270D01*
X146778529Y-73959572D01*
X147757177Y-73960426D01*
X148661657Y-73586702D01*
X149354270Y-72895297D01*
X149729572Y-71991471D01*
X149730426Y-71012823D01*
X149356702Y-70108343D01*
X149125762Y-69877000D01*
X157283831Y-69877000D01*
X157055730Y-70104703D01*
X156680428Y-71008529D01*
X156679574Y-71987177D01*
X157053298Y-72891657D01*
X157744703Y-73584270D01*
X158648529Y-73959572D01*
X159627177Y-73960426D01*
X160531657Y-73586702D01*
X160623000Y-73495518D01*
X160623000Y-76000000D01*
X160633006Y-76049410D01*
X160661447Y-76091035D01*
X160703841Y-76118315D01*
X160750000Y-76127000D01*
X165197394Y-76127000D01*
X166373000Y-77302606D01*
X166373000Y-120197394D01*
X165197394Y-121373000D01*
X145633860Y-121373000D01*
X145802070Y-118177000D01*
X146405270Y-118177000D01*
X146405270Y-119177760D01*
X146616378Y-119985072D01*
X147120361Y-120650144D01*
X147840493Y-121071724D01*
X148081328Y-121135745D01*
X148413140Y-121022795D01*
X148413140Y-118177000D01*
X146405270Y-118177000D01*
X145802070Y-118177000D01*
X145868110Y-116922240D01*
X146405270Y-116922240D01*
X146405270Y-117923000D01*
X148413140Y-117923000D01*
X148413140Y-115077205D01*
X148081328Y-114964255D01*
X147840493Y-115028276D01*
X147120361Y-115449856D01*
X146616378Y-116114928D01*
X146405270Y-116922240D01*
X145868110Y-116922240D01*
X145876824Y-116756675D01*
X145869429Y-116706807D01*
X145826200Y-116648400D01*
X144826200Y-115898400D01*
X144780668Y-115876759D01*
X144750000Y-115873000D01*
X140811039Y-115873000D01*
X139877000Y-114705452D01*
X139877000Y-107900000D01*
X141502560Y-107900000D01*
X141502560Y-109600000D01*
X141546838Y-109835317D01*
X141685910Y-110051441D01*
X141898110Y-110196431D01*
X142150000Y-110247440D01*
X143850000Y-110247440D01*
X144085317Y-110203162D01*
X144301441Y-110064090D01*
X144446431Y-109851890D01*
X144497440Y-109600000D01*
X144497440Y-107900000D01*
X144453162Y-107664683D01*
X144314090Y-107448559D01*
X144101890Y-107303569D01*
X143850000Y-107252560D01*
X142150000Y-107252560D01*
X141914683Y-107296838D01*
X141698559Y-107435910D01*
X141553569Y-107648110D01*
X141502560Y-107900000D01*
X139877000Y-107900000D01*
X139877000Y-107584821D01*
X140430907Y-107695000D01*
X140489093Y-107695000D01*
X141057378Y-107581961D01*
X141539147Y-107260054D01*
X141861054Y-106778285D01*
X141974093Y-106210000D01*
X141861054Y-105641715D01*
X141539147Y-105159946D01*
X141057378Y-104838039D01*
X140489093Y-104725000D01*
X140430907Y-104725000D01*
X139877000Y-104835179D01*
X139877000Y-103670000D01*
X141485907Y-103670000D01*
X141598946Y-104238285D01*
X141920853Y-104720054D01*
X142402622Y-105041961D01*
X142970907Y-105155000D01*
X143029093Y-105155000D01*
X143597378Y-105041961D01*
X144079147Y-104720054D01*
X144401054Y-104238285D01*
X144514093Y-103670000D01*
X144401054Y-103101715D01*
X144079147Y-102619946D01*
X143597378Y-102298039D01*
X143029093Y-102185000D01*
X142970907Y-102185000D01*
X142402622Y-102298039D01*
X141920853Y-102619946D01*
X141598946Y-103101715D01*
X141485907Y-103670000D01*
X139877000Y-103670000D01*
X139877000Y-91411093D01*
X140521489Y-92056708D01*
X141673548Y-92535085D01*
X142920979Y-92536173D01*
X144073871Y-92059808D01*
X144956708Y-91178511D01*
X145435085Y-90026452D01*
X145436173Y-88779021D01*
X144959808Y-87626129D01*
X144078511Y-86743292D01*
X142926452Y-86264915D01*
X141679021Y-86263827D01*
X140526129Y-86740192D01*
X139877000Y-87388189D01*
X139877000Y-81251093D01*
X140521489Y-81896708D01*
X141673548Y-82375085D01*
X142920979Y-82376173D01*
X144073871Y-81899808D01*
X144474377Y-81500000D01*
X145165000Y-81500000D01*
X145165000Y-87750000D01*
X145175384Y-87802206D01*
X145171667Y-87855302D01*
X145206895Y-87960619D01*
X145228561Y-88069541D01*
X145258132Y-88113797D01*
X145275017Y-88164276D01*
X146053303Y-89526277D01*
X145753153Y-90126577D01*
X145715904Y-90262596D01*
X145671448Y-90396431D01*
X145421448Y-92396431D01*
X145425214Y-92448651D01*
X145415000Y-92500000D01*
X145415000Y-111500000D01*
X145416011Y-111505084D01*
X145415062Y-111510180D01*
X145447757Y-111664677D01*
X145478561Y-111819541D01*
X145481441Y-111823851D01*
X145482514Y-111828923D01*
X146232514Y-113578922D01*
X146321826Y-113709122D01*
X146409566Y-113840434D01*
X146413877Y-113843314D01*
X146416809Y-113847589D01*
X146549161Y-113933708D01*
X146680459Y-114021439D01*
X146685543Y-114022450D01*
X146689889Y-114025278D01*
X146845105Y-114054189D01*
X147000000Y-114085000D01*
X150904132Y-114085000D01*
X151665000Y-114845868D01*
X151665000Y-115027487D01*
X150990419Y-115478228D01*
X150527637Y-116170830D01*
X150506417Y-116277511D01*
X150463902Y-116114928D01*
X149959919Y-115449856D01*
X149239787Y-115028276D01*
X148998952Y-114964255D01*
X148667140Y-115077205D01*
X148667140Y-117923000D01*
X148687140Y-117923000D01*
X148687140Y-118177000D01*
X148667140Y-118177000D01*
X148667140Y-121022795D01*
X148998952Y-121135745D01*
X149239787Y-121071724D01*
X149959919Y-120650144D01*
X150463902Y-119985072D01*
X150506417Y-119822489D01*
X150527637Y-119929170D01*
X150990419Y-120621772D01*
X151683021Y-121084554D01*
X152500000Y-121247061D01*
X153316979Y-121084554D01*
X154009581Y-120621772D01*
X154472363Y-119929170D01*
X154479930Y-119891128D01*
X154487497Y-119929170D01*
X154950279Y-120621772D01*
X155642881Y-121084554D01*
X156459860Y-121247061D01*
X157276839Y-121084554D01*
X157969441Y-120621772D01*
X158432223Y-119929170D01*
X158594730Y-119112191D01*
X158594730Y-118030979D01*
X159363827Y-118030979D01*
X159840192Y-119183871D01*
X160721489Y-120066708D01*
X161873548Y-120545085D01*
X163120979Y-120546173D01*
X164273871Y-120069808D01*
X165156708Y-119188511D01*
X165635085Y-118036452D01*
X165636173Y-116789021D01*
X165159808Y-115636129D01*
X164278511Y-114753292D01*
X163126452Y-114274915D01*
X161879021Y-114273827D01*
X160726129Y-114750192D01*
X159843292Y-115631489D01*
X159364915Y-116783548D01*
X159363827Y-118030979D01*
X158594730Y-118030979D01*
X158594730Y-116987809D01*
X158432223Y-116170830D01*
X157969441Y-115478228D01*
X157276839Y-115015446D01*
X156459860Y-114852939D01*
X155642881Y-115015446D01*
X154950279Y-115478228D01*
X154487497Y-116170830D01*
X154479930Y-116208872D01*
X154472363Y-116170830D01*
X154009581Y-115478228D01*
X153335000Y-115027487D01*
X153335000Y-114500000D01*
X153271439Y-114180459D01*
X153090434Y-113909566D01*
X151840434Y-112659566D01*
X151578954Y-112484850D01*
X151945069Y-112485170D01*
X152307229Y-112335529D01*
X152584555Y-112058686D01*
X152734828Y-111696788D01*
X152735170Y-111304931D01*
X152585529Y-110942771D01*
X152308686Y-110665445D01*
X151946788Y-110515172D01*
X151554931Y-110514830D01*
X151192771Y-110664471D01*
X151192241Y-110665000D01*
X149000000Y-110665000D01*
X148680460Y-110728560D01*
X148409566Y-110909566D01*
X148303859Y-111015273D01*
X147942771Y-111164471D01*
X147665445Y-111441314D01*
X147515172Y-111803212D01*
X147514830Y-112195069D01*
X147605703Y-112415000D01*
X147550596Y-112415000D01*
X147085000Y-111328610D01*
X147085000Y-103945069D01*
X149014830Y-103945069D01*
X149164471Y-104307229D01*
X149441314Y-104584555D01*
X149803212Y-104734828D01*
X149803961Y-104734829D01*
X150415000Y-105345868D01*
X150415000Y-106442386D01*
X150265172Y-106803212D01*
X150264830Y-107195069D01*
X150414471Y-107557229D01*
X150691314Y-107834555D01*
X151053212Y-107984828D01*
X151445069Y-107985170D01*
X151807229Y-107835529D01*
X152084555Y-107558686D01*
X152131732Y-107445069D01*
X155764830Y-107445069D01*
X155914471Y-107807229D01*
X156191314Y-108084555D01*
X156553212Y-108234828D01*
X156945069Y-108235170D01*
X157307229Y-108085529D01*
X157573165Y-107820057D01*
X158310111Y-107525278D01*
X158314457Y-107522450D01*
X158319541Y-107521439D01*
X158450839Y-107433708D01*
X158583191Y-107347589D01*
X158586123Y-107343314D01*
X158590434Y-107340434D01*
X158678160Y-107209142D01*
X158767486Y-107078923D01*
X158768559Y-107073851D01*
X158771439Y-107069541D01*
X158802250Y-106914645D01*
X158834937Y-106760181D01*
X158833988Y-106755087D01*
X158835000Y-106750000D01*
X158835000Y-104307614D01*
X158984828Y-103946788D01*
X158985170Y-103554931D01*
X158835529Y-103192771D01*
X158558686Y-102915445D01*
X158196788Y-102765172D01*
X157804931Y-102764830D01*
X157442771Y-102914471D01*
X157165445Y-103191314D01*
X157015172Y-103553212D01*
X157014830Y-103945069D01*
X157164471Y-104307229D01*
X157165000Y-104307759D01*
X157165000Y-106184678D01*
X156955117Y-106268631D01*
X156946788Y-106265172D01*
X156554931Y-106264830D01*
X156192771Y-106414471D01*
X155915445Y-106691314D01*
X155765172Y-107053212D01*
X155764830Y-107445069D01*
X152131732Y-107445069D01*
X152234828Y-107196788D01*
X152235170Y-106804931D01*
X152085529Y-106442771D01*
X152085000Y-106442241D01*
X152085000Y-105000000D01*
X152021439Y-104680459D01*
X151840434Y-104409566D01*
X150984727Y-103553859D01*
X150835529Y-103192771D01*
X150558686Y-102915445D01*
X150196788Y-102765172D01*
X149804931Y-102764830D01*
X149442771Y-102914471D01*
X149165445Y-103191314D01*
X149015172Y-103553212D01*
X149014830Y-103945069D01*
X147085000Y-103945069D01*
X147085000Y-96144219D01*
X147303212Y-96234828D01*
X147695069Y-96235170D01*
X148057229Y-96085529D01*
X148334555Y-95808686D01*
X148484828Y-95446788D01*
X148485170Y-95054931D01*
X148335529Y-94692771D01*
X148335000Y-94692241D01*
X148335000Y-93307614D01*
X148484828Y-92946788D01*
X148485170Y-92554931D01*
X148335529Y-92192771D01*
X148058686Y-91915445D01*
X147696788Y-91765172D01*
X147304931Y-91764830D01*
X147176775Y-91817783D01*
X147310811Y-90745494D01*
X147746847Y-89873423D01*
X147768684Y-89793683D01*
X147805577Y-89719703D01*
X147811291Y-89638097D01*
X147832899Y-89559192D01*
X147822559Y-89477167D01*
X147828333Y-89394698D01*
X147802382Y-89317115D01*
X147792150Y-89235950D01*
X147751209Y-89164129D01*
X147724983Y-89085724D01*
X147073181Y-87945069D01*
X149014830Y-87945069D01*
X149164471Y-88307229D01*
X149441314Y-88584555D01*
X149803212Y-88734828D01*
X149803961Y-88734829D01*
X150165000Y-89095868D01*
X150165000Y-89692386D01*
X150015172Y-90053212D01*
X150014830Y-90445069D01*
X150164471Y-90807229D01*
X150441314Y-91084555D01*
X150803212Y-91234828D01*
X151195069Y-91235170D01*
X151557229Y-91085529D01*
X151834555Y-90808686D01*
X151984828Y-90446788D01*
X151985170Y-90054931D01*
X151835529Y-89692771D01*
X151835000Y-89692241D01*
X151835000Y-88750000D01*
X151818510Y-88667101D01*
X151771440Y-88430460D01*
X151590434Y-88159566D01*
X150984727Y-87553859D01*
X150835529Y-87192771D01*
X150558686Y-86915445D01*
X150196788Y-86765172D01*
X149804931Y-86764830D01*
X149442771Y-86914471D01*
X149165445Y-87191314D01*
X149015172Y-87553212D01*
X149014830Y-87945069D01*
X147073181Y-87945069D01*
X146835000Y-87528254D01*
X146835000Y-86484856D01*
X147195069Y-86485170D01*
X147557229Y-86335529D01*
X147557759Y-86335000D01*
X155904132Y-86335000D01*
X156471664Y-86902532D01*
X156442771Y-86914471D01*
X156165445Y-87191314D01*
X156015172Y-87553212D01*
X156014830Y-87945069D01*
X156164471Y-88307229D01*
X156165000Y-88307759D01*
X156165000Y-91514258D01*
X156046788Y-91465172D01*
X155654931Y-91464830D01*
X155292771Y-91614471D01*
X155015445Y-91891314D01*
X154865172Y-92253212D01*
X154864830Y-92645069D01*
X154996150Y-92962889D01*
X154947406Y-94327714D01*
X154796788Y-94265172D01*
X154404931Y-94264830D01*
X154105517Y-94388545D01*
X151063407Y-94232539D01*
X150584727Y-93753859D01*
X150435529Y-93392771D01*
X150158686Y-93115445D01*
X149796788Y-92965172D01*
X149404931Y-92964830D01*
X149042771Y-93114471D01*
X148765445Y-93391314D01*
X148615172Y-93753212D01*
X148614830Y-94145069D01*
X148764471Y-94507229D01*
X149041314Y-94784555D01*
X149403212Y-94934828D01*
X149403961Y-94934829D01*
X150109566Y-95640434D01*
X150227563Y-95719277D01*
X150341369Y-95804061D01*
X150362413Y-95809380D01*
X150380460Y-95821439D01*
X150519651Y-95849126D01*
X150657236Y-95883904D01*
X154012793Y-96055984D01*
X154041314Y-96084555D01*
X154403212Y-96234828D01*
X154589930Y-96234991D01*
X153847365Y-98759710D01*
X153835000Y-98772054D01*
X153835000Y-98307614D01*
X153984828Y-97946788D01*
X153985170Y-97554931D01*
X153835529Y-97192771D01*
X153558686Y-96915445D01*
X153196788Y-96765172D01*
X152804931Y-96764830D01*
X152442771Y-96914471D01*
X152165445Y-97191314D01*
X152015172Y-97553212D01*
X152014830Y-97945069D01*
X152164471Y-98307229D01*
X152165000Y-98307759D01*
X152165000Y-100942386D01*
X152015172Y-101303212D01*
X152014830Y-101695069D01*
X152164471Y-102057229D01*
X152441314Y-102334555D01*
X152803212Y-102484828D01*
X153195069Y-102485170D01*
X153557229Y-102335529D01*
X153834555Y-102058686D01*
X153984828Y-101696788D01*
X153985170Y-101304931D01*
X153835529Y-100942771D01*
X153835000Y-100942241D01*
X153835000Y-100228056D01*
X153941314Y-100334555D01*
X154303212Y-100484828D01*
X154695069Y-100485170D01*
X155057229Y-100335529D01*
X155334555Y-100058686D01*
X155484828Y-99696788D01*
X155485170Y-99304931D01*
X155451621Y-99223736D01*
X156165000Y-96798247D01*
X156165000Y-99692386D01*
X156015172Y-100053212D01*
X156014830Y-100445069D01*
X156164471Y-100807229D01*
X156441314Y-101084555D01*
X156803212Y-101234828D01*
X157195069Y-101235170D01*
X157557229Y-101085529D01*
X157834555Y-100808686D01*
X157984828Y-100446788D01*
X157985170Y-100054931D01*
X157835529Y-99692771D01*
X157835000Y-99692241D01*
X157835000Y-88307614D01*
X157847249Y-88278117D01*
X158165000Y-88595868D01*
X158165000Y-97750000D01*
X158228561Y-98069541D01*
X158363466Y-98271440D01*
X158409566Y-98340434D01*
X162039957Y-101970825D01*
X161886884Y-104113834D01*
X161879021Y-104113827D01*
X160726129Y-104590192D01*
X159843292Y-105471489D01*
X159364915Y-106623548D01*
X159363827Y-107870979D01*
X159840192Y-109023871D01*
X160721489Y-109906708D01*
X161873548Y-110385085D01*
X163120979Y-110386173D01*
X164273871Y-109909808D01*
X165156708Y-109028511D01*
X165635085Y-107876452D01*
X165636173Y-106629021D01*
X165159808Y-105476129D01*
X164278511Y-104593292D01*
X163548543Y-104290183D01*
X163732878Y-101709491D01*
X163729117Y-101679573D01*
X163735000Y-101650000D01*
X163708919Y-101518882D01*
X163692245Y-101386233D01*
X163677321Y-101360031D01*
X163671439Y-101330460D01*
X163597169Y-101219306D01*
X163531000Y-101103133D01*
X163507186Y-101084637D01*
X163490434Y-101059566D01*
X160778336Y-98347468D01*
X160807229Y-98335529D01*
X161084555Y-98058686D01*
X161234828Y-97696788D01*
X161235117Y-97365325D01*
X161307229Y-97335529D01*
X161307759Y-97335000D01*
X162692386Y-97335000D01*
X163053212Y-97484828D01*
X163445069Y-97485170D01*
X163807229Y-97335529D01*
X164084555Y-97058686D01*
X164234828Y-96696788D01*
X164235170Y-96304931D01*
X164085529Y-95942771D01*
X163808686Y-95665445D01*
X163446788Y-95515172D01*
X163054931Y-95514830D01*
X162692771Y-95664471D01*
X162692241Y-95665000D01*
X161307614Y-95665000D01*
X160946788Y-95515172D01*
X160585000Y-95514856D01*
X160585000Y-94401948D01*
X163440571Y-93688056D01*
X163553212Y-93734828D01*
X163945069Y-93735170D01*
X164307229Y-93585529D01*
X164584555Y-93308686D01*
X164734828Y-92946788D01*
X164735170Y-92554931D01*
X164585529Y-92192771D01*
X164308686Y-91915445D01*
X163946788Y-91765172D01*
X163554931Y-91764830D01*
X163192771Y-91914471D01*
X163040233Y-92066744D01*
X161235071Y-92518034D01*
X161235170Y-92404931D01*
X161086280Y-92044588D01*
X162146141Y-90984727D01*
X162507229Y-90835529D01*
X162784555Y-90558686D01*
X162934828Y-90196788D01*
X162935170Y-89804931D01*
X162785529Y-89442771D01*
X162508686Y-89165445D01*
X162146788Y-89015172D01*
X161754931Y-89014830D01*
X161392771Y-89164471D01*
X161115445Y-89441314D01*
X160965172Y-89803212D01*
X160965171Y-89803961D01*
X159835000Y-90934132D01*
X159835000Y-88250000D01*
X159771439Y-87930459D01*
X159590434Y-87659566D01*
X156840434Y-84909566D01*
X156569541Y-84728561D01*
X156250000Y-84665000D01*
X147557614Y-84665000D01*
X147196788Y-84515172D01*
X146835000Y-84514856D01*
X146835000Y-81896304D01*
X147645963Y-81234415D01*
X147974436Y-81563461D01*
X148483298Y-81774759D01*
X149034285Y-81775240D01*
X149543515Y-81564831D01*
X149933461Y-81175564D01*
X150029976Y-80943130D01*
X150125169Y-81173515D01*
X150514436Y-81563461D01*
X151023298Y-81774759D01*
X151574285Y-81775240D01*
X152083515Y-81564831D01*
X152473461Y-81175564D01*
X152569976Y-80943130D01*
X152665169Y-81173515D01*
X153054436Y-81563461D01*
X153563298Y-81774759D01*
X154114285Y-81775240D01*
X154623515Y-81564831D01*
X155013461Y-81175564D01*
X155109976Y-80943130D01*
X155205169Y-81173515D01*
X155545000Y-81513939D01*
X155545000Y-83130000D01*
X155608561Y-83449541D01*
X155702703Y-83590434D01*
X155789566Y-83720434D01*
X160659566Y-88590434D01*
X160930459Y-88771439D01*
X161250000Y-88835000D01*
X163942386Y-88835000D01*
X164303212Y-88984828D01*
X164695069Y-88985170D01*
X165057229Y-88835529D01*
X165334555Y-88558686D01*
X165484828Y-88196788D01*
X165485170Y-87804931D01*
X165335529Y-87442771D01*
X165058686Y-87165445D01*
X164696788Y-87015172D01*
X164304931Y-87014830D01*
X163942771Y-87164471D01*
X163942241Y-87165000D01*
X161595868Y-87165000D01*
X158351431Y-83920563D01*
X158557229Y-83835529D01*
X158834555Y-83558686D01*
X158984828Y-83196788D01*
X158984829Y-83196039D01*
X160345868Y-81835000D01*
X161250000Y-81835000D01*
X161350336Y-81815042D01*
X161452517Y-81810069D01*
X161508652Y-81783551D01*
X161569541Y-81771439D01*
X161654602Y-81714603D01*
X161747101Y-81670906D01*
X161788814Y-81624925D01*
X161840434Y-81590434D01*
X161897269Y-81505375D01*
X161966007Y-81429604D01*
X162052307Y-81285771D01*
X162164471Y-81557229D01*
X162441314Y-81834555D01*
X162803212Y-81984828D01*
X163195069Y-81985170D01*
X163557229Y-81835529D01*
X163834555Y-81558686D01*
X163984828Y-81196788D01*
X163985140Y-80839385D01*
X164539075Y-79593030D01*
X164557229Y-79585529D01*
X164834555Y-79308686D01*
X164984828Y-78946788D01*
X164985170Y-78554931D01*
X164835529Y-78192771D01*
X164558686Y-77915445D01*
X164196788Y-77765172D01*
X163804931Y-77764830D01*
X163442771Y-77914471D01*
X163165445Y-78191314D01*
X163015172Y-78553212D01*
X163014860Y-78910615D01*
X162861511Y-79255651D01*
X162835529Y-79192771D01*
X162558686Y-78915445D01*
X162196788Y-78765172D01*
X161804931Y-78764830D01*
X161442771Y-78914471D01*
X161165445Y-79191314D01*
X161015172Y-79553212D01*
X161014984Y-79768745D01*
X160777231Y-80165000D01*
X160000000Y-80165000D01*
X159680459Y-80228561D01*
X159560544Y-80308686D01*
X159409566Y-80409566D01*
X157803859Y-82015273D01*
X157442771Y-82164471D01*
X157215000Y-82391845D01*
X157215000Y-81513436D01*
X157553461Y-81175564D01*
X157764759Y-80666702D01*
X157765240Y-80115715D01*
X157554831Y-79606485D01*
X157196411Y-79247440D01*
X158400000Y-79247440D01*
X158635317Y-79203162D01*
X158851441Y-79064090D01*
X158996431Y-78851890D01*
X159047440Y-78600000D01*
X159047440Y-77100000D01*
X159003162Y-76864683D01*
X158864090Y-76648559D01*
X158651890Y-76503569D01*
X158400000Y-76452560D01*
X156900000Y-76452560D01*
X156664683Y-76496838D01*
X156448559Y-76635910D01*
X156303569Y-76848110D01*
X156263645Y-77045262D01*
X155895564Y-76676539D01*
X155386702Y-76465241D01*
X154835715Y-76464760D01*
X154326485Y-76675169D01*
X153936539Y-77064436D01*
X153846623Y-77280979D01*
X153782460Y-77126077D01*
X153541517Y-77058088D01*
X152749605Y-77850000D01*
X153541517Y-78641912D01*
X153782460Y-78573923D01*
X153841732Y-78407379D01*
X153935169Y-78633515D01*
X154324436Y-79023461D01*
X154833298Y-79234759D01*
X155384285Y-79235240D01*
X155893515Y-79024831D01*
X156263080Y-78655909D01*
X156296838Y-78835317D01*
X156406040Y-79005022D01*
X156105715Y-79004760D01*
X155596485Y-79215169D01*
X155206539Y-79604436D01*
X155110024Y-79836870D01*
X155014831Y-79606485D01*
X154625564Y-79216539D01*
X154116702Y-79005241D01*
X153565715Y-79004760D01*
X153056485Y-79215169D01*
X152666539Y-79604436D01*
X152570024Y-79836870D01*
X152474831Y-79606485D01*
X152085564Y-79216539D01*
X151576702Y-79005241D01*
X151025715Y-79004760D01*
X150516485Y-79215169D01*
X150126539Y-79604436D01*
X150030024Y-79836870D01*
X149934831Y-79606485D01*
X149545564Y-79216539D01*
X149036702Y-79005241D01*
X148485715Y-79004760D01*
X147976485Y-79215169D01*
X147636061Y-79555000D01*
X147360000Y-79555000D01*
X147240775Y-79578715D01*
X147119768Y-79590304D01*
X147082189Y-79610260D01*
X147040459Y-79618561D01*
X146939388Y-79686095D01*
X146832024Y-79743110D01*
X145472024Y-80853110D01*
X145444943Y-80885928D01*
X145409566Y-80909566D01*
X145342030Y-81010641D01*
X145264660Y-81104400D01*
X145252200Y-81145081D01*
X145228561Y-81180459D01*
X145204845Y-81299686D01*
X145169245Y-81415915D01*
X145173301Y-81458268D01*
X145165000Y-81500000D01*
X144474377Y-81500000D01*
X144956708Y-81018511D01*
X145435085Y-79866452D01*
X145435996Y-78821517D01*
X149238088Y-78821517D01*
X149306077Y-79062460D01*
X149825171Y-79247201D01*
X150375448Y-79219230D01*
X150753923Y-79062460D01*
X150821912Y-78821517D01*
X151778088Y-78821517D01*
X151846077Y-79062460D01*
X152365171Y-79247201D01*
X152915448Y-79219230D01*
X153293923Y-79062460D01*
X153361912Y-78821517D01*
X152570000Y-78029605D01*
X151778088Y-78821517D01*
X150821912Y-78821517D01*
X150030000Y-78029605D01*
X149238088Y-78821517D01*
X145435996Y-78821517D01*
X145436173Y-78619021D01*
X145033787Y-77645171D01*
X148632799Y-77645171D01*
X148660770Y-78195448D01*
X148817540Y-78573923D01*
X149058483Y-78641912D01*
X149850395Y-77850000D01*
X150209605Y-77850000D01*
X151001517Y-78641912D01*
X151242460Y-78573923D01*
X151295642Y-78424489D01*
X151357540Y-78573923D01*
X151598483Y-78641912D01*
X152390395Y-77850000D01*
X151598483Y-77058088D01*
X151357540Y-77126077D01*
X151304358Y-77275511D01*
X151242460Y-77126077D01*
X151001517Y-77058088D01*
X150209605Y-77850000D01*
X149850395Y-77850000D01*
X149058483Y-77058088D01*
X148817540Y-77126077D01*
X148632799Y-77645171D01*
X145033787Y-77645171D01*
X144959808Y-77466129D01*
X144373188Y-76878483D01*
X149238088Y-76878483D01*
X150030000Y-77670395D01*
X150821912Y-76878483D01*
X151778088Y-76878483D01*
X152570000Y-77670395D01*
X153361912Y-76878483D01*
X153293923Y-76637540D01*
X152774829Y-76452799D01*
X152224552Y-76480770D01*
X151846077Y-76637540D01*
X151778088Y-76878483D01*
X150821912Y-76878483D01*
X150753923Y-76637540D01*
X150234829Y-76452799D01*
X149684552Y-76480770D01*
X149306077Y-76637540D01*
X149238088Y-76878483D01*
X144373188Y-76878483D01*
X144078511Y-76583292D01*
X142926452Y-76104915D01*
X141679021Y-76103827D01*
X140526129Y-76580192D01*
X139877000Y-77228189D01*
X139877000Y-71552606D01*
X141552606Y-69877000D01*
X145413831Y-69877000D01*
X145185730Y-70104703D01*
M02*
